<svg xmlns="http://www.w3.org/2000/svg" width="500" height="500" fill="none" viewBox="0 0 500 500">
  <path fill="#EBEBEB" d="M8.206 144.504c4.487-.071 15.826-.256 20.165-.299h7.128v8.627h-.355l-13.49-.049c-3.359 0-10.125-.1-13.49-.15H8v-.156l.163-7.945.043-.028Zm0 0 .128 7.945-.156-.164c3.365-.042 10.117-.113 13.49-.142l13.49-.049-.355.355v-7.945l.327.326h-6.688c-4.26-.042-15.862-.22-20.279-.291l.043-.035Z"/>
  <path fill="#EBEBEB" d="M34.44 132v119.05h82.008V132H34.439Zm78.962 116.019H37.464V135.032h75.973l-.035 112.987Z"/>
  <path fill="#EBEBEB" d="M37.464 196.584h75.938v-3.025H37.464v3.025Z"/>
  <path fill="#DBDBDB" d="M28.873 259.727H122v-8.684H28.873v8.684Zm8.591-124.702h75.973v77.684H37.464v-77.684Zm73.133 2.804H40.262v72.089h70.342l-.007-72.089Z"/>
  <path fill="#DBDBDB" d="M89.168 135.025h-1.512v74.893h1.512v-74.893Zm-25.958 0h-1.513v74.893h1.513v-74.893Z"/>
  <path fill="#EBEBEB" d="M186.007 134.007c8.653-8.654 8.653-22.684 0-31.338-8.654-8.654-22.684-8.654-31.338 0s-8.654 22.684 0 31.338c8.654 8.653 22.684 8.653 31.338 0Z"/>
  <path fill="#DBDBDB" d="M190.959 126.713c4.356-10.831-.893-23.142-11.724-27.499-10.831-4.356-23.142.893-27.499 11.724-4.356 10.831.893 23.143 11.724 27.499 10.831 4.356 23.143-.893 27.499-11.724Z"/>
  <path fill="#fff" d="M172.973 138.574c10.901-.898 19.009-10.463 18.111-21.363-.898-10.901-10.463-19.01-21.363-18.111-10.901.898-19.009 10.462-18.111 21.363.898 10.9 10.463 19.009 21.363 18.111Z"/>
  <path fill="#EBEBEB" d="M190.714 114.627c-9.019 5.464-23.851 14.43-32.132 19.379a19.81 19.81 0 0 1-5.411-7.274l27.399-25.394a19.827 19.827 0 0 1 10.144 13.289Zm.432 4.927a19.607 19.607 0 0 1-1.312 6.432l-24.7 11.687a21.055 21.055 0 0 1-3.123-1.341c7.468-4.346 21.1-12.187 29.135-16.778Z" opacity=".5"/>
  <path fill="#C7C7C7" d="M171.544 100.458h-.381v3.004h.381v-3.004Zm-9.218 2.354-.329.19 1.502 2.602.329-.191-1.502-2.601Zm-6.793 6.663-.19.329 2.601 1.502.19-.329-2.601-1.502Zm.455 9.162h-3.004v.38h3.004v-.38Zm1.964 7.718-2.601 1.502.19.329 2.601-1.502-.19-.329Zm5.544 5.672-1.501 2.603.33.189 1.5-2.602-.329-.19Zm8.048 2.173h-.381v3.004h.381V134.2Zm7.651-2.159-.329.19 1.502 2.601.329-.19-1.502-2.601Zm5.576-5.68-.19.33 2.601 1.502.19-.329-2.601-1.503Zm4.952-7.724h-3.004v.38h3.004v-.38Zm-2.559-9.174-2.6 1.503.19.329 2.601-1.503-.191-.329Zm-6.796-6.65-1.501 2.602.329.19 1.501-2.602-.329-.19Z"/>
  <path fill="#C7C7C7" d="m171.64 101.822.656 18.343-1.885-.022.723-18.328.506.007Z"/>
  <path fill="#A6A6A6" d="m183.067 112.429-12.343 7.885-.895-1.654 12.999-6.679.239.448Z"/>
  <path fill="#C7C7C7" d="M172.035 118.809a.648.648 0 1 1-1.295.017.648.648 0 0 1 1.295-.017Z"/>
  <path fill="#EBEBEB" d="M243.491 180.994V140h52.919v40.994h-52.919Z"/>
  <path fill="#fff" d="M247.217 176.522v-32.05h44.721v32.05h-44.721Z"/>
  <path fill="#EBEBEB" d="M255.416 170.559v-20.87h29.069v20.87h-29.069Z"/>
  <path fill="#DBDBDB" d="M242 140h1.491v40.994H242V140Zm49.193 4.472h.745v32.05h-.745v-32.05Z"/>
  <path fill="#C7C7C7" d="M253.926 168.323a3.725 3.725 0 0 0 6.361 2.635 3.725 3.725 0 0 0-2.635-6.362 3.727 3.727 0 0 0-3.726 3.727Z"/>
  <path fill="#EBEBEB" d="m305.487 224.937-9.786.209-4.964.082c-1.655 0-3.324 0-4.987.045h-.335v-.336l-.037-8.34v-.373h.38l9.868.045c3.287 0 6.574.089 9.869.126h.201v.202c0 1.416-.067 2.825-.097 4.211l-.112 4.129Zm0 0-.104-4.241c0-1.394-.09-2.765-.104-4.129l.208.201c-3.294 0-6.581.119-9.868.127l-9.869.045.373-.373-.045 8.34-.328-.335c1.625 0 3.243 0 4.875.045l4.904.082 9.958.238Zm-11.008 10.517-9.787.209-4.964.082c-1.662.037-3.324 0-4.986.037h-.336v-9.049h.38l9.869.045c3.287 0 6.574.09 9.868.127h.127v.201c0 1.416-.067 2.825-.097 4.211l-.074 4.137Zm0 0-.112-4.211c0-1.394-.082-2.766-.097-4.13l.209.202c-3.295.037-6.582.119-9.869.126l-9.868.045.365-.373v8.341l-.328-.335c1.625 0 3.242 0 4.875.044l4.904.082 9.921.209Zm-10.972-10.517-9.779.209-4.964.082c-1.662 0-3.332 0-4.994.045h-.328v-.336l-.044-8.34v-.373h.372l9.869.045c3.294 0 6.581.089 9.868.126h.209v.202c0 1.416-.06 2.825-.097 4.211l-.112 4.129Zm0 0-.104-4.211c-.038-1.394-.082-2.765-.097-4.129l.201.201c-3.287 0-6.574.119-9.868.127l-9.869.044.373-.372-.052 8.34-.336-.335c1.625 0 3.25 0 4.882.044l4.905.082 9.965.209Z"/>
  <path fill="#C7C7C7" d="M269.387 252.421h-50.925v10.545h50.925v-10.545Z"/>
  <path fill="#C7C7C7" d="m232.127 262.884-1.427 13.473-17.603 126.168h-5.03l13.89-126.168 1.133-13.473h9.037Zm47.668 139.641h-5.044l-17.602-126.168-1.427-13.473h9.037l1.133 13.473 13.903 126.168Z"/>
  <path fill="#C7C7C7" d="M271.298 346.003h-56.173v3.167h56.173v-3.167Z"/>
  <path fill="#A6A6A6" d="M221.957 275.879h8.743l1.427-12.995h-9.037l-1.133 12.995Zm43.935 0h-8.743l-1.427-12.995h9.037l1.133 12.995Z"/>
  <path fill="#EB9481" d="M199.14 364.234c1.706-.211 43.778-20.278 44.897-22.053.43-.682-2.136-6.968-5.46-14.497a474.268 474.268 0 0 0-2.239-4.989c-4.989-11.01-10.538-22.572-10.538-22.572l-28.182 13.337 11.316 22.21 2.478 4.873s-12.675 14.886-13.692 16.968c-1.017 2.082-.287 6.928 1.42 6.723Z"/>
  <path fill="#fff" d="M199.14 364.234c1.706-.211 43.778-20.278 44.897-22.053.519-.826-3.372-9.951-7.685-19.486l-27.404 12.968 2.477 4.873s-12.675 14.887-13.692 16.968c-1.016 2.082-.3 6.935 1.407 6.73Z"/>
  <path fill="#BF1B1B" d="M199.14 364.234c1.706-.211 43.778-20.278 44.897-22.053.43-.682-2.136-6.968-5.46-14.497l-27.165 12.859s-12.675 14.886-13.692 16.968c-1.017 2.082-.287 6.928 1.42 6.723Z"/>
  <path fill="#263238" d="M198.948 362.262c6.969-3.536 35.417-17.146 42.577-20.108.055 0 .075 0 0 .041-6.825 3.658-35.389 17.063-42.542 20.183-.137.068-.191-.041-.035-.116Zm.765-7.549a6.29 6.29 0 0 1 5.044-.294 6.09 6.09 0 0 1 3.372 3.017c0 .041-.062.082-.089.041a7.248 7.248 0 0 0-8.279-2.676c-.062.021-.13-.061-.048-.088Zm9.31-12.163c2.805-1.365 6.552-1.952 9.405-.478.109.055 0 .212-.075.212a43.036 43.036 0 0 0-9.214.634.196.196 0 0 1-.206-.137.2.2 0 0 1 .004-.132.203.203 0 0 1 .086-.099Zm-1.775 1.89c2.805-1.365 6.553-1.952 9.406-.477.116.054 0 .211-.076.211a42.977 42.977 0 0 0-9.214.635.196.196 0 0 1-.127-.033.196.196 0 0 1-.074-.236.198.198 0 0 1 .085-.1Zm-1.774 1.891c2.805-1.365 6.552-1.952 9.405-.478.116.055 0 .212-.075.205a43.427 43.427 0 0 0-9.214.642.196.196 0 0 1-.206-.138.196.196 0 0 1 .09-.231Zm-1.748 1.884c2.805-1.365 6.553-1.945 9.412-.478.11.062 0 .219-.081.212a43.506 43.506 0 0 0-9.215.641.197.197 0 0 1-.116-.375Zm14.074-73.032c.273 8.013 20.927 50.747 20.927 50.747l-29.759 13.248s-24.414-47.375-22.387-65.114c1.734-15.05 27.397-30.844 44.365-48.706h25.179c-9.392 19.923-36.127 41.812-38.222 48.829a3.156 3.156 0 0 0-.082.983l-.021.013Z"/>
  <path fill="#37474F" d="M209.187 333.363c4.887-2.328 3.453-1.727 8.361-4 2.395-1.119 14.449-6.743 16.865-7.412a.054.054 0 0 1 .033.007c.01.006.018.015.022.026.005.01.006.022.004.033a.052.052 0 0 1-.018.029c-2.088 1.365-14.265 6.744-16.681 7.809-4.949 2.191-3.549 1.508-8.525 3.644a.075.075 0 0 1-.055-.001.075.075 0 0 1-.042-.093.074.074 0 0 1 .036-.042Zm40.692-103.794a258.24 258.24 0 0 1-24.817 32.032c-2.225 2.43-9.385 9.371-9.869 12.217-.539 3.174.682 6.334 1.693 9.29 1.085 3.255 2.177 6.511 3.33 9.746 1.249 3.488 2.574 6.948 4.055 10.341.757 1.733 5.371 10.238 6.218 11.958.423.846.853 1.686 1.296 2.525l2.048 3.72c.075.136.28.307.082-.048-.423-.785-2.177-4.047-2.58-4.853-1.577-3.16-6.791-13.207-8.102-16.483-1.31-3.276-2.546-6.689-3.706-10.074-1.16-3.386-2.348-6.689-3.338-10.081a14.215 14.215 0 0 1-.716-5.372c.184-1.781 5.269-7.685 7.508-10.108a244.245 244.245 0 0 0 13.439-15.699 224.694 224.694 0 0 0 13.548-19.111.045.045 0 0 0 .003-.023.034.034 0 0 0-.008-.021.044.044 0 0 0-.017-.016.054.054 0 0 0-.022-.005.06.06 0 0 0-.023.005.064.064 0 0 0-.017.016.054.054 0 0 0-.008.021c0 .008.001.016.003.023Z"/>
  <path fill="#EB9481" d="M216.927 402.627c1.631.539 48.241.403 50.016-.724.683-.423 1.051-7.214 1.27-15.432.047-1.774.088-3.61.116-5.46.204-12.088.102-23.493.102-23.493h-31.178l.757 23.493.15 5.46s-17.821 8.034-19.636 9.481c-1.816 1.447-3.195 6.136-1.597 6.675Z"/>
  <path fill="#fff" d="M216.927 402.627c1.631.539 48.241.403 50.016-.724.819-.525 1.201-10.436 1.365-20.899H238.01l.15 5.46s-17.821 8.034-19.636 9.481c-1.816 1.447-3.195 6.143-1.597 6.682Z"/>
  <path fill="#BF1B1B" d="M216.927 402.627c1.098.307 49.183.546 50.016-.164.607-.519 1.051-7.774 1.27-15.992h-30.032s-17.821 8.034-19.637 9.481c-1.815 1.447-3.276 6.211-1.617 6.675Z"/>
  <path fill="#263238" d="M217.589 400.757c7.815-.212 39.348-.342 47.095.041.061 0 .061.047 0 .047-7.74.383-39.273.253-47.095.041-.164 0-.164-.122 0-.129Zm3.931-6.491a6.254 6.254 0 0 1 4.675 1.89 6.1 6.1 0 0 1 1.761 4.171c0 .047-.088.047-.095 0a7.254 7.254 0 0 0-6.341-5.966.048.048 0 0 1-.034-.081.048.048 0 0 1 .034-.014Zm13.603-7.03c3.126-.055 6.75 1.037 8.702 3.59.075.102-.061.205-.157.157a43.453 43.453 0 0 0-8.6-3.365.198.198 0 0 1 .055-.382Zm-2.403.969c3.126-.055 6.758 1.037 8.71 3.59.075.102-.069.205-.157.157a43.453 43.453 0 0 0-8.6-3.365.187.187 0 0 1-.128-.073.19.19 0 0 1 .033-.27.197.197 0 0 1 .142-.039Zm-2.375.949c3.126-.055 6.757 1.037 8.709 3.59.076.102-.068.204-.163.157a43.477 43.477 0 0 0-8.6-3.365.194.194 0 0 1-.1-.085.197.197 0 0 1 .035-.244.189.189 0 0 1 .119-.053Zm-2.443.948c3.126-.054 6.75 1.038 8.702 3.59.075.103-.061.205-.157.157a43.51 43.51 0 0 0-8.6-3.364.198.198 0 0 1 .055-.383Zm7.378-4.061 35.581-.443s-9.781-126.27-7.235-130.898c3.897-7.044 6.593-16.572 1.201-29.404h-27.54s1.453 13.699 1.324 14.266c-8.45 36.932-3.331 146.479-3.331 146.479Z"/>
  <path fill="#37474F" d="M236.952 379.857c7.078-.525 29.199-.682 31.554-.361a.054.054 0 1 1 0 .109c-2.334.444-13.972.682-31.554.403a.075.075 0 0 1-.075-.076.075.075 0 0 1 .075-.075Zm-.164-152.779c.273 3.488.137 9.439 2.15 9.555 2.014.117 1.666-7.187 1.72-8.873.055-1.522.574-1.31.628.478.157 4.853.034 9.133-2.546 8.935-2.58-.198-2.559-7.72-2.498-9.44.035-.894.458-1.754.546-.655Z"/>
  <path fill="#37474F" d="M238.809 236.845a15.242 15.242 0 0 1-.075 3.672c0 .096-.424 0-.464-.061-.239-.505-.048-2.887-.117-3.529a.332.332 0 0 1 .531-.302.332.332 0 0 1 .125.22Z"/>
  <path fill="#37474F" d="M237.956 241.131c-.86 3.051-1.741 8.873-1.536 10.423 0 .136.232.184.252.041.28-1.638 1.495-9.501 1.618-10.327.123-.826-.096-.983-.334-.137Z"/>
  <path fill="#37474F" d="M243.252 243.541a10.196 10.196 0 0 0-1.283-1.092c-.451-.355-.908-.683-1.365-1.031-.956-.682-1.945-1.29-2.949-1.884a53.952 53.952 0 0 0-3.01-1.638c-1.017-.519-2.204-.942-3.276-1.481-.061-.034-.116.055-.055.089 1.017.559 1.952 1.262 2.942 1.877.99.614 1.966 1.256 2.956 1.87.989.614 1.924 1.222 2.894 1.815.511.314 1.023.615 1.542.922.466.301.951.571 1.454.805.143.069.246-.15.15-.252Zm21.459 112.735a840.547 840.547 0 0 1-1.235-14.798c-.751-9.869-1.365-17.063-1.802-26.946-.437-9.884-.744-19.794-.888-29.691-.075-4.948-1.487-24.298-1.228-29.206.13-2.491 4.518-4.416 5.412-11.685a27.618 27.618 0 0 0-.962-12.333 27.213 27.213 0 0 0-1.099-2.853c0-.062-.123 0-.095.054a27.03 27.03 0 0 1 2.129 12.969 22.018 22.018 0 0 1-1.365 6.518c-1.181 2.928-4.095 5.31-4.238 6.866-.226 2.321 1.365 46.474 1.815 56.317.451 9.842.976 16.981 1.7 26.81.723 9.828 1.59 26.168 2.621 35.969.116 1.12.245 2.239.409 3.359 0 .122.225.095.218 0-.327-4.976-.948-16.422-1.392-21.35Z"/>
  <path fill="#EB9481" d="M238.693 188.494c-3.57 8.074-20.729 26.701-27.459 27.943-4.86.894-22.797-10.675-27.984-14.818-4.976-4.006 8.675-18.135 11.76-15.985 4.355 3.031 14.19 12.102 16.122 12.183 1.365.062 9.05-4.777 20.817-13.65 6.539-4.874 8.866-.485 6.744 4.327Z"/>
  <path fill="#EB9481" d="M173.579 194.978c2.73 3.194 10.818 7.563 13.179 7.863 2.362.3 10.238-13.234 9.324-15.494-.915-2.259-10.887-12.285-15.084-13.132-4.198-.846-10.232 17.453-7.419 20.763Z"/>
  <path fill="#EB9481" d="M194.683 185.334a34.791 34.791 0 0 1-1.775-9.952c0-4.04.498-10.033-1.672-10.128-4.457-.185-5.659 14.77-5.659 14.77s.533 6.682 4.928 7.255a4.407 4.407 0 0 0 4.178-1.945Z"/>
  <path fill="#EB9481" d="M187.202 176.768c.355 2.191-2.43 1.365-2.43 1.365s3.72 2.177 3.208 4.573c-.512 2.396-3.829 1.188-4.095 1.106.198.116 3.563 2.204 2.805 4.566-.758 2.362-3.945.744-4.15.628.157.171 2.102 2.43 1.12 4.095-1.7 2.86-6.826-2.778-9.556-2.785 0 0-.539 4.553-.58 4.683 0 0-5.003-5.263-4.778-8.873a2.333 2.333 0 0 1 1.918-2.185s-1.802-1.522-1.263-3.412c.28-.963 2.048-1.365 2.048-1.365a2.915 2.915 0 0 1-.812-2.915c.464-1.31 2.191-1.515 2.191-1.515s-.772-1.843.136-3.03c1.891-2.423 13.474.368 14.238 5.064Z"/>
  <path fill="#263238" d="M173.162 174.632c-.041 0-.041-.062 0-.062a20.647 20.647 0 0 1 11.76 3.577c.11.082 0 .293-.102.225a42.254 42.254 0 0 0-11.658-3.74Zm-1.699 4.47c-.048 0-.035-.082 0-.082a19.326 19.326 0 0 1 12.586 4.703c.123.109.123.328 0 .212-2.485-1.939-8.778-4.253-12.586-4.833Zm11.275 10.197c-3.453-2.921-7.508-4.436-11.862-5.405-.055 0 0-.089 0-.089 2.266-.116 4.989.792 7.05 1.679a11.97 11.97 0 0 1 4.894 3.699c.068.062-.007.178-.082.116Z"/>
  <path fill="#263238" d="M184.84 178.099c.13.089-.15.177 0 .273.533.409 3.522 3.153 2.908 4.464-.498 1.051-2.252 1.105-2.935.867l-1.72-.608 1.365 1.167a7.452 7.452 0 0 1 1.597 1.809 2.682 2.682 0 0 1 .423 2.143 1.512 1.512 0 0 1-1.522 1.16 4.619 4.619 0 0 1-2.204-.682l-1.877-1.078 1.413 1.624c.393.449.728.947.996 1.481.271.499.39 1.066.341 1.631a1.355 1.355 0 0 1-.294.69c-.16.197-.373.346-.613.43a3.014 3.014 0 0 1-1.693-.164 24.522 24.522 0 0 1-3.372-1.611c-.559-.3-1.119-.594-1.692-.867a4.392 4.392 0 0 0-1.816-.532c.618.11 1.207.342 1.734.682.546.308 1.078.649 1.61.983a20.747 20.747 0 0 0 3.365 1.83 3.565 3.565 0 0 0 2.048.259 1.93 1.93 0 0 0 1.406-1.597 3.464 3.464 0 0 0-.375-2.048 7.634 7.634 0 0 0-1.079-1.672l-.464.546a5.263 5.263 0 0 0 2.601.839 2.19 2.19 0 0 0 1.412-.477c.387-.323.666-.757.799-1.243a3.359 3.359 0 0 0-.532-2.73 8.02 8.02 0 0 0-1.782-1.965l-.314.559c.874.28 2.846.423 3.822-1.105.997-2.13-2.832-4.649-3.556-5.058Z"/>
  <path fill="#263238" d="M184.772 178.119c.456.047.917.021 1.365-.075a1.045 1.045 0 0 0 .792-.682c.074-.4.031-.812-.123-1.188-.15-.423-.328-.86-.532-1.303.398.297.73.673.976 1.105a2.06 2.06 0 0 1 .273 1.563 1.453 1.453 0 0 1-.519.683 1.519 1.519 0 0 1-.792.266 2.34 2.34 0 0 1-1.44-.369Z"/>
  <path fill="#455A64" d="m195.427 185.75-9.89 23.759s19.793 8.873 25.697 7.59c5.904-1.283 21.8-17.398 27.588-27.438 3.529-6.109.069-10.552-7.562-5.419-7.842 5.276-18.852 12.572-19.671 12.811-.819.239-16.162-11.303-16.162-11.303Z"/>
  <path fill="#37474F" d="m190.369 197.893.116-.273a5.457 5.457 0 0 0 2.819-1.366 12.531 12.531 0 0 0 2.553-3.467 47.917 47.917 0 0 1 2.675-4.716l.191.143c-1.604 2.321-2.525 5.058-4.313 7.256-.922 1.16-2.499 2.307-4.041 2.423Zm16.606-3.707-.136-.095a16.986 16.986 0 0 1-3.318 2.73 71.015 71.015 0 0 1-8.313 4.539c-2.491 1.194-4.825 2.607-6.191 5.092a10.067 10.067 0 0 0-1.208 4.054l.192.082a9.957 9.957 0 0 1 1.365-4.327c1.528-2.587 4.156-3.884 6.77-5.133a55.49 55.49 0 0 0 8.273-4.703 14.515 14.515 0 0 0 2.566-2.239Zm-1.283 8.764a4.434 4.434 0 0 0-3.331.683 4.779 4.779 0 0 0-1.891 2.955 20.495 20.495 0 0 0-.273 4.027 10.236 10.236 0 0 1-.764 3.863 3.65 3.65 0 0 1-.157.328l.225.075c.169-.352.315-.715.437-1.085.346-1.174.507-2.394.478-3.618a13.572 13.572 0 0 1 .43-4.204 4.332 4.332 0 0 1 3.024-2.833 4.094 4.094 0 0 1 3.87 1.045 4.472 4.472 0 0 1 1.201 4.163c-.505 2.73-2.43 4.887-2.73 7.651a6.263 6.263 0 0 0-.041.724l.184.034v-.519c.218-2.873 2.266-5.132 2.73-7.924a4.78 4.78 0 0 0-.682-3.604 4.478 4.478 0 0 0-2.71-1.761Zm10.361.778c-1.57-1.87-3.693-3.412-4.778-5.658a5.28 5.28 0 0 1-.437-1.365l-.239-.137a8.635 8.635 0 0 0 2.457 4.287c.847.921 1.761 1.774 2.587 2.73a11.25 11.25 0 0 1 2.191 3.638c.654 1.783.819 3.708.478 5.576l.246-.205c.089-.527.137-1.061.143-1.597a11.29 11.29 0 0 0-2.648-7.255v-.014Zm9.979-9.835a9.302 9.302 0 0 0-2.13-4.744l-.177.116a8.939 8.939 0 0 1 2.047 4.253 23.205 23.205 0 0 1 0 8.408 28.705 28.705 0 0 1-1.508 5.57c.116-.116.239-.232.355-.355a28.28 28.28 0 0 0 1.365-5.167c.471-2.667.487-5.395.048-8.067v-.014Zm3.255-.191a14.794 14.794 0 0 1 .969-8.081c.198-.402.426-.788.683-1.154l-.478.321a12.619 12.619 0 0 0-1.515 5.29 19.714 19.714 0 0 0 1.249 8.381c.235.62.516 1.223.84 1.802l.184-.212a18.729 18.729 0 0 1-1.932-6.334v-.013Z"/>
  <path fill="#263238" d="M195.802 200.35c.621-1.795 3.058-8.969 3.522-10.798 0 0 0-.055-.048 0-.792 1.658-3.413 8.668-4.027 10.456a104.287 104.287 0 0 0-3.413 10.839c0 .062.082.116.116.048 1.536-3.44 2.628-7.017 3.85-10.545Z"/>
  <path fill="#000" d="M238.829 189.661c-4.696 8.136-16.012 20.278-23.281 25.254l20.339-32.803c4.239-.832 5.638 2.867 2.942 7.549Z" opacity=".1"/>
  <path fill="#455A64" d="m225.711 230.252 42.399 2.662c-1.433-12.102-13.084-39.758-19.794-48.747-3.788-5.078-12.852-5.897-15.282 1.249-3.126 9.262-7.958 44.269-7.323 44.836Z"/>
  <path fill="#37474F" d="M226.7 225.706a9.763 9.763 0 0 1-.368 4.587h-.184c.757-2.048.471-4.184.041-6.28 0-.211.047-.43.075-.682.17.778.327 1.583.436 2.375Zm6.375-15.193a5.746 5.746 0 0 0-5.214 1.494c0 .103 0 .205-.048.308a5.73 5.73 0 0 1 3.556-1.748c2.73-.273 5.024 1.864 5.897 4.314 1.072 3.017.048 6.327-1.324 9.064-1.112 2.218-2.621 4.334-3.297 6.737h.198c.683-2.505 2.328-4.696 3.413-7.024 1.222-2.545 2.102-5.549 1.304-8.354-.615-2.17-2.26-4.218-4.485-4.791Zm14.436 6.224a16.139 16.139 0 0 0-4.15-5.405c-3.549-3.174-7.985-5.461-10.92-9.296a15.047 15.047 0 0 1-2.225-4.266l-.103.532.062.171a16.388 16.388 0 0 0 4.286 6.143 67.765 67.765 0 0 0 5.631 4.416 28.526 28.526 0 0 1 5.303 4.777 13.471 13.471 0 0 1 2.962 7.57 23.71 23.71 0 0 1-1.194 8.873c-.143.457-.3.914-.478 1.365h.225a25.277 25.277 0 0 0 1.557-6.327c.44-2.888.098-5.842-.99-8.553h.034Zm.212-27.363c-.226-2.006-.724-4.259-.314-6.286a1.854 1.854 0 0 0-.157-.15 8.52 8.52 0 0 0-.219 2.123c.034 1.652.396 3.269.533 4.914a17.077 17.077 0 0 1-.287 4.716c-.31 1.525-.829 3-1.543 4.382a7.13 7.13 0 0 1-2.866 3.12 2.9 2.9 0 0 1-3.652-.608 4.466 4.466 0 0 1-.873-3.413 9.736 9.736 0 0 1 1.781-3.897 22.768 22.768 0 0 0 2.15-3.624c.949-2.205 1.365-4.894.198-7.099a5.568 5.568 0 0 0-5.051-2.818 4.144 4.144 0 0 0-.512.211 5.684 5.684 0 0 1 4.962 2.048c1.734 2.293 1.208 5.46.082 7.883s-3.412 4.491-3.815 7.249c-.273 1.965.635 4.436 2.866 4.675 2.635.28 4.471-2.553 5.372-4.621a17.356 17.356 0 0 0 1.311-8.805h.034Zm7.61 18.688a55.782 55.782 0 0 0 3.59-3.16l.191-.184c-.034-.089-.075-.171-.109-.253a42.57 42.57 0 0 1-5.167 4.437c-1.153.819-2.566 1.495-3.999 1.071a2.585 2.585 0 0 1-1.543-1.112 2.68 2.68 0 0 1 .055-2.444 12.406 12.406 0 0 1 2.464-3.337c.901-.949 1.87-1.823 2.853-2.689.832-.737 1.679-1.481 2.491-2.26 0-.075-.068-.143-.096-.211-.976.942-2.047 1.822-3.023 2.73-.984.859-1.92 1.77-2.806 2.73a10.951 10.951 0 0 0-2.191 3.174 2.603 2.603 0 0 0 .635 3.119 3.506 3.506 0 0 0 3.01.587 9.799 9.799 0 0 0 3.611-2.198h.034Zm-2.102 12.969c2.45.989 4.778-.465 6.661-1.98a34.326 34.326 0 0 1 3.727-2.839c0-.062-.048-.13-.068-.198a19.89 19.89 0 0 0-1.55 1.051c-2.15 1.618-4.409 4.28-7.364 4.061a3.462 3.462 0 0 1-3.017-1.884c-.567-1.365.102-2.9 1.133-3.822a9.221 9.221 0 0 1 4.218-1.822c1.59-.362 3.201-.594 4.778-.901l.519-.103c0-.068-.055-.129-.076-.197-.607.122-1.221.232-1.829.341a44.547 44.547 0 0 0-4.702.969 7.036 7.036 0 0 0-3.475 1.952 3.757 3.757 0 0 0-.941 3.222 3.128 3.128 0 0 0 1.952 2.129l.034.021Zm13.391 4.634c-2.211.587-4.552.683-6.825 1.044-2.594.424-5.372 1.263-7.003 3.468a7.184 7.184 0 0 0-.935 1.733h.232a6.548 6.548 0 0 1 1.208-2.047c1.966-2.239 5.153-2.819 7.958-3.174a41.34 41.34 0 0 0 5.399-.853c-.034-.062-.047-.13-.068-.191l.034.02Zm1.024 4.273a21.617 21.617 0 0 0-1.706 1.665c-.342.369-.683.744-1.017 1.126h.28a29.514 29.514 0 0 1 2.498-2.566.87.87 0 0 1-.089-.246l.034.021Z"/>
  <path fill="#EB9481" d="M252.289 188.542c7.508 9.098 14.613 26.803 13.316 32.113-1.979 8.122-37.246 8.122-43.293 7.262-2.621-.375.348-18.428 3.167-18.237 4.641.321 23.677-1.29 24.018-1.29 0 0-2.771-9.883-4.552-19.268-1.584-8.32 2.054-7.017 7.344-.58Z"/>
  <path fill="#455A64" d="M253.142 188.112c7.508 9.098 15.903 25.499 13.269 33.772-2.089 6.545-32.981 9.917-38.98 10.409l-1.604-23.453c4.648.321 23.329-.45 23.67-.45 0 0-2.914-8.58-5.078-17.876-2.955-12.661 3.433-8.839 8.723-2.402Z"/>
  <path fill="#37474F" d="M266.568 214.758a11.902 11.902 0 0 0-4.601 2.287c-2.15 1.617-4.409 4.279-7.364 4.061a3.46 3.46 0 0 1-3.017-1.884c-.567-1.365.102-2.901 1.133-3.822a9.223 9.223 0 0 1 4.218-1.823c1.59-.361 3.201-.594 4.778-.901a23.52 23.52 0 0 0 4.095-1.119 1.335 1.335 0 0 0-.061-.198 28.21 28.21 0 0 1-5.413 1.365 44.565 44.565 0 0 0-4.703.969 7.049 7.049 0 0 0-3.474 1.952 3.757 3.757 0 0 0-.942 3.222 3.132 3.132 0 0 0 1.966 2.15c2.45.99 4.778-.464 6.662-1.979 1.999-1.632 4.095-3.577 6.736-4.096.007-.054-.007-.122-.013-.184Zm-4.717-13.118c-.321.286-.621.58-.908.867a56.113 56.113 0 0 1-7.139 6.395c-1.153.819-2.566 1.495-4 1.071a2.585 2.585 0 0 1-1.542-1.112 2.015 2.015 0 0 1-.171-.451h-.232c.121.481.4.906.792 1.209a3.511 3.511 0 0 0 3.01.587 9.807 9.807 0 0 0 3.645-2.178 56.052 56.052 0 0 0 3.59-3.16c1.01-.962 1.986-2.048 3.064-3.051l-.109-.177Zm-11.071 1.44c.901-.949 1.871-1.823 2.853-2.689a35.904 35.904 0 0 0 4.819-4.778 1.127 1.127 0 0 0-.123-.198 38.171 38.171 0 0 1-5.323 5.235c-.984.859-1.92 1.77-2.806 2.73a14.313 14.313 0 0 0-1.651 2.109c.034.103.068.205.095.307a14.637 14.637 0 0 1 2.136-2.716Zm-3.091-13.706c-.239-2.102-.772-4.484-.246-6.579l-.164-.096a8.63 8.63 0 0 0-.28 2.362c.034 1.652.396 3.269.533 4.914a17.077 17.077 0 0 1-.287 4.716 16.786 16.786 0 0 1-.962 3.133c0 .116.068.226.095.342a17.339 17.339 0 0 0 1.311-8.792Zm-.212 27.363a16.139 16.139 0 0 0-4.15-5.405c-1.044-.929-2.164-1.788-3.297-2.621h-.382l.43.321a28.532 28.532 0 0 1 5.304 4.777 13.47 13.47 0 0 1 2.975 7.57 23.287 23.287 0 0 1-.996 8.19l.259-.048c.396-1.392.679-2.814.847-4.252a16.348 16.348 0 0 0-.99-8.532Zm-9.917-1.419c-.615-2.184-2.26-4.232-4.519-4.778-2.416-.614-4.921.683-6.272 2.73a7.71 7.71 0 0 0-.574.997v.457a6.41 6.41 0 0 1 5.113-4.095c2.73-.273 5.023 1.863 5.897 4.313 1.071 3.017.048 6.328-1.324 9.065-1.284 2.552-3.092 4.968-3.55 7.849h.212c.485-2.963 2.409-5.461 3.686-8.095 1.249-2.635 2.129-5.638 1.331-8.443Z"/>
  <path fill="#263238" d="M249.32 208.226c1.449.378 2.844.94 4.15 1.672a16.325 16.325 0 0 1 3.617 2.635c-1.304-.737-2.566-1.488-3.863-2.184l-3.904-2.123Zm16.183 14.804c-2.566 2.355-5.931 3.133-9.201 4.014a163.784 163.784 0 0 1-11.425 2.621c-1.079.204-2.157.409-3.243.6-1.115.26-2.242.463-3.378.608a.055.055 0 0 0-.039.093c.011.01.024.016.039.016 1.044-.184 2.129-.198 3.181-.328a73.454 73.454 0 0 0 2.914-.416c1.993-.314 3.972-.682 5.938-1.099 1.966-.416 3.918-.901 5.863-1.413a49.87 49.87 0 0 0 5.242-1.583c1.624-.621 3.29-1.488 4.252-2.997.075-.095-.068-.184-.143-.116Z"/>
  <path fill="#263238" d="M248.589 204.834a189.644 189.644 0 0 1-1.112-3.665 136.193 136.193 0 0 0-1.119-3.665c-.396-1.215-.635-2.485-1.086-3.673h-.068c.16.947.374 1.884.642 2.806a14.602 14.602 0 0 0-.683-1.365c0-.035-.068 0-.061 0 .261.699.562 1.382.901 2.047a.94.94 0 0 0 0 .13c.279 1.276.614 2.539.976 3.795.361 1.256.716 2.45 1.099 3.672a21.543 21.543 0 0 0 1.112 3.221c-1.454-.075-2.928.035-4.375.062-1.447.027-3.065.075-4.6.109-3.038.082-6.075.157-9.105.273-1.734.068-3.468.123-5.194.246a.061.061 0 0 0-.034.025.062.062 0 0 0-.013.04c0 .014.004.028.013.04.008.011.02.02.034.025 3.064.122 6.142.075 9.207 0 3.065-.076 6.075-.103 9.112-.246 1.686-.075 5.331-.205 5.317-.314a.314.314 0 0 0 0-.075c.041-.055-.628-2.403-.963-3.488Zm-16.51 15.862c-.143-1.727-.771-8.613-1.058-10.306h-.055c-.041 1.672.383 8.491.526 10.238a96.337 96.337 0 0 0 1.153 10.306c0 .055.116.062.116 0 0-3.453-.368-6.825-.682-10.238Z"/>
  <path fill="#C7C7C7" d="M261.401 218.587h-46.133v2.068h46.133v-2.068Z"/>
  <path fill="#A6A6A6" d="M238.488 218.587h-23.22v2.068h23.22v-2.068Z"/>
  <path fill="#C7C7C7" d="M235.99 220.655h-44.959l-5.883-30.537h44.965l5.877 30.537Z"/>
  <path fill="#fff" d="M213.282 205.387a2.474 2.474 0 0 1-1.48 2.529 2.477 2.477 0 0 1-1.018.201 3.046 3.046 0 0 1-2.976-2.73 2.461 2.461 0 0 1 1.478-2.531c.322-.138.67-.206 1.02-.199a3.049 3.049 0 0 1 2.976 2.73Z"/>
  <path fill="#EB9481" d="M230.734 222.341c-3.044 1.529-6.777 5.297-9.289 5.658a2.902 2.902 0 0 1-3.106-1.542s-1.194 2.539-3.522 2.491c-1.194 0-2.211-1.959-2.211-1.959s-1.044 1.986-3.112 1.816c-1.652-.137-2.417-2.048-2.417-2.048s-1.897 1.447-3.528.765c-3.317-1.365-3.645-15.562 1.529-17.876 2.416-1.085 2.307 2.389 2.307 2.389s1.365-4.955 4.286-5.099c2.921-.143 2.512 4.362 2.512 4.362s1.365-4.778 4.409-4.635c3.174.164 1.986 4.601 1.986 4.601s2.048-3.208 4.375-2.553c3.802 1.078-.764 8.354.048 11.453l5.071.15.662 2.027Z"/>
  <path fill="#EB9481" d="M226.339 224.983c3.01-1.202 4.368.962 7.508.648 3.46-.341 2.464-4.423-3.57-5.317l-5.249-.157 1.311 4.826Z"/>
  <path fill="#263238" d="M206.907 226.464a.037.037 0 0 1-.01.024.035.035 0 0 1-.024.01.035.035 0 0 1-.024-.01.033.033 0 0 1-.01-.024 24.575 24.575 0 0 1 .532-14.648c.055-.15.321-.123.287.055a50.393 50.393 0 0 0-.751 14.593Zm5.692.593c0 .055-.089.062-.102 0-1.256-4.777-1.024-10.968 1.576-15.937.089-.17.342-.232.253 0-1.502 3.433-2.246 11.371-1.727 15.937Zm8.286-16.107c-2.314 4.866-2.832 9.985-2.607 15.316 0 .068-.096.061-.109 0-.826-2.58-.615-5.993-.226-8.634a14.205 14.205 0 0 1 2.772-6.764c.075-.075.218-.021.17.082Zm1.126 16.92c.904-.34 1.758-.799 2.539-1.365.792-.546 1.523-1.168 2.355-1.7a2.75 2.75 0 0 1 .683-.321 2.34 2.34 0 0 1 .792 0c.491.082.962.205 1.426.328.914.28 1.847.492 2.792.635.907.102 1.924.095 2.518-.512.3-.308.473-.717.485-1.147a1.76 1.76 0 0 0-.485-1.167 6.143 6.143 0 0 0-2.307-1.556 9.163 9.163 0 0 0-2.73-.785 8.1 8.1 0 0 1 2.86.532c.95.309 1.816.832 2.532 1.529.372.393.59.907.614 1.447a2.204 2.204 0 0 1-.587 1.481 2.387 2.387 0 0 1-1.426.683c-.5.072-1.008.072-1.509 0a21.236 21.236 0 0 1-2.846-.683c-.464-.136-.921-.293-1.365-.396a1.845 1.845 0 0 0-.682-.054 2.27 2.27 0 0 0-.615.266c-1.597.99-3.153 2.286-5.044 2.785Z"/>
  <path fill="#EB9481" d="M237.109 188.665c2.41.204 5.863-3.952 7.003-7.071.082-.212-.539-2.253-1.167-4.778-.382-1.529-.765-3.235-1.003-4.819l-9.556 3.911a25.397 25.397 0 0 1 1.87 5.931 3.12 3.12 0 0 1 0 .683v.109c.021 1.263.526 5.843 2.853 6.034Z"/>
  <path fill="#263238" d="M232.393 175.928a25.266 25.266 0 0 1 1.877 5.932 3.11 3.11 0 0 1 0 .682.59.59 0 0 0 0 .103c.346.002.691-.03 1.03-.096 5.747-1.003 6.3-8.395 6.341-10.395l-9.248 3.774Z"/>
  <path fill="#EB9481" d="M239.79 158.631c2.089 3.079 3.317 13.457 1.577 16.394-2.529 4.256-8.173 6.327-12.173 2.942-3.872-3.276-5.241-16.826-3.15-19.653 3.076-4.159 10.671-4.231 13.746.317Z"/>
  <path fill="#263238" d="M243.293 167.787c-2.75.722-4.829-2.325-4.678-5.125 0 0-7.223 2.376-8.696-3.502a5.93 5.93 0 0 1-4.31 3.572l-.417 2.348c-.807-.079-2.021-2.084-.481-4.146a7.184 7.184 0 0 1 1.418-5.177 4.096 4.096 0 0 1 4.243-1.429 6.227 6.227 0 0 1 4.259-1.943 5.301 5.301 0 0 1 4.388 2.114s3.804.015 4.916 2.505a5.489 5.489 0 0 1 .094 4.484s1.113.855 1.063 3.164c-.027 1.507-.972 2.92-1.799 3.135Z"/>
  <path fill="#263238" d="M229.978 158.603c.035.492.121.978.256 1.452.12.473.3.928.534 1.355a3.808 3.808 0 0 0 2.113 1.811 6.147 6.147 0 0 0 2.858.175c.483-.105.969-.174 1.442-.311.472-.137.942-.302 1.417-.453-.45.208-.914.392-1.376.583-.462.191-.949.304-1.444.412a6.142 6.142 0 0 1-3.023-.107 3.983 3.983 0 0 1-2.236-2.015 6.054 6.054 0 0 1-.541-2.902Zm9.048-4.085a6.997 6.997 0 0 1 2.842.08 4.18 4.18 0 0 1 2.433 1.536c.271.409.478.858.612 1.33.159.472.232.967.218 1.464a3.87 3.87 0 0 1-1.072 2.608 4.263 4.263 0 0 0 .806-2.609 4.774 4.774 0 0 0-.819-2.561 3.763 3.763 0 0 0-.971-.929 5.404 5.404 0 0 0-1.252-.552 8.825 8.825 0 0 0-2.797-.367Zm-8.652-.184a7.012 7.012 0 0 0-2.249.003 4.028 4.028 0 0 0-3.269 2.638 7.773 7.773 0 0 0-.502 2.195 5.744 5.744 0 0 1 .254-2.274 4.168 4.168 0 0 1 1.322-1.985 4.04 4.04 0 0 1 2.186-.85 5.314 5.314 0 0 1 2.258.273Z"/>
  <path fill="#263238" d="M226.813 162.755a7.974 7.974 0 0 0 2.021-1.635c.278-.325.512-.684.697-1.069a5.53 5.53 0 0 0 .405-1.241c.047.453-.007.911-.158 1.341a3.665 3.665 0 0 1-.677 1.198 4.517 4.517 0 0 1-1.045.879 4.101 4.101 0 0 1-1.243.527Zm5.049 5.028s.053.033.055.061c.052.7.217 1.485.867 1.657l.011.033c-.764-.035-1.006-1.083-.933-1.751Z"/>
  <path fill="#263238" d="M232.406 166.999c1.114-.191 1.42 2.04.388 2.22-1.032.179-1.318-2.058-.388-2.22Zm-4.618 1.335s-.052.016-.042.07c.111.682.136 1.498-.458 1.817.76-.179.726-1.25.5-1.887Z"/>
  <path fill="#263238" d="M227.075 167.695c-1.123.073-.906 2.318.133 2.251 1.039-.068.809-2.309-.133-2.251Zm5.802-2.695c-.312-.037-.598-.124-.906-.19a1.502 1.502 0 0 1-.892-.367.464.464 0 0 1 .001-.581 1.166 1.166 0 0 1 1.165-.28 1.71 1.71 0 0 1 1.089.605.514.514 0 0 1-.457.813Zm-6.787 2.171c.296-.093.586-.203.87-.328.32-.076.608-.254.82-.506a.48.48 0 0 0-.09-.573 1.186 1.186 0 0 0-1.199-.097 1.77 1.77 0 0 0-.983.781.503.503 0 0 0 .582.723Zm7.32 6.638c-.104.212-.191.476-.424.579a1.805 1.805 0 0 1-.762.08l-.033.01a.947.947 0 0 0 .962.072.732.732 0 0 0 .322-.762c.03-.017-.026-.014-.065.021Z"/>
  <path fill="#263238" d="M232.286 171.932a2.37 2.37 0 0 1-1.429 1.267 3.01 3.01 0 0 1-.845.156l-.318-.006a.167.167 0 0 1-.107-.036.165.165 0 0 1-.057-.097l-.162-1.489c-.182.123-1.113.707-1.138.428a35.606 35.606 0 0 1-.059-7.262.063.063 0 0 1 .025-.033.073.073 0 0 1 .04-.013.074.074 0 0 1 .04.014c.011.008.02.02.024.034.261 2.224.123 4.482.347 6.726a4.317 4.317 0 0 1 1.068-.493c.039-.012.148 1.831.152 1.844a3.26 3.26 0 0 0 2.338-1.093c.057-.046.112-.007.081.053Z"/>
  <path fill="#BF1B1B" d="M226.424 172.49c-1.246.183-2.485-1.204-2.765-3.086-.279-1.881.505-3.573 1.757-3.758 1.252-.186 2.485 1.204 2.765 3.085.279 1.882-.505 3.573-1.757 3.759Zm-.94-6.386c-.999.148-1.636 1.606-1.367 3.232.27 1.627 1.246 2.841 2.239 2.695.992-.145 1.636-1.605 1.366-3.232-.269-1.626-1.246-2.84-2.238-2.695Zm7.609 5.57a3.464 3.464 0 0 1-3.621-1.455 3.466 3.466 0 0 1 3.667-5.308 3.47 3.47 0 0 1 2.642 2.871 3.333 3.333 0 0 1-.538 2.503 3.351 3.351 0 0 1-2.15 1.389Zm-.947-6.383a2.999 2.999 0 0 0-2.658 2.094 3 3 0 0 0 .979 3.239 3.004 3.004 0 0 0 4.858-2.767 2.879 2.879 0 0 0-1.069-1.947 2.892 2.892 0 0 0-2.136-.611l.026-.008Z"/>
  <path fill="#BF1B1B" d="M229.513 168.348c-1.203-.332-1.648.205-1.654.207l-.236-.29c.032-.011.54-.732 1.933-.318l-.043.401Zm5.852-.905-.125-.39c.247-.079 6.304-1.53 6.97-1.6.665-.07 2.393.761 2.569.862l-.177.365a7.691 7.691 0 0 0-2.322-.827c-.501.046-4.742 1.059-6.915 1.59Z"/>
  <path fill="#EB9481" d="M239.951 168.003s1.322-3.841 2.999-3.461c1.677.381 1.322 5.497-.196 6.62a1.815 1.815 0 0 1-1.351.418 1.794 1.794 0 0 1-1.236-.686l-.216-2.891Z"/>
  <path fill="#263238" d="m242.809 166.006.015.046c-1.055.825-1.366 2.114-1.474 3.388a1 1 0 0 1 .522-.649.988.988 0 0 1 .833-.021s.023.072-.014.069a1.12 1.12 0 0 0-1.07.708c-.13.36-.225.731-.284 1.108-.025.123-.238.127-.233-.011-.458-1.545.12-4.016 1.705-4.638Zm-9.099 19.703h.034c-.123 1.966-.286 6.532 2.799 6.259a6.544 6.544 0 0 0 3.331-1.645 17.447 17.447 0 0 0 2.62-2.648 25.471 25.471 0 0 0 2.451-3.413c0-.054.102 0 .075.055-.737 1.201-1.365 2.45-2.198 3.583a15.382 15.382 0 0 1-2.832 2.935 6.591 6.591 0 0 1-3.543 1.604 2.5 2.5 0 0 1-2.532-1.884 11.032 11.032 0 0 1-.205-4.846Z"/>
  <path fill="#EBEBEB" d="m234.393 182.181 2.382 5.815 7.221-7.433 2.048 2.355s-7.017 11.787-7.065 11.255l-2.436-5.017-3.468 3.556.226-8.791 1.092-1.74Z"/>
  <path fill="#263238" d="M232.959 188.33c.089-1.447.13-2.914.287-4.354a.048.048 0 0 1 .048-.048.048.048 0 0 1 .048.048c.3 1.365-.055 6.941-.041 8.265.143-.15 3.194-3.105 3.228-3.058.526.799 2.314 4.451 2.437 4.778 1.112-1.877 5.822-9.255 7.139-11.03a.052.052 0 0 1 .03-.024.046.046 0 0 1 .038.004.05.05 0 0 1 .021.068c-.976 1.979-7.064 11.719-7.153 11.692a55.198 55.198 0 0 1-2.553-5.303c-.519.641-3.597 3.972-3.611 3.754a46.427 46.427 0 0 1 .082-4.792Z"/>
  <path fill="#EBEBEB" d="M249 435.788c127.025 0 230-6.414 230-14.326 0-7.911-102.975-14.325-230-14.325s-230 6.414-230 14.325c0 7.912 102.975 14.326 230 14.326Z"/>
  <path fill="#BF1B1B" d="M336.188 413.323h4.181l33.555-163.819h42.88l-20.199 163.819h4.122l20.668-167.621h-50.869l-34.338 167.621Z"/>
  <path fill="#000" d="M336.188 413.323h4.181l33.555-163.819h42.88l-20.199 163.819h4.122l20.668-167.621h-50.869l-34.338 167.621Z" opacity=".4"/>
  <path fill="#BF1B1B" d="M368.536 245.71h55.58v-4.89h-55.58v4.89Z"/>
  <path fill="#000" d="M368.536 245.71h55.58v-4.89h-55.58v4.89Z" opacity=".2"/>
  <path fill="#BF1B1B" d="m370.54 245.702 16.905 181.119h4.122l-16.495-176.684h42.895l29.836 176.684h4.166l-30.574-181.119H370.54Z"/>
  <path fill="#BF1B1B" d="M424.25 284.647h-49.319v4.427h49.319v-4.427Zm6.634 35.91h-49.32v4.428h49.32v-4.428Zm7.065 35.911h-53.128v4.428h53.128v-4.428Zm5.434 35.918h-56.05v4.428h56.05v-4.428Z"/>
  <g opacity=".2">
    <path fill="#000" d="m370.54 245.702 16.905 181.119h4.122l-16.495-176.684h42.895l29.836 176.684h4.166l-30.574-181.119H370.54Z"/>
    <path fill="#000" d="M424.25 284.647h-49.319v4.427h49.319v-4.427Zm6.634 35.91h-49.32v4.428h49.32v-4.428Zm7.065 35.911h-53.128v4.428h53.128v-4.428Zm5.434 35.918h-56.05v4.428h56.05v-4.428Z"/>
  </g>
  <path fill="#DD6A57" d="M453.401 306.256s15.063 28.361 15.063 28.383c.879 5.359 1.558 10.077 1.677 12.544a3.861 3.861 0 0 1-.127 1.722.077.077 0 0 1 0 .037c-1.416 1.349-44.035 9.623-45.622 9.406-1.588-.216-1.103-4.74.298-6.38 1.401-1.639 16.301-12.104 16.301-12.104l-14.788-28.398 27.198-5.21Z"/>
  <path fill="#fff" d="M465.661 328.982s2.803 5.635 2.803 5.657c.879 5.359 1.558 10.077 1.677 12.544a7.26 7.26 0 0 1-.127 1.722.077.077 0 0 1 0 .037c-1.416 1.349-44.035 9.623-45.622 9.407-1.588-.217-1.103-4.741.298-6.381 1.401-1.639 16.3-12.104 16.3-12.104l-2.899-5.739 27.57-5.143Z"/>
  <path fill="#263238" d="M438.352 340.356c2.773-.947 6.321-1.021 8.795.693.097.067 0 .201-.097.186a40.303 40.303 0 0 0-8.638-.521.19.19 0 0 1-.172-.156.185.185 0 0 1 .112-.202Zm-1.878 1.535c2.772-.946 6.32-1.013 8.795.701.097.06 0 .201-.097.179a40.307 40.307 0 0 0-8.631-.522.186.186 0 0 1-.067-.358Zm-1.879 1.543c2.773-.946 6.328-1.021 8.796.693.096.067 0 .202-.097.187a40.307 40.307 0 0 0-8.631-.522.186.186 0 0 1-.068-.358Z"/>
  <path fill="#37474F" d="M424.369 358.393c1.588.209 44.207-8.064 45.63-9.413.544-.5-.298-6.783-1.535-14.341a2.14 2.14 0 0 1-.037-.238l-27.578 5.038.097.462s-14.907 10.435-16.301 12.105c-1.394 1.669-1.856 6.179-.276 6.387Z"/>
  <path fill="#BF1B1B" d="m468.427 334.401.044.246c1.23 7.55 2.08 13.833 1.491 14.333-.648.611-9.838 2.66-19.804 4.703-11.925 2.429-24.961 4.829-25.826 4.71-1.58-.208-1.096-4.748.298-6.387 1.394-1.64 16.301-12.105 16.301-12.105l-.097-.462 9.183-1.677 18.41-3.361Z"/>
  <path fill="#263238" d="M424.533 356.642c7.148-1.566 36.135-7.23 43.327-8.244.052 0 .06 0 0 .045-7.058 1.714-36.089 7.14-43.312 8.318-.134.022-.134-.082-.015-.119Z"/>
  <path fill="#000" d="M450.054 337.762c.104 4.733.216 11.724.142 15.921-11.926 2.429-24.962 4.829-25.827 4.71-1.58-.208-1.095-4.748.298-6.387 1.394-1.64 16.301-12.105 16.301-12.105l-.097-.462 9.183-1.677Z" opacity=".1"/>
  <path fill="#37474F" d="M464.573 324.979 433 328.632s-33.503-51.496-30.134-69.318c1.856-9.793 35.151-25.17 35.151-25.17l3.369-6.768h23.485s8.08 14.11 1.208 27.37c-4.673 9.003-28.845 15.875-29.814 18.775-1.222 3.838 28.308 51.458 28.308 51.458Z"/>
  <path fill="#263238" d="M460.481 320.843a21.73 21.73 0 0 0-2.512.104c-.924.045-1.855.089-2.78.157-1.789.141-3.562.32-5.336.529-3.585.417-7.163.879-10.726 1.416-2.027.313-4.055.641-6.074.999a.062.062 0 0 0-.033.024.069.069 0 0 0 0 .078c.008.011.019.02.033.024 3.57-.298 7.125-.67 10.68-1.028 3.556-.358 7.118-.746 10.659-1.215 1.013-.142 2.027-.268 3.041-.447 1.013-.179 2.057-.254 3.033-.515.075-.022.082-.119.015-.126Zm-24.768-.477c-2.787-4.271-17.798-31.387-20.042-35.956-1.125-2.281-2.236-4.584-3.19-6.924a62.32 62.32 0 0 1-2.594-7.133c-.671-2.415-1.289-4.949-.745-7.342a10.45 10.45 0 0 1 1.423-3.391 16.71 16.71 0 0 1 1.074-1.528c.402-.477.805-.961 1.245-1.409 3.518-3.615 7.915-6.29 12.328-8.772 4.412-2.482 9.085-4.584 13.706-6.708a165.153 165.153 0 0 0 3.436-1.685 31.05 31.05 0 0 0 1.685-.924 3.727 3.727 0 0 0 1.438-1.297 18.003 18.003 0 0 0 2.05-7.327 18.01 18.01 0 0 1-2.236 7.23 3.597 3.597 0 0 1-1.401 1.193 25.73 25.73 0 0 1-1.685.872c-1.147.551-2.31 1.073-3.473 1.595-4.643 2.079-9.317 4.151-13.826 6.559a71.758 71.758 0 0 0-6.589 3.928 38.892 38.892 0 0 0-5.963 4.874c-.454.462-.872.962-1.289 1.454-.41.508-.789 1.04-1.133 1.595a10.36 10.36 0 0 0-1.617 7.543c.119.633.208 1.282.357 1.908.149.626.298 1.259.485 1.871a62.747 62.747 0 0 0 2.653 7.214c1.006 2.356 2.102 4.659 3.242 6.947 2.274 4.539 17.769 31.416 20.661 35.613Z"/>
  <path fill="#DD6A57" d="M436.899 348.316s-.246 28.398-.239 28.42c0 5.426-.134 10.189-.417 12.671a3.731 3.731 0 0 1-.41 1.714.081.081 0 0 1 0 .038c-1.618 1.088-45.019 2.236-46.547 1.744-1.528-.492-.306-4.86 1.341-6.246 1.648-1.387 18.045-9.272 18.045-9.272l.507-28.383 27.72-.686Z"/>
  <path fill="#fff" d="M436.705 370.893s-.052 5.806-.045 5.828c0 5.426-.134 10.189-.417 12.671a.077.077 0 0 1 0 .037 7.315 7.315 0 0 1-.41 1.677.081.081 0 0 1 0 .038c-1.618 1.088-45.019 2.236-46.547 1.744-1.528-.492-.306-4.86 1.341-6.246 1.648-1.387 18.045-9.257 18.045-9.257v-5.918l28.033-.574Z"/>
  <path fill="#263238" d="M406.011 377.385c2.892-.477 6.403.037 8.557 2.139.082.082 0 .194-.127.164a40.091 40.091 0 0 0-8.43-1.938.187.187 0 0 1-.107-.301.183.183 0 0 1 .107-.064Zm-2.101 1.207c2.884-.477 6.402.037 8.556 2.139.082.082-.037.201-.127.164a40.347 40.347 0 0 0-8.429-1.938.186.186 0 0 1 0-.365Zm-2.11 1.208c2.892-.477 6.403.037 8.557 2.139.089.082 0 .201-.119.164a40.308 40.308 0 0 0-8.43-1.938.187.187 0 0 1-.008-.365Z"/>
  <path fill="#BF1B1B" d="M389.249 392.865c1.49.47 44.922-.655 46.546-1.744.627-.41.835-6.708.858-14.4v-.238l-28.01.41v.477s-16.398 7.863-18.083 9.249c-1.684 1.387-2.847 5.784-1.311 6.246Z"/>
  <path fill="#263238" d="M389.696 391.174c7.312-.373 36.835-1.171 44.087-.984.06 0 .06.044 0 .044-7.237.53-36.768 1.089-44.087 1.059-.157 0-.157-.112 0-.119Z"/>
  <path fill="#37474F" d="M451.246 257.459s-12.887 40.606-13.118 48.074c-.201 6.358.619 62.505.619 62.505l-32.616.194s2.75-57.437 3.257-64.1c.954-12.395 11.821-46.435 19.588-76.77h35.165s-.306 15.883-7.528 27.369c0 .037-3.272 1.55-5.367 2.728Z"/>
  <path fill="#263238" d="M437.01 362.023c-3.726-.104-7.677-.216-11.441-.127-3.764.09-7.453.149-11.18.373-2.117.127-4.233.201-6.343.41a.06.06 0 0 0-.028.022.06.06 0 0 0-.011.034.06.06 0 0 0 .011.034.06.06 0 0 0 .028.022c3.727.216 7.543.179 11.315.141 3.771-.037 7.453-.074 11.225-.246 2.116-.096 4.226-.201 6.342-.35.157-.015.313-.305.082-.313Zm-7.133-115.491c-1.162 3.883-2.139 7.818-3.182 11.732a2909.606 2909.606 0 0 0-3.131 11.843c-2.012 7.64-4.002 15.295-5.508 23.046a139.04 139.04 0 0 0-2.608 23.628c-.172 8.079 0 16.181.052 24.261.052 8.079.119 7.11.261 15.242 0 1.006.044 2.02.082 3.033 0 .097.141.09.149 0 .216-8.087.097-7.036.074-15.123-.022-8.087-.134-16.181-.067-24.268.029-8.031.724-16.047 2.08-23.963 1.356-7.781 3.279-15.451 5.262-23.106 1.143-4.362 2.281-8.723 3.413-13.08 1.141-4.39 2.356-8.773 3.362-13.193a.128.128 0 0 0-.099-.117.128.128 0 0 0-.14.065Zm13.305 11.709a29.157 29.157 0 0 0 4.837-.44 44.68 44.68 0 0 0 4.696-1.304 38.009 38.009 0 0 1 4.599-.745 16.093 16.093 0 0 0 4.509-1.349c.067 0 .127.067.06.104a27.798 27.798 0 0 1-4.323 1.871c-1.543.492-3.161.559-4.733.939a37.914 37.914 0 0 1-4.83 1.11 17.236 17.236 0 0 1-4.838-.081c-.059-.008-.037-.105.023-.105Z"/>
  <path fill="#263238" d="m438.017 335.526.059-10.002c0-3.332 0-6.664.09-9.996.089-3.331.097-6.67.328-9.972.131-1.645.4-3.275.805-4.875.357-1.625.79-3.235 1.2-4.845 1.647-6.454 3.488-12.857 5.306-19.274l5.441-19.245c-1.065 3.16-2.064 6.343-3.085 9.518l-2.982 9.563a619.715 619.715 0 0 0-5.478 19.245c-.402 1.624-.82 3.234-1.17 4.874a30.229 30.229 0 0 0-.79 4.987c-.194 3.346-.239 6.708-.216 10.017.059 6.678.223 13.347.492 20.005Zm-26.013-45.347c1.215-4.211 2.355-8.445 3.496-12.671l3.376-12.671 3.302-12.76a490.462 490.462 0 0 1 1.699-6.343c.589-2.109 1.126-4.241 1.901-6.29a112.822 112.822 0 0 0-4.166 12.477c-1.23 4.211-2.356 8.444-3.496 12.67-1.141 4.227-2.184 8.497-3.205 12.761a470.004 470.004 0 0 0-2.907 12.827Z"/>
  <path fill="#DD6A57" d="M433.135 188.38c-3.861 10.286-18.038 26.221-22.957 28.062-6.067 2.281-21.235-6.477-27.377-11.985-2.541-2.273 5.359-14.542 9.414-14.512 2.236 0 14.907 9.928 16.644 8.944 4.256-2.43 10.002-7.021 18.261-13.267 4.502-3.421 8.422-3.645 6.015 2.758Z"/>
  <path fill="#DD6A57" d="M397.47 193.076s-3.078-4.182-4.837-5.725c-1.76-1.542-10.435-4.874-11.24-3.041-1.066 2.363 3.555 5.27 6.007 6.395 0 0-2.474 5.464.388 8.274 2.862 2.81 9.682-5.903 9.682-5.903Z"/>
  <path fill="#DD6A57" d="M384.709 205.91c-1.841-.745-9.95-5.038-11.925-6.708-1.975-1.669-7.372-6.976-6.231-8.631 1.14-1.654 2.84-.238 2.84-.238s-1.916-2.594-.619-4.152c1.297-1.558 3.868.746 3.868.746s-1.774-2.803-.365-4.271c1.409-1.469 3.608 1.282 3.608 1.282s-1.745-2.49-.075-3.213c2.005-.864 4.703 4.085 7.036 5.792.537.387 11.329 7.073 11.329 7.073l-9.466 12.32Z"/>
  <path fill="#263238" d="M375.676 183.669c1.99 3.638 3.488 4.882 7.058 6.865.067.037 0 .149-.052.112-3.667-1.618-5.776-2.915-7.185-6.895-.075-.156.082-.261.179-.082Zm-3.198 2.907c2.393 3.6 4.01 4.964 7.595 7.312.009.01.014.022.015.034a.056.056 0 0 1-.009.036.05.05 0 0 1-.028.024.06.06 0 0 1-.037.003c-3.727-2.012-5.777-3.347-7.7-7.26-.074-.149.053-.29.164-.149Zm-2.914 3.846c2.571 3.317 4.278 4.89 8.05 6.708a.085.085 0 0 1 .033.044.086.086 0 0 1-.002.055.078.078 0 0 1-.037.041.078.078 0 0 1-.054.009 13.939 13.939 0 0 1-8.087-6.782c-.127-.194-.067-.283.097-.075Zm11.747-5.336c.581 2.854 3.898 4.129 6.186 5.403a.24.24 0 0 1 .131.178.239.239 0 0 1-.071.21c-.88 2.355-1.439 5.963.067 8.132a.058.058 0 0 1 .005.039.06.06 0 0 1-.02.034.07.07 0 0 1-.037.014.065.065 0 0 1-.038-.013c-1.938-2.124-1.677-5.694-.544-8.199-2.377-1.267-5.642-2.69-5.702-5.784 0-.059.023-.067.023-.014Z"/>
  <path fill="#BF1B1B" d="m415.984 192.733 8.11 13.811s9.316-14.952 10.814-20.124c1.685-5.821-1.662-5.412-6.708-2.676-5.046 2.735-12.216 8.989-12.216 8.989Z"/>
  <path fill="#263238" d="M418.764 191.794c1.275 1.617 4.398 7.006 4.927 7.893.276.469 1.297 2.377 1.58 2.84.037.059-.059.104-.097.044-.536-.879-1.162-1.714-1.707-2.593-.544-.88-3.92-6.254-4.77-8.147-.022-.037.037-.112.067-.037Z"/>
  <path fill="#000" d="M434.901 186.42c-1.491 5.172-10.807 20.124-10.807 20.124l-4.152-7.118 13.334-17.598c1.849-.134 2.631 1.126 1.625 4.592Z" opacity=".1"/>
  <path fill="#BF1B1B" d="m467.398 231.558-42.418 8.199c.164.834-4.069-33.683 3.064-55.849.484-1.491 6.864-4.271 10.33-2.124 15.183 9.391 29.128 50.31 29.024 49.774Z"/>
  <path fill="#DD6A57" d="M430.556 189.386c2.109.09 5.858-3.108 6.708-6.276.059-.216-.708-2.176-1.491-4.598-.499-1.491-1.006-3.131-1.371-4.674-.075-.313-9.123 4.614-9.123 4.614a25.079 25.079 0 0 1 2.318 5.702c.048.213.075.43.082.648v.105c.089 1.244.611 4.39 2.877 4.479Z"/>
  <path fill="#263238" d="M427.671 184.802v.105c.337-.035.671-.095.999-.179 5.665-1.491 5.501-8.944 5.366-10.808-1.654.649-8.78 4.532-8.78 4.532a25.484 25.484 0 0 1 2.326 5.702c.051.213.081.43.089.648Z"/>
  <path fill="#DD6A57" d="M433.358 161.421c1.744 3.242 1.916 13.58-.089 16.293-2.915 3.935-8.684 5.411-12.276 1.685-3.593-3.727-3.451-17.091-1.111-19.655 3.444-3.794 10.927-3.116 13.476 1.677Z"/>
  <path fill="#263238" d="M424.854 169.336s.052 0 .052.06c0 .701.104 1.491.745 1.714v.045c-.782-.097-.916-1.155-.797-1.819Z"/>
  <path fill="#263238" d="M425.458 168.598c1.118-.111 1.259 2.132.223 2.237-1.036.104-1.163-2.147-.223-2.237Zm-4.622 1.096s-.052.037-.052.067c.067.693 0 1.491-.589 1.767v.044c.768-.156.813-1.229.641-1.878Z"/>
  <path fill="#263238" d="M420.173 169.008c-1.125 0-1.073 2.236 0 2.236s.939-2.221 0-2.236Zm6.112-1.49c-.313-.06-.589-.164-.895-.254a1.487 1.487 0 0 1-.849-.432.472.472 0 0 1 .037-.574 1.177 1.177 0 0 1 1.178-.194c.422.088.795.333 1.043.686a.51.51 0 0 1-.009.55.503.503 0 0 1-.505.218Zm-7.051.425c.305-.075.581-.187.879-.291.323-.055.618-.218.835-.462a.46.46 0 0 0-.059-.574 1.184 1.184 0 0 0-1.186-.149c-.42.109-.783.376-1.013.745a.502.502 0 0 0 .044.535.505.505 0 0 0 .5.196Zm6.671 7.811c-.157.171-.313.402-.559.44a1.812 1.812 0 0 1-.746-.127.94.94 0 0 0 .91.32.741.741 0 0 0 .507-.648c-.053 0-.112-.015-.112.015Z"/>
  <path fill="#263238" d="M425.033 173.712a2.332 2.332 0 0 1-.625.733 2.338 2.338 0 0 1-.866.422 3.242 3.242 0 0 1-.85.089h-.32a.167.167 0 0 1-.1-.049.167.167 0 0 1-.049-.1v-.156c-.045-.537-.045-1.349-.045-1.349-.194.104-1.163.618-1.163.335a35.648 35.648 0 0 1 .485-7.222c0-.075.126-.067.126 0 .09 2.236-.208 4.472-.156 6.708a4.287 4.287 0 0 1 1.096-.41c.082 0 0 1.58 0 1.818a3.29 3.29 0 0 0 1.295-.211 3.295 3.295 0 0 0 1.112-.698c.037-.007.097.037.06.09Z"/>
  <path fill="#263238" d="M422.968 174.651c.318.364.723.641 1.178.805.243.073.502.073.745 0 .544-.179.529-.694.403-1.118a3.009 3.009 0 0 0-.291-.656 3.734 3.734 0 0 1-2.035.969Z"/>
  <path fill="#FF99BA" d="M424.146 175.471c.243.073.502.073.745 0 .544-.179.529-.694.403-1.118a1.3 1.3 0 0 0-1.148 1.118Z"/>
  <path fill="#263238" d="M418.608 163.232c.328-.902.708-1.819 1.23-2.027.521-.209.946 1.065 2.161 1.065 1.64 0 2.333-1.535 4.606-1.841 3.258-.432 4.875 2.237 5.218 6.858.335 4.151 2.862 4.382 2.862 4.382s.954-9.249-1.819-12.119c-2.772-2.87-8.772-3.839-12.566-.693-1.364 1.14-1.692 4.375-1.692 4.375Z"/>
  <path fill="#DD6A57" d="M432.516 170.179s1.684-3.645 3.294-3.101.746 5.545-.857 6.492a1.77 1.77 0 0 1-1.369.28 1.77 1.77 0 0 1-.656-.28 1.767 1.767 0 0 1-.494-.514l.082-2.877Z"/>
  <path fill="#BF1B1B" d="M422.923 157.143a14.612 14.612 0 0 1 3.928-1.7c1.558-.387 6.574-.596 7.886.254 1.312.849 2.184 5.508 2.303 6.186.119.678.298 4.86-1.081 6.045-1.378 1.185-2.37-5.844-5.016-7.901-2.646-2.057-8.02-2.884-8.02-2.884Z"/>
  <path fill="#000" d="M422.923 157.143s5.374.834 8.02 2.891c2.646 2.058 3.63 9.071 5.016 7.894.312-.307.56-.672.731-1.075.17-.403.258-.836.261-1.273-.559-2.02-1.774-5.113-3.727-7.118-1.856-1.878-4.74-2.594-7.744-2.579-.887.345-1.743.766-2.557 1.26Z" opacity=".1"/>
  <path fill="#BF1B1B" d="M436.049 172.154c-.358-1.864-2.87-6.656-5.218-9.295-2.347-2.638-8.429-3.622-9.249-3.473-1.983.35-2.303 1.357-2.639 1.222-.335-.134 1.386-2.653 1.908-3.056a6.526 6.526 0 0 1 2.676-1.021c.872-.082 6.291-.186 8.504 1.864 2.214 2.049 5.732 8.117 5.427 9.816-.075.402-.567.745-.664 1.297-.134.745-.186 1.625-.35 2.161-.164.537-.365.649-.395.485Z"/>
  <path fill="#263238" d="M430.22 161.622a9.763 9.763 0 0 0 1.185-1.133c.374-.4.699-.843.969-1.319h.06a5.49 5.49 0 0 1-.85 1.491 4.63 4.63 0 0 1-1.304 1.036.061.061 0 0 1-.03-.001.05.05 0 0 1-.024-.017.057.057 0 0 1-.011-.028.058.058 0 0 1 .005-.029Zm5.62 8.654c0-.142.112-.269.164-.41.055-.158.095-.32.119-.485a3.96 3.96 0 0 1 .105-.932 3 3 0 0 1 .365-.678c.181-.229.278-.513.276-.805 0-.045.059-.052.059 0a3.108 3.108 0 0 1-.454 1.491 6.446 6.446 0 0 0-.142 1.006 1.423 1.423 0 0 1-.402.842s-.105.023-.09-.029Zm-.887-1.946c.149-.238.321-.454.447-.7.124-.241.231-.49.321-.746.089-.253.164-.507.246-.745.082-.239.238-.596.32-.902h.06c-.089.313-.119.641-.201.961a6.449 6.449 0 0 1-.269.813 4.358 4.358 0 0 1-.357.745 2.135 2.135 0 0 1-.544.611s-.038-.022-.023-.037Zm-.902-1.759a5.4 5.4 0 0 0 .887-1.274c.216-.455.418-.925.604-1.394h.06a6.227 6.227 0 0 1-.477 1.49 3.288 3.288 0 0 1-.403.649c-.189.205-.399.39-.626.551 0 0-.074.008-.045-.022Zm-1.751-3.846c.149-.194.305-.387.44-.589.134-.201.268-.41.387-.618.119-.209.268-.44.388-.671 0-.037.067 0 .059 0a5.957 5.957 0 0 1-.268.745 5.897 5.897 0 0 1-.38.664 5.974 5.974 0 0 1-.455.596 1.782 1.782 0 0 1-.559.499s-.074 0-.052-.052c.123-.208.27-.401.44-.574Zm-3.645-1.997c.157-.254.313-.5.492-.746.187-.238.386-.467.596-.685.402-.432.849-.82 1.334-1.156 0 0 .075 0 .045.045-.79.865-1.625 1.699-2.415 2.571-.03.038-.074.008-.052-.029Zm-1.327-1.469c.16-.248.351-.476.567-.678a8.318 8.318 0 0 1 1.49-1.088c.038 0 .075 0 .045.045-.447.387-.902.745-1.334 1.162-.212.2-.414.412-.604.634-.186.223-.32.477-.499.745h-.037c.065-.296.192-.576.372-.82Zm-2.914-1.349c.171-.186.365-.358.552-.536a2.51 2.51 0 0 1 .603-.44v.052c-.35.35-.693.745-1.028 1.066a7.212 7.212 0 0 0-.746 1.14 2.35 2.35 0 0 1 .619-1.282Zm-1.416-.134a3.89 3.89 0 0 1 1.155-.932s.067 0 .037.053a4.684 4.684 0 0 0-1.036.991 6.155 6.155 0 0 0-.745 1.222h-.045a3.28 3.28 0 0 1 .634-1.334Zm-1.744 1.058a2.25 2.25 0 0 1 .126-.305c.099-.199.219-.386.358-.559a6.78 6.78 0 0 1 .962-.947s.074 0 .044.045a5.467 5.467 0 0 0-.894.961 3.577 3.577 0 0 0-.343.552 3.108 3.108 0 0 0-.141.283 1.859 1.859 0 0 1-.12.284h-.059a.808.808 0 0 1 .067-.314Zm-1.118.232a5.87 5.87 0 0 1 .29-.463c.105-.149.224-.283.351-.417.126-.134.261-.268.38-.41.119-.142.074 0 .045.045a2.813 2.813 0 0 0-.351.44l-.305.432c-.097.149-.202.291-.306.44-.104.149-.186.313-.298.447h-.045c.06-.18.14-.353.239-.514Z"/>
  <path fill="#DD6A57" d="M444.479 189.49c4.755 9.25 15.205 28.16 13.177 35.598-2.66 9.757-18.715 21.22-22.852 24.41-1.811 1.394-11.761-10.054-11.322-12.454.44-2.4 16.398-16.271 17.292-17.889.895-1.617-2.914-18.112-4.054-26.869-1.446-11.039 3.726-10.622 7.759-2.796Z"/>
  <path fill="#DD6A57" d="M419.525 243.677c.447-1.073-.112-1.312-1.916-.313-1.804.999-8.109 6.499-9.839 4.137-1.729-2.363 7.268-9.988 10.435-11.426a55.586 55.586 0 0 1 8.713-2.661c-1.483 1.841-4.591 6.626-7.393 10.263Z"/>
  <path fill="#DD6A57" d="M439.15 245.548c-4.286 5.016-9.317 11.53-16.361 13.953a3.728 3.728 0 0 1-2.415.059c-3.138 1.148-4.613 0-4.613 0-3.25.172-4.607-1.2-4.607-1.2s-3.726 1.305-4.852-.805c-1.312-2.355 4.137-3.726 6.671-6.305 5.814-5.926 12.41-15.965 13.916-17.844l12.261 12.142Z"/>
  <path fill="#263238" d="M423.423 249.327a53.14 53.14 0 0 1-5.374 4.897 53.904 53.904 0 0 1-6.865 4.054.07.07 0 0 0-.024.037.064.064 0 0 0 .004.043.072.072 0 0 0 .029.033.072.072 0 0 0 .043.007 28.2 28.2 0 0 0 12.269-8.989c.074-.097.007-.164-.082-.082Zm4.084 2.989c-1.789 1.565-4.949 4.308-11.784 7.177v.045a25.296 25.296 0 0 0 11.844-7.14c.119-.105.059-.187-.06-.082Zm2.169 1.647c-3.145 2.549-5.448 3.727-9.294 5.575v.045c4.584-1.61 6.059-2.706 9.376-5.523.134-.097.037-.201-.082-.097Z"/>
  <path fill="#BF1B1B" d="m437.83 204.42 15.891-.082s-8.199-15.444-11.881-19.305c-4.151-4.345-5.463-1.267-5.642 4.472-.179 5.74 1.632 14.915 1.632 14.915Z"/>
  <path fill="#263238" d="M438.359 201.543c2.02-.283 8.199-.283 9.228-.291.544 0 2.69.067 3.227.06.075 0 .06.104 0 .104-1.028 0-2.05.142-3.078.171-1.029.03-7.327.254-9.369.038a.045.045 0 0 1-.021-.015.043.043 0 0 1-.01-.024.043.043 0 0 1 .023-.043Z"/>
  <path fill="#263238" d="M445.872 190.78c0-.06.06-.104.105-.052a134.476 134.476 0 0 1 2.437 3.727c-.254-.737-.57-1.45-.946-2.132 0 0 0-.052.044 0 .468.769.834 1.596 1.088 2.459.552.88 1.089 1.767 1.618 2.654 1.349 2.236 2.728 4.524 3.935 6.857a.178.178 0 0 1 .019.091.187.187 0 0 1-.093.153.19.19 0 0 1-.09.024c-.551 0-1.103-.044-1.654-.096-.06 0-.067-.097 0-.105.454-.059.909-.097 1.364-.134-1.357-2.147-2.609-4.375-3.906-6.559a200.27 200.27 0 0 1-3.921-6.887Zm-9.383 6.976c-.217-.812-.433-1.617-.619-2.437.179.589.343 1.185.507 1.781a55.613 55.613 0 0 1-.298-3.682c.357 1.834.611 3.683.924 5.516.313 1.834.574 3.615.85 5.419.357.059.745.104 1.088.141a.067.067 0 0 1 .028.022.06.06 0 0 1 .011.034.06.06 0 0 1-.011.034.06.06 0 0 1-.028.022c-.403 0-.798.045-1.2.082a.186.186 0 0 1-.209-.134c-.402-2.273-.775-4.562-1.043-6.798Z"/>
  <path fill="#AA1818" d="M305.3 230.278a5.763 5.763 0 0 1 0-8.148l40.718-40.74a5.755 5.755 0 0 1 8.143 0l4.072 4.074-48.861 48.888-4.072-4.074Z"/>
  <path fill="#AA1818" d="m309.372 234.352 4.733-11.561 18.933 18.944-11.451 4.839-12.215-12.222Z"/>
  <path fill="#AA1818" d="m366.377 201.76-44.79 44.814 4.072 4.074a5.757 5.757 0 0 0 8.144 0l36.645-36.666 13.555 13.562 6.804-9.488-16.287-16.296a5.755 5.755 0 0 0-8.143 0Z"/>
  <path fill="#AA1818" d="m390.807 218.056-40.749 40.771-9.229-9.234-3.973 3.975a10.032 10.032 0 0 1-5.518 2.825l10.605 10.61.031-.031 4.044 4.046a5.755 5.755 0 0 0 8.143 0l40.718-40.74a5.763 5.763 0 0 0 0-8.148l-4.072-4.074Zm-22.155-22.168-10.419-10.424-10.876 5.414 11.826 11.832 4.004-4.006a10.036 10.036 0 0 1 5.465-2.816Zm-22.186-16.186h3.694v4.802h-3.694z"/>
  <path fill="#AA1818" d="M346.466 267.919h3.694v4.802h-3.694zm20.381-67.848h3.88v2.425h-3.88zm-40.699 47.456h3.694v4.802h-3.694zm29.332-49.613h3.694v4.803h-3.694v-4.803Zm-18.36 51.682h3.694v4.802h-3.694v-4.802Z"/>
  <path fill="#BF1B1B" d="M301.606 230.278a5.763 5.763 0 0 1 0-8.148l40.718-40.74a5.755 5.755 0 0 1 8.143 0l4.072 4.074-48.861 48.888-4.072-4.074Z"/>
  <path fill="#BF1B1B" d="m305.678 234.352 4.732-11.561 18.934 18.944-11.451 4.839-12.215-12.222Z"/>
  <path fill="#BF1B1B" d="m362.682 201.76-44.789 44.814 4.072 4.074a5.757 5.757 0 0 0 8.144 0l36.645-36.666 13.555 13.562 6.804-9.488-16.287-16.296a5.757 5.757 0 0 0-8.144 0Z"/>
  <path fill="#BF1B1B" d="m387.113 218.056-40.749 40.771-9.229-9.234-3.973 3.975a10.032 10.032 0 0 1-5.518 2.825l10.605 10.61.031-.031 4.044 4.046a5.755 5.755 0 0 0 8.143 0l40.718-40.74a5.765 5.765 0 0 0 0-8.148l-4.072-4.074Zm-22.155-22.168-10.419-10.424-10.876 5.414 11.826 11.832 4.004-4.006a10.033 10.033 0 0 1 5.465-2.816Z"/>
  <path fill="#DBDBDB" d="m113.196 344.172 1.587 9.51 10.741 58.011h1.736l-7.811-58.011-1.155-9.51h-5.098Z"/>
  <path fill="#C7C7C7" d="M118.294 344.172h-5.098l1.587 9.51h4.666l-1.155-9.51Z"/>
  <path fill="#DBDBDB" d="M79.469 411.693h1.729l10.74-58.011 1.588-9.51h-5.09l-1.156 9.51-7.811 58.011Z"/>
  <path fill="#C7C7C7" d="m88.435 344.172-1.155 9.51h4.658l1.588-9.51h-5.09Z"/>
  <path fill="#DBDBDB" d="M47.248 411.693h1.729l10.74-58.011 1.588-9.51h-5.091l-1.155 9.51-7.811 58.011Z"/>
  <path fill="#C7C7C7" d="M55.059 353.682h4.658l1.588-9.51h-5.091l-1.155 9.51Z"/>
  <path fill="#DBDBDB" d="M49.99 348.644h78.716v-8.296H99.243l-9.906-57.615H52.994l-3.004 65.911Z"/>
  <path fill="#C7C7C7" d="M49.99 348.644h4.293l2.796-65.911h-4.085l-3.004 65.911Z"/>
  <path fill="#FFC4C0" d="M131.665 421.859c-1.565.194-44.288-9.771-45.674-11.113-.165-.149 1.855-8.355 1.855-8.355.671-3.377 11.792-30.925 11.792-30.925l27.928 6.887-11.836 25.536s5.329 3.607 9.905 7.043a61.845 61.845 0 0 1 5.792 4.629c1.401 1.64 1.804 6.112.238 6.298Z"/>
  <path fill="#EBEBEB" d="M131.665 421.859c-1.565.194-44.28-9.771-45.674-11.113-.165-.149 1.855-8.355 1.855-8.355.224-1.111 1.573-4.83 3.287-9.339l26.736 6.231-2.139 4.606s5.329 3.607 9.905 7.043a61.975 61.975 0 0 1 5.792 4.629c1.401 1.64 1.804 6.112.238 6.298Z"/>
  <path fill="#A6A6A6" d="M131.785 421.978c-1.618.172-44.676-9.48-46.085-10.889-.544-.529 3.28-14.4 3.294-14.475l27.578 6.082-.112.47s13.849 10.621 15.228 12.328c1.379 1.707 1.714 6.321.097 6.484Z"/>
  <path fill="#263238" d="M131.673 420.227c-7.215-1.804-36.522-8.408-43.782-9.645-.06 0-.067 0 0 .045 7.118 1.945 36.455 8.31 43.767 9.689.141.038.171-.089.015-.089Zm-13.007-17.195c-2.742-1.17-6.328-1.491-8.944 0-.097.059 0 .209.09.201a40.782 40.782 0 0 1 8.787.134.184.184 0 0 0 .134-.252.187.187 0 0 0-.067-.083Zm1.774 1.699c-2.735-1.17-6.328-1.49-8.944 0-.104.06 0 .201.082.194a41.708 41.708 0 0 1 8.788.134.19.19 0 0 0 .091-.05.196.196 0 0 0 .05-.09.204.204 0 0 0-.006-.104.189.189 0 0 0-.061-.084Zm1.782 1.707c-2.736-1.17-6.328-1.491-8.944 0-.105.06 0 .209.082.201a40.857 40.857 0 0 1 8.795.134.184.184 0 0 0 .133-.252.184.184 0 0 0-.066-.083Z"/>
  <path fill="#263238" d="M123.772 397.643c-.745-1.796-3.026-1.573-4.472-.835a15.584 15.584 0 0 0-5.851 5.531c-.037.052 0 .097.045.119a.358.358 0 0 0 .065.321.355.355 0 0 0 .3.134c2.557-.343 5.329-.395 7.699-1.491 1.402-.656 2.945-2.065 2.214-3.779Zm-6.134 3.95c-1.252.202-2.504.336-3.727.582a46.516 46.516 0 0 1 3.496-3.161 16.94 16.94 0 0 1 1.886-1.297c1.021-.581 4.755-1.49 3.547 1.543-.685 1.692-3.704 2.117-5.202 2.333Z"/>
  <path fill="#263238" d="M106.368 399.983c2.132 1.528 4.845 2.087 7.297 2.885.254.089.447-.157.447-.38a.093.093 0 0 0 .033-.012.099.099 0 0 0 .025-.025.093.093 0 0 0 .012-.033.084.084 0 0 0-.002-.035 15.659 15.659 0 0 0-4.763-6.529c-1.26-.976-3.421-1.61-4.517 0-1.096 1.61.224 3.235 1.468 4.129Zm-.834-2.325c-.634-3.183 2.877-1.632 3.778-.872a16.383 16.383 0 0 1 1.61 1.617 45.076 45.076 0 0 1 2.862 3.727c-1.177-.47-2.385-.835-3.585-1.26-1.423-.484-4.315-1.453-4.665-3.212Z"/>
  <path fill="#263238" d="m117.921 402.935-29.814-6.671s24.597-57.011 22.398-59.896c-1.088-1.438-28.688-1.863-37.469-9.302-11.403-9.689-3.726-24.417-3.726-24.417l30.812-.932s-.372 6.44.835 7.409c.79.648 37.521 3.726 41.553 16.114 4.949 15.19-24.589 77.695-24.589 77.695Z"/>
  <path fill="#37474F" d="M118.771 397.539c-.79-.328-8.482-2.512-10.204-2.982a561.464 561.464 0 0 0-10.435-2.579c-1.811-.425-5.71-1.349-5.963-1.334-.025 0-.05.01-.068.029a.095.095 0 0 0-.028.068.1.1 0 0 0 .028.069.097.097 0 0 0 .069.028c3.398 1.058 6.834 1.983 10.27 2.922 3.436.939 15.235 3.816 16.264 3.928.097.044.179-.097.067-.149Zm-2.982-63.72a4.66 4.66 0 0 0-2.325-.745 9470.62 9470.62 0 0 1-13.349-2.236c-4.16-.701-8.348-1.32-12.492-2.125-3.429-.655-6.924-1.55-9.89-3.413a14.3 14.3 0 0 1-6.023-7.931 25.535 25.535 0 0 1-.746-10.159c.075-.827.231-1.654.38-2.474 0-.06-.081-.082-.096 0-1.126 6.313-1.23 13.639 3.503 18.671 2.31 2.452 5.478 3.89 8.713 4.822a98.344 98.344 0 0 0 11.18 2.176l13.349 2.236c2.139.358 4.316.634 6.44 1.081.428.05.831.23 1.155.514a1.638 1.638 0 0 1 .187 1.536 34.598 34.598 0 0 1-.798 3.115c-2.43 8.289-18.82 47.829-19.297 48.746-.052.089.097.164.15.075 4.084-7.275 15.957-37.812 18.633-45.653a48.64 48.64 0 0 0 1.751-6.104c.142-.738.216-1.58-.425-2.132Z"/>
  <path fill="#FFC4C0" d="M189.847 422.314c-1.491.507-44.251-.097-45.883-1.141-.627-.596-1.133-6.067-1.491-12.872l-7.409-29.158 27.503-.231 8.05 28.965s5.963 2.474 11.106 4.926a63.267 63.267 0 0 1 6.596 3.384c1.699 1.342 3.019 5.635 1.528 6.127Z"/>
  <path fill="#A6A6A6" d="M190.719 422.344c-1.543.514-45.675.305-47.352-.746-.641-.395-.984-6.82-1.177-14.593v-.239l28.479-.186v.484s16.86 7.625 18.574 9.004c1.715 1.379 3.026 5.776 1.476 6.276Z"/>
  <path fill="#263238" d="M190.22 420.637c-7.454-.216-37.461-.403-44.833-.052-.059 0-.059.044 0 .052 7.372.373 37.394.313 44.833.119.164 0 .171-.119 0-.119Zm-16.398-13.99c-2.922-.559-6.507-.127-8.758 1.945-.082.082 0 .201.127.172a41.251 41.251 0 0 1 8.631-1.745.187.187 0 0 0 .132-.054.187.187 0 0 0-.132-.318Zm2.117 1.282c-2.929-.559-6.507-.127-8.758 1.945-.089.082 0 .201.127.171a41.369 41.369 0 0 1 8.616-1.744.187.187 0 0 0 .194-.178.184.184 0 0 0-.05-.134.183.183 0 0 0-.129-.06Zm2.102 1.282c-2.922-.559-6.507-.127-8.751 1.945-.089.082 0 .201.12.172a41.435 41.435 0 0 1 8.623-1.745.183.183 0 0 0 .133-.052.184.184 0 0 0 .057-.13.183.183 0 0 0-.052-.133.184.184 0 0 0-.13-.057Z"/>
  <path fill="#263238" d="M177.668 400.289c-1.14-1.588-3.287-.887-4.517.134a15.597 15.597 0 0 0-4.539 6.708.074.074 0 0 0 .006.07.063.063 0 0 0 .026.025.088.088 0 0 0 .035.01.366.366 0 0 0 .455.365c2.422-.88 5.12-1.491 7.2-3.123 1.215-.962 2.415-2.683 1.334-4.189Zm-5.135 5.217c-1.178.462-2.378.865-3.541 1.372.895-1.297 1.722-2.631 2.743-3.839a16.503 16.503 0 0 1 1.558-1.669c.872-.783 4.33-2.452 3.801.745-.291 1.752-3.153 2.817-4.561 3.369v.022Z"/>
  <path fill="#263238" d="M161.151 406.296c2.408 1.044 5.18 1.007 7.744 1.268a.382.382 0 0 0 .295-.147.371.371 0 0 0 .063-.323.078.078 0 0 0 .022-.026.08.08 0 0 0 .008-.034.076.076 0 0 0-.008-.033.078.078 0 0 0-.022-.026 15.582 15.582 0 0 0-6.045-5.359c-1.438-.686-3.726-.843-4.412.984-.686 1.826.969 3.093 2.355 3.696Zm-1.312-2.087c-1.304-2.981 2.46-2.236 3.496-1.662.669.365 1.312.775 1.923 1.23a45.596 45.596 0 0 1 3.6 3.056c-1.252-.209-2.512-.306-3.764-.462-1.483-.186-4.517-.522-5.232-2.162h-.023Z"/>
  <path fill="#263238" d="M173.345 406.855H141.25s-13.736-54.499-16.166-57.607c-3.242-4.137-48.597-4.048-58.33-17.546-8.736-12.127-1.357-29.284-1.357-29.284l34.345-1.021a71.066 71.066 0 0 1-3.183 10.807s41.375 7.625 52.965 20.296c7.826 8.534 23.821 74.355 23.821 74.355Z"/>
  <path fill="#37474F" d="M102.552 309.826a16.54 16.54 0 0 0-2.914.932c-.984.38-1.96.805-2.907 1.267a56.532 56.532 0 0 0-5.434 3.071c-.052 0 0 .112.053.082 1.863-.969 3.778-1.834 5.701-2.661l2.773-1.192c.932-.403 1.923-.746 2.81-1.238.119-.067.052-.283-.082-.261Zm-2.065-8.467c-.387 1.565-.745 3.146-1.185 4.696a20.8 20.8 0 0 1-.678 2.132c-.224.581-.574 1.244-1.245 1.379-.67.134-.998-.522-.939-1.163.06-.641.254-1.431.395-2.139.142-.708.328-1.625.477-2.438l.224-1.229c0-.105.09-.88.149-1.104 0 0 0 .038.045 0a.074.074 0 0 0 .03-.016.094.094 0 0 0 .022-.028.097.097 0 0 0 0-.068.102.102 0 0 0-.045-.052.057.057 0 0 0-.033-.012.057.057 0 0 0-.034.012c-.149.082-.164.284-.209.433-.126.395-.253.79-.372 1.192a84.528 84.528 0 0 0-.619 2.236l-.559 2.236a3.534 3.534 0 0 0-.157 1.737 1.336 1.336 0 0 0 1.238.999c-.03.05-.058.103-.082.156-.075.157-.12.321-.18.477-.059.157-.11.321-.163.492a1.236 1.236 0 0 0-.045.239v.268c0 .09.172.231.239.09.067-.142.104-.142.149-.217.048-.084.085-.174.112-.268a10.754 10.754 0 0 0 .26-.947c.03-.156 0-.193 0-.29.33-.029.644-.147.91-.343a3.04 3.04 0 0 0 .932-1.431c.238-.649.424-1.327.603-1.998a28.91 28.91 0 0 0 .999-5.038.139.139 0 0 0-.054-.042.142.142 0 0 0-.067-.014.151.151 0 0 0-.118.063Zm69.541 99.75a24.964 24.964 0 0 0-2.579-.157c-.902-.037-1.803-.082-2.705-.104a215.989 215.989 0 0 0-5.337-.097c-3.578 0-7.163 0-10.74.052-1.871 0-5.874.075-6.097.149a.096.096 0 0 0-.051.035.095.095 0 0 0 0 .117c.013.017.03.029.051.035 3.555.186 7.11.246 10.673.305 3.563.06 7.111.127 10.666.06.984 0 1.968-.052 2.981-.075 1.04.008 2.08-.037 3.116-.134.089-.015.141-.171.022-.186Zm-41.21-51.429a9.592 9.592 0 0 0-1.334-2.765 4.908 4.908 0 0 0-2.631-1.349c-8.557-2.341-17.389-3.399-26.087-5.039a108.105 108.105 0 0 1-12.671-3.093 49.2 49.2 0 0 1-12.008-5.404 13.41 13.41 0 0 1-4.42-4.666 20.228 20.228 0 0 1-2.072-5.828 35.474 35.474 0 0 1 0-14.095c.23-1.158.523-2.303.88-3.428 0-.075-.09-.097-.112 0a34.283 34.283 0 0 0-1.93 14.005c.305 4.129 1.311 8.467 3.972 11.746a16.554 16.554 0 0 0 4.942 3.876 51.854 51.854 0 0 0 6.045 2.847 80.159 80.159 0 0 0 12.47 3.727c8.683 1.916 17.537 2.892 26.213 4.822 1.073.239 2.139.492 3.205.746 1.095.181 2.157.523 3.153 1.014 1.029.641 1.364 1.922 1.774 2.981.41 1.058 14.4 48.388 14.713 49.58a.152.152 0 0 0 .28.027.152.152 0 0 0 .011-.116c-1.215-4.83-13.484-47.27-14.393-49.588Z"/>
  <path fill="#37474F" d="M126.291 350.91c-.328-1.029-.611-2.139-1.572-2.765-.962-.627-14.691-2.46-16.241-2.699-.067 0-.097.097 0 .105 1.319.223 14.005 2.497 15.138 2.877.484.134.915.412 1.237.797.344.528.596 1.11.745 1.722.398 1.232.788 2.462 1.17 3.69a465.466 465.466 0 0 1 2.311 7.408c.842 2.81 1.804 5.754 2.534 8.594.052.216.365.112.328-.097-1.014-5.314-5.247-18.328-5.65-19.632Zm-29.567-38.646a116.41 116.41 0 0 1 18.737 3.838 130.923 130.923 0 0 1 18.112 6.544c3.287 1.491 6.463 3.123 9.623 4.853.059.037 0 .126-.06.096a148.216 148.216 0 0 0-17.583-7.669 142.034 142.034 0 0 0-18.313-5.307c-3.495-.745-7.021-1.357-10.554-1.938-.26-.037-.201-.44.037-.417Z"/>
  <path fill="#FFC4C0" d="M97.275 272.589c4.383 6.619 20.683 27.578 28.606 27.667 5.218.067 24.642-7.245 27.578-8.944 2.273-1.312-4.591-18.835-7.155-17.709-2.564 1.125-18.246 6.544-20.341 6.372-2.094-.171-20.422-14.221-26.832-17.329-11.068-5.352-4.211 6.38-1.856 9.943Z"/>
  <path fill="#FFC4C0" d="M150.895 292.393c2.154-.746 13.871-4.517 16.279-6.276 2.407-1.759 8.944-7.342 7.818-9.324-1.125-1.983-3.22-.507-3.22-.507s2.4-2.788 1.051-4.681c-1.349-1.893-4.472.514-4.472.514s2.236-3.048.746-4.837c-1.491-1.789-4.219 1.155-4.219 1.155s2.236-2.69.35-3.644c-2.236-1.156-5.694 4.263-8.504 6.007-.634.403-13.491 7.126-13.491 7.126l7.662 14.467Z"/>
  <path fill="#263238" d="M165.146 268.176c-2.564 3.981-4.382 5.278-8.609 7.238-.081.037-.044.171.045.141 4.316-1.55 6.828-2.847 8.765-7.259.097-.202-.074-.291-.201-.12Zm3.406 3.623c-3.033 3.905-4.986 5.329-9.264 7.707-.06 0 0 .141.052.112 4.398-1.983 6.865-3.34 9.384-7.633.112-.194-.037-.358-.172-.186Zm3.034 4.576c-3.212 3.563-5.285 5.218-9.734 6.992a.09.09 0 0 0-.06.111.09.09 0 0 0 .044.053.085.085 0 0 0 .068.007c4.718-1.371 7.319-3.421 9.779-7.058.134-.217.074-.299-.097-.105Z"/>
  <path fill="#FFC4C0" d="M139.536 277.195s2.937-5.158 4.726-7.14c1.788-1.983 11.18-6.917 12.357-4.949 1.491 2.541-3.331 6.454-5.962 8.064 0 0 3.525 5.866.648 9.436-2.877 3.571-11.769-5.411-11.769-5.411Z"/>
  <path fill="#263238" d="M156.843 265.94c-.283 3.325-3.876 5.218-6.306 6.955a.273.273 0 0 0-.087.355c.02.04.051.074.087.099 1.312 2.557 2.423 6.552.999 9.235a.07.07 0 0 0-.009.053.075.075 0 0 0 .032.044.07.07 0 0 0 .096-.022c1.916-2.669 1.148-6.709-.477-9.399 2.527-1.752 6.045-3.802 5.71-7.312-.015-.008-.045-.008-.045-.008Z"/>
  <path fill="#BF1B1B" d="m139.998 273.819 5.113 22.763s-15.592 5.023-22.941 3.786c-8.945-1.491-25.64-25.58-28.048-29.59-3.957-6.589-3.898-10.987.209-10.599 1.595.134 3.801.999 6.626 2.758 2.981 1.833 20.214 14.027 25.342 16.017 2.877 1.148 13.699-5.135 13.699-5.135Z"/>
  <path fill="#263238" d="M140.788 296.321c-.812-3.175-3.667-16.286-4.099-19.163 0-.194.089-.261.149-.06 2.668 9.451 3.436 16.033 4.077 19.185.015.082-.104.12-.127.038Zm-17.515 4.166a8.504 8.504 0 0 1-1.103-.127c-8.945-1.49-25.64-25.572-28.048-29.59-3.727-6.231-3.898-10.509-.41-10.613 6.366 8.66 20.266 27.644 29.561 40.33Z"/>
  <path fill="#BF1B1B" d="M106.376 309.059c-.977.946-42.582 5.277-42.79 5.001-.552-.745 7.222-39.802 23.888-53.255 2.936-2.37 7.833-1.379 10.047.045 1.11.745 4.181 6.32 5.061 11.307.879 4.986 4.405 36.305 3.794 36.902Z"/>
  <path fill="#FFC4C0" d="M79.081 268.579c-12.402 14.005-26.296 37.536-20.184 42.485 5.583 4.472 24.343.186 36.992-4.92 2.407-.969-.567-20.124-3.295-19.625-5.016.917-14.161 4.137-14.519 4.227-.693.201 3.727-10.249 7.849-20.386 4.568-11.314.245-9.786-6.843-1.781Z"/>
  <path fill="#FFC4C0" d="M88.994 287.332s7.625-1.759 12.671-2.631c2.795-.492 7.662-.902 9.883-.321 3.317.872 16.644 6.626 15.317 9.884-1.2 2.981-12.022-3.444-12.022-3.444s11.493 5.493 9.391 8.78c-2.102 3.287-13.364-5.567-13.364-5.567s11.68 5.903 8.982 8.944c-2.043 2.303-12.671-5.143-12.671-5.143s10.002 5.143 8.005 7.602c-2.236 2.721-12.47-3.533-12.47-3.533-6.127 5.397-11.255 5.464-14.907 5.076-.939-.045 1.185-19.647 1.185-19.647Z"/>
  <path fill="#263238" d="M110.967 288.666c1.372.596 2.765 1.193 4.077 1.908a54.462 54.462 0 0 1 3.854 2.311 26.078 26.078 0 0 1 4.524 3.726c-2.601-2.318-7.267-4.956-8.587-5.672-1.319-.715-2.586-1.49-3.898-2.236-.037-.007-.007-.052.03-.037Zm-2.676 4.703c1.722.835 3.459 1.603 5.143 2.519 1.685.917 3.98 2.236 5.59 3.28.119.082.06.291-.067.216-1.647-.954-4.062-2.236-5.724-3.16-1.662-.924-3.28-1.946-4.964-2.818-.037-.014 0-.052.022-.037Zm-3.041 3.623a43.22 43.22 0 0 1 7.565 4.472c.12.089 0 .126-.119.052-2.489-1.528-4.427-2.751-7.453-4.405-.06-.052.007-.142.007-.119Z"/>
  <path fill="#BF1B1B" d="M85.193 262.4c-9.019 5.568-32.229 38.326-27.958 47.337 4.27 9.011 33.37-.909 33.37-.909l-2.103-22.763s-8.124 2.579-8.377 2.191c-.254-.388 4.203-11.568 6.022-16.107s3.846-12.708-.954-9.749Z"/>
  <path fill="#263238" d="M86.915 307.441c-.537-3.235-2.236-16.539-2.438-19.438 0-.202.112-.261.157-.053 1.849 9.645 2.042 16.264 2.415 19.461.007.082-.12.112-.134.03Z"/>
  <path fill="#263238" d="M88.666 285.782c-.89.153-1.767.375-2.623.663-.746.223-1.55.447-2.318.686-1.67.506-3.332 1.058-4.987 1.617-1.654.559-3.302 1.14-4.941 1.737-1.64.596-3.243 1.297-4.882 1.9-.075 0 0 .142.052.12 1.654-.574 3.354-1.044 5.023-1.573l4.912-1.573 4.912-1.565 2.393-.745c.745-.254 1.543-.53 2.303-.835.016.419.056.837.12 1.252.17-.119.223-1.707.036-1.684Z"/>
  <path fill="#263238" d="M85.282 277.352c-.47.596-.931 1.2-1.371 1.826l-.231.35.358-.961a33.01 33.01 0 0 0 1.215-3.399c0-.052-.067-.075-.09 0a33.825 33.825 0 0 0-1.528 3.443c-.477 1.126-.961 2.236-1.423 3.384-.463 1.148-.925 2.273-1.364 3.414a24.79 24.79 0 0 0-1.163 3.428c0 .068.082.09.112 0a24.863 24.863 0 0 0 1.58-3.421c.47-1.125.91-2.236 1.364-3.413.194-.477.373-.954.551-1.439l.239-.32c.216-.299.425-.612.626-.917.41-.649.79-1.297 1.17-1.96.008-.015-.03-.038-.044-.015Zm5.374 30.939c0-.164-.097-.201-.126 0-.03.201 0 .268-.045.365-.991.269-4.614 1.372-5.493 1.632a82.796 82.796 0 0 1-5.62 1.454c-1.9.425-3.801.797-5.724 1.081-3.698.4-7.422.5-11.136.298-.082 0-.074.104 0 .127 3.731.5 7.512.518 11.247.052a64.49 64.49 0 0 0 5.717-.939 59.139 59.139 0 0 0 5.71-1.491 60.91 60.91 0 0 0 2.795-.924 13.63 13.63 0 0 0 2.623-1.059.2.2 0 0 0 .09-.179l-.038-.417Z"/>
  <path fill="#FFC4C0" d="M96.202 267.468c-2.4.522-6.44-3.197-8.013-6.179-.104-.201.872-8.295.902-9.92.008-.335 10.197 2.646 10.197 2.646a25.754 25.754 0 0 0-1.096 6.216c-.037.239.35 6.731-1.99 7.237Z"/>
  <path fill="#263238" d="M99.287 254.015c0 .045-.074.246-.163.566a29.74 29.74 0 0 0-.56 2.438 18.104 18.104 0 0 0-.357 3.205 2.241 2.241 0 0 0 0 .223v.559a6.18 6.18 0 0 1-.999.038c-5.545-.217-7.297-7.059-7.766-9.69l.17.037c.27.045.627.127 1.052.224l.32.082 2.326.611.835.224 1.773.499.746.201.745.202.336.096.156.045.842.246.403.119c.056.012.111.03.164.053l-.023.022Z"/>
  <path fill="#FFC4C0" d="M87.429 241.344c-.641 3.727 2.572 13.826 5.411 15.809 4.13 2.877 10.219 2.43 12.507-2.378 2.236-4.651-2.236-17.754-5.322-19.483-4.591-2.594-11.65.514-12.596 6.052Z"/>
  <path fill="#263238" d="M98.326 246.077s-.045.052 0 .082c.253.671.432 1.491-.097 1.908.686-.32.44-1.394.097-1.99Z"/>
  <path fill="#263238" d="M97.476 245.585c-1.118.291-.447 2.497.582 2.236 1.028-.261.357-2.482-.582-2.236Zm4.845-.581s.06 0 .067.044c.186.686.514 1.446 1.2 1.491v.037c-.782.12-1.207-.894-1.267-1.572Z"/>
  <path fill="#263238" d="M102.716 244.102c1.073-.418 1.826 1.766.827 2.154-.998.387-1.729-1.804-.827-2.154Zm-6.343.693a8.93 8.93 0 0 0 .82-.47c.313-.186.581-.298.745-.641a.483.483 0 0 0-.186-.566 1.213 1.213 0 0 0-1.222.097c-.393.197-.7.531-.865.939a.52.52 0 0 0 .413.68c.1.016.203.002.295-.039Zm6.865-2.162a8.097 8.097 0 0 1-.947.038 1.57 1.57 0 0 1-.976-.149.486.486 0 0 1-.142-.574 1.205 1.205 0 0 1 1.088-.567 1.79 1.79 0 0 1 1.238.336.523.523 0 0 1 .008.793.52.52 0 0 1-.269.123Z"/>
  <path fill="#263238" d="M99.705 250.355a2.424 2.424 0 0 0 1.863.574 3.01 3.01 0 0 0 .85-.216.482.482 0 0 0 .156-.067l.142-.067a.177.177 0 0 0 .081-.081.176.176 0 0 0 .016-.113v-.127a17.262 17.262 0 0 0-.44-1.311c.224 0 1.342.178 1.237-.09a36.679 36.679 0 0 0-2.981-6.783.075.075 0 0 0-.039-.028.07.07 0 0 0-.047.005.07.07 0 0 0-.033.035.066.066 0 0 0 0 .048c.7 2.177 1.781 4.226 2.527 6.403a4.307 4.307 0 0 0-1.2 0c-.068.044.588 1.49.633 1.751a3.378 3.378 0 0 1-2.638 0c-.142 0-.187 0-.127.067Z"/>
  <path fill="#263238" d="M102.03 250.542a2.9 2.9 0 0 1-.849 1.192 1.329 1.329 0 0 1-.746.268c-.596 0-.745-.477-.782-.931a2.87 2.87 0 0 1 .044-.746 3.73 3.73 0 0 0 2.333.217Z"/>
  <path fill="#FF9ABB" d="M101.181 251.734a1.329 1.329 0 0 1-.746.268c-.596 0-.745-.477-.782-.931a1.323 1.323 0 0 1 1.528.663Z"/>
  <path fill="#263238" d="M89.069 249.595c1.923-.201 1.43-3.533 1.43-3.533s3.772-1.043 3.579-6.045c0 0 5.776 1.275 8.303-1.938 2.526-3.212-5.963-9.398-14.005-1.647 0 0-4.115 1.223-4.353 4.733-.239 3.511 2.728 8.669 5.046 8.43Z"/>
  <path fill="#263238" d="M93.884 239.473c0-.052-.112 0-.09 0 1.014 3.205-.745 6.447-4.278 6.634a.098.098 0 0 0-.07.093.098.098 0 0 0 .07.093c3.54.201 6.336-3.645 4.368-6.82Zm2.333-6.812c1.206-.02 2.41.138 3.57.469 1.722.574 4.077 2.318 3.168 4.42-1.245 2.892-5.412 2.639-7.976 2.288a.135.135 0 0 0-.164.097.134.134 0 0 0 .097.164c2.639.82 7.894.522 8.572-2.914.745-3.794-4.659-4.785-7.267-4.524Z"/>
  <path fill="#FFC4C0" d="M90.813 249.439s-2.832-2.982-4.226-1.938c-1.394 1.043 1.08 5.634 2.981 6.029a1.818 1.818 0 0 0 1.424-.176 1.835 1.835 0 0 0 .857-1.15l-1.036-2.765Z"/>
  <path fill="#EBEBEB" d="m98.214 261.088-2.437 6.06-7.535-7.67-2.132 2.46s7.364 12.186 7.409 11.635l2.504-5.218 3.6 3.638-.29-9.123-1.119-1.782Z"/>
  <path fill="#263238" d="M99.735 267.468c-.097-1.49-.15-3.026-.32-4.524 0-.052-.09-.074-.105 0-.298 1.454.104 7.208.097 8.587-.15-.157-3.34-3.198-3.37-3.153-.543.835-2.377 4.636-2.504 4.986-1.162-1.938-5.627-8.944-7.006-10.807-.045-.053-.12 0-.09.052 1.03 2.042 6.932 11.523 7.03 11.493a57.792 57.792 0 0 0 2.608-5.523c.544.663 3.727 4.099 3.772 3.876a45.822 45.822 0 0 0-.112-4.987Zm142.763 39.688h-52.383v117.206h52.383V307.156Z"/>
  <path fill="#37474F" d="M101.866 307.156H49.483v117.206h52.383V307.156Z"/>
  <path fill="#455A64" d="M242.528 307.156H108.366v16.398h134.162v-16.398Z"/>
  <path fill="#455A64" d="M108.701 307.156h-7.043v117.206h7.043V307.156Zm133.797 0h-7.043v117.206h7.043V307.156Z"/>
  <path fill="#C7C7C7" d="M84.515 305.066h45.995v2.068H84.515v-2.068Z"/>
  <path fill="#A6A6A6" d="M107.359 305.066h23.151v2.068h-23.151v-2.068Z"/>
  <path fill="#C7C7C7" d="M109.85 307.134h44.824l5.866-30.537h-44.831l-5.859 30.537Z"/>
  <path fill="#fff" d="M132.49 291.865a2.472 2.472 0 0 0 2.49 2.731 3.042 3.042 0 0 0 2.967-2.731 2.46 2.46 0 0 0-2.49-2.73 3.041 3.041 0 0 0-2.967 2.73Z"/>
  <path fill="#A6A6A6" d="M308.036 205.59a2.81 2.81 0 1 0 0-5.62 2.81 2.81 0 0 0 0 5.62Z"/>
  <path fill="#F7A9A0" d="M347.45 427.069c-1.491.485-44.214-.074-45.832-1.125-.618-.388-.902-6.619-1.021-14.162v-.238c0-1.551-.044-3.153-.052-4.778v-.663c-.06-10.882.112-22.167.112-22.167l28.584.291-.865 21.95v.872l-.171 4.547v.462s16.263 7.528 17.888 8.877c1.625 1.349 2.855 5.642 1.357 6.134Z"/>
  <path fill="#BF1B1B" d="M334.614 414.987c-.111 0-.171-.059-.178-.097l.178.097Z"/>
  <path fill="#263238" d="M347.45 427.069c-1.491.477-44.214-.067-45.832-1.125-.551-.35-.834-5.307-.976-11.702 7.826 1.64 38.162 7.774 38.989 5.18.328-1.021-2.236-2.788-3.906-3.779 4.472 2.139 9.451 4.584 10.323 5.3 1.633 1.341 2.907 5.634 1.402 6.126Zm-55.573-166.182s6.417 72.187 7.453 77.695c.239 1.26.395 8.079.492 16.852.224 19.133.09 53.665.09 53.665h30.111s-.894-59.792-2.236-70.808c-1.341-11.016-9.838-77.404-9.838-77.404h-26.072Z"/>
  <path fill="#37474F" d="M328.667 403.829c-4.696-.096-3.347-.134-8.042-.178-2.303 0-17.419-.157-19.566.201-.044 0-.044.089 0 .097 2.147.358 17.263.223 19.566.201 4.695-.045 3.346-.082 8.042-.179a.072.072 0 0 0 .037-.027.074.074 0 0 0 0-.087.074.074 0 0 0-.037-.028Zm-23.031-34.181c-.03-4.368-.062-8.736-.097-13.103 0-4.226 0-8.46-.224-12.671-.41-8.557-2.146-16.964-3.376-25.431-1.23-8.467-2.236-16.957-3.198-25.461-1.051-9.541-1.975-19.096-2.981-28.644 0-.06-.112-.06-.104 0 1.416 17.046 2.981 34.085 5.359 51.034.586 4.214 1.229 8.42 1.93 12.619.701 4.248 1.401 8.497 1.737 12.797.335 4.301.38 8.43.425 12.671.044 4.358.087 8.721.126 13.088.097 9.69.187 24.597.284 34.286a.148.148 0 0 0 .145.116.15.15 0 0 0 .093-.032.149.149 0 0 0 .052-.084c-.037-8.661-.104-22.539-.171-31.185Z"/>
  <path fill="#37474F" d="M285.526 260.887s12.768 72.187 13.812 77.695c.238 1.26.395 8.079.492 16.852l14.355-94.547h-28.659Z"/>
  <path fill="#F7A9A0" d="M276.239 429.499c-1.557-.246-39.421-20.035-40.382-21.704-.373-.626 2.183-6.313 5.478-13.096l.104-.209c.678-1.401 14.199-24.201 14.199-24.201l23.285 13.677-12.91 23.016-.231.41s11.106 14.057 11.97 16.003c.865 1.945.038 6.35-1.513 6.104Z"/>
  <path fill="#263238" d="M276.239 429.499c-1.557-.246-39.421-20.035-40.382-21.704-.321-.537 1.49-4.771 4.091-10.212 5.427 4.115 31.625 23.792 33.541 21.742.403-.432.104-1.453-.432-2.549a71.343 71.343 0 0 1 4.703 6.619c.85 1.938.03 6.35-1.521 6.104Zm-6.857-23.359-27.578-17.053s31.924-45.675 32.05-49.73c.224-6.037 3.116-30.932 5.546-51.093 0 0-4.607-10.912 4.017-27.399h34.562s-2.318 15.689-6.291 25.64a45.78 45.78 0 0 0-7.685 3.503s-3.443 44.944-3.57 50.557c-.253 11.075-31.051 65.575-31.051 65.575Z"/>
  <path fill="#37474F" d="M271.044 399.745c-3.98-2.497-2.802-1.841-6.812-4.293-1.96-1.2-14.862-9.071-16.882-9.869-.045 0-.09.053-.052.082 1.662 1.409 14.698 9.056 16.68 10.219 4.055 2.37 2.915 1.647 6.999 3.973.075.074.149-.037.067-.112ZM313 285.819a57.391 57.391 0 0 0-8.997 4.189c-.111.067-.037.238.082.186 3.034-1.297 6.127-2.549 9.079-4.01a.2.2 0 0 0 .082-.256.2.2 0 0 0-.246-.109Zm-4.234-5.009c.298-1.804.544-3.615.693-5.441.316-3.398.281-6.82-.104-10.211a.09.09 0 0 0-.089-.089.09.09 0 0 0-.064.026.092.092 0 0 0-.026.063 93.714 93.714 0 0 1-.82 14.087c-.343 2.236-1.49 5.627.872 5.963 2.363.335 3.943-5.307 4.234-6.857.746-4.412.916-8.902.507-13.357 0-.104-.194-.127-.194 0 .001 3.383-.168 6.763-.507 10.129-.141 1.565-1.401 10.189-4.107 9.563-.454-.104-.685-.552-.745-1.237.009-.894.129-1.782.358-2.646"/>
  <path fill="#37474F" d="M309.236 284.962c-.241.583-.445 1.18-.611 1.789a4.16 4.16 0 0 0-.254 1.49.105.105 0 0 0 .138.081.11.11 0 0 0 .049-.036c.282-.442.496-.924.633-1.431.201-.552.425-1.103.611-1.662a.306.306 0 1 0-.566-.231Zm-21.772-21.921a31.649 31.649 0 0 0-2.594 5.695 34.733 34.733 0 0 0-1.535 6.059c-.201 1.021-.268 2.065-.38 3.101a18.85 18.85 0 0 0-.067 3.115c.053 2.079.303 4.148.745 6.179v.067c-.8 8.721-1.627 17.439-2.482 26.155-.854 8.715-1.714 17.428-2.579 26.139l-.082.812-.044.41c-.002.15-.03.299-.082.44a15.344 15.344 0 0 1-.798 1.491c-.551.944-1.115 1.883-1.692 2.817a474.547 474.547 0 0 1-3.488 5.568c-2.34 3.727-4.74 7.364-7.126 11.031-4.762 7.342-9.615 14.624-14.482 21.906l14.132-22.122 7.006-11.098a937.266 937.266 0 0 0 3.466-5.568c.567-.939 1.133-1.871 1.677-2.818.274-.447.523-.91.746-1.386.043-.114.065-.235.067-.358l.037-.402.082-.82c.825-8.711 1.684-17.419 2.579-26.124.894-8.706 1.784-17.402 2.668-26.087v.067a32.93 32.93 0 0 1-.663-6.269c-.045-1.051.059-2.102.112-3.153.052-1.05.223-2.086.439-3.115a35.35 35.35 0 0 1 1.67-6.052 31.596 31.596 0 0 1 2.668-5.68Z"/>
  <path fill="#263238" d="M300.426 197.264c-.746.202-4.308.202-6.254 3.63-1.841 3.25-1.535 12.425-1.774 14.46-.238 2.035-2.795 2.639-3.137 5.009-.299 2.035 1.229 2.594 1.55 4.025.246 1.11-.693 2.936.529 4.472 1.111 1.401 2.721.887 3.764 1.244 1.044.358 1.938 2.579 3.846 2.982 1.908.402 3.332-1.491 4.308-1.565.977-.075 2.482 2.75 5.627 2.116 3.146-.633 3.727-3.436 4.994-4.114 1.267-.678 4.651-.164 5.963-1.975 1.312-1.811 1.312-4.04 1.893-4.919.582-.88 2.013-.925 2.639-2.892.626-1.968-1.252-2.937-1.685-4.532-.298-1.103.582-2.236-.328-3.898-1.244-2.236-4.084-1.401-5.471-3.727-1.095-1.804-3.86-9.883-9.108-11.329-3.622-.977-7.356 1.013-7.356 1.013Z"/>
  <path fill="#263238" d="M292.436 214.899c-.146.447-.403.85-.746 1.171l-.924 1.013a8.488 8.488 0 0 0-1.602 2.147 2.771 2.771 0 0 0 0 2.452c.215.377.483.721.797 1.021.365.322.677.699.924 1.118.177.479.195 1.001.053 1.491-.097.462-.217.894-.291 1.334a3.28 3.28 0 0 0 .38 2.482c.23.35.572.612.969.745.421.122.86.165 1.297.127.455 0 .909-.089 1.364-.134a2.277 2.277 0 0 1 1.356.141 2.477 2.477 0 0 0-1.334 0c-.447.082-.894.194-1.356.254-.475.07-.958.048-1.424-.067a2.165 2.165 0 0 1-1.2-.835 3.556 3.556 0 0 1-.522-2.788c.075-.462.179-.916.269-1.356.124-.385.124-.8 0-1.185-.358-.693-1.253-1.245-1.677-2.154a3.08 3.08 0 0 1 .089-2.84 8.963 8.963 0 0 1 1.781-2.147l1.014-.931c.335-.292.602-.653.783-1.059Zm20.527-14.489a39.103 39.103 0 0 1 2.608 4.174c.433.693.835 1.408 1.305 2.057.216.321.466.618.745.887a.798.798 0 0 0 .209.156c.073.046.151.086.231.12l.566.186c.8.207 1.589.456 2.363.745a4.187 4.187 0 0 1 1.997 1.58c.238.375.376.803.403 1.245.005.429-.074.854-.231 1.252a5.37 5.37 0 0 0-.492 2.371 5.057 5.057 0 0 1 .246-2.445c.122-.372.173-.764.149-1.155a2.239 2.239 0 0 0-.41-1.044 4.106 4.106 0 0 0-1.848-1.364 22.077 22.077 0 0 0-2.326-.745 9.95 9.95 0 0 1-.604-.216 1.832 1.832 0 0 1-.588-.373 5.941 5.941 0 0 1-.82-.984 20.624 20.624 0 0 1-1.267-2.139l-1.096-2.139a20.26 20.26 0 0 0-1.14-2.169Zm9.488 21.578a4.382 4.382 0 0 0-.336 1.699 36.06 36.06 0 0 1-.193 1.759 9.158 9.158 0 0 1-.41 1.752 3.88 3.88 0 0 1-.999 1.58 4.902 4.902 0 0 1-3.518.842c-.596-.037-1.178-.112-1.759-.134a3.595 3.595 0 0 0-1.707.201 3.4 3.4 0 0 1 1.707-.462h1.766a4.99 4.99 0 0 0 3.168-.835c.393-.377.692-.842.872-1.356.208-.537.371-1.091.485-1.655.134-.567.231-1.14.335-1.722.067-.283.127-.574.209-.864.052-.298.183-.576.38-.805Z"/>
  <path fill="#455A64" d="m317.323 254.552 1.051 8.154-35.337-1.118s1.781-26.043 11.963-35.859c5.098-4.912 10.688-4.189 14.057-.343.85.969 10.867 14.058 11.679 19.588.709 4.875-3.413 9.578-3.413 9.578Z"/>
  <path fill="#263238" d="M311.941 251.801c-1.703.14-3.393.414-5.053.82-.82.216-1.632.477-2.445.746-.402.141-.805.26-1.215.387a5.129 5.129 0 0 1-1.304.246c-.037 0-.037.06 0 .067.417.03.835.03 1.252 0a8.08 8.08 0 0 0 1.193-.231c.842-.209 1.669-.462 2.504-.686 1.685-.447 3.376-.887 5.083-1.2.082-.007.067-.156-.015-.149Zm4.152 1.752a33.092 33.092 0 0 0-4.196-.306c-.746 0-1.402.038-2.102.097l-1.006.105c-.366.044-.746.141-1.096.186v.067h8.4c.075-.045.075-.142 0-.149Z"/>
  <path fill="#fff" d="M298.548 261.7c.071.133.151.263.238.387h.589a3.17 3.17 0 0 0-.827-.387Zm10.024-36.053a4.262 4.262 0 0 0-1.341-.79 4.403 4.403 0 0 0 2.333 1.99 4.114 4.114 0 0 0-.992-1.2Zm-21.615 20.289a4.111 4.111 0 0 0-.797 1.341c.463-.246.873-.58 1.207-.984a4.21 4.21 0 0 0 .79-1.356 4.036 4.036 0 0 0-1.185.999h-.015Zm7.692-18.589a4.27 4.27 0 0 0-.782 1.349 4.531 4.531 0 0 0 1.997-2.341c-.454.26-.859.595-1.2.992h-.015Zm11.374 16.502a4.338 4.338 0 0 0-.797 1.349c.459-.258.87-.594 1.215-.992.343-.396.608-.854.782-1.349a4.347 4.347 0 0 0-1.185.992h-.015Zm-8.877 5.843a4.191 4.191 0 0 0-1.49.388 4.099 4.099 0 0 0 1.55.149 3.926 3.926 0 0 0 1.491-.388 4.088 4.088 0 0 0-1.536-.149h-.015Zm20.87-4.129a4.098 4.098 0 0 0-1.491.395 4.252 4.252 0 0 0 1.551.149 4.084 4.084 0 0 0 1.49-.388 4.264 4.264 0 0 0-1.52-.156h-.03Zm-13.103-12.775a4.117 4.117 0 0 0-1.491.402 4.55 4.55 0 0 0 3.056-.246 4.468 4.468 0 0 0-1.565-.156Zm6.112 23.284a4.059 4.059 0 0 0-.388-1.49 4.58 4.58 0 0 0-.156 1.55 4.45 4.45 0 0 0 .402 1.491c.144-.509.192-1.04.142-1.566v.015Zm-22.532 1.17a4.482 4.482 0 0 0-.395-1.49 3.98 3.98 0 0 0-.142 1.55c.031.517.16 1.022.38 1.491a4.272 4.272 0 0 0 .157-1.566v.015Zm27.406-21.279c0-.127 0-.254-.052-.38a90.168 90.168 0 0 1-.373-.977 4.591 4.591 0 0 0-.119 1.416 4.27 4.27 0 0 0 .395 1.491 4.47 4.47 0 0 0 .149-1.565v.015Zm-19.848 3.108a3.894 3.894 0 0 0-.395-1.491 4.267 4.267 0 0 0-.142 1.558c.039.516.17 1.021.388 1.491a4.33 4.33 0 0 0 .149-1.573v.015Z"/>
  <path fill="#F7A9A0" d="M300.94 225.185c.186.686 3.645 5.106 6.82 4.86 1.036-.082.842-5.747.842-5.747l.082-.425 1.133-5.903-7.021-4.204-1.014-.559s-.201 1.64-.432 3.675c0 .097 0 .194-.037.291-.037.097 0 .223-.045.335 0 .298-.074.611-.104.924-.03.313-.052.462-.067.746l-.067.745a40.529 40.529 0 0 0-.09 5.262Z"/>
  <path fill="#263238" d="m309.817 217.97-1.088 5.672a12.874 12.874 0 0 1-7.453-6.186l.067-.574c.238-2.035.439-3.667.439-3.667l1.014.544 7.021 4.211Z"/>
  <path fill="#F7A9A0" d="M316.51 207.058c2.982 10.122-2.772 13.036-4.956 13.67-1.983.581-8.81 2.288-12.798-7.454-3.987-9.741-.216-14.333 4.249-15.89 4.464-1.558 10.546-.447 13.505 9.674Z"/>
  <path fill="#263238" d="M314.55 205.955a5.788 5.788 0 0 1-.745 0 1.17 1.17 0 0 1-.746-.119.37.37 0 0 1-.104-.447.941.941 0 0 1 .842-.425c.339-.028.676.07.947.276a.397.397 0 0 1 .14.422.401.401 0 0 1-.334.293Zm-6.969 1.595c.227-.092.448-.197.664-.313.247-.074.462-.228.611-.44a.37.37 0 0 0-.105-.447.92.92 0 0 0-.939 0 1.386 1.386 0 0 0-.745.664.398.398 0 0 0 .078.439.399.399 0 0 0 .436.097Zm1.916 1.498s-.045.045-.038.075c.202.686.313 1.491-.253 1.901.753-.269.589-1.342.291-1.976Z"/>
  <path fill="#263238" d="M308.692 208.482c-1.141.201-.656 2.467.402 2.281 1.059-.187.537-2.453-.402-2.281Z"/>
  <path fill="#263238" d="M308.267 208.698c-.164.171-.313.44-.544.514-.231.075-.529-.104-.746-.298 0 0-.037 0-.037.037.09.433.358.843.835.805.477-.037.656-.477.671-.939-.015-.089-.105-.193-.179-.119Zm5.143-.596s.059 0 .067.052c.141.701.417 1.491 1.103 1.573v.044c-.798.067-1.155-.976-1.17-1.669Z"/>
  <path fill="#263238" d="M313.864 207.23c1.111-.343 1.715 1.893.694 2.236-1.022.343-1.618-1.946-.694-2.236Z"/>
  <path fill="#263238" d="M314.371 207.252c.209.067.447.239.656.194.209-.045.365-.343.462-.619h.038c.134.425.111.91-.276 1.103-.388.194-.746-.111-.947-.514-.045-.06-.015-.194.067-.164Zm-3.108 7.446c.201.154.448.236.701.231a1.83 1.83 0 0 0 .693-.395h.037a.955.955 0 0 1-.745.634.747.747 0 0 1-.746-.448c.002-.006.004-.012.009-.017a.04.04 0 0 1 .015-.01.03.03 0 0 1 .019-.002.036.036 0 0 1 .017.007Zm-.76-1.789a2.408 2.408 0 0 0 1.841.544c.287-.031.568-.104.835-.216a.944.944 0 0 0 .149-.067l.141-.067a.18.18 0 0 0 .09-.194v-.126c-.142-.522-.44-1.29-.44-1.29.224.037 1.319.172 1.215-.097a35.93 35.93 0 0 0-3.019-6.641.067.067 0 0 0-.118.012.066.066 0 0 0-.001.048c.745 2.139 1.789 4.136 2.534 6.276a4.072 4.072 0 0 0-1.177 0c-.067.037.588 1.49.641 1.714a3.36 3.36 0 0 1-2.594 0c-.112 0-.149.06-.097.104Z"/>
  <path fill="#263238" d="M299.539 214.422c1.729-.41.991-4.062.991-4.062s3.429-1.073 2.982-6.35a7.994 7.994 0 0 1-.224 4.546s5.829-2.549 6.768-8.407c0 0-.202 2.899-.857 4.114a7.452 7.452 0 0 0 2.884-3.958s1.983 2.579 3.048 3.131c0 0-2.489-14.326-14.541-5.605 0 0-5.553 1.729-6.216 7.274-.664 5.546 5.165 9.317 5.165 9.317Z"/>
  <path fill="#F7A9A0" d="M300.597 213.565s-2.907-2.78-4.211-1.677c-1.304 1.103 1.334 5.434 3.183 5.732a1.789 1.789 0 0 0 1.378-.244 1.784 1.784 0 0 0 .776-1.165l-1.126-2.646Z"/>
  <path fill="#fff" d="M300.687 216.912a.509.509 0 0 1-.074.389.512.512 0 0 1-.531.223.5.5 0 0 1-.33-.218.504.504 0 0 1-.08-.387.509.509 0 0 1 .403-.41.514.514 0 0 1 .612.403Z"/>
  <path fill="#F7A9A0" d="M292.361 235.568c.746 5.567 6.082 26.884 10.808 32.199 3.078 3.458 23.105 8.735 28.822 9.689 2.393.395 7.61-16.509 5.024-16.547-1.908 0-22.666-5.731-24.47-6.439 0 0-7.587-12.261-12.432-20.296-4.577-7.617-9.116-9.004-7.752 1.394Z"/>
  <path fill="#F7A9A0" d="M343.917 263.772c-.999-.567-.708-1.096 1.312-1.402 2.019-.305 10.263.202 10.196-2.69-.067-2.892-11.71-3.436-15.034-2.669a53.497 53.497 0 0 0-8.422 3.168c2.258.559 7.58 2.422 11.948 3.593Z"/>
  <path fill="#F7A9A0" d="M329.703 277.061c6.38 1.342 14.244 3.406 21.22 1.066a3.677 3.677 0 0 0 1.923-1.409c3.145-.991 3.622-2.78 3.622-2.78 2.646-1.819 2.877-3.727 2.877-3.727s3.682-1.207 3.317-3.555c-.395-2.631-5.486-.417-9.026-.917-8.117-1.133-19.334-5.016-21.615-5.575l-2.318 16.897Z"/>
  <path fill="#263238" d="M344.297 270.547c2.369.356 4.76.553 7.155.589a52.988 52.988 0 0 0 7.819-.962.066.066 0 0 1 .032.025.06.06 0 0 1 .013.038.061.061 0 0 1-.013.039.066.066 0 0 1-.032.025 27.855 27.855 0 0 1-15.019.35c-.089-.03-.082-.119.045-.104Zm-1.401 4.8c2.347.149 6.469.38 13.55-1.491 0 0 .037 0 0 .045a25.107 25.107 0 0 1-13.573 1.55c-.126-.015-.134-.119.023-.104Zm-.701 2.594a39.418 39.418 0 0 0 10.666-1.238s.045.038 0 .045c-4.554 1.491-6.373 1.535-10.666 1.327-.171-.008-.157-.142 0-.134Z"/>
  <path fill="#455A64" d="m307.633 244.169-12.41 10.278s-3.674-17.329-3.324-22.733c.403-6.074 3.421-4.539 7.275-.216 3.853 4.323 8.459 12.671 8.459 12.671Z"/>
  <path fill="#fff" d="M296.051 239.056a3.894 3.894 0 0 0-.395-1.491 4.269 4.269 0 0 0-.142 1.558c.039.516.17 1.021.388 1.491a4.314 4.314 0 0 0 .149-1.558Zm1.11 10.636a4.191 4.191 0 0 0-1.49.388 4.099 4.099 0 0 0 1.55.149 3.931 3.931 0 0 0 1.491-.388c-.503-.149-1.029-.199-1.551-.149Zm9.816-6.708a4.634 4.634 0 0 0-.939.835 4.32 4.32 0 0 0-.797 1.349c.459-.258.87-.593 1.215-.992.252-.3.468-.631.641-.983l-.12-.209Zm-12.596-15.28a3.277 3.277 0 0 0-.499.962c.382-.21.727-.482 1.021-.805a2.176 2.176 0 0 0-.522-.127v-.03Z"/>
  <path fill="#263238" d="M295.149 250.795c.372-.417 4.189-3.682 5.031-4.375.842-.693 4.271-3.548 5.217-4.189a.045.045 0 0 1 .029-.01c.01.001.02.006.027.014a.038.038 0 0 1 .01.029.042.042 0 0 1-.014.027c-.79.797-4.233 3.689-5.083 4.412-.849.723-4.688 3.869-5.158 4.152-.059.03-.089-.03-.059-.06Z"/>
  <path fill="#263238" d="M306.649 244.974c.351-.335.917-.835.917-.835-.917-1.662-6.134-9.563-7.356-11.493 0 0 0-.06.044 0 .746 1.051 1.491 2.102 2.274 3.153-.067-.149-.142-.298-.209-.44-.253-.529-.492-1.058-.745-1.58a.034.034 0 0 1-.006-.015.038.038 0 0 1 0-.015.04.04 0 0 1 .031-.032.043.043 0 0 1 .031.006.057.057 0 0 1 .011.011c.321.495.61 1.011.864 1.543.179.373.328.745.47 1.148.425.604.857 1.207 1.267 1.833 1.26 1.901 2.638 3.832 3.727 5.822a8.88 8.88 0 0 1-1.282 1.021.065.065 0 0 1-.051-.006.067.067 0 0 1-.026-.089.065.065 0 0 1 .039-.032Zm-10.226 8.475c-.365.372-.745.745-1.118 1.088l-.134.127-.06-.187a49.832 49.832 0 0 1-1.49-6.216 44.174 44.174 0 0 1-.462-3.168c-.112-1.066-.216-2.117-.254-3.182.239 1.036.44 2.079.641 3.123l.611 3.123 1.193 6.253-.194-.06c.418-.298.835-.611 1.267-.901Z"/>
  <path fill="#263238" d="M293.479 245.891a2.663 2.663 0 0 1-.745-1.088 2.975 2.975 0 0 1-.172-.634 2.204 2.204 0 0 1-.037-.663c.218.371.405.76.559 1.162.154.4.286.808.395 1.223Z"/>
  <path fill="#455A64" d="m308.654 224.149-1.572 4.912-6.328-5.598-1.558 2.028s6.462 9.145 6.462 8.713l1.67-4.234 3.033 2.646-.745-7.14-.962-1.327Z"/>
  <path fill="#263238" d="M310.212 229.061c-.164-1.178-.29-2.363-.507-3.533 0-.037-.074-.052-.082 0-.156 1.155.485 5.642.559 6.708-.126-.119-2.802-2.325-2.824-2.281-.373.679-1.603 3.764-1.685 4.04-1.021-1.453-5.322-7.163-6.507-8.519 0-.037-.097 0-.067.045.924 1.55 6.492 9.085 6.567 9.063a48.005 48.005 0 0 0 1.736-4.472 31.406 31.406 0 0 0 3.175 2.825 37.277 37.277 0 0 0-.365-3.876Z"/>
</svg>
