<svg xmlns="http://www.w3.org/2000/svg" width="500" height="500" fill="none" viewBox="0 0 500 500">
  <path fill="#EBEBEB" d="M419.2 61.94c6.33-.1 22.29-.36 28.41-.42h10.03v12.15h-.5l-19-.07c-4.73 0-14.26-.14-19-.21H419v-.22l.22-11.19-.02-.04Zm0 0 .23 11.19-.23-.23c4.74-.06 14.26-.16 19-.2l19-.07-.5.5.05-11.19.45.46h-9.41c-6-.06-22.34-.31-28.57-.41l-.02-.05Zm-380.38 0c6.32-.1 22.29-.36 28.4-.42h10.04v12.15h-.5l-19-.07c-4.73 0-14.26-.14-19-.21h-.23v-.22l.23-11.19.06-.04Zm0 0L39 73.13l-.22-.23c4.74-.06 14.25-.16 19-.2l19-.07-.5.5V61.94l.46.46h-9.42c-6-.06-22.34-.31-28.56-.41l.06-.05ZM70.01 417.9h37.98v-11.19H70.01v11.19Zm-21.19-25.3c6.32-.1 22.29-.36 28.4-.42h10.04v12.15h-.5l-19-.07c-4.73 0-14.26-.14-19-.21h-.23v-.22l.23-11.19.06-.04Zm0 0 .18 11.19-.22-.23c4.74-.06 14.25-.16 19-.2l19-.07-.5.5V392.6l.46.46-9.36-.06c-6-.06-22.34-.31-28.56-.41v.01Zm364.38 14.1c6.33-.11 22.29-.36 28.41-.42h10.03v12.15h-.5l-19-.07c-4.73 0-14.26-.14-19-.21H413v-.22l.22-11.19-.02-.04Zm0 0 .23 11.19-.23-.23c4.74-.06 14.26-.16 19-.2l19-.07-.5.5.05-11.19.45.45h-9.41c-6-.06-22.34-.31-28.57-.41l-.02-.04ZM131.67 178.13h37.98v-11.19h-37.98v11.19Zm171.5 143.09h-37.98v11.19h37.98v-11.19ZM282 346.52c-6.33.11-22.29.36-28.41.42L244 347h-.46v-12.15h.46l19 .07c4.72 0 14.26.14 19 .21h.23v.22l-.23 11.17Zm0 0-.23-11.19.23.23c-4.74.06-14.26.16-19 .2l-19 .07.49-.5v11.19l-.45-.45h9.41c6 .06 22.34.31 28.57.41l-.02.04Z"/>
  <path fill="#EBEBEB" d="M74.5 44.33V212H190V44.33H74.5Zm111.21 163.4H78.76V48.6h107l-.05 159.13Z"/>
  <path fill="#EBEBEB" d="M78.76 135.29h106.95v-4.26H78.76v4.26Z"/>
  <path fill="#DBDBDB" d="M66.66 224.22h131.16v-12.23H66.66v12.23Zm12.1-175.63h107V158h-107V48.59Zm103 3.95H82.7v101.53h99.07l-.01-101.53Z"/>
  <path fill="#DBDBDB" d="M151.58 48.59h-2.13v105.48h2.13V48.59Zm-36.56 0h-2.13v105.48h2.13V48.59Z"/>
  <path fill="#EBEBEB" d="M310 44.33V212h115.51V44.33H310Zm111.21 163.4H314.29V48.6h107l-.08 159.13Z"/>
  <path fill="#EBEBEB" d="M314.29 135.29h106.95v-4.26H314.29v4.26Z"/>
  <path fill="#DBDBDB" d="M302.19 224.22h131.16v-12.23H302.19v12.23Zm12.1-175.63h107V158h-107V48.59Zm103 3.95h-99.06v101.53h99.07l-.01-101.53Z"/>
  <path fill="#DBDBDB" d="M387.11 48.59h-2.13v105.48h2.13V48.59Zm-36.56 0h-2.13v105.48h2.13V48.59Z"/>
  <path fill="#263238" d="M40.24 458.88c134.39-.61 285.13-.62 419.52 0-134.39.62-285.13.61-419.52 0Z"/>
  <path fill="#BF1B1B" d="M284.699 285.183c65.981-19.169 103.93-88.197 84.761-154.179-19.17-65.981-88.198-103.93-154.18-84.76-65.981 19.168-103.93 88.197-84.761 154.179 19.17 65.981 88.198 103.93 154.18 84.76Z"/>
  <path fill="#000" d="M339.637 252.403c46.359-46.359 46.359-121.522 0-167.882-46.359-46.359-121.522-46.359-167.881 0-46.359 46.36-46.359 121.523 0 167.882 46.359 46.359 121.522 46.359 167.881 0Z" opacity=".1"/>
  <path fill="#fff" d="M287.966 274.887c58.785-17.816 91.997-79.913 74.182-138.697-17.816-58.785-79.912-91.998-138.697-74.182-58.785 17.815-91.997 79.912-74.182 138.697 17.815 58.785 79.912 91.997 138.697 74.182Z"/>
  <path fill="#EBEBEB" d="M364.39 144.85c-50.64 30.69-133.88 81-180.4 108.62a111.283 111.283 0 0 1-30.39-40.86L307.47 70a111.308 111.308 0 0 1 56.92 74.85Zm2.45 27.49a110.318 110.318 0 0 1-7.36 36.14l-138.71 65.6a109.262 109.262 0 0 1-17.51-7.53c41.9-24.21 118.46-68.26 163.58-94.21Z" opacity=".5"/>
  <path fill="#DBDBDB" d="M256.77 65.31h-2.15v16.86h2.15V65.31Zm-51.717 13.27-1.862 1.075 8.43 14.601 1.862-1.075-8.43-14.601ZM166.9 115.937l-1.075 1.862 14.601 8.43 1.075-1.862-14.601-8.43Zm2.52 51.443h-16.86v2.15h16.86v-2.15Zm11.02 43.274-14.6 8.433 1.075 1.861 14.6-8.432-1.075-1.862Zm31.186 32.006-8.419 14.607 1.862 1.074 8.42-14.607-1.863-1.074Zm45.144 12.09h-2.15v16.86h2.15v-16.86Zm43.004-12.095-1.862 1.075 8.43 14.601 1.862-1.075-8.43-14.601Zm31.204-31.958-1.075 1.861 14.6 8.433 1.075-1.862-14.6-8.432Zm27.872-43.317h-16.86v2.15h16.86v-2.15Zm-14.366-51.457-14.598 8.436 1.076 1.861 14.598-8.435-1.076-1.862ZM306.34 78.582l-8.422 14.605 1.862 1.074 8.423-14.605-1.863-1.075Z"/>
  <path fill="#455A64" d="m256.802 77.028 3.518 99.133-10.137-.14L254.037 77l2.765.028Z"/>
  <path fill="#263238" d="m318.543 134.358-66.684 42.557-4.859-8.908 70.231-36.079 1.312 2.43Z"/>
  <path fill="#BF1B1B" d="M258.728 168.928a3.462 3.462 0 0 1-3.462 3.463 3.48 3.48 0 0 1-3.463-3.463 3.48 3.48 0 0 1 3.463-3.462 3.48 3.48 0 0 1 3.462 3.462ZM67.64 394.12a221.564 221.564 0 0 1 .36-23.48 298.773 298.773 0 0 1 7.36-47.85c2.05-8.86 4.58-17.56 7.21-26.26.08-.26.5-.18.42.09-8.14 30.65-14.82 62.29-14.36 94.15.13 8.92 1.17 17.68 2 26.54 0 .24-.37.33-.42.09a132.781 132.781 0 0 1-2.57-23.28Z"/>
  <path fill="#BF1B1B" d="M83 296.62s12.34 31.3 9.58 38.66c-2.76 7.36-8.46 8.93-8.46 8.93s7.55 10.77 2.27 20.87c-5.28 10.1-17 9.63-17.76 21.09-.05 0-.7-47.91 14.37-89.55Z"/>
  <path fill="#263238" d="M69.92 366.39a.25.25 0 0 1 0-.17 286.89 286.89 0 0 1 12-63c0-.06.12 0 .1 0a458.21 458.21 0 0 0-6.5 27.67 13.569 13.569 0 0 1 5.89-3.28s.06.05 0 .06a15.664 15.664 0 0 0-6.08 4.06c-.36 1.82-.71 3.63-1 5.45 2.76-3.08 6.58-4.61 10.4-6.06v.08c-4 1.63-8 3.71-10.64 7.15a324.28 324.28 0 0 0-2.48 15.63 14.88 14.88 0 0 1 7.39-4.21c.09 0 .14.11.05.13a15.488 15.488 0 0 0-7.46 4.78c-.247 1.84-.48 3.683-.7 5.53a18.795 18.795 0 0 1 5.11-3.08c.05 0 .08.06 0 .08a17.63 17.63 0 0 0-5.16 3.41h-.07c-.2 1.75-.41 3.51-.59 5.26a25.111 25.111 0 0 1 10.46-7.46c.08 0 .13.09.05.12a27.303 27.303 0 0 0-10.31 7.93.212.212 0 0 1-.115.088.212.212 0 0 1-.145-.008c-.267 2.7-.5 5.4-.7 8.1h-.06c.14-2.73.33-5.5.56-8.26Z"/>
  <path fill="#263238" d="M79.83 324.5a15.369 15.369 0 0 1 7.41-2.31c.06 0 .06.08 0 .09a29.455 29.455 0 0 0-7.32 2.4.098.098 0 0 1-.077.005.098.098 0 0 1-.058-.05.101.101 0 0 1 .045-.135Zm-1.5 33.14a15.416 15.416 0 0 1 5.56-1.9c.013 0 .026.005.035.015a.05.05 0 0 1 0 .07.048.048 0 0 1-.035.015 21.013 21.013 0 0 0-5.5 1.93c-.07.04-.13-.09-.06-.13Z"/>
  <path fill="#BF1B1B" d="M41 338.54A84.205 84.205 0 0 1 54.35 352a51.383 51.383 0 0 1 8.74 17.67 126.89 126.89 0 0 1 4.46 41 98.652 98.652 0 0 1-3.86 22.61.22.22 0 0 1-.381.037.222.222 0 0 1-.039-.147A128.198 128.198 0 0 0 66 393.41c-1.2-13.07-3.49-27.36-10.92-38.41-4.06-6-9.3-10.95-14.47-16-.27-.31.13-.69.39-.46Z"/>
  <path fill="#BF1B1B" d="M66.42 401.3a76.695 76.695 0 0 0-9.4-14c-5.7-6.61-10.56-11.36-11.06-15.48-.5-4.12 6.68-6.62 6.68-6.62s-8.64.89-10.64-2.86-1.68-24.52-1.68-24.52S55 350 61 366.05s5.42 35.25 5.42 35.25Z"/>
  <path fill="#263238" d="M44.38 357.64a13.891 13.891 0 0 1 3.09.12c.12 0 .1.22 0 .22-1-.05-2-.2-3.06-.22a.064.064 0 0 1-.047-.007.062.062 0 0 1-.021-.085.062.062 0 0 1 .038-.028Zm9.68 20.89a14.08 14.08 0 0 1 4.7 1.31v.07c-1.55-.49-3.13-.76-4.7-1.14a.122.122 0 0 1-.085-.035.121.121 0 0 1 0-.17.122.122 0 0 1 .085-.035Zm3.85-6.69a10.59 10.59 0 0 1 2 .34c.07 0 0 .12 0 .12a10.522 10.522 0 0 1-2-.25.11.11 0 0 1 0-.21Z"/>
  <path fill="#BF1B1B" d="M106.1 353.74a71.001 71.001 0 0 0-13.6 8.34 43.232 43.232 0 0 0-10.7 12.68 106.89 106.89 0 0 0-11.91 32.64 82.925 82.925 0 0 0-1.39 19.26.18.18 0 1 0 .36 0 107.995 107.995 0 0 1 5.81-33.09c3.59-10.44 8.33-21.67 16.65-29.24 4.52-4.12 9.8-7.07 15-10.16.31-.17.06-.56-.22-.43Z"/>
  <path fill="#BF1B1B" d="M72.71 399.92a64.681 64.681 0 0 1 10.51-9.57c6-4.25 10.92-7.16 12.16-10.43 1.24-3.27-4.13-6.75-4.13-6.75s6.87 2.48 9.31-.16c2.44-2.64 6.3-19.71 6.3-19.71s-14.45 7-22.64 18.89c-8.19 11.89-11.51 27.73-11.51 27.73Z"/>
  <path fill="#263238" d="M94.75 364.78a7.663 7.663 0 0 1 2-.11.067.067 0 0 1 .032.026.068.068 0 0 1 .012.039.068.068 0 0 1-.012.039.067.067 0 0 1-.032.026c-.67 0-1.32.1-2 .15a.09.09 0 0 1-.06-.085c0-.019.005-.037.016-.052a.09.09 0 0 1 .044-.033Z"/>
  <path fill="#37474F" d="M52.9 458.88h34.16l-4.87-40.6-1.25-10.41H59.02l-1.25 10.41-4.87 40.6Z"/>
  <path fill="#263238" d="M57.77 418.28h24.42l-1.25-10.41H59.02l-1.25 10.41Z"/>
  <path fill="#37474F" d="M55.88 413.08h28.2v-8.82h-28.2v8.82Z"/>
  <path fill="#455A64" d="m396.738 326.487-2.801 16.784-18.956 114.165h-3.052l13.784-114.165 2.037-16.784h8.988Z"/>
  <path fill="#000" d="M387.75 326.487h8.988l-2.801 16.784h-8.224l2.037-16.784Z" opacity=".1"/>
  <path fill="#455A64" d="M456.272 457.436h-3.06l-18.956-114.165-2.8-16.784h8.996l2.037 16.784 13.783 114.165Z"/>
  <path fill="#000" d="m440.452 326.487 2.037 16.784h-8.233l-2.8-16.784h8.996Z" opacity=".1"/>
  <path fill="#455A64" d="M492.751 457.436h-3.06l-18.956-114.165-2.801-16.784h8.996l2.038 16.784 13.783 114.165Z"/>
  <path fill="#000" d="M478.968 343.271h-8.233l-2.801-16.784h8.996l2.038 16.784Z" opacity=".1"/>
  <path fill="#455A64" d="M487.905 334.368H369.372v-14.63h52.006l17.472-101.69h43.756l5.299 116.32Z"/>
  <path fill="#000" d="M487.905 334.368h-7.571l-4.938-116.32h7.21l5.299 116.32Z" opacity=".1"/>
  <path fill="#EB9481" d="M282.405 423.121c2.373 1.391 75.523 16.675 78.676 15.502 1.198-.445 4.049-10.967 7.126-23.777.662-2.767 1.333-5.626 2.004-8.535 4.334-18.881 8.493-39.019 8.493-39.019l-48.896-10.371-7.151 39.304-1.576 8.627s-30.619 6.674-33.947 8.334c-3.312 1.668-7.11 8.543-4.729 9.935Z"/>
  <path fill="#263238" d="M367.025 419.733c-2.608 10.506-4.896 18.504-5.944 18.89-3.153 1.182-76.303-14.119-78.676-15.511-2.372-1.392 1.425-8.258 4.729-9.935 2.054-1.023 14.496-3.957 23.726-6.053-8.065 1.928-23.106 7.395 8.007 9.642 25.722 1.869 42.7 2.716 48.158 2.959v.008Z"/>
  <path fill="#EB9481" d="M348.421 458.166c2.649.737 77.275-3.119 80.025-5.064 1.048-.73-.713-17.104-1.493-19.988-2.649-9.759-16.365-52.743-16.365-52.743l-49.927 2.431 20.507 47.839s-27.91 14.253-30.702 16.709c-2.775 2.457-4.695 10.078-2.045 10.816Z"/>
  <path fill="#263238" d="M428.446 453.102c-2.75 1.953-77.368 5.801-80.034 5.072-2.649-.746-.738-8.359 2.046-10.815 1.308-1.149 8.049-4.838 14.89-8.468-8.577 4.829-22.159 15.594 62.326-3.605.772 8.543 1.342 17.422.78 17.807l-.008.009Zm35.741-140.164c-14.873 16.567-64.85 3.48-67.835 10.078-2.633 5.81 31.473 99.199 31.473 99.199l-54.571 5.886s-47.11-103.132-30.266-132.929c9.097-16.097 49.172-9.675 73.36-12.626 7.294-.889 10.723-15.929 10.723-15.929h43.219s10.908 27.39-6.095 46.33l-.008-.009Z"/>
  <path fill="#37474F" d="m358.154 285.933 45.827 35.071c15.217-.319 48.527 4.946 60.206-8.066 17.002-18.939 6.103-46.321 6.103-46.321h-43.219s-3.429 15.04-10.723 15.929c-16.978 2.063-41.761-.478-58.194 3.387Zm13.012 129.986c1.509-.47 15.653-2.046 18.78-2.39 6.247-.67 25.915-2.515 29.479-2.507.092 0 .109.151.016.168-3.093.646-15.644 2.113-18.763 2.431-6.254.646-27.743 2.725-29.478 2.558a.137.137 0 0 1-.025-.269l-.009.009Z"/>
  <path fill="#37474F" d="M389.737 317.541c3.513-1.744 30.107-.88 49.189-2.666 6.221-.579 12.458-1.912 17.204-5.986 4.276-3.672 7.026-8.753 8.493-13.993 1.836-6.523 1.643-13.322 1.333-20.004-.076-1.644-.193-3.287-.294-4.93 0-.092.168-.118.176-.017 1.451 11.964 2.566 25.328-5.223 35.699-3.42 4.561-8.233 7.63-13.909 9.122-11.511 3.027-54.789 2.28-56.315 3.446-1.819 1.391 26.158 86.564 26.711 88.191.101.302-.427.511-.561.209-2.759-6.539-29.864-87.562-26.812-89.079l.008.008Zm-48.711-19.493c2.574-6.531 8.443-10.597 17.078-12.157.143-.025.134.185 0 .227-7.537 2.205-12.92 5.231-15.879 11.595-1.383 2.968-2.096 7.143-2.457 12.735-1.785 27.885 22.545 91.193 23.04 92.299.041.101-.093.177-.151.084-3.429-5.776-32.245-77.811-21.623-104.774l-.008-.009Z"/>
  <path fill="#263238" d="m321.298 393.718 41.325 8.786s-32.597-97.296-17.288-109.847c4.243-3.479 13.499-4.695 24.49.051 16.416 7.092 35.422 21.546 53.339 26.837 16.776 4.955 36.697.394 43.555-7.152 14.403-15.854 3.571-45.81 3.571-45.81l-50.496-.478s.888.721-1.946 3.236c0 0-43.856-5.734-59.031 3.538-27.374 16.727-37.502 120.831-37.502 120.831l-.017.008Z"/>
  <path fill="#37474F" d="M444.61 270.071c.042-.117.201-.084.21.033.084 2.247-.017 4.452.511 6.666.503 2.104 1.459 3.991 2.993 5.533 3.262 3.295 7.931 4.419 12.199 5.76.226.067.184.469-.067.428-4.737-.73-9.726-1.929-13.188-5.484a11.534 11.534 0 0 1-3.069-5.961c-.41-2.246-.343-4.804.403-6.975h.008Zm-98.26 20.734c6.355-3.991 16.282-.956 21.035.863.101.042.051.201-.05.159-4.376-1.576-15.259-3.957-21.077.168-13.448 9.524 4.552 74.668 16.348 110.518.185.561-.26.411-.511-.126-1.945-4.251-17.154-49.549-21.128-79.522-.612-4.611-3.789-26.309 5.366-32.06h.017Z"/>
  <path fill="#37474F" d="M326.01 382.735c1.25-.034 11.956 2.331 14.32 2.859 4.72 1.065 15.653 3.898 18.21 4.871.067.025.025.168-.05.159-2.448-.235-8.149-1.484-10.505-2.029-4.712-1.098-20.868-4.971-22.05-5.6-.101-.059-.05-.252.075-.26Zm22.369-93.624c4.276-2.339 9.365-2.716 14.11-2.138 5.03.62 9.818 2.406 14.421 4.511 9.666 4.418 18.872 9.817 28.555 14.219 9.625 4.368 19.896 7.789 30.501 8.116 9.063.276 20.541-1.317 26.368-9.474 8.979-12.568 3.748-34.224 3.647-35.624 0-.109.134-.101.168 0 6.967 26.628-1.996 36.965-8.049 41.316-4.804 3.455-11.704 4.327-16.265 4.712-10.547.889-21.128-1.693-30.903-5.584-10.019-3.99-19.418-9.364-29.026-14.277-9.205-4.712-19.467-9.567-29.981-6.867-1.19.302-2.364.721-3.496 1.199-.059.025-.092-.076-.042-.101l-.008-.008Z"/>
  <path fill="#263238" d="m453.17 230.498-3.823-.167c-.109-1.073-.352-2.105-.729-3.019-1.526-3.756-4.586-6.749-6.976-9.775 0-.017-.025 0-.016.025 2.221 2.959 4.334 6.632 5.516 10.346.252.788.386 1.576.445 2.347l-2.381-.1c-.135-2.348-.705-4.603-1.887-6.649-.033-.059-.126.017-.1.084.955 2.054 1.173 4.267 1.123 6.531l-20.683-.897a35.938 35.938 0 0 1-.52-5.827c0-.226-.31-.193-.302.025 0 1.954.075 3.882.293 5.785l-1.727-.084c-.218-3.253-.151-6.497.47-10.01.025-.109-.134-.143-.151-.034-.704 3.22-1.191 6.641-1.199 10.003l-14.32-.613c.906-2.112 1.56-4.376 2.096-6.547.05-.185-.209-.244-.26-.059-.645 2.406-1.601 4.51-2.666 6.556l-2.121-.084c1.685-3.714 2.96-7.587 3.303-11.628.009-.168-.234-.185-.26-.017-.578 4.36-2.716 7.965-4.829 11.553l-5.391-.226c1.92-3.362 5.207-6.414 5.718-10.38.554-4.452-3.387-6.581-4.536-10.329-1.928-6.279 1.225-10.932 5.157-15.225 3.613-3.966 3.295-8.51 4.234-13.565.679-3.723 1.76-7.848 3.714-11.084 6.003-10.002 16.499-8.585 16.508-8.443 2.54.067 4.837.797 6.849 2.13.009 0 .026 0 .034.017.142.084.268.184.411.293 2.163 1.551 3.991 3.823 5.416 6.749l.017.034c.41.83.779 1.718 1.123 2.657.587 1.644.688 3.916 1.165 6.532 0 .05.009.109.026.151.704 3.68 2.205 7.964 6.967 11.829 5.676 4.578 4.049 11.948-.646 19.325-1.987 3.128-2.071 5.148-1.308 6.875v.025c.109.235.218.436.344.663 1.107 1.903 3.119 3.563 4.494 6.17 1.274 2.398 1.551 5.207 1.425 8.032l-.017.025Z"/>
  <path fill="#263238" d="M418.108 160.509c-4.343 2.297-7.688 6.154-9.297 11.193-1.233 3.848-1.367 8.031-2.994 11.754-1.534 3.513-4.233 6.162-6.397 9.197-2.867 4.008-4.695 8.929-2.33 13.523 1.467 2.851 4.72 5.685 4.552 9.307-.201 4.234-3.873 8.308-5.843 11.804-.093.168.142.352.251.193 2.683-3.949 7.37-9.138 5.785-14.328-.729-2.381-2.306-4.192-3.555-6.213-2.431-3.932-1.92-8.14.47-12.165 3.236-5.458 7.529-8.962 8.962-15.527.822-3.756 1.174-7.613 3.069-11.016 1.794-3.228 4.376-5.76 7.436-7.454.126-.075.026-.318-.109-.243v-.025Zm31.96 60.926c-1.559-2.221-3.488-3.848-2.641-7.218.587-2.339 2.172-4.343 3.262-6.422 2.716-5.182 4.267-11.696 1.609-17.012-1.5-2.993-4.058-3.722-6.221-5.91-2.615-2.65-3.58-6.749-4.426-10.522-1.266-5.659-2.868-12.098-8.586-13.381-.05-.008-.067.075-.016.092 7.285 2.113 7.243 11.679 9.339 18.294.713 2.247 1.728 4.41 3.304 6.003 2.498 2.532 5.525 3.37 6.816 7.302 1.207 3.681.687 7.772-.654 11.47-1.165 3.211-3.32 5.894-4.427 9.088-.662 1.912-.821 3.89.101 5.626.729 1.358 1.962 2.263 2.733 3.58 1.04 1.769 1.442 3.831 1.383 5.986 0 .218.294.184.302-.034.101-2.616-.461-4.946-1.878-6.95v.008Z"/>
  <path fill="#EB9481" d="M433.2 208.298c-2.465 10.236-18.236 54.437-41.191 58.31-7.789 1.317-21.077-26.166-13.247-59.979.235-.997 23.031-.746 24.138 4.829.117.596-.403 16.089-1.048 15.838-.797-.319 9.801-11.696 23.182-22.637 6.33-5.173 9.633-2.465 8.166 3.647v-.008Z"/>
  <path fill="#BF1B1B" d="M433.2 208.298c-2.465 10.236-18.236 54.437-41.191 58.31-7.789 1.317-20.943-24.079-15.636-54.102l27.558 3.907c.117.596-.805 8.736-.805 8.736s8.527-9.549 21.908-20.49c6.329-5.173 9.633-2.465 8.166 3.647v-.008Z"/>
  <path fill="#263238" d="M403.093 225.225a510.283 510.283 0 0 1-2.021 23.727c-.243 2.196-.461 4.401-.696 6.598 0 .075.118.084.134.017.856-3.882 1.476-7.806 1.92-11.755.436-3.907.797-7.872.847-11.804.034-2.264.025-4.528-.033-6.783 0-.101-.143-.092-.151 0Z"/>
  <path fill="#EB9481" d="M378.025 210.997s1.022-10.865 5.357-17.874c2.993-4.846 7.001-12.434 24.003-12.082 4.033.084 11.855 4.662 10.128 7.496-1.643 2.699-8.401-2.407-14.043-1.468 0 0 6.707 4.335 6.472 8.368-.109 1.802-.519 6.724-1.383 10.505 0 0-.872.033-1.987-.084 0 0-.344 3.773-4.812 7.42l-23.735-2.289v.008Z"/>
  <path fill="#EB9481" d="M386.979 188.956c2.85-.881 8.929-2.65 14.403-2.365 6.079.319 17.707 2.566 17.431 7.051-.201 3.287-4.72 2.826-4.72 2.826s4.611 1.945 3.772 4.871c-.763 2.674-4.234 2.096-4.234 2.096s2.591 1.66 1.367 4.091c-1.476 2.926-8.342-1.727-12.4-.058-.914.377-15.619-18.512-15.619-18.512Z"/>
  <path fill="#263238" d="M399.974 192.963c2.817-.385 9.448.369 14.06 3.387.1.068.109.185 0 .143-5.785-2.247-11.579-3.211-14.06-3.471-.034 0-.025-.05 0-.059Zm.947-6.841c2.817-.386 9.449.369 14.06 3.387.101.067.109.185 0 .143-5.785-2.247-11.578-3.211-14.06-3.471-.033 0-.025-.051 0-.059Zm-1.09 12.987c2.465-.084 9.265 1.006 13.834 4.225.101.076.101.185 0 .143-5.944-2.591-11.369-3.899-13.834-4.31-.033 0-.025-.058 0-.058Zm6.674 8.048c-.419-.31-3.89-1.031-7.101.034-.076.025-.059.142.025.142a82.207 82.207 0 0 1 3.697-.117c-1.584 3.572-5.491 5.969-7.21 6.825-.109.05-.025.218.084.184 3.353-.914 6.615-3.521 7.386-7.001.453.026 2.817.118 3.094.026.042-.017.059-.076.025-.101v.008Z"/>
  <path fill="#000" d="M433.2 208.298c-2.465 10.236-18.236 54.437-41.191 58.31-1.249.21-2.641-.268-4.075-1.35l44.016-63.056c1.501.747 1.996 2.977 1.25 6.096Z" opacity=".1"/>
  <path fill="#BF1B1B" d="m413.229 270.448 1.761-21.396s-6.364-6.866-2.868-15.452c1.769-4.351 10.095-22.796 16.777-30.282 5.608-6.288 14.11-2.18 17.489 1.978 9.7 11.939 14.814 26.686 25.973 62.712l-59.132 2.448v-.008Z"/>
  <path fill="#263238" d="M430.668 245.204c-2.407.209-4.838.545-7.227 1.291a38.503 38.503 0 0 0-3.538 1.316c-.587.243-1.174.461-1.761.671-.604.218-1.249.411-1.87.402-.058 0-.067.126-.008.135.595.067 1.165.125 1.761.067.57-.051 1.148-.202 1.71-.369 1.207-.361 2.406-.805 3.613-1.182 2.432-.763 4.863-1.526 7.32-2.029.109-.025.109-.31 0-.302Zm5.651 3.622c-1.937-.436-3.916-.738-5.886-.839-.989-.05-1.979-.008-2.976.067-.478.034-.948.084-1.426.151-.519.067-1.048.235-1.567.294-.051 0-.067.134-.009.134.495-.025.989.067 1.476.084.494.017.989.025 1.484.042.989.033 1.978.075 2.968.092 1.978.033 3.957.092 5.927.235.109 0 .118-.227.017-.252l-.008-.008Z"/>
  <path fill="#DD6A57" d="M448.802 210.846c10.556 22.444 18.194 63.886 11.838 69.629-7.076 6.397-21.722-25.009-21.152-26.342.427-1.006.561-24.255-.084-41.878-.646-17.606 6.791-6.959 9.407-1.409h-.009Z"/>
  <path fill="#BF1B1B" d="M439.32 254.108c.101-2.524-.277-33.57-.277-43.547 0-8.954 2.624-11.704 7.504-4.435 8.979 13.381 19.468 48.971 18.864 64.959-.587 15.393-9.348 12.375-16.517 2.658-5.868-7.956-9.566-19.635-9.566-19.635h-.008Z"/>
  <path fill="#263238" d="M439.437 258.224a375.331 375.331 0 0 1-.872-35.799 374.747 374.747 0 0 1 .872 35.799Z"/>
  <path fill="#263238" d="M438.616 229.358c-.663-1.442-1.09-2.993-1.09-4.577.57 1.484.981 2.984 1.09 4.577Z"/>
  <path fill="#EB9481" d="M458.855 280.182c-6.188 2.917-15.98-1.451-41.669-10.136-3.555-1.199-1.819-28.573 2.038-27.483 4.862 1.375 23.45 7.747 24.749 8.384 10.966 5.382 19.082 27.256 14.882 29.235Z"/>
  <path fill="#EB9481" d="M423.457 243.762s-8.643-4.276-14.236-5.995c-7.486-2.305-14.898-1.207-17.983-.57-6.431 1.35-21.036 9.047-19.552 13.641 1.342 4.158 15.88-4.469 15.88-4.469s-16.274 6.347-13.733 11.059c2.54 4.712 18.838-6.263 18.838-6.263s-16.575 6.9-13.188 11.343c2.558 3.362 17.884-5.751 17.884-5.751s-14.203 6.028-11.721 9.6c2.741 3.94 17.413-3.58 17.413-3.58 7.839 8.006 14.806 9.381 19.845 9.222l5.274 1.819-2.876-29.344-1.853-.712h.008Z"/>
  <path fill="#263238" d="M393.057 243.821c-1.937.679-3.907 1.349-5.776 2.196a67.544 67.544 0 0 0-5.5 2.775c-4.377 2.499-6.724 4.746-6.565 4.62 3.79-2.909 10.446-6.045 12.316-6.892 1.87-.847 3.689-1.786 5.559-2.632.05-.026.008-.084-.034-.067Zm3.186 6.698c-2.44.973-4.896 1.845-7.286 2.926-2.381 1.073-4.552 2.306-6.858 3.538-.176.093-.067.16.118.067 2.347-1.14 4.611-2.02 6.975-3.135 2.356-1.107 4.687-2.323 7.076-3.345.034-.017.009-.067-.025-.059v.008Zm3.764 5.265c-3.798 1.292-7.361 3.287-10.798 5.324-.168.101-.017.168.159.076 3.555-1.836 6.338-3.304 10.69-5.265.067-.034.033-.16-.042-.135h-.009Z"/>
  <path fill="#BF1B1B" d="m425.394 240.383 4.444 39.522s26.862 5.047 32.001 1.199c3.672-2.75-5.181-24.204-17.019-30.761l-19.418-9.96h-.008Z"/>
  <path fill="#263238" d="M456.029 263.028c-.788-2.549-4.426-8.82-11.209-12.71-.059-.033-.126.05-.067.092 4.77 3.387 10.22 10.271 11.184 12.66.025.059.117.017.101-.042h-.009Zm-18.721 13.155c-.201-3.84-.612-7.663-1.023-11.486-.419-3.823-.83-7.655-1.342-11.47-.293-2.154-.57-4.309-.93-6.455-.009-.059-.109-.051-.101 0 .201 3.831.595 7.663.981 11.477.394 3.832.822 7.655 1.291 11.478.269 2.155.57 4.309.931 6.456.017.109.201.1.193-.009v.009Z"/>
  <path fill="#263238" d="M425.142 239.813c1.417.478 16.886 8.208 21.212 11.478.05.033-.369.083-.419.042-1.979-1.669-18.998-9.86-20.281-10.69-.008.117.277 3.806.251 3.924-.016.075-.134.109-.167.016-.076-.218-.78-4.845-.596-4.787v.017Zm4.696 40.092c8.576 1.509 17.304 2.96 26.032 2.406 7.151-.519 8.342-3.06 8.92-9.792.612-13.934-2.632-27.894-6.397-41.249 2.331 6.615 4.1 13.422 5.425 20.322 1.115 6.473 4.938 27.458-2.658 30.351-3.379 1.299-7 1.257-10.538 1.14-7.035-.369-13.977-1.568-20.793-3.169l.009-.009Z"/>
  <path fill="#EB9481" d="M439.932 202.211c.059 1.199-7.889 10.052-13.079 11.276-1.694.394.411-8.786.411-8.786l-.344-.629-4.812-8.837 9.063-10.287 1.333-1.4s1.157 2.507 2.565 5.642c.067.143.134.294.202.445.083.176.167.344.234.503.218.469.436.939.646 1.417.159.36.318.721.469 1.106.168.386.319.763.478 1.149 1.543 3.832 2.8 7.906 2.834 8.409v-.008Z"/>
  <path fill="#263238" d="M435.069 189.182c-.553 8.292-5.684 13.071-8.149 14.89l-4.812-8.837 9.063-10.287 1.333-1.4s1.157 2.507 2.565 5.642v-.008Z"/>
  <path fill="#EB9481" d="M404.728 181.67c.486 17.657 11.117 19.359 14.923 19.25 3.454-.101 15.217-.872 16.558-18.487 1.342-17.615-7.017-22.972-14.94-23.165-7.914-.193-17.028 4.737-16.541 22.394v.008Z"/>
  <path fill="#263238" d="M406.497 178.769c.41-.067.779-.201 1.182-.31.452-.126.821-.176 1.14-.545.168-.201.134-.578-.042-.763-.411-.427-1.006-.411-1.551-.285-.595.134-1.023.394-1.392.88-.36.47.118 1.124.663 1.032v-.009Zm12.131-.126c-.419-.025-.796-.125-1.207-.192-.461-.076-.838-.093-1.191-.428-.192-.184-.192-.562-.033-.763.369-.469.956-.511 1.517-.436.604.076 1.057.294 1.476.738.411.427-.008 1.132-.562 1.09v-.009Zm-2.582 3.798c0-.05.092.051.092.101 0 1.199.185 2.582 1.283 2.951.034.009.034.076-.008.067-1.333-.151-1.577-1.987-1.375-3.127l.008.008Z"/>
  <path fill="#263238" d="M417.086 181.159c1.928-.202 2.179 3.68.394 3.856-1.761.176-2.013-3.697-.394-3.856Z"/>
  <path fill="#263238" d="M417.857 181.318c.352.201.713.562 1.124.578.477.017.804-.41 1.089-.821.034-.042.068-.009.068.042.058.738-.177 1.526-.965 1.685-.721.151-1.282-.478-1.517-1.207-.042-.135.067-.352.201-.269v-.008Zm-8.501 1.308c-.009-.042-.093.067-.084.109.126 1.199.067 2.59-.989 3.068-.034.017-.026.076.016.067 1.308-.285 1.367-2.129 1.057-3.244Z"/>
  <path fill="#263238" d="M408.19 181.452c-1.936 0-1.811 3.874-.008 3.882 1.769 0 1.635-3.874.008-3.882Z"/>
  <path fill="#263238" d="M407.394 181.737c-.302.218-.587.604-.956.637-.428.042-.755-.369-1.04-.763-.033-.042-.058 0-.058.042 0 .747.276 1.509.989 1.627.654.109 1.107-.545 1.266-1.291.025-.134-.084-.344-.201-.26v.008Zm10.404 9.977c-.209.344-.394.788-.805.931-.394.134-.922.075-1.324.025-.042 0-.067.042-.034.075.419.369 1.124.487 1.643.252.503-.227.646-.746.654-1.266 0-.076-.092-.076-.125-.025l-.009.008Zm-5.768-3.303s.101 1.811.26 2.641c.017.075.226.075.511.033h.034c1.517-.058 2.892-.855 3.555-2.23.042-.092-.084-.159-.143-.092-.939 1.023-2.113 1.467-3.404 1.744-.1-.218-.067-3.111-.201-3.094-.461.05-1.299.537-1.802.797-.319-3.765-.034-7.554-.411-11.294-.017-.134-.21-.134-.227-.008-.578 3.949-.31 8.292-.075 12.182.025.486 1.618-.47 1.92-.679h-.017Z"/>
  <path fill="#263238" d="M435.975 184.722c-4.108-1.316-4.813-5.349-4.813-5.349-5.08-1.425-8.174-4.829-8.493-5.181.168.343 1.35 2.842 2.004 4.099-11.394-.62-15.946-8.677-15.946-8.677-3.136 4.066-3.555 6.464-3.924 7.68 0 0-.972-6.808 1.937-11.839 3.563-6.153 9.558-5.86 9.558-5.86s8.3-3.706 15.963 2.716c8.25 6.926 3.714 22.411 3.714 22.411Z"/>
  <path fill="#263238" d="M415.979 177.553c1.903.763 3.957 1.183 5.978 1.35.017 0 .017-.025 0-.025-3.253-.478-6.28-1.752-8.803-3.865a17.058 17.058 0 0 1-2.842-3.035c-.856-1.182-1.719-2.607-2.029-4.049-.026-.109-.193-.076-.168.033.327 1.518.645 2.918 1.459 4.268a12.159 12.159 0 0 0 2.951 3.353c1.048.822 2.222 1.467 3.462 1.97"/>
  <path fill="#EB9481" d="M434.482 189.241a3.45 3.45 0 0 1-.788.302c-.293.092-.57.117-.821.117-.403 0-.755-.075-1.048-.21a2.65 2.65 0 0 1-.721-.436 3.448 3.448 0 0 1-.78-.905l.436-4.796s3.211-5.919 5.844-4.829c2.649 1.082.679 9.348-2.113 10.774l-.009-.017Z"/>
  <path fill="#263238" d="M435.975 180.823c.05-.008.067.059.025.076-1.953 1.064-2.809 3.085-3.337 5.139.52-.83 1.3-1.333 2.398-.729.059.033.017.117-.042.117-.855-.084-1.45.134-1.937.864-.343.519-.553 1.157-.779 1.735-.076.193-.42.134-.369-.084 0-.017 0-.033.008-.05-.352-2.599 1.258-6.489 4.033-7.068Z"/>
  <path fill="#fff" d="M434.155 188.528a.818.818 0 0 1-.888.746.818.818 0 0 1-.746-.888.824.824 0 0 1 .888-.747.818.818 0 0 1 .746.889Zm1.526-1.417a.58.58 0 1 1-1.157-.101.58.58 0 0 1 1.157.101Z"/>
  <path fill="#263238" d="M404.702 180.58c.193 7.42 2.767 16.055 10.103 19.25.99.494 2.054.779 3.119 1.09-9.717-1.09-14.068-11.587-13.222-20.34Z"/>
  <path fill="#455A64" d="m104.013 326.487 2.801 16.784 18.956 114.165h3.06l-13.792-114.165-2.037-16.784h-8.988Z"/>
  <path fill="#000" d="M113.001 326.487h-8.988l2.801 16.784h8.224l-2.037-16.784Z" opacity=".1"/>
  <path fill="#455A64" d="M44.479 457.436h3.06l18.956-114.165 2.8-16.784h-8.987l-2.038 16.784-13.79 114.165Z"/>
  <path fill="#000" d="m60.308 326.487-2.038 16.784h8.225l2.8-16.784h-8.987Z" opacity=".1"/>
  <path fill="#455A64" d="M8 457.436h3.06l18.956-114.165 2.8-16.784H23.83l-2.037 16.784L8 457.436Z"/>
  <path fill="#000" d="M21.792 343.271h8.224l2.8-16.784H23.83l-2.037 16.784Z" opacity=".1"/>
  <path fill="#455A64" d="M12.854 334.368H131.38v-14.63H79.381l-17.48-101.69H18.145l-5.29 116.32Z"/>
  <path fill="#000" d="M12.854 334.368h7.571l4.93-116.32h-7.21l-5.29 116.32Z" opacity=".1"/>
  <path fill="#AD6359" d="M149.639 456.48c-2.649.336-75.422-14.73-77.77-17.011-.285-.251.94-6.858 2.759-15.879l.033-.176c1.132-5.718 20.818-52.266 20.818-52.266l47.227 11.671-20.013 43.244s9.004 6.104 16.743 11.922c0 .009.017.017.017.026 4.779 3.571 8.903 6.782 9.784 7.839 2.297 2.749 3.035 10.329.394 10.639l.008-.009Z"/>
  <path fill="#EBEBEB" d="M149.639 456.472c-2.641.335-75.414-14.731-77.77-17.003-.285-.26.948-6.858 2.767-15.887l.034-.168c.419-2.13 3.429-9.943 7.025-18.906 7.772 1.845 35.624 8.485 45.752 11.293l-4.737 10.246s9.004 6.103 16.743 11.922c0 .008.008.008.008.016 4.779 3.572 8.904 6.791 9.784 7.839 2.297 2.759 3.044 10.338.394 10.64v.008Z"/>
  <path fill="#BF1B1B" d="M149.891 456.816c-2.725.318-75.548-14.94-77.963-17.28-.922-.88.344-12.341 3.94-24.548l46.942 9.893s24.364 18.135 26.729 20.985c2.355 2.842 3.068 10.631.352 10.95Z"/>
  <path fill="#263238" d="M149.455 453.68c-12.149-2.859-61.405-13.238-73.629-15.141-.1-.017-.117.05-.016.075 11.972 3.094 61.312 13.079 73.603 15.268.26.05.302-.143.042-.202Zm-23.073-26.77c-4.871-1.09-10.899-.553-14.773 2.809-.151.134.034.344.202.293 4.896-1.35 9.448-2.171 14.529-2.481.361-.026.394-.545.042-.621Zm3.463 2.255c-4.871-1.089-10.9-.553-14.773 2.809-.151.134.034.344.201.294 4.896-1.35 9.449-2.172 14.53-2.482.36-.025.394-.545.042-.621Zm3.462 2.264c-4.871-1.09-10.899-.553-14.772 2.809-.151.134.033.344.201.293 4.896-1.35 9.449-2.171 14.529-2.481.361-.026.394-.545.042-.621Zm3.471 2.264c-4.871-1.09-10.899-.553-14.772 2.809-.151.134.033.343.201.293 4.896-1.35 9.449-2.171 14.529-2.482.361-.025.394-.545.042-.62Z"/>
  <path fill="#000" d="M149.891 456.816c-.847.092-8.502-1.308-18.722-3.379l6.573-17.246c5.551 4.284 10.765 8.434 11.805 9.684 2.348 2.833 3.069 10.622.344 10.949v-.008Z" opacity=".1"/>
  <path fill="#263238" d="m124.579 427.212-50.127-11.838s42.087-92.66 38.415-97.54c-1.836-2.439-48.51-3.16-63.358-15.753-19.283-16.357-6.346-41.358-6.346-41.358l52.123-1.551s-.63 10.899 1.408 12.542c1.342 1.098 63.45 6.322 70.266 27.282 8.368 25.696-42.381 128.207-42.381 128.207v.009Z"/>
  <path fill="#37474F" d="M121.779 313.517c-1.048-.897-2.624-1.006-3.932-1.224-7.52-1.258-15.049-2.532-22.57-3.79-7.042-1.182-14.118-2.23-21.127-3.588-5.802-1.124-11.704-2.633-16.726-5.785-5.022-3.153-8.502-7.89-10.254-13.423-1.752-5.534-1.878-11.478-1.325-17.204.135-1.4.394-2.8.654-4.184.017-.109-.15-.142-.167-.033-1.912 10.689-2.08 23.098 5.927 31.616 3.899 4.15 9.264 6.59 14.73 8.174 6.171 1.786 12.627 2.624 18.957 3.689 7.52 1.258 15.049 2.524 22.578 3.773 3.622.604 7.294 1.073 10.891 1.828.687.142 1.467.343 1.962.863.679.721.494 1.744.318 2.608-.36 1.777-.838 3.529-1.35 5.265-4.108 14.035-33.644 79.866-34.458 81.408-.084.16.168.285.26.126 6.9-12.308 28.808-62.897 33.36-76.177 1.165-3.387 2.239-6.824 2.96-10.329.259-1.266.41-2.691-.688-3.63v.017Zm5.114 101.538c-1.366-.637-14.529-3.773-17.43-4.452-5.81-1.366-24.146-5.366-27.508-5.751-.092-.009-.117.134-.033.167 2.842.99 14.512 3.832 17.413 4.503 5.827 1.333 25.848 5.785 27.508 5.81.143 0 .193-.201.059-.26l-.009-.017Z"/>
  <path fill="#AD6359" d="M223.183 457.604c-2.523.855-76.839.578-79.597-1.182-.327-.193-.444-6.909-.461-16.114v-.185c-.025-5.827-1.82-55.628-1.82-55.628l46.515-.385 2.901 49.038s10.035 4.183 18.78 8.35c.008.009.025.009.025.025 5.391 2.549 10.077 4.88 11.151 5.735 2.8 2.238 5.03 9.516 2.506 10.346Z"/>
  <path fill="#EBEBEB" d="M223.183 457.595c-2.532.847-76.847.579-79.597-1.182-.327-.184-.445-6.908-.461-16.105v-.185c0-.402 0-.822-.017-1.232 0-.302 0-.596-.017-.897 0-.436-.017-.881-.033-1.333a2869.57 2869.57 0 0 0-.52-17.045l47.378-.31.813 13.833s10.036 4.192 18.78 8.351c.009.008.025.008.025.016 5.391 2.549 10.078 4.88 11.151 5.735 2.792 2.247 5.039 9.516 2.507 10.346l-.009.008Z"/>
  <path fill="#BF1B1B" d="M223.494 457.88c-2.608.856-77.016.403-79.841-1.408-1.073-.679-2.121-12.157-1.023-24.842l47.973.352s27.483 12.92 30.375 15.242c2.876 2.323 5.123 9.81 2.524 10.665l-.008-.009Z"/>
  <path fill="#263238" d="M222.446 454.896c-12.467-.386-62.813-.746-75.163-.176-.1 0-.1.075 0 .075 12.35.646 62.696.604 75.163.302.26 0 .26-.193 0-.201Zm-27.944-21.639c-4.989-.101-10.79 1.626-13.918 5.692-.117.16.101.327.252.252 4.527-2.297 8.828-4.008 13.75-5.332.343-.092.276-.604-.084-.612Zm3.848 1.526c-4.988-.101-10.79 1.626-13.917 5.692-.118.16.1.327.251.252 4.528-2.297 8.829-4.008 13.75-5.324.344-.092.277-.612-.084-.612v-.008Zm3.84 1.525c-4.989-.1-10.79 1.627-13.917 5.693-.118.159.1.327.251.252 4.527-2.297 8.828-4.008 13.75-5.324.344-.092.276-.612-.084-.612v-.009Zm3.848 1.526c-4.988-.1-10.79 1.627-13.917 5.693-.118.159.1.327.251.252 4.528-2.298 8.829-4.008 13.75-5.333.344-.092.277-.603-.084-.612Zm-10.664-6.204-54.505-.486s.654-86.28-3.462-91.536c-5.483-7.009-82.172-6.85-98.63-29.713-14.772-20.533-2.305-49.592-2.305-49.592l58.084-1.727s-1.81 9.223-5.382 18.294c0 0 69.964 12.911 89.566 34.375 13.23 14.487 16.625 120.385 16.625 120.385h.009Z"/>
  <path fill="#37474F" d="M99.386 272.888c-1.677.293-3.337.972-4.922 1.576a60.638 60.638 0 0 0-4.913 2.138c-3.177 1.551-6.204 3.32-9.189 5.198-.092.059 0 .184.093.142 3.144-1.634 6.388-3.102 9.641-4.502 1.568-.67 3.127-1.35 4.695-2.02 1.576-.679 3.253-1.258 4.746-2.096.192-.109.092-.478-.143-.436h-.008Z"/>
  <path fill="#37474F" d="M95.906 258.551c-.662 2.649-1.249 5.324-2.004 7.948-.343 1.207-.687 2.432-1.148 3.605-.386.99-.964 2.113-2.113 2.331-1.316.252-1.694-.872-1.585-1.962.118-1.215.428-2.431.671-3.622.277-1.375.554-2.75.805-4.133.126-.687.252-1.383.369-2.071.034-.176.16-1.501.252-1.878a.073.073 0 0 0 .075.059h.042s.075-.034.084-.076c.017-.1.008-.125-.067-.201a.09.09 0 0 0-.118-.008c-.251.134-.268.486-.352.738-.218.67-.436 1.341-.629 2.02a116.445 116.445 0 0 0-1.048 3.815 644.299 644.299 0 0 0-.947 3.831c-.235.956-.511 1.962-.26 2.943.285 1.073 1.14 1.61 2.08 1.694-.043.083-.101.167-.143.26-.118.259-.202.536-.302.804-.1.277-.193.545-.268.83a3.293 3.293 0 0 0-.076.411c-.017.151.017.302 0 .461-.033.235.294.386.411.151.067-.134.168-.243.251-.369.084-.134.143-.293.193-.444a8.81 8.81 0 0 0 .235-.805c.067-.268.151-.536.201-.805.034-.159.034-.327.05-.486a3.051 3.051 0 0 0 1.526-.578c.789-.596 1.25-1.51 1.585-2.423.403-1.107.713-2.247 1.023-3.379.771-2.8 1.425-5.651 1.694-8.543.025-.311-.403-.42-.478-.101l-.009-.017Zm-34.542 6.489c-.243 1.317-.394 2.641-.696 3.949a40.525 40.525 0 0 1-1.065 3.798c-.402 1.191-.897 2.381-1.618 3.421-.696.998-1.618 1.869-2.574 2.624a21.967 21.967 0 0 1-6.229 3.471 29.143 29.143 0 0 1-3.462 1.014c-.612.135-1.233.244-1.853.327-.52.067-1.031.084-1.493.344-.2.109-.167.419.026.52.796.386 1.911.176 2.75.084a19.469 19.469 0 0 0 2.942-.52c1.945-.495 3.832-1.316 5.559-2.348 1.693-1.006 3.395-2.263 4.645-3.806 1.3-1.593 2.02-3.462 2.481-5.449.554-2.373.94-4.955.813-7.403 0-.143-.226-.168-.251-.017l.025-.009Z"/>
  <path fill="#37474F" d="M145.682 343.104c-.143-1.568-.444-3.144-1.023-4.62-1.207-3.094-3.781-4.653-6.892-5.441-3.672-.931-7.461-1.484-11.201-2.088a485.388 485.388 0 0 0-11.469-1.702c-7.755-1.081-15.527-2.079-23.249-3.378-7.688-1.292-15.342-2.885-22.804-5.14-6.858-2.071-13.9-4.636-19.392-9.398-11.822-10.246-12.25-27.416-10.807-41.786.2-2.029.453-4.05.696-6.078.016-.109-.151-.143-.16-.034-.939 8.091-2.02 16.231-1.215 24.381.654 6.657 2.607 13.347 6.464 18.88 3.999 5.743 9.926 9.449 16.323 12.04 6.993 2.825 14.387 4.728 21.757 6.271 15.326 3.211 30.962 4.569 46.388 7.21 1.904.327 3.798.671 5.693 1.04 1.736.335 3.513.654 5.139 1.375 3.505 1.568 4.503 4.972 4.905 8.501 1.467 12.878 3.647 71.49 3.63 73.545 0 .184.277.167.285-.017.42-21.673-1.601-57.011-3.068-73.57v.009Z"/>
  <path fill="#37474F" d="M140.71 369.077c-.075-5.667-.243-3.177-.369-8.836-.117-5.341 0-10.782-1.039-16.056-.419-2.129-.805-4.938-3.086-5.919-1.173-.503-2.473-.771-3.705-1.098a96.356 96.356 0 0 0-4.05-.99c-6.263-1.349-12.592-2.196-18.939-3.051-.118-.017-.168.151-.042.176 5.366 1.031 10.731 2.087 16.055 3.295 2.666.603 5.324 1.241 7.957 1.962 1.081.293 2.548.503 3.311 1.4.788.93 1.023 2.439 1.291 3.58 1.225 5.173 1.132 10.572 1.275 15.845.142 5.475.276 2.792.436 8.267.176 6.137.335 12.299.763 18.428.008.159.26.159.26 0 .117-5.668-.034-11.335-.118-17.003Zm49.482 51.436c-1.475-.319-14.999-.52-17.983-.553-5.97-.067-24.741.016-28.103.377-.093.008-.093.159 0 .168 2.993.343 14.999.578 17.975.595 5.978.033 26.485.017 28.111-.319.143-.033.143-.234 0-.268ZM89.534 277.021c10.698 1.174 21.337 3.58 31.683 6.506 10.438 2.951 20.684 6.623 30.577 11.067 5.558 2.498 10.932 5.29 16.273 8.225.109.058 0 .209-.101.159-9.574-4.989-19.593-9.29-29.729-12.978-10.103-3.681-20.449-6.708-30.962-8.988-5.919-1.291-11.88-2.289-17.85-3.287-.394-.067-.285-.746.11-.704Z"/>
  <path fill="#BF1B1B" d="M30.243 277.465c.167.185 68.279-4.804 68.279-4.804l-.486-4.359s3.244-3.396.737-12.392c-5.298-19.04-15.879-57.028-19.442-61.203-4.335-5.072-11.863-6.64-17.405-3.379-11.629 6.842-28.824 56.249-33.369 67.927-2.238 5.76 2.021 9.416 2.7 12.124 0 0-1.232 5.86-1.023 6.095l.009-.009Z"/>
  <path fill="#263238" d="M95.219 268.008c-28.338 1.191-59.133 3.379-61.606 3.505-.117 0-.117.193 0 .184 29.713-.411 59.157-3.077 61.606-3.42.167-.026.176-.277 0-.269Z"/>
  <path fill="#FFC4C0" d="M75.684 207.015c-4.167-.738-8.803-10.153-9.357-15.938-.033-.394 1.912-3.572 4.1-7.546 1.316-2.414 2.725-5.131 3.832-7.705l14.462 10.866s-3.907 4.712-5.81 9.214a5.96 5.96 0 0 0-.344 1.107c-.017.05-.025.117-.05.184-.537 2.146-2.8 10.522-6.833 9.818Z"/>
  <path fill="#263238" d="M82.567 197.013c-.017.05-.025.109-.05.176-.537-.134-1.099-.352-1.702-.612-9.256-4.234-6.531-16.617-5.575-20.013l3.613 2.717 9.868 7.419s-3.915 4.712-5.81 9.214c-.16.378-.277.738-.352 1.099h.008Zm17.321-38.885s4.888 3.488 4.611 9.205c-.276 5.718-2.858 11.185-3.395 11.352-.537.168-1.216-20.557-1.216-20.557Z"/>
  <path fill="#FFC4C0" d="M74.418 159.436c-2.834 5.868-2.331 24.162 1.442 28.807 5.466 6.732 15.778 8.887 21.84 2.012 5.877-6.665 4.804-30.501.461-34.86-6.388-6.423-19.568-4.628-23.752 4.041h.009Z"/>
  <path fill="#263238" d="M90.155 173.689c-.009-.051-.093.058-.093.108.067 1.233-.067 2.658-1.173 3.086-.034.017-.034.075.008.067 1.358-.218 1.51-2.113 1.25-3.27l.008.009Z"/>
  <path fill="#263238" d="M89.023 172.431c-1.987-.109-2.054 3.873-.21 3.974 1.811.092 1.878-3.882.21-3.974Zm8.267 1.551c.008-.05.091.059.091.109-.058 1.232.084 2.649 1.191 3.077.034.017.034.075-.008.067-1.358-.218-1.526-2.104-1.275-3.261v.008Z"/>
  <path fill="#263238" d="M98.404 172.716c1.987-.117 2.08 3.865.235 3.974-1.81.109-1.903-3.873-.235-3.974Zm-10.957-2.867c.544-.109 1.03-.311 1.567-.47.596-.184 1.09-.277 1.501-.788.218-.277.16-.788-.092-1.023-.57-.553-1.358-.503-2.088-.31-.788.21-1.35.578-1.828 1.249-.46.646.218 1.493.94 1.35v-.008Zm12.458-.495c-.553-.101-1.04-.285-1.576-.436-.604-.176-1.098-.252-1.517-.755-.227-.268-.177-.779.067-1.022.561-.571 1.35-.537 2.087-.361.797.193 1.358.545 1.853 1.199.478.629-.184 1.501-.905 1.367l-.009.008ZM87.95 184.386c.276.311.536.73.98.797.428.067.94-.092 1.342-.218.042-.008.075.034.05.067-.352.453-1.048.696-1.61.562-.553-.134-.788-.637-.888-1.157-.017-.076.084-.092.126-.051Zm1.55-3.596c.613 1.115 1.585 1.769 2.667 2.062.478.134.998.185 1.5.176.101 0 .202 0 .294-.017.092 0 .176-.008.268-.025.143-.008.235-.125.269-.26v-.251c.1-.947.109-2.39.109-2.39.335.202 2.045 1.116 2.045.621.042-4.117.093-8.686-.737-12.786-.017-.134-.227-.117-.227.017-.201 3.949.302 7.906.168 11.88-.545-.251-1.442-.712-1.937-.738-.134.026.034 2.792-.042 3.22 0 0 0 .017-.008.042-1.602.092-2.767-.47-4.243-1.652-.083-.075-.192 0-.125.101Z"/>
  <path fill="#263238" d="M93.123 182.508s-.906 1.048-2.055 1.359c-.427.117-.871.142-1.333-.017-.939-.327-.905-1.207-.67-1.945.184-.612.511-1.124.511-1.124s1.308 1.417 3.547 1.727Z"/>
  <path fill="#FF9ABB" d="M91.068 183.867c-.427.117-.871.142-1.333-.017-.939-.327-.905-1.207-.67-1.945 1.023.184 1.995.956 2.003 1.962Z"/>
  <path fill="#263238" d="M74.41 175.885c1.986.654 4.418-5.299 5.114-7.596.62-2.02 1.425-8.468 1.525-8.904.11-.436 8.586 5.911 13.658 4.544 5.072-1.358 8.535-5.81 8.652-7.914.118-2.104-6.02-7.604-11.427-7.998-5.408-.394-12.886 6.321-12.886 6.321s2.557-2.917 2.473-3.161c-.076-.243-3.605 1.074-4.301 3.547 0 0 .763-3.111.495-3.178-.26-.067-3.044 2.557-2.474 4.595 0 0-3.202 2.649-3.563 5.634-.36 2.976.386 13.33 2.717 14.102l.016.008Z"/>
  <path fill="#263238" d="M98.312 162.957c-1.55.671-3.102 1.408-4.796 1.593-1.836.201-3.722-.302-5.407-.989-1.727-.705-3.287-1.711-4.704-2.926-1.232-1.065-2.322-2.34-3.647-3.295-.327-.235-.73.234-.528.553 1.979 3.11 5.534 5.751 8.988 6.934 3.638 1.24 7.101.503 10.12-1.828.016-.017 0-.05-.017-.042h-.009Z"/>
  <path fill="#FFC4C0" d="M77.511 174.56s-2.8-6.531-5.684-5.642c-2.884.88-1.601 9.767 1.2 11.536 2.8 1.761 4.484-.805 4.484-.805v-5.089Z"/>
  <path fill="#263238" d="M72.255 171.45c-.05-.017-.076.05-.034.075 1.954 1.308 2.658 3.513 3.019 5.727-.47-.923-1.241-1.535-2.457-.998-.067.025-.025.126.034.126.913 0 1.509.276 1.953 1.098.31.579.47 1.266.654 1.903.059.21.427.185.394-.05v-.05c.62-2.7-.704-6.942-3.563-7.823v-.008Z"/>
  <path fill="#EBEBEB" d="m81.922 199.687-4.561 6.976-9.063-20.172-2.826 3.823 7.965 22.352 3.831-5.014 2.28 4.829 2.851-8.744-.477-4.05Z"/>
  <path fill="#263238" d="M65.472 190.314c2.499 7.68 5.156 15.301 7.873 22.897l.293-.386 3.815-5.03-.403-.042 2.323 4.804.201.41c.973-3.06 1.895-6.145 2.817-9.23-1.014 2.892-2.046 5.785-3.027 8.686l.336-.017-2.222-4.855-.16-.352-.242.31-3.857 4.997.461.076c-2.65-7.454-5.349-14.89-8.208-22.26v-.008Z"/>
  <path fill="#FFC4C0" d="M59.16 204.466c4.803 19.853 19.307 54.152 25.092 58.596 5.123 3.932 30.635-.629 41.945-2.448 4.234-.68-.804-29.495-5.315-28.674-5.408.981-23.19 2.39-24.272 1.434-1.19-1.056-15.493-21.832-25.906-34.257-9.432-11.26-13.356-2.155-11.545 5.349Zm77.517 25.932c8.753.486 10.925 1.962 18.529-1.551 4.988-2.306 8.602-.109 5.123 4.426-5.693 7.42-17.121 9.156-21.254 8.619l-2.398-11.503v.009Z"/>
  <path fill="#FFC4C0" d="M112.439 234.145s10.623-3.429 19.996-3.831c6.489-.277 20.667.687 31.214 16.944 2.507 3.856 3.337 11.125-3.044 6.313-4.527-3.421-6.363-6.95-9.365-8.459 0 0-.041 9.373-3.999 11.729-1.769 1.056-6.665 3.814-10.79 5.424 0 0-.587-.805-1.199-1.928 0 0-3.907 1.853-10.212-.025l-12.626-26.158.025-.009Z"/>
  <path fill="#FFC4C0" d="M138.664 231.035c2.658 2.129 8.217 6.724 11.445 12.073 3.596 5.936 8.92 18.336 4.51 20.943-3.236 1.912-5.684-2.641-5.684-2.641s1.123 5.592-2.18 6.682c-3.001.989-4.687-2.649-4.687-2.649s.093 3.504-2.984 3.907c-3.706.478-3.295-6.951-7.47-9.709-.939-.62 7.042-28.606 7.042-28.606h.008Z"/>
  <path fill="#263238" d="M143.209 245.858c2.171 2.406 5.701 9.147 5.801 15.426 0 .143-.1.218-.134.092-1.584-6.891-4.384-12.97-5.726-15.485-.017-.033.034-.058.059-.033Zm-5.886 3.798c1.66 2.272 4.98 9.373 4.871 15.745 0 .142-.117.209-.142.084-1.359-7.269-3.605-13.214-4.796-15.796-.017-.033.034-.058.059-.033h.008Z"/>
  <path fill="#BF1B1B" d="m123.624 265.929-5.517-35.732-20.86 2.146c-7.394-9.918-22.192-29.747-28.337-35.842-7.21-7.143-12.643-2.607-10.572 7.529 4.728 23.173 20.968 57.875 25.68 61.446 6.749 5.123 39.614.453 39.614.453h-.008Z"/>
  <path fill="#263238" d="M115.298 264.445c-.771-2.314-2.347-12.249-2.716-14.731-.361-2.431-1.492-12.483-1.861-15.032-.017-.143.176-.21.192-.067.403 2.515 4.553 27.34 4.511 29.805 0 .084-.101.101-.126.025Zm-16.944 3.429c-2.926.084-5.869-.017-8.786-.385-1.811-.26-3.723-.562-5.34-1.535-.94-.645-1.652-1.551-2.34-2.431-6.607-9.684-10.648-20.977-14.94-31.817-2.046-5.492-4.016-11.009-5.785-16.601 1.911 4.888 4.46 11.579 6.397 16.358 4.477 10.748 8.484 21.882 14.814 31.699.864 1.157 1.727 2.356 3.069 2.859 1.316.562 2.758.847 4.183 1.099 2.876.477 5.81.662 8.728.746v.008Z"/>
  <path fill="#263238" d="M63.058 220.614c-.797-1.006-1.56-2.088-1.912-3.329.595 1.115 1.367 2.188 1.912 3.329Zm17.958-9.315c5.642 6.565 10.413 13.859 16.013 20.457.084.109.219.201.294.285.93.042 2.012-.084 3.027-.159l5.91-.57 11.838-1.157h.034v.025l.109.981-.168-.973.034.025c-6.38.931-12.769 1.803-19.2 2.365-.603.033-1.156.125-1.777.033-.243-.109-.377-.277-.545-.436-5.575-6.531-10.362-14.068-15.569-20.884v.008Z"/>
  <path fill="#263238" d="M82.45 211.718c.67 1.09 1.308 2.264 1.509 3.538-.461-1.182-1.098-2.339-1.51-3.538Z"/>
  <path fill="#455A64" d="M237.546 269H82.236v4.805h155.31V269Zm-4.073 113.444H86.301v4.805h147.172v-4.805Z"/>
  <path fill="#37474F" d="M228.859 273.813H90.915v10.018H228.86v-10.018Z"/>
  <path fill="#455A64" d="M76.541 458.918H73l24.94-175.087h9.81L76.541 458.918Zm166.7 0h3.541l-24.94-175.087h-9.81l31.209 175.087Zm29.205-185.105h155.31v-4.805h-155.31v4.805Zm4.073 113.436H423.69v-4.805H276.519v4.805Z"/>
  <path fill="#37474F" d="M281.133 283.823h137.943v-10.018H281.133v10.018Z"/>
  <path fill="#455A64" d="M433.459 458.919H437l-24.94-175.088h-9.81l31.209 175.088Zm-166.708-.001h-3.542l24.941-175.087h9.809l-31.208 175.087Z"/>
  <path fill="#DBDBDB" d="M213.045 269.054h-45.341v-2.913l38.874-1.996-13.225-47.459h-5.567v-4.909h9.299l15.96 57.277Z"/>
  <path fill="#C7C7C7" d="m192.647 211.777-1.753 4.917h-3.099v-4.917h4.852Zm-2.853-49.373-4.982-.904-17.173 94.687 4.982.904 17.173-94.687Z"/>
  <path fill="#DBDBDB" d="m195 186.056-9.193 50.688-13.194 20.35 17.178-94.69L195 186.056Zm-36.659 82.998v-5.153L113 266.141v2.913h45.341Zm140.307 0h45.349v-2.913l-38.882-1.996 13.225-47.459h5.567v-4.909h-9.291l-15.968 57.277Z"/>
  <path fill="#C7C7C7" d="m319.046 211.777 1.753 4.917h3.108v-4.917h-4.861Zm20.035 45.326 4.982-.904-17.174-94.687-4.982.904 17.174 94.687Z"/>
  <path fill="#DBDBDB" d="m316.701 186.056 9.193 50.688 13.186 20.35-17.17-94.69-5.209 23.652Zm36.651 82.998v-5.153l45.341 2.24v2.913h-45.341Z"/>
  <path fill="#263238" d="M302.38 268.96h35.54v-8.13h-35.54v8.13Zm-19.38 0h19.38v-8.13H283v8.13Z"/>
  <path fill="#fff" d="M302.38 268.12h35.54v-6.44h-35.54v6.44Z"/>
  <path fill="#DBDBDB" d="M335.62 266.79c-2.77.03-5.54.06-8.31.07l-8.31.02-8.31-.02c-2.77-.01-5.54-.04-8.31-.07 2.77-.03 5.54-.06 8.31-.07l8.31-.02 8.31.02c2.77.01 5.54.04 8.31.07Zm0-1.26c-2.77.03-5.54.06-8.31.07l-8.31.02-8.31-.02c-2.77-.01-5.54-.04-8.31-.07 2.77-.03 5.54-.06 8.31-.07l8.31-.02 8.31.02c2.77.01 5.54.04 8.31.07Zm0-1.27c-2.77.03-5.54.06-8.31.07l-8.31.02-8.31-.02c-2.77-.01-5.54-.04-8.31-.07 2.77-.03 5.54-.06 8.31-.07l8.31-.02 8.31.02c2.77.01 5.54.04 8.31.07Zm0-1.26c-2.77.03-5.54.06-8.31.07l-8.31.02-8.31-.02c-2.77-.01-5.54-.04-8.31-.07 2.77-.03 5.54-.06 8.31-.07l8.31-.02 8.31.02c2.77.01 5.54.04 8.31.07Z"/>
  <path fill="#BF1B1B" d="M331.89 263.78v5.42l-3.23-2.7-3.23 2.7v-5.42c0-.46-.37-.83-.83-.83h6.47c.46 0 .83.37.83.83h-.01Z"/>
  <path fill="#37474F" d="M338.1 255.01H279v5.83h59.1v-5.83Z"/>
  <path fill="#455A64" d="M331.83 255.01h-5.51v5.83h5.51v-5.83Zm-9.12 0h-2.14v5.83h2.14v-5.83Z"/>
  <path fill="#BF1B1B" d="M308.86 255.01h36.78v-9h-36.78v9Z"/>
  <path fill="#BF1B1B" d="M280.78 255.01h28.09v-9h-28.09v9Z"/>
  <path fill="#000" d="M280.78 255.01h28.09v-9h-28.09v9Z" opacity=".2"/>
  <path fill="#fff" d="M310.08 254.07h35.57v-7.13h-35.57v7.13Z"/>
  <path fill="#DBDBDB" d="M343.34 252.6c-2.77.05-5.54.09-8.32.11l-8.32.03-8.32-.03c-2.77-.02-5.54-.05-8.32-.11 2.77-.05 5.54-.09 8.32-.11l8.32-.03 8.32.03c2.77.02 5.54.05 8.32.11Zm0-1.4c-2.77.05-5.54.09-8.32.11l-8.32.03-8.32-.03c-2.77-.02-5.54-.05-8.32-.11 2.77-.05 5.54-.09 8.32-.11l8.32-.03 8.32.03c2.77.02 5.54.05 8.32.11Zm0-1.4c-2.77.05-5.54.09-8.32.11l-8.32.03-8.32-.03c-2.77-.02-5.54-.05-8.32-.11 2.77-.05 5.54-.09 8.32-.11l8.32-.03 8.32.03c2.77.02 5.54.05 8.32.11Zm0-1.4c-2.77.05-5.54.09-8.32.11l-8.32.03-8.32-.03c-2.77-.02-5.54-.06-8.32-.11 2.77-.05 5.54-.09 8.32-.11l8.32-.03 8.32.03c2.77.02 5.54.05 8.32.11Z"/>
  <path fill="#455A64" d="M316.82 237h-32.28v9h32.28v-9Z"/>
  <path fill="#455A64" d="M335.11 237h-18.3v9h18.3v-9Z"/>
  <path fill="#fff" d="M316.82 237.93h-32.28v7.13h32.28v-7.13Z"/>
  <path fill="#DBDBDB" d="M286.63 239.4c2.52-.05 5.03-.09 7.55-.11l7.55-.03 7.55.03c2.52.02 5.03.05 7.55.11-2.52.05-5.03.09-7.55.11l-7.55.03-7.55-.03c-2.52-.02-5.03-.05-7.55-.11Zm0 1.4c2.52-.05 5.03-.09 7.55-.11l7.55-.03 7.55.03c2.52.02 5.03.05 7.55.11-2.52.05-5.03.09-7.55.11l-7.55.03-7.55-.03c-2.52-.02-5.03-.05-7.55-.11Zm0 1.4c2.52-.05 5.03-.09 7.55-.11l7.55-.03 7.55.03c2.52.02 5.03.05 7.55.11-2.52.05-5.03.09-7.55.11l-7.55.03-7.55-.03c-2.52-.02-5.03-.05-7.55-.11Zm0 1.4c2.52-.05 5.03-.09 7.55-.11l7.55-.03 7.55.03c2.52.02 5.03.06 7.55.11-2.52.05-5.03.09-7.55.11l-7.55.03-7.55-.03c-2.52-.02-5.03-.05-7.55-.11Z"/>
  <path fill="#263238" d="M291.17 240.23v8.06l3.23-2.7 3.23 2.7v-8.06c0-.46.37-.83.83-.83h-6.47c-.46 0-.83.37-.83.83h.01Z"/>
</svg>
