<svg width="1222" height="1222" xmlns="http://www.w3.org/2000/svg" xmlns:xlink="http://www.w3.org/1999/xlink" overflow="hidden"><defs><clipPath id="clip0"><rect x="1589" y="613" width="1222" height="1222"/></clipPath></defs><g clip-path="url(#clip0)" transform="translate(-1589 -613)"><path d="M1611.17 1277.48C1581.61 1247.91 1581.61 1199.99 1611.17 1170.43L2146.43 635.171C2175.99 605.609 2223.92 605.609 2253.48 635.171L2307 688.696 1664.7 1331 1611.17 1277.48Z" fill="#BF1B1B" fill-rule="evenodd"/><path d="M1665 1331.15 1727.19 1179 1976 1428.32 1825.52 1492 1665 1331.15Z" fill="#BF1B1B" fill-rule="evenodd"/><path d="M2414.82 903.151 1826 1491.38 1879.53 1544.85C1909.09 1574.38 1957.03 1574.38 1986.59 1544.85L2468.35 1063.57 2646.55 1241.59 2736 1117.05 2521.88 903.151C2492.32 873.617 2444.39 873.617 2414.82 903.151Z" fill="#BF1B1B" fill-rule="evenodd"/><path d="M2735.34 1117 2199.96 1652.66 2078.7 1531.34 2026.5 1583.56C2006.04 1604.04 1980.54 1616.41 1954 1620.68L2093.33 1760.08 2093.74 1759.67 2146.87 1812.83C2176.42 1842.39 2224.32 1842.39 2253.87 1812.83L2788.84 1277.57C2818.39 1248.02 2818.39 1200.09 2788.84 1170.52L2735.34 1117Z" fill="#BF1B1B" fill-rule="evenodd"/><path d="M2444 825.602 2307 689 2164 759.946 2319.5 915 2372.15 862.503C2392.44 842.262 2417.69 829.963 2444 825.602Z" fill="#BF1B1B" fill-rule="evenodd"/></g></svg>