<svg width="334" height="335" xmlns="http://www.w3.org/2000/svg" xmlns:xlink="http://www.w3.org/1999/xlink" xml:space="preserve" overflow="hidden"><defs><clipPath id="clip0"><rect x="2033" y="1070" width="334" height="335"/></clipPath></defs><g clip-path="url(#clip0)" transform="translate(-2033 -1070)"><path d="M2297.08 1279.15C2291.71 1276.53 2265.62 1263.78 2260.75 1262.06 2255.88 1260.24 2252.32 1259.43 2248.77 1264.69 2245.21 1269.94 2234.97 1281.78 2231.92 1285.22 2228.77 1288.76 2225.73 1289.16 2220.36 1286.53 2215.08 1283.9 2197.93 1278.44 2177.64 1260.44 2161.91 1246.59 2151.15 1229.41 2148.1 1224.15 2145.06 1218.89 2147.8 1216.05 2150.44 1213.43 2152.88 1211.01 2155.72 1207.26 2158.46 1204.23 2159.17 1203.32 2159.77 1202.52 2160.39 1201.7 2161.6 1199.78 2162.52 1197.95 2163.74 1195.43 2165.57 1191.9 2164.65 1188.86 2163.34 1186.23 2162.01 1183.6 2151.36 1157.72 2146.9 1147.2 2142.53 1136.69 2138.07 1138.5 2134.93 1138.5 2131.88 1138.5 2128.33 1138 2124.78 1138 2121.22 1138 2115.44 1139.31 2110.56 1144.57 2105.69 1149.83 2092 1162.57 2092 1188.45 2092 1194.52 2093.12 1200.59 2094.74 1206.35 2100.11 1224.85 2111.69 1240.11 2113.72 1242.75 2116.35 1246.19 2150.45 1300.99 2204.44 1322.12 2258.53 1343.05 2258.53 1336.07 2268.27 1335.16 2278.01 1334.34 2299.73 1322.52 2304.08 1310.18 2308.56 1297.94 2308.56 1287.43 2307.23 1285.21 2305.91 1283.1 2302.35 1281.78 2297.08 1279.15Z" fill="#252323" fill-rule="evenodd"/></g></svg>