<svg width="1387" height="485" viewBox="0 0 1387 485" fill="none" xmlns="http://www.w3.org/2000/svg">
<path d="M8.91863 263.478C-2.79709 251.762 -2.7971 232.767 8.91863 221.051L221.051 8.91912C232.766 -2.79661 251.761 -2.79661 263.477 8.91912L284.69 30.1323L30.1318 284.691L8.91863 263.478Z" fill="#BF1B1B"/>
<path d="M30.1318 284.691L54.7876 224.493L153.429 323.134L93.7719 348.33L30.1318 284.691Z" fill="#BF1B1B"/>
<path d="M327.117 114.985L93.7719 348.33L114.985 369.543C126.701 381.259 145.696 381.259 157.412 369.543L348.33 178.625L418.947 249.242L454.396 199.838L369.544 114.985C357.828 103.269 338.833 103.269 327.117 114.985Z" fill="#BF1B1B"/>
<path d="M454.396 199.838L242.102 412.132L194.018 364.049L173.321 384.746C165.207 392.861 155.097 397.764 144.572 399.455L199.821 454.704L199.983 454.542L221.051 475.61C232.767 487.325 251.762 487.325 263.477 475.61L475.609 263.478C487.325 251.762 487.325 232.767 475.609 221.051L454.396 199.838Z" fill="#BF1B1B"/>
<path d="M338.97 84.4122L284.69 30.1323L228.028 58.3233L289.64 119.935L310.5 99.0753C318.542 91.0327 328.545 86.145 338.97 84.4122Z" fill="#BF1B1B"/>
<path d="M629.045 117.406C636.232 117.406 641.724 118.218 645.52 119.842C649.317 121.466 652.639 123.226 655.486 125.12C657.113 126.068 658.402 126.812 659.351 127.353C660.435 127.759 661.452 127.962 662.402 127.962C663.758 127.962 664.707 127.218 665.249 125.729C665.927 124.241 666.469 122.008 666.876 119.03H671.554C671.419 121.466 671.215 124.376 670.944 127.759C670.808 131.008 670.673 135.338 670.537 140.752C670.537 146.165 670.537 153.271 670.537 162.068H665.859C665.452 155.436 663.961 149.008 661.385 142.782C658.944 136.556 655.283 131.481 650.402 127.556C645.656 123.632 639.554 121.669 632.096 121.669C625.181 121.669 619.418 123.767 614.808 127.962C610.334 132.023 608.096 137.436 608.096 144.203C608.096 150.158 609.588 155.165 612.571 159.226C615.554 163.15 619.622 166.872 624.774 170.391C630.062 173.775 636.029 177.564 642.673 181.76C649.452 186.09 655.554 190.421 660.978 194.752C666.402 198.948 670.673 203.617 673.791 208.76C676.91 213.902 678.469 220.128 678.469 227.436C678.469 236.233 676.368 243.542 672.164 249.361C668.097 255.045 662.605 259.309 655.69 262.151C648.774 264.993 641.181 266.414 632.91 266.414C625.317 266.414 619.283 265.602 614.808 263.978C610.334 262.354 606.537 260.662 603.418 258.902C600.435 257.008 598.13 256.06 596.503 256.06C595.147 256.06 594.13 256.805 593.452 258.293C592.91 259.782 592.435 262.015 592.028 264.993H587.35C587.622 262.015 587.757 258.564 587.757 254.639C587.893 250.579 587.961 245.301 587.961 238.805C588.096 232.308 588.164 224.12 588.164 214.241H592.842C593.384 222.632 594.876 230.481 597.317 237.79C599.893 245.098 603.757 250.985 608.91 255.451C614.198 259.782 621.181 261.948 629.859 261.948C634.469 261.948 638.74 261.068 642.673 259.309C646.605 257.549 649.791 254.775 652.232 250.985C654.673 247.196 655.893 242.324 655.893 236.369C655.893 230.82 654.537 225.948 651.825 221.752C649.249 217.557 645.588 213.699 640.842 210.181C636.232 206.526 630.808 202.805 624.571 199.015C618.198 194.955 612.232 190.895 606.673 186.835C601.113 182.775 596.639 178.038 593.249 172.624C589.994 167.211 588.367 160.782 588.367 153.338C588.367 145.083 590.266 138.316 594.062 133.038C597.995 127.759 603.011 123.835 609.113 121.263C615.351 118.692 621.995 117.406 629.045 117.406Z" fill="#BF1B1B"/>
<path d="M811.83 119.842C811.288 125.526 810.881 131.075 810.61 136.489C810.474 141.767 810.406 145.827 810.406 148.669C810.406 151.782 810.474 154.759 810.61 157.602C810.745 160.444 810.881 162.88 811.017 164.91H806.339C804.983 154.759 803.152 146.774 800.847 140.955C798.678 135.135 795.491 130.94 791.288 128.368C787.084 125.797 781.05 124.511 773.186 124.511H764.44V240.226C764.44 245.639 764.915 249.699 765.864 252.406C766.949 255.113 768.983 256.94 771.966 257.887C775.084 258.699 779.559 259.241 785.389 259.512V263.572C781.593 263.301 776.711 263.166 770.745 263.166C764.779 263.03 758.677 262.963 752.44 262.963C745.932 262.963 739.762 263.03 733.932 263.166C728.237 263.166 723.626 263.301 720.101 263.572V259.512C725.932 259.241 730.338 258.699 733.321 257.887C736.304 256.94 738.338 255.113 739.423 252.406C740.508 249.699 741.05 245.639 741.05 240.226V124.511H732.101C724.508 124.511 718.542 125.797 714.203 128.368C709.864 130.94 706.609 135.135 704.44 140.955C702.27 146.774 700.508 154.759 699.152 164.91H694.474C694.745 162.88 694.881 160.444 694.881 157.602C695.016 154.759 695.084 151.782 695.084 148.669C695.084 145.827 694.948 141.767 694.677 136.489C694.542 131.075 694.203 125.526 693.66 119.842C699.491 119.977 705.864 120.113 712.779 120.248C719.694 120.383 726.677 120.451 733.728 120.451C740.779 120.451 747.152 120.451 752.847 120.451C758.542 120.451 764.847 120.451 771.762 120.451C778.678 120.451 785.661 120.383 792.711 120.248C799.762 120.113 806.135 119.977 811.83 119.842Z" fill="#BF1B1B"/>
<path d="M825.4 119.842C828.519 119.977 832.519 120.113 837.4 120.248C842.417 120.383 847.366 120.451 852.248 120.451C858.756 120.451 864.926 120.383 870.756 120.248C876.722 120.113 880.926 120.045 883.367 120.045C894.892 120.045 904.451 121.534 912.045 124.511C919.773 127.489 925.468 131.684 929.129 137.098C932.926 142.376 934.824 148.466 934.824 155.368C934.824 159.564 933.943 164.03 932.18 168.767C930.553 173.369 927.638 177.699 923.434 181.76C919.231 185.684 913.536 188.932 906.35 191.504C899.163 194.075 890.011 195.361 878.892 195.361H859.366V191.301H876.858C885.943 191.301 892.858 189.812 897.604 186.835C902.485 183.722 905.739 179.662 907.367 174.654C909.129 169.511 910.011 163.827 910.011 157.602C910.011 146.91 907.706 138.654 903.095 132.835C898.485 126.88 890.485 123.902 879.095 123.902C873.265 123.902 869.4 125.053 867.502 127.353C865.739 129.654 864.858 134.323 864.858 141.361V242.053C864.858 246.925 865.265 250.579 866.078 253.015C866.892 255.451 868.451 257.075 870.756 257.887C873.061 258.699 876.451 259.241 880.926 259.512V263.572C877.672 263.301 873.536 263.166 868.519 263.166C863.638 263.03 858.621 262.963 853.468 262.963C847.773 262.963 842.417 263.03 837.4 263.166C832.519 263.166 828.519 263.301 825.4 263.572V259.512C830.01 259.241 833.468 258.699 835.773 257.887C838.078 257.075 839.57 255.451 840.248 253.015C841.061 250.579 841.468 246.925 841.468 242.053V141.361C841.468 136.353 841.061 132.699 840.248 130.399C839.57 127.962 838.01 126.338 835.57 125.526C833.265 124.579 829.875 124.038 825.4 123.902V119.842ZM859.773 191.91C866.688 192.181 872.248 192.519 876.451 192.925C880.655 193.196 884.18 193.466 887.028 193.737C889.875 194.008 892.519 194.346 894.96 194.752C905.129 196.105 912.519 198.812 917.129 202.872C921.875 206.932 925.129 213.158 926.892 221.549L931.977 242.256C933.197 248.075 934.485 252.203 935.841 254.639C937.333 257.075 939.502 258.293 942.35 258.293C944.519 258.158 946.282 257.549 947.638 256.466C949.129 255.248 950.689 253.624 952.316 251.594L955.163 253.827C952.045 258.023 948.791 261.203 945.401 263.369C942.011 265.399 937.468 266.414 931.773 266.414C925.943 266.414 920.926 264.925 916.723 261.948C912.655 258.835 909.739 253.015 907.977 244.489L903.909 224.188C902.689 218.369 901.333 213.361 899.841 209.166C898.35 204.835 896.248 201.451 893.536 199.015C890.96 196.579 887.163 195.361 882.146 195.361H860.18L859.773 191.91Z" fill="#BF1B1B"/>
<path d="M1029.62 117C1042.91 117 1054.57 119.91 1064.61 125.729C1074.77 131.549 1082.64 139.94 1088.2 150.902C1093.76 161.729 1096.54 174.925 1096.54 190.489C1096.54 205.647 1093.69 218.91 1088 230.278C1082.3 241.647 1074.37 250.512 1064.2 256.872C1054.03 263.233 1042.44 266.414 1029.42 266.414C1015.99 266.414 1004.27 263.504 994.232 257.684C984.198 251.865 976.401 243.474 970.842 232.511C965.283 221.549 962.503 208.354 962.503 192.925C962.503 177.767 965.35 164.504 971.045 153.135C976.876 141.767 984.808 132.902 994.842 126.541C1004.88 120.18 1016.47 117 1029.62 117ZM1028.81 120.654C1020.4 120.654 1013.08 123.699 1006.84 129.789C1000.6 135.88 995.791 144.271 992.401 154.962C989.012 165.654 987.317 178.038 987.317 192.113C987.317 206.459 989.215 218.978 993.012 229.669C996.808 240.226 1001.96 248.414 1008.47 254.233C1014.98 259.918 1022.23 262.76 1030.23 262.76C1038.64 262.76 1045.89 259.715 1051.99 253.624C1058.23 247.534 1063.05 239.143 1066.44 228.451C1069.96 217.624 1071.72 205.241 1071.72 191.301C1071.72 176.82 1069.76 164.301 1065.83 153.744C1062.03 143.188 1056.88 135.068 1050.37 129.383C1043.99 123.564 1036.81 120.654 1028.81 120.654Z" fill="#BF1B1B"/>
<path d="M1242.78 119.842V123.902C1238.17 124.173 1234.71 124.985 1232.4 126.338C1230.1 127.692 1228.54 129.925 1227.72 133.038C1227.05 136.015 1226.71 140.278 1226.71 145.827V264.384C1225.62 264.384 1224.54 264.384 1223.45 264.384C1222.37 264.384 1221.22 264.384 1220 264.384L1133.76 139.331V236.775C1133.76 242.459 1134.16 246.925 1134.98 250.173C1135.79 253.286 1137.55 255.519 1140.27 256.872C1142.98 258.226 1147.11 259.106 1152.67 259.512V263.572C1150.1 263.301 1146.77 263.166 1142.71 263.166C1138.77 263.03 1135.05 262.963 1131.52 262.963C1128.13 262.963 1124.74 263.03 1121.35 263.166C1117.96 263.166 1115.18 263.301 1113.01 263.572V259.512C1117.49 259.106 1120.88 258.293 1123.18 257.075C1125.49 255.722 1127.05 253.489 1127.86 250.376C1128.67 247.263 1129.08 243 1129.08 237.587V141.361C1129.08 136.353 1128.67 132.699 1127.86 130.399C1127.05 127.962 1125.49 126.338 1123.18 125.526C1120.88 124.579 1117.49 124.038 1113.01 123.902V119.842C1115.18 119.977 1117.96 120.113 1121.35 120.248C1124.74 120.383 1128.13 120.451 1131.52 120.451C1134.5 120.451 1137.42 120.383 1140.27 120.248C1143.11 120.113 1145.62 119.977 1147.79 119.842L1222.03 225.812V146.639C1222.03 140.82 1221.55 136.353 1220.61 133.241C1219.79 130.128 1218.03 127.895 1215.32 126.541C1212.61 125.053 1208.54 124.173 1203.11 123.902V119.842C1205.55 119.977 1208.81 120.113 1212.88 120.248C1216.94 120.383 1220.74 120.451 1224.27 120.451C1227.66 120.451 1231.05 120.383 1234.44 120.248C1237.83 120.113 1240.61 119.977 1242.78 119.842Z" fill="#BF1B1B"/>
<path d="M1326.59 117C1335.54 117 1342.8 118.353 1348.36 121.06C1353.92 123.632 1359 126.677 1363.61 130.196C1365.37 131.549 1366.73 132.226 1367.68 132.226C1370.25 132.226 1371.95 128.098 1372.76 119.842H1377.44C1377.17 124.985 1376.97 131.211 1376.83 138.519C1376.69 145.692 1376.63 155.301 1376.63 167.346H1371.95C1371 160.85 1369.71 154.827 1368.08 149.278C1366.59 143.729 1363.95 138.993 1360.15 135.068C1356.49 130.737 1351.68 127.353 1345.71 124.917C1339.88 122.481 1333.92 121.263 1327.81 121.263C1320.76 121.263 1314.53 123.023 1309.1 126.541C1303.68 129.925 1299.07 134.797 1295.27 141.158C1291.61 147.519 1288.76 155.03 1286.73 163.692C1284.83 172.218 1283.88 181.624 1283.88 191.91C1283.88 216.271 1287.61 234.136 1295.07 245.504C1302.66 256.737 1314.05 262.354 1329.24 262.354C1333.58 262.354 1337.3 261.745 1340.42 260.527C1343.68 259.309 1346.25 258.09 1348.15 256.872C1350.46 255.248 1351.95 253.692 1352.63 252.203C1353.3 250.579 1353.64 248.481 1353.64 245.91V226.218C1353.64 220.399 1353.1 216.136 1352.02 213.429C1351.07 210.587 1349.1 208.692 1346.12 207.745C1343.14 206.662 1338.8 206.053 1333.1 205.917V201.857C1335.68 201.993 1338.73 202.128 1342.25 202.263C1345.78 202.263 1349.44 202.331 1353.24 202.466C1357.17 202.466 1360.69 202.466 1363.81 202.466C1368.69 202.466 1373.1 202.399 1377.03 202.263C1381.1 202.128 1384.42 201.993 1387 201.857V205.917C1384.15 206.053 1381.98 206.526 1380.49 207.339C1379.14 208.151 1378.19 209.775 1377.64 212.211C1377.24 214.647 1377.03 218.369 1377.03 223.376V263.572H1372.97C1372.83 261.271 1372.29 258.767 1371.34 256.06C1370.53 253.354 1369.24 252 1367.47 252C1366.53 252 1365.51 252.203 1364.42 252.609C1363.47 253.015 1361.78 254.03 1359.34 255.654C1354.59 258.902 1349.64 261.542 1344.49 263.572C1339.34 265.466 1333.51 266.414 1327 266.414C1312.49 266.414 1300.08 263.572 1289.78 257.887C1279.47 252.068 1271.61 243.745 1266.19 232.917C1260.9 221.955 1258.25 208.963 1258.25 193.94C1258.25 178.241 1261.17 164.639 1267 153.135C1272.97 141.632 1281.03 132.767 1291.2 126.541C1301.51 120.18 1313.3 117 1326.59 117Z" fill="#BF1B1B"/>
<path d="M620.082 315.119C619.191 314.11 618.151 313.221 616.962 312.449C615.773 311.619 614.436 310.907 612.95 310.314C611.464 309.72 609.859 309.246 608.135 308.89C606.471 308.534 604.688 308.356 602.786 308.356C597.258 308.356 593.187 309.424 590.571 311.559C588.015 313.636 586.737 316.483 586.737 320.102C586.737 322.594 587.332 324.552 588.521 325.976C589.769 327.4 591.701 328.556 594.316 329.446C596.931 330.336 600.26 331.256 604.301 332.205C608.819 333.154 612.712 334.281 615.981 335.587C619.25 336.892 621.776 338.672 623.56 340.926C625.343 343.121 626.234 346.117 626.234 349.914C626.234 352.821 625.67 355.342 624.54 357.478C623.411 359.614 621.836 361.394 619.815 362.817C617.794 364.241 615.387 365.309 612.593 366.021C609.8 366.674 606.738 367 603.41 367C600.141 367 596.991 366.674 593.959 366.021C590.987 365.309 588.164 364.301 585.489 362.995C582.815 361.631 580.318 359.91 578 357.834L581.121 352.762C582.25 353.948 583.587 355.075 585.133 356.143C586.737 357.152 588.491 358.071 590.393 358.902C592.354 359.733 594.435 360.385 596.634 360.86C598.893 361.275 601.211 361.483 603.588 361.483C608.64 361.483 612.563 360.563 615.357 358.724C618.21 356.885 619.637 354.156 619.637 350.537C619.637 347.927 618.923 345.85 617.497 344.308C616.07 342.706 613.931 341.401 611.077 340.392C608.224 339.384 604.718 338.405 600.557 337.455C596.158 336.447 592.444 335.32 589.412 334.074C586.381 332.828 584.092 331.196 582.547 329.179C581.061 327.103 580.318 324.374 580.318 320.992C580.318 317.077 581.269 313.784 583.171 311.114C585.133 308.385 587.807 306.339 591.195 304.974C594.583 303.55 598.477 302.838 602.875 302.838C605.669 302.838 608.254 303.135 610.632 303.728C613.069 304.262 615.298 305.063 617.318 306.131C619.399 307.199 621.331 308.534 623.114 310.136L620.082 315.119Z" fill="#BF1B1B"/>
<path d="M700.629 366.911C696.171 366.911 692.13 366.021 688.504 364.241C684.878 362.462 681.758 360.059 679.142 357.033C676.527 353.948 674.506 350.507 673.08 346.71C671.653 342.854 670.94 338.909 670.94 334.875C670.94 330.663 671.683 326.658 673.169 322.861C674.655 319.005 676.735 315.594 679.41 312.627C682.144 309.602 685.324 307.229 688.95 305.508C692.575 303.728 696.498 302.838 700.718 302.838C705.176 302.838 709.218 303.758 712.844 305.597C716.47 307.436 719.56 309.898 722.116 312.983C724.732 316.068 726.752 319.509 728.179 323.306C729.605 327.103 730.319 330.989 730.319 334.964C730.319 339.176 729.576 343.21 728.09 347.066C726.604 350.863 724.524 354.274 721.849 357.3C719.174 360.266 716.024 362.61 712.398 364.33C708.772 366.051 704.849 366.911 700.629 366.911ZM677.181 334.875C677.181 338.316 677.745 341.638 678.875 344.842C680.004 347.986 681.609 350.804 683.689 353.296C685.77 355.728 688.236 357.686 691.089 359.169C694.002 360.593 697.182 361.305 700.629 361.305C704.255 361.305 707.494 360.563 710.347 359.08C713.26 357.537 715.727 355.52 717.748 353.029C719.828 350.478 721.403 347.63 722.473 344.486C723.543 341.341 724.078 338.138 724.078 334.875C724.078 331.434 723.513 328.141 722.384 324.997C721.254 321.853 719.62 319.035 717.48 316.543C715.4 314.051 712.933 312.093 710.08 310.669C707.227 309.246 704.077 308.534 700.629 308.534C697.063 308.534 693.824 309.275 690.911 310.758C688.058 312.242 685.591 314.259 683.511 316.81C681.49 319.302 679.915 322.12 678.786 325.264C677.716 328.408 677.181 331.612 677.181 334.875Z" fill="#BF1B1B"/>
<path d="M779.977 366.466V303.283H786.218V360.949H822.773V366.466H779.977Z" fill="#BF1B1B"/>
<path d="M892.916 366.911C887.924 366.911 883.703 366.021 880.256 364.241C876.809 362.462 874.074 360.088 872.054 357.122C870.033 354.096 868.547 350.685 867.596 346.888C866.704 343.091 866.258 339.176 866.258 335.142V303.283H872.41V335.142C872.41 338.405 872.737 341.608 873.391 344.753C874.104 347.897 875.233 350.715 876.779 353.207C878.324 355.698 880.405 357.686 883.02 359.169C885.635 360.593 888.904 361.305 892.827 361.305C896.869 361.305 900.198 360.563 902.813 359.08C905.488 357.537 907.568 355.52 909.054 353.029C910.599 350.537 911.699 347.749 912.353 344.664C913.007 341.519 913.333 338.345 913.333 335.142V303.283H919.574V335.142C919.574 339.354 919.099 343.388 918.148 347.244C917.197 351.101 915.652 354.482 913.512 357.389C911.431 360.296 908.697 362.61 905.309 364.33C901.921 366.051 897.79 366.911 892.916 366.911Z" fill="#BF1B1B"/>
<path d="M1017.28 308.801H994.724V366.466H988.483V308.801H965.926V303.283H1017.28V308.801Z" fill="#BF1B1B"/>
<path d="M1064.65 366.466V303.283H1070.9V366.466H1064.65Z" fill="#BF1B1B"/>
<path d="M1150.16 366.911C1145.7 366.911 1141.66 366.021 1138.04 364.241C1134.41 362.462 1131.29 360.059 1128.67 357.033C1126.06 353.948 1124.04 350.507 1122.61 346.71C1121.18 342.854 1120.47 338.909 1120.47 334.875C1120.47 330.663 1121.21 326.658 1122.7 322.861C1124.19 319.005 1126.27 315.594 1128.94 312.627C1131.68 309.602 1134.86 307.229 1138.48 305.508C1142.11 303.728 1146.03 302.838 1150.25 302.838C1154.71 302.838 1158.75 303.758 1162.38 305.597C1166 307.436 1169.09 309.898 1171.65 312.983C1174.26 316.068 1176.28 319.509 1177.71 323.306C1179.14 327.103 1179.85 330.989 1179.85 334.964C1179.85 339.176 1179.11 343.21 1177.62 347.066C1176.14 350.863 1174.06 354.274 1171.38 357.3C1168.71 360.266 1165.56 362.61 1161.93 364.33C1158.3 366.051 1154.38 366.911 1150.16 366.911ZM1126.71 334.875C1126.71 338.316 1127.28 341.638 1128.41 344.842C1129.54 347.986 1131.14 350.804 1133.22 353.296C1135.3 355.728 1137.77 357.686 1140.62 359.169C1143.53 360.593 1146.71 361.305 1150.16 361.305C1153.79 361.305 1157.03 360.563 1159.88 359.08C1162.79 357.537 1165.26 355.52 1167.28 353.029C1169.36 350.478 1170.93 347.63 1172 344.486C1173.07 341.341 1173.61 338.138 1173.61 334.875C1173.61 331.434 1173.04 328.141 1171.92 324.997C1170.79 321.853 1169.15 319.035 1167.01 316.543C1164.93 314.051 1162.46 312.093 1159.61 310.669C1156.76 309.246 1153.61 308.534 1150.16 308.534C1146.59 308.534 1143.36 309.275 1140.44 310.758C1137.59 312.242 1135.12 314.259 1133.04 316.81C1131.02 319.302 1129.45 322.12 1128.32 325.264C1127.25 328.408 1126.71 331.612 1126.71 334.875Z" fill="#BF1B1B"/>
<path d="M1235.75 314.763V366.466H1229.51V303.283H1234.68L1276.23 355.965V303.372H1282.47V366.466H1276.67L1235.75 314.763Z" fill="#BF1B1B"/>
<path d="M1373.27 315.119C1372.38 314.11 1371.34 313.221 1370.15 312.449C1368.96 311.619 1367.63 310.907 1366.14 310.314C1364.65 309.72 1363.05 309.246 1361.33 308.89C1359.66 308.534 1357.88 308.356 1355.98 308.356C1350.45 308.356 1346.38 309.424 1343.76 311.559C1341.21 313.636 1339.93 316.483 1339.93 320.102C1339.93 322.594 1340.52 324.552 1341.71 325.976C1342.96 327.4 1344.89 328.556 1347.51 329.446C1350.12 330.336 1353.45 331.256 1357.49 332.205C1362.01 333.154 1365.9 334.281 1369.17 335.587C1372.44 336.892 1374.97 338.672 1376.75 340.926C1378.53 343.121 1379.42 346.117 1379.42 349.914C1379.42 352.821 1378.86 355.342 1377.73 357.478C1376.6 359.614 1375.03 361.394 1373 362.817C1370.98 364.241 1368.58 365.309 1365.78 366.021C1362.99 366.674 1359.93 367 1356.6 367C1353.33 367 1350.18 366.674 1347.15 366.021C1344.18 365.309 1341.35 364.301 1338.68 362.995C1336 361.631 1333.51 359.91 1331.19 357.834L1334.31 352.762C1335.44 353.948 1336.78 355.075 1338.32 356.143C1339.93 357.152 1341.68 358.071 1343.58 358.902C1345.54 359.733 1347.62 360.385 1349.82 360.86C1352.08 361.275 1354.4 361.483 1356.78 361.483C1361.83 361.483 1365.75 360.563 1368.55 358.724C1371.4 356.885 1372.83 354.156 1372.83 350.537C1372.83 347.927 1372.11 345.85 1370.69 344.308C1369.26 342.706 1367.12 341.401 1364.27 340.392C1361.41 339.384 1357.91 338.405 1353.75 337.455C1349.35 336.447 1345.63 335.32 1342.6 334.074C1339.57 332.828 1337.28 331.196 1335.74 329.179C1334.25 327.103 1333.51 324.374 1333.51 320.992C1333.51 317.077 1334.46 313.784 1336.36 311.114C1338.32 308.385 1341 306.339 1344.39 304.974C1347.77 303.55 1351.67 302.838 1356.06 302.838C1358.86 302.838 1361.44 303.135 1363.82 303.728C1366.26 304.262 1368.49 305.063 1370.51 306.131C1372.59 307.199 1374.52 308.534 1376.3 310.136L1373.27 315.119Z" fill="#BF1B1B"/>
</svg>
