<svg width="1466" height="1860" xmlns="http://www.w3.org/2000/svg" xmlns:xlink="http://www.w3.org/1999/xlink" overflow="hidden"><defs><clipPath id="clip0"><rect x="1463" y="613" width="1466" height="1860"/></clipPath></defs><g clip-path="url(#clip0)" transform="translate(-1463 -613)"><path d="M1611.17 1277.48C1581.61 1247.91 1581.61 1199.99 1611.17 1170.43L2146.43 635.171C2175.99 605.609 2223.92 605.609 2253.48 635.171L2307 688.696 1664.7 1331 1611.17 1277.48Z" fill="#BF1B1B" fill-rule="evenodd"/><path d="M1665 1331.15 1727.19 1179 1976 1428.32 1825.52 1492 1665 1331.15Z" fill="#BF1B1B" fill-rule="evenodd"/><path d="M2414.82 903.151 1826 1491.38 1879.53 1544.85C1909.09 1574.38 1957.03 1574.38 1986.59 1544.85L2468.35 1063.57 2646.55 1241.59 2736 1117.05 2521.88 903.151C2492.32 873.617 2444.39 873.617 2414.82 903.151Z" fill="#BF1B1B" fill-rule="evenodd"/><path d="M2735.34 1117 2199.96 1652.66 2078.7 1531.34 2026.5 1583.56C2006.04 1604.04 1980.54 1616.41 1954 1620.68L2093.33 1760.08 2093.74 1759.67 2146.87 1812.83C2176.42 1842.39 2224.32 1842.39 2253.87 1812.83L2788.84 1277.57C2818.39 1248.02 2818.39 1200.09 2788.84 1170.52L2735.34 1117Z" fill="#BF1B1B" fill-rule="evenodd"/><path d="M2444 825.602 2307 689 2164 759.946 2319.5 915 2372.15 862.503C2392.44 842.262 2417.69 829.963 2444 825.602Z" fill="#BF1B1B" fill-rule="evenodd"/><path d="M1555.55 2020.74C1568.58 2020.74 1578.53 2022.21 1585.41 2025.15 1592.28 2028.1 1598.31 2031.29 1603.46 2034.73 1606.41 2036.45 1608.75 2037.8 1610.47 2038.78 1612.43 2039.51 1614.28 2039.88 1616 2039.88 1618.45 2039.88 1620.17 2038.53 1621.16 2035.83 1622.39 2033.13 1623.37 2029.08 1624.1 2023.68L1632.58 2023.68C1632.34 2028.1 1631.97 2033.38 1631.47 2039.51 1631.23 2045.41 1630.98 2053.26 1630.74 2063.08 1630.74 2072.9 1630.74 2085.79 1630.74 2101.74L1622.26 2101.74C1621.52 2089.71 1618.82 2078.05 1614.15 2066.76 1609.73 2055.47 1603.1 2046.27 1594.25 2039.15 1585.65 2032.03 1574.59 2028.47 1561.08 2028.47 1548.55 2028.47 1538.11 2032.27 1529.75 2039.88 1521.65 2047.25 1517.59 2057.07 1517.59 2069.34 1517.59 2080.14 1520.3 2089.22 1525.7 2096.59 1531.1 2103.71 1538.48 2110.46 1547.81 2116.84 1557.4 2122.97 1568.21 2129.85 1580.25 2137.46 1592.53 2145.31 1603.59 2153.17 1613.42 2161.02 1623.24 2168.63 1630.98 2177.1 1636.63 2186.43 1642.29 2195.76 1645.11 2207.05 1645.11 2220.3 1645.11 2236.26 1641.3 2249.52 1633.69 2260.07 1626.32 2270.38 1616.36 2278.11 1603.83 2283.27 1591.3 2288.42 1577.54 2291 1562.56 2291 1548.8 2291 1537.86 2289.53 1529.75 2286.58 1521.65 2283.64 1514.77 2280.57 1509.12 2277.38 1503.71 2273.94 1499.53 2272.22 1496.58 2272.22 1494.13 2272.22 1492.29 2273.57 1491.06 2276.27 1490.07 2278.97 1489.21 2283.02 1488.48 2288.42L1480 2288.42C1480.49 2283.02 1480.74 2276.76 1480.74 2269.64 1480.98 2262.28 1481.11 2252.71 1481.11 2240.92 1481.35 2229.14 1481.47 2214.29 1481.47 2196.37L1489.95 2196.37C1490.93 2211.59 1493.64 2225.83 1498.06 2239.08 1502.73 2252.34 1509.73 2263.02 1519.07 2271.12 1528.65 2278.97 1541.3 2282.9 1557.03 2282.9 1565.38 2282.9 1573.12 2281.3 1580.25 2278.11 1587.37 2274.92 1593.15 2269.89 1597.57 2263.02 1601.99 2256.14 1604.2 2247.31 1604.2 2236.51 1604.2 2226.44 1601.75 2217.6 1596.83 2209.99 1592.16 2202.39 1585.53 2195.39 1576.93 2189.01 1568.58 2182.38 1558.75 2175.63 1547.45 2168.76 1535.9 2161.39 1525.09 2154.03 1515.01 2146.66 1504.94 2139.3 1496.83 2130.71 1490.69 2120.89 1484.79 2111.07 1481.84 2099.41 1481.84 2085.91 1481.84 2070.94 1485.28 2058.66 1492.16 2049.09 1499.29 2039.51 1508.38 2032.4 1519.44 2027.73 1530.74 2023.07 1542.78 2020.74 1555.55 2020.74ZM1886.77 2025.15C1885.78 2035.46 1885.05 2045.53 1884.55 2055.35 1884.31 2064.92 1884.19 2072.29 1884.19 2077.44 1884.19 2083.09 1884.31 2088.49 1884.55 2093.64 1884.8 2098.8 1885.05 2103.21 1885.29 2106.9L1876.82 2106.9C1874.36 2088.49 1871.04 2074 1866.86 2063.45 1862.93 2052.89 1857.16 2045.28 1849.54 2040.62 1841.93 2035.96 1830.99 2033.62 1816.74 2033.62L1800.89 2033.62 1800.89 2243.5C1800.89 2253.32 1801.75 2260.68 1803.47 2265.59 1805.44 2270.5 1809.13 2273.82 1814.53 2275.54 1820.18 2277.01 1828.29 2277.99 1838.85 2278.48L1838.85 2285.85C1831.98 2285.35 1823.13 2285.11 1812.32 2285.11 1801.51 2284.86 1790.45 2284.74 1779.15 2284.74 1767.35 2284.74 1756.18 2284.86 1745.61 2285.11 1735.29 2285.11 1726.94 2285.35 1720.55 2285.85L1720.55 2278.48C1731.12 2277.99 1739.1 2277.01 1744.5 2275.54 1749.91 2273.82 1753.6 2270.5 1755.56 2265.59 1757.53 2260.68 1758.51 2253.32 1758.51 2243.5L1758.51 2033.62 1742.29 2033.62C1728.54 2033.62 1717.72 2035.96 1709.86 2040.62 1702 2045.28 1696.1 2052.89 1692.17 2063.45 1688.24 2074 1685.05 2088.49 1682.59 2106.9L1674.11 2106.9C1674.6 2103.21 1674.85 2098.8 1674.85 2093.64 1675.1 2088.49 1675.22 2083.09 1675.22 2077.44 1675.22 2072.29 1674.97 2064.92 1674.48 2055.35 1674.23 2045.53 1673.62 2035.46 1672.64 2025.15 1683.2 2025.4 1694.75 2025.65 1707.28 2025.89 1719.81 2026.14 1732.47 2026.26 1745.24 2026.26 1758.02 2026.26 1769.57 2026.26 1779.89 2026.26 1790.21 2026.26 1801.63 2026.26 1814.16 2026.26 1826.69 2026.26 1839.35 2026.14 1852.12 2025.89 1864.9 2025.65 1876.45 2025.4 1886.77 2025.15ZM1911.36 2025.15C1917.01 2025.4 1924.25 2025.65 1933.1 2025.89 1942.19 2026.14 1951.16 2026.26 1960 2026.26 1971.8 2026.26 1982.98 2026.14 1993.54 2025.89 2004.35 2025.65 2011.97 2025.52 2016.39 2025.52 2037.28 2025.52 2054.6 2028.22 2068.36 2033.62 2082.36 2039.02 2092.68 2046.63 2099.32 2056.45 2106.2 2066.03 2109.64 2077.07 2109.64 2089.59 2109.64 2097.2 2108.04 2105.3 2104.85 2113.89 2101.9 2122.24 2096.62 2130.09 2089 2137.46 2081.38 2144.58 2071.06 2150.47 2058.04 2155.13 2045.02 2159.79 2028.43 2162.13 2008.28 2162.13L1972.9 2162.13 1972.9 2154.76 2004.6 2154.76C2021.06 2154.76 2033.59 2152.06 2042.19 2146.66 2051.04 2141.02 2056.93 2133.65 2059.88 2124.57 2063.08 2115.24 2064.67 2104.93 2064.67 2093.64 2064.67 2074.25 2060.5 2059.27 2052.14 2048.72 2043.79 2037.92 2029.29 2032.52 2008.65 2032.52 1998.09 2032.52 1991.09 2034.6 1987.65 2038.78 1984.45 2042.95 1982.85 2051.42 1982.85 2064.18L1982.85 2246.82C1982.85 2255.65 1983.59 2262.28 1985.07 2266.7 1986.54 2271.12 1989.37 2274.06 1993.54 2275.54 1997.72 2277.01 2003.86 2277.99 2011.97 2278.48L2011.97 2285.85C2006.07 2285.35 1998.58 2285.11 1989.49 2285.11 1980.64 2284.86 1971.55 2284.74 1962.22 2284.74 1951.9 2284.74 1942.19 2284.86 1933.1 2285.11 1924.25 2285.11 1917.01 2285.35 1911.36 2285.85L1911.36 2278.48C1919.71 2277.99 1925.98 2277.01 1930.15 2275.54 1934.33 2274.06 1937.03 2271.12 1938.26 2266.7 1939.73 2262.28 1940.47 2255.65 1940.47 2246.82L1940.47 2064.18C1940.47 2055.1 1939.73 2048.48 1938.26 2044.3 1937.03 2039.88 1934.21 2036.94 1929.78 2035.46 1925.61 2033.75 1919.46 2032.76 1911.36 2032.52L1911.36 2025.15ZM1973.64 2155.87C1986.17 2156.36 1996.25 2156.97 2003.86 2157.71 2011.48 2158.2 2017.87 2158.69 2023.03 2159.18 2028.19 2159.67 2032.98 2160.29 2037.4 2161.02 2055.83 2163.48 2069.22 2168.39 2077.57 2175.75 2086.17 2183.12 2092.07 2194.41 2095.26 2209.63L2104.48 2247.18C2106.69 2257.74 2109.02 2265.23 2111.48 2269.64 2114.18 2274.06 2118.11 2276.27 2123.27 2276.27 2127.21 2276.03 2130.4 2274.92 2132.86 2272.96 2135.56 2270.75 2138.38 2267.8 2141.33 2264.12L2146.49 2268.17C2140.84 2275.78 2134.95 2281.55 2128.8 2285.48 2122.66 2289.16 2114.43 2291 2104.11 2291 2093.54 2291 2084.45 2288.3 2076.84 2282.9 2069.46 2277.25 2064.18 2266.7 2060.99 2251.23L2053.62 2214.41C2051.41 2203.86 2048.95 2194.77 2046.25 2187.17 2043.54 2179.31 2039.74 2173.17 2034.82 2168.76 2030.15 2164.34 2023.27 2162.13 2014.18 2162.13L1974.38 2162.13 1973.64 2155.87ZM2281.42 2020C2305.5 2020 2326.62 2025.28 2344.81 2035.83 2363.23 2046.39 2377.48 2061.61 2387.56 2081.49 2397.63 2101.13 2402.67 2125.06 2402.67 2153.29 2402.67 2180.78 2397.51 2204.84 2387.19 2225.46 2376.87 2246.08 2362.5 2262.16 2344.07 2273.69 2325.64 2285.23 2304.63 2291 2281.05 2291 2256.72 2291 2235.47 2285.72 2217.29 2275.17 2199.1 2264.61 2184.98 2249.39 2174.9 2229.51 2164.83 2209.63 2159.79 2185.69 2159.79 2157.71 2159.79 2130.22 2164.95 2106.16 2175.27 2085.54 2185.84 2064.92 2200.21 2048.84 2218.39 2037.31 2236.58 2025.77 2257.58 2020 2281.42 2020ZM2279.94 2026.63C2264.71 2026.63 2251.44 2032.15 2240.14 2043.2 2228.84 2054.24 2220.11 2069.46 2213.97 2088.85 2207.83 2108.25 2204.76 2130.71 2204.76 2156.24 2204.76 2182.26 2208.2 2204.96 2215.08 2224.35 2221.95 2243.5 2231.29 2258.35 2243.09 2268.91 2254.88 2279.22 2268.02 2284.37 2282.52 2284.37 2297.76 2284.37 2310.9 2278.85 2321.96 2267.8 2333.26 2256.76 2341.98 2241.54 2348.12 2222.15 2354.51 2202.51 2357.71 2180.05 2357.71 2154.76 2357.71 2128.5 2354.14 2105.79 2347.02 2086.65 2340.14 2067.5 2330.8 2052.77 2319.01 2042.46 2307.46 2031.91 2294.44 2026.63 2279.94 2026.63ZM2667.66 2025.15 2667.66 2032.52C2659.31 2033.01 2653.04 2034.48 2648.86 2036.94 2644.68 2039.39 2641.86 2043.44 2640.39 2049.09 2639.16 2054.49 2638.54 2062.22 2638.54 2072.29L2638.54 2287.32C2636.58 2287.32 2634.61 2287.32 2632.65 2287.32 2630.68 2287.32 2628.59 2287.32 2626.38 2287.32L2470.11 2060.5 2470.11 2237.24C2470.11 2247.55 2470.85 2255.65 2472.33 2261.54 2473.8 2267.19 2476.99 2271.24 2481.91 2273.69 2486.82 2276.15 2494.32 2277.74 2504.39 2278.48L2504.39 2285.85C2499.72 2285.35 2493.7 2285.11 2486.33 2285.11 2479.2 2284.86 2472.45 2284.74 2466.06 2284.74 2459.92 2284.74 2453.77 2284.86 2447.63 2285.11 2441.49 2285.11 2436.45 2285.35 2432.52 2285.85L2432.52 2278.48C2440.63 2277.74 2446.77 2276.27 2450.95 2274.06 2455.13 2271.61 2457.95 2267.56 2459.43 2261.91 2460.9 2256.26 2461.64 2248.53 2461.64 2238.71L2461.64 2064.18C2461.64 2055.1 2460.9 2048.48 2459.43 2044.3 2457.95 2039.88 2455.13 2036.94 2450.95 2035.46 2446.77 2033.75 2440.63 2032.76 2432.52 2032.52L2432.52 2025.15C2436.45 2025.4 2441.49 2025.65 2447.63 2025.89 2453.77 2026.14 2459.92 2026.26 2466.06 2026.26 2471.47 2026.26 2476.75 2026.14 2481.91 2025.89 2487.07 2025.65 2491.61 2025.4 2495.54 2025.15L2630.07 2217.36 2630.07 2073.76C2630.07 2063.2 2629.21 2055.1 2627.49 2049.46 2626.01 2043.81 2622.82 2039.76 2617.9 2037.31 2612.99 2034.6 2605.62 2033.01 2595.79 2032.52L2595.79 2025.15C2600.21 2025.4 2606.11 2025.65 2613.48 2025.89 2620.85 2026.14 2627.73 2026.26 2634.12 2026.26 2640.26 2026.26 2646.41 2026.14 2652.55 2025.89 2658.69 2025.65 2663.73 2025.4 2667.66 2025.15ZM2819.54 2020C2835.76 2020 2848.9 2022.45 2858.98 2027.36 2869.05 2032.03 2878.26 2037.55 2886.62 2043.93 2889.81 2046.39 2892.27 2047.62 2893.99 2047.62 2898.66 2047.62 2901.73 2040.13 2903.2 2025.15L2911.68 2025.15C2911.19 2034.48 2910.82 2045.77 2910.57 2059.03 2910.33 2072.04 2910.2 2089.47 2910.2 2111.32L2901.73 2111.32C2900.01 2099.53 2897.67 2088.61 2894.73 2078.54 2892.02 2068.48 2887.23 2059.89 2880.35 2052.77 2873.72 2044.91 2864.99 2038.78 2854.18 2034.36 2843.62 2029.94 2832.81 2027.73 2821.75 2027.73 2808.97 2027.73 2797.67 2030.92 2787.84 2037.31 2778.02 2043.44 2769.66 2052.28 2762.78 2063.82 2756.15 2075.35 2750.99 2088.98 2747.3 2104.69 2743.86 2120.15 2742.14 2137.21 2742.14 2155.87 2742.14 2200.05 2748.9 2232.46 2762.41 2253.07 2776.17 2273.45 2796.81 2283.64 2824.33 2283.64 2832.19 2283.64 2838.95 2282.53 2844.6 2280.32 2850.5 2278.11 2855.17 2275.9 2858.61 2273.69 2862.78 2270.75 2865.49 2267.93 2866.71 2265.23 2867.94 2262.28 2868.56 2258.47 2868.56 2253.81L2868.56 2218.09C2868.56 2207.54 2867.57 2199.81 2865.61 2194.9 2863.89 2189.74 2860.33 2186.31 2854.92 2184.59 2849.51 2182.62 2841.65 2181.52 2831.33 2181.27L2831.33 2173.91C2836 2174.15 2841.53 2174.4 2847.92 2174.65 2854.31 2174.65 2860.94 2174.77 2867.82 2175.01 2874.94 2175.01 2881.33 2175.01 2886.99 2175.01 2895.83 2175.01 2903.82 2174.89 2910.94 2174.65 2918.31 2174.4 2924.33 2174.15 2929 2173.91L2929 2181.27C2923.84 2181.52 2919.91 2182.38 2917.21 2183.85 2914.75 2185.32 2913.03 2188.27 2912.05 2192.69 2911.31 2197.11 2910.94 2203.86 2910.94 2212.94L2910.94 2285.85 2903.57 2285.85C2903.32 2281.67 2902.34 2277.13 2900.62 2272.22 2899.15 2267.31 2896.81 2264.86 2893.62 2264.86 2891.9 2264.86 2890.05 2265.23 2888.09 2265.96 2886.37 2266.7 2883.3 2268.54 2878.88 2271.49 2870.28 2277.38 2861.31 2282.16 2851.97 2285.85 2842.64 2289.28 2832.07 2291 2820.28 2291 2793.99 2291 2771.5 2285.85 2752.83 2275.54 2734.16 2264.98 2719.91 2249.88 2710.08 2230.25 2700.5 2210.36 2695.71 2186.8 2695.71 2159.55 2695.71 2131.07 2700.99 2106.41 2711.55 2085.54 2722.36 2064.68 2736.98 2048.6 2755.41 2037.31 2774.08 2025.77 2795.46 2020 2819.54 2020Z" fill="#BF1B1B" fill-rule="evenodd"/><path d="M1539.24 2379.2C1537.63 2377.38 1535.74 2375.77 1533.59 2374.38 1531.44 2372.88 1529.01 2371.59 1526.32 2370.51 1523.63 2369.44 1520.72 2368.58 1517.6 2367.94 1514.58 2367.3 1511.35 2366.98 1507.91 2366.98 1497.89 2366.98 1490.51 2368.91 1485.78 2372.77 1481.14 2376.52 1478.83 2381.67 1478.83 2388.21 1478.83 2392.72 1479.91 2396.26 1482.06 2398.83 1484.32 2401.41 1487.82 2403.5 1492.56 2405.11 1497.3 2406.71 1503.33 2408.38 1510.65 2410.09 1518.84 2411.81 1525.89 2413.85 1531.81 2416.21 1537.74 2418.57 1542.31 2421.79 1545.54 2425.86 1548.77 2429.83 1550.39 2435.24 1550.39 2442.11 1550.39 2447.37 1549.37 2451.92 1547.32 2455.79 1545.27 2459.65 1542.42 2462.86 1538.76 2465.44 1535.1 2468.01 1530.74 2469.94 1525.67 2471.23 1520.61 2472.41 1515.07 2473 1509.04 2473 1503.11 2473 1497.41 2472.41 1491.91 2471.23 1486.53 2469.94 1481.41 2468.12 1476.57 2465.76 1471.72 2463.29 1467.2 2460.18 1463 2456.43L1468.65 2447.26C1470.7 2449.4 1473.12 2451.44 1475.92 2453.37 1478.83 2455.19 1482.01 2456.86 1485.45 2458.36 1489.01 2459.86 1492.78 2461.04 1496.76 2461.9 1500.85 2462.65 1505.05 2463.02 1509.36 2463.02 1518.51 2463.02 1525.62 2461.36 1530.68 2458.04 1535.85 2454.71 1538.44 2449.78 1538.44 2443.24 1538.44 2438.52 1537.14 2434.76 1534.56 2431.97 1531.97 2429.08 1528.1 2426.72 1522.93 2424.89 1517.76 2423.07 1511.41 2421.3 1503.87 2419.59 1495.9 2417.76 1489.17 2415.72 1483.68 2413.47 1478.18 2411.22 1474.04 2408.27 1471.24 2404.62 1468.55 2400.87 1467.2 2395.93 1467.2 2389.82 1467.2 2382.74 1468.92 2376.79 1472.37 2371.96 1475.92 2367.03 1480.77 2363.33 1486.91 2360.86 1493.05 2358.29 1500.1 2357 1508.07 2357 1513.13 2357 1517.81 2357.54 1522.12 2358.61 1526.54 2359.57 1530.57 2361.02 1534.24 2362.95 1538 2364.88 1541.51 2367.3 1544.74 2370.19L1539.24 2379.2ZM1685.18 2472.84C1677.1 2472.84 1669.78 2471.23 1663.21 2468.01 1656.64 2464.79 1650.98 2460.45 1646.25 2454.98 1641.51 2449.4 1637.85 2443.18 1635.26 2436.32 1632.68 2429.35 1631.39 2422.21 1631.39 2414.92 1631.39 2407.3 1632.73 2400.07 1635.42 2393.2 1638.12 2386.23 1641.89 2380.06 1646.73 2374.7 1651.69 2369.23 1657.45 2364.94 1664.02 2361.83 1670.59 2358.61 1677.69 2357 1685.34 2357 1693.41 2357 1700.74 2358.66 1707.31 2361.99 1713.88 2365.31 1719.48 2369.76 1724.11 2375.34 1728.84 2380.92 1732.51 2387.14 1735.09 2394 1737.68 2400.87 1738.97 2407.89 1738.97 2415.08 1738.97 2422.69 1737.62 2429.99 1734.93 2436.96 1732.24 2443.83 1728.47 2449.99 1723.62 2455.46 1718.78 2460.83 1713.07 2465.06 1706.5 2468.17 1699.93 2471.28 1692.82 2472.84 1685.18 2472.84ZM1642.69 2414.92C1642.69 2421.14 1643.72 2427.15 1645.76 2432.94 1647.81 2438.62 1650.72 2443.72 1654.49 2448.22 1658.25 2452.62 1662.72 2456.16 1667.89 2458.84 1673.17 2461.42 1678.93 2462.7 1685.18 2462.7 1691.75 2462.7 1697.61 2461.36 1702.78 2458.68 1708.06 2455.89 1712.53 2452.25 1716.19 2447.74 1719.96 2443.13 1722.81 2437.98 1724.75 2432.3 1726.69 2426.61 1727.66 2420.82 1727.66 2414.92 1727.66 2408.7 1726.64 2402.74 1724.59 2397.06 1722.54 2391.38 1719.58 2386.28 1715.71 2381.78 1711.94 2377.27 1707.47 2373.73 1702.3 2371.16 1697.13 2368.58 1691.42 2367.3 1685.18 2367.3 1678.72 2367.3 1672.85 2368.64 1667.57 2371.32 1662.4 2374 1657.93 2377.65 1654.16 2382.26 1650.5 2386.76 1647.65 2391.86 1645.6 2397.54 1643.66 2403.23 1642.69 2409.02 1642.69 2414.92ZM1828.94 2472.03 1828.94 2357.8 1840.24 2357.8 1840.24 2462.06 1906.47 2462.06 1906.47 2472.03 1828.94 2472.03ZM2033.56 2472.84C2024.51 2472.84 2016.87 2471.23 2010.62 2468.01 2004.37 2464.79 1999.42 2460.5 1995.76 2455.14 1992.1 2449.67 1989.41 2443.5 1987.68 2436.64 1986.07 2429.77 1985.26 2422.69 1985.26 2415.4L1985.26 2357.8 1996.41 2357.8 1996.41 2415.4C1996.41 2421.3 1997 2427.09 1998.18 2432.78 1999.48 2438.46 2001.52 2443.56 2004.32 2448.06 2007.12 2452.57 2010.89 2456.16 2015.63 2458.84 2020.37 2461.42 2026.29 2462.7 2033.4 2462.7 2040.72 2462.7 2046.75 2461.36 2051.49 2458.68 2056.34 2455.89 2060.1 2452.25 2062.8 2447.74 2065.6 2443.24 2067.59 2438.2 2068.77 2432.62 2069.96 2426.93 2070.55 2421.19 2070.55 2415.4L2070.55 2357.8 2081.86 2357.8 2081.86 2415.4C2081.86 2423.02 2080.99 2430.31 2079.27 2437.28 2077.55 2444.25 2074.75 2450.37 2070.87 2455.62 2067.1 2460.88 2062.15 2465.06 2056.01 2468.17 2049.87 2471.28 2042.39 2472.84 2033.56 2472.84ZM2258.88 2367.78 2218.01 2367.78 2218.01 2472.03 2206.7 2472.03 2206.7 2367.78 2165.83 2367.78 2165.83 2357.8 2258.88 2357.8 2258.88 2367.78ZM2344.71 2472.03 2344.71 2357.8 2356.02 2357.8 2356.02 2472.03 2344.71 2472.03ZM2499.63 2472.84C2491.55 2472.84 2484.23 2471.23 2477.66 2468.01 2471.09 2464.79 2465.44 2460.45 2460.7 2454.98 2455.96 2449.4 2452.3 2443.18 2449.72 2436.32 2447.13 2429.35 2445.84 2422.21 2445.84 2414.92 2445.84 2407.3 2447.18 2400.07 2449.88 2393.2 2452.57 2386.23 2456.34 2380.06 2461.18 2374.7 2466.14 2369.23 2471.9 2364.94 2478.47 2361.83 2485.04 2358.61 2492.14 2357 2499.79 2357 2507.87 2357 2515.19 2358.66 2521.76 2361.99 2528.33 2365.31 2533.93 2369.76 2538.56 2375.34 2543.3 2380.92 2546.96 2387.14 2549.54 2394 2552.13 2400.87 2553.42 2407.89 2553.42 2415.08 2553.42 2422.69 2552.07 2429.99 2549.38 2436.96 2546.69 2443.83 2542.92 2449.99 2538.07 2455.46 2533.23 2460.83 2527.52 2465.06 2520.95 2468.17 2514.38 2471.28 2507.27 2472.84 2499.63 2472.84ZM2457.15 2414.92C2457.15 2421.14 2458.17 2427.15 2460.21 2432.94 2462.26 2438.62 2465.17 2443.72 2468.94 2448.22 2472.71 2452.62 2477.18 2456.16 2482.34 2458.84 2487.62 2461.42 2493.38 2462.7 2499.63 2462.7 2506.2 2462.7 2512.07 2461.36 2517.24 2458.68 2522.51 2455.89 2526.98 2452.25 2530.64 2447.74 2534.41 2443.13 2537.27 2437.98 2539.2 2432.3 2541.14 2426.61 2542.11 2420.82 2542.11 2414.92 2542.11 2408.7 2541.09 2402.74 2539.04 2397.06 2537 2391.38 2534.04 2386.28 2530.16 2381.78 2526.39 2377.27 2521.92 2373.73 2516.75 2371.16 2511.58 2368.58 2505.87 2367.3 2499.63 2367.3 2493.17 2367.3 2487.3 2368.64 2482.02 2371.32 2476.85 2374 2472.38 2377.65 2468.61 2382.26 2464.95 2386.76 2462.1 2391.86 2460.05 2397.54 2458.11 2403.23 2457.15 2409.02 2457.15 2414.92ZM2654.7 2378.56 2654.7 2472.03 2643.39 2472.03 2643.39 2357.8 2652.76 2357.8 2728.03 2453.05 2728.03 2357.97 2739.34 2357.97 2739.34 2472.03 2728.84 2472.03 2654.7 2378.56ZM2903.85 2379.2C2902.24 2377.38 2900.36 2375.77 2898.2 2374.38 2896.05 2372.88 2893.62 2371.59 2890.93 2370.51 2888.24 2369.44 2885.33 2368.58 2882.21 2367.94 2879.2 2367.3 2875.96 2366.98 2872.52 2366.98 2862.5 2366.98 2855.13 2368.91 2850.39 2372.77 2845.76 2376.52 2843.44 2381.67 2843.44 2388.21 2843.44 2392.72 2844.52 2396.26 2846.67 2398.83 2848.93 2401.41 2852.43 2403.5 2857.17 2405.11 2861.91 2406.71 2867.94 2408.38 2875.26 2410.09 2883.45 2411.81 2890.5 2413.85 2896.42 2416.21 2902.35 2418.57 2906.92 2421.79 2910.15 2425.86 2913.38 2429.83 2915 2435.24 2915 2442.11 2915 2447.37 2913.98 2451.92 2911.93 2455.79 2909.89 2459.65 2907.03 2462.86 2903.37 2465.44 2899.71 2468.01 2895.35 2469.94 2890.29 2471.23 2885.22 2472.41 2879.68 2473 2873.65 2473 2867.73 2473 2862.02 2472.41 2856.52 2471.23 2851.14 2469.94 2846.03 2468.12 2841.18 2465.76 2836.33 2463.29 2831.81 2460.18 2827.61 2456.43L2833.26 2447.26C2835.31 2449.4 2837.73 2451.44 2840.53 2453.37 2843.44 2455.19 2846.62 2456.86 2850.06 2458.36 2853.62 2459.86 2857.39 2461.04 2861.37 2461.9 2865.46 2462.65 2869.66 2463.02 2873.97 2463.02 2883.12 2463.02 2890.23 2461.36 2895.29 2458.04 2900.46 2454.71 2903.05 2449.78 2903.05 2443.24 2903.05 2438.52 2901.75 2434.76 2899.17 2431.97 2896.59 2429.08 2892.71 2426.72 2887.54 2424.89 2882.37 2423.07 2876.02 2421.3 2868.48 2419.59 2860.51 2417.76 2853.78 2415.72 2848.29 2413.47 2842.79 2411.22 2838.65 2408.27 2835.85 2404.62 2833.16 2400.87 2831.81 2395.93 2831.81 2389.82 2831.81 2382.74 2833.53 2376.79 2836.98 2371.96 2840.53 2367.03 2845.38 2363.33 2851.52 2360.86 2857.66 2358.29 2864.71 2357 2872.68 2357 2877.74 2357 2882.43 2357.54 2886.73 2358.61 2891.15 2359.57 2895.19 2361.02 2898.85 2362.95 2902.62 2364.88 2906.12 2367.3 2909.35 2370.19L2903.85 2379.2Z" fill="#BF1B1B" fill-rule="evenodd"/></g></svg>