<svg width="258" height="257" xmlns="http://www.w3.org/2000/svg" xmlns:xlink="http://www.w3.org/1999/xlink" xml:space="preserve" overflow="hidden"><defs><clipPath id="clip0"><rect x="2071" y="1109" width="258" height="257"/></clipPath></defs><g clip-path="url(#clip0)" transform="translate(-2071 -1109)"><path d="M2200 1109C2128.87 1109 2071 1166.65 2071 1237.5 2071 1308.36 2128.87 1366 2200 1366 2271.13 1366 2329 1308.36 2329 1237.5 2329 1166.64 2271.13 1109 2200 1109ZM2200 1349.52C2137.99 1349.52 2087.55 1299.26 2087.55 1237.5 2087.55 1175.73 2137.99 1125.47 2200 1125.47 2262.01 1125.47 2312.45 1175.73 2312.45 1237.5 2312.45 1299.26 2262.01 1349.52 2200 1349.52Z" fill="#252323" fill-rule="evenodd"/><path d="M2201.41 1227.43 2201.41 1251.6 2241.34 1251.6C2239.73 1261.97 2229.27 1282.02 2201.41 1282.02 2177.37 1282.02 2157.76 1262.08 2157.76 1237.5 2157.76 1212.92 2177.37 1192.98 2201.41 1192.98 2215.08 1192.98 2224.24 1198.83 2229.47 1203.86L2248.58 1185.43C2236.31 1173.95 2220.42 1167 2201.41 1167 2162.48 1167 2131 1198.53 2131 1237.5 2131 1276.48 2162.48 1308 2201.41 1308 2242.04 1308 2269 1279.4 2269 1239.11 2269 1234.48 2268.5 1230.95 2267.89 1227.43L2201.41 1227.43 2201.41 1227.43Z" fill="#252323" fill-rule="evenodd"/></g></svg>