<svg width="258" height="257" xmlns="http://www.w3.org/2000/svg" xmlns:xlink="http://www.w3.org/1999/xlink" xml:space="preserve" overflow="hidden"><defs><clipPath id="clip0"><rect x="2071" y="1109" width="258" height="257"/></clipPath></defs><g clip-path="url(#clip0)" transform="translate(-2071 -1109)"><path d="M2142.95 1204.5 2167.43 1204.5 2167.43 1284 2142.95 1284 2142.95 1204.5ZM2155.19 1165C2163.02 1165 2169.36 1171.42 2169.36 1179.32 2169.36 1187.22 2163.02 1193.66 2155.19 1193.66 2147.34 1193.66 2141 1187.23 2141 1179.32 2141 1171.42 2147.34 1165 2155.19 1165M2182.77 1284 2207.2 1284 2207.2 1244.68C2207.2 1234.31 2209.14 1224.27 2221.87 1224.27 2234.39 1224.27 2234.57 1236.12 2234.57 1245.35L2234.57 1284 2259 1284 2259 1240.4C2259 1218.99 2254.44 1202.53 2229.69 1202.53 2217.78 1202.53 2209.81 1209.12 2206.54 1215.38L2206.22 1215.38 2206.22 1204.5 2182.77 1204.5 2182.77 1284Z" fill="#252323" fill-rule="evenodd"/><path d="M2200 1109C2128.87 1109 2071 1166.64 2071 1237.5 2071 1308.35 2128.87 1366 2200 1366 2271.13 1366 2329 1308.35 2329 1237.5 2329 1166.64 2271.13 1109 2200 1109ZM2200 1349.52C2137.99 1349.52 2087.55 1299.27 2087.55 1237.5 2087.55 1175.73 2137.99 1125.48 2200 1125.48 2262.01 1125.48 2312.45 1175.73 2312.45 1237.5 2312.45 1299.26 2262.01 1349.52 2200 1349.52Z" fill="#252323" fill-rule="evenodd"/></g></svg>