<svg xmlns="http://www.w3.org/2000/svg" width="500" height="500" fill="none" viewBox="0 0 500 500">
  <path fill="#EBEBEB" d="M272 165c11.598-11.598 11.598-30.402 0-42-11.598-11.598-30.402-11.598-42 0-11.598 11.598-11.598 30.402 0 42 11.598 11.598 30.402 11.598 42 0Z"/>
  <path fill="#DBDBDB" d="M278.637 155.225c5.839-14.516-1.196-31.016-15.712-36.855-14.516-5.838-31.017 1.196-36.855 15.713-5.839 14.516 1.196 31.016 15.712 36.855 14.516 5.838 31.017-1.197 36.855-15.713Z"/>
  <path fill="#fff" d="M254.532 171.121c14.609-1.204 25.476-14.023 24.273-28.632-1.204-14.609-14.023-25.476-28.632-24.273-14.609 1.204-25.476 14.023-24.273 28.632 1.204 14.609 14.023 25.477 28.632 24.273Z"/>
  <path fill="#EBEBEB" d="M278.309 139.027c-12.087 7.322-31.966 19.34-43.065 25.973a26.576 26.576 0 0 1-7.252-9.75l36.721-34.034a26.554 26.554 0 0 1 13.596 17.811Zm.579 6.603a26.307 26.307 0 0 1-1.758 8.621l-33.105 15.663a28.166 28.166 0 0 1-4.185-1.798c10.009-5.824 28.28-16.332 39.048-22.486Z" opacity=".5"/>
  <path fill="#C7C7C7" d="M252.616 120.037h-.51v4.026h.51v-4.026Zm-12.354 3.155-.441.255 2.013 3.486.441-.255-2.013-3.486Zm-9.104 8.93-.255.441 3.486 2.013.255-.441-3.486-2.013Zm.61 12.279h-4.026v.51h4.026v-.51Zm2.632 10.344-3.486 2.013.255.441 3.486-2.013-.255-.441Zm7.43 7.602-2.011 3.488.441.254 2.011-3.487-.441-.255Zm10.786 2.912h-.51v4.026h.51v-4.026Zm10.256-2.894-.442.255 2.013 3.486.441-.255-2.012-3.486Zm7.472-7.611-.254.441 3.486 2.013.254-.441-3.486-2.013Zm6.636-10.353h-4.026v.51h4.026v-.51Zm-3.428-12.295-3.486 2.014.255.441 3.485-2.014-.254-.441Zm-9.11-8.913-2.011 3.487.442.255 2.011-3.488-.442-.254Z"/>
  <path fill="#C7C7C7" d="m252.746 121.865.879 24.584-2.527-.03.969-24.564.679.01Z"/>
  <path fill="#A6A6A6" d="m268.06 136.08-16.543 10.569-1.198-2.218 17.421-8.95.32.599Z"/>
  <path fill="#37474F" d="M308.498 204.792a.994.994 0 0 0-.573-1.271.909.909 0 0 0-1.179.536l-.215.568c-.033.09-.059.183-.075.277l-.06.338a1.18 1.18 0 0 0 .736 1.304.5.5 0 0 0 .588-.177l.299-.419c.06-.085.11-.178.147-.276l.332-.88Z"/>
  <path fill="#A6A6A6" d="m304.294 210.573 2.235-5.926 1.771.669-.535 1.421-1.699 4.504-1.772-.668Z"/>
  <path fill="#C7C7C7" d="M253.275 144.631a.864.864 0 0 1-1.032.864.869.869 0 1 1 1.032-.864Z"/>
  <path fill="#EBEBEB" d="M131.14 220.8h37.98v-11.19h-37.98v11.19Z"/>
  <path fill="#EBEBEB" d="M73.97 87v167.67h115.5V87H73.97Zm111.21 163.4H78.23V91.27h107l-.05 159.13Z"/>
  <path fill="#EBEBEB" d="M78.23 177.96h106.95v-4.26H78.23v4.26Z"/>
  <path fill="#DBDBDB" d="M66.13 266.89h131.16v-12.23H66.13v12.23Zm12.1-175.63h107v109.41h-107V91.26Zm103 3.95H82.17v101.53h99.07l-.01-101.53Z"/>
  <path fill="#DBDBDB" d="M151.05 91.26h-2.13v105.48h2.13V91.26Zm-36.56 0h-2.13v105.48h2.13V91.26Z"/>
  <path fill="#EBEBEB" d="M309.47 87v167.67h115.51V87H309.47Zm111.21 163.4H313.76V91.27h107l-.08 159.13Z"/>
  <path fill="#EBEBEB" d="M313.76 177.96h106.95v-4.26H313.76v4.26Z"/>
  <path fill="#DBDBDB" d="M301.66 266.89h131.16v-12.23H301.66v12.23Zm12.1-175.63h107v109.41h-107V91.26Zm103 3.95H317.7v101.53h99.07l-.01-101.53Z"/>
  <path fill="#DBDBDB" d="M386.58 91.26h-2.13v105.48h2.13V91.26Zm-36.56 0h-2.13v105.48h2.13V91.26Z"/>
  <path fill="#EBEBEB" d="m453.922 323.017 13.384-.232c4.425-.08 8.801-.128 13.193-.136l-.36.368v-8.953l.392.4-13.289-.056c-4.424 0-8.856-.104-13.288-.152l.2-.192-.232 8.953Zm0 0-.192-8.953v-.2h.2c4.432-.048 8.864-.128 13.288-.152l13.289-.048h.408v9.721h-.368c-4.472 0-8.944-.056-13.385-.128l-13.24-.24Zm14.824 11.28h26.577v-8.952h-26.577v8.952Zm-166.214 41.026h26.577v-8.953h-26.577v8.953ZM4.768 334.305l13.385-.232c4.424-.08 8.8-.128 13.193-.136l-.36.368v-8.952l.392.392-13.337-.048c-4.424 0-8.856-.104-13.289-.152l.2-.192-.184 8.952Zm0 0-.192-8.936v-.2h.2c4.433-.048 8.865-.128 13.289-.152l13.288-.048h.409v9.712h-.369a826 826 0 0 1-13.384-.128l-13.24-.248Zm463.986-226.953 13.385-.232c4.416-.08 8.8-.128 13.193-.136l-.369.368V98.4l.4.4-13.304-.056c-4.432 0-8.864-.104-13.289-.152l.192-.192-.208 8.952Zm0 0-.2-8.952v-.2h.208c4.425-.048 8.857-.128 13.289-.152L495.339 98h.4v.408l-.079 8.944v.36h-.361c-4.48 0-8.952-.056-13.384-.128l-13.161-.232Zm-15 12 13.385-.232c4.416-.08 8.8-.128 13.193-.136l-.369.368V110.4l.4.4-13.304-.056c-4.432 0-8.864-.104-13.289-.152l.192-.192-.208 8.952Zm0 0-.2-8.952v-.2h.208c4.425-.048 8.857-.128 13.289-.152l13.288-.048h.4v.408l-.079 8.944v.36h-.361c-4.48 0-8.952-.056-13.384-.128l-13.161-.232Zm-16-12 13.385-.232c4.416-.08 8.8-.128 13.193-.136l-.369.368V98.4l.4.4-13.304-.056c-4.432 0-8.864-.104-13.289-.152l.192-.192-.208 8.952Zm0 0-.2-8.952v-.2h.208c4.425-.048 8.857-.128 13.289-.152L464.339 98h.4v.408l-.079 8.944v.36h-.361c-4.48 0-8.952-.056-13.384-.128l-13.161-.232Z"/>
  <path fill="#C7C7C7" d="M455.973 260.829h-59.69v12.36h59.69v-12.36Z"/>
  <path fill="#C7C7C7" d="m412.3 273.093-1.672 15.793-20.633 147.886h-5.896l16.28-147.886 1.328-15.793H412.3Zm55.874 163.679h-5.913l-20.632-147.886-1.672-15.793h10.592l1.328 15.793 16.297 147.886Z"/>
  <path fill="#C7C7C7" d="M458.213 370.521h-65.842v3.712h65.842v-3.712Z"/>
  <path fill="#A6A6A6" d="M400.379 288.326h10.249l1.672-15.233h-10.593l-1.328 15.233Zm51.498 0h-10.248l-1.672-15.233h10.592l1.328 15.233Z"/>
  <path fill="#EB9481" d="M373.634 391.89c2-.248 51.314-23.769 52.626-25.849.504-.8-2.504-8.168-6.4-16.993a534.03 534.03 0 0 0-2.624-5.848c-5.848-12.904-12.353-26.457-12.353-26.457l-33.033 15.633 13.265 26.033 2.904 5.712s-14.857 17.449-16.049 19.889c-1.192 2.44-.336 8.12 1.664 7.88Z"/>
  <path fill="#fff" d="M373.634 391.89c2-.248 51.314-23.769 52.626-25.849.608-.968-3.952-11.664-9.008-22.841l-32.122 15.201 2.905 5.712s-14.857 17.449-16.049 19.889c-1.192 2.44-.352 8.128 1.648 7.888Z"/>
  <path fill="#BF1B1B" d="M373.634 391.89c2-.248 51.314-23.769 52.626-25.849.504-.8-2.504-8.168-6.4-16.993l-31.841 15.073s-14.857 17.449-16.049 19.889c-1.192 2.44-.336 8.12 1.664 7.88Z"/>
  <path fill="#263238" d="M373.41 389.578c8.168-4.144 41.514-20.097 49.906-23.569.064 0 .088 0 0 .048-8 4.288-41.482 20.001-49.866 23.657-.16.08-.224-.048-.04-.136Zm.896-8.848a7.367 7.367 0 0 1 5.912-.344 7.137 7.137 0 0 1 3.953 3.536c0 .048-.072.096-.104.048a8.495 8.495 0 0 0-9.705-3.136c-.072.024-.152-.072-.056-.104Zm10.912-14.257c3.289-1.6 7.681-2.288 11.025-.56.128.064 0 .248-.088.248a50.439 50.439 0 0 0-10.801.744.232.232 0 0 1-.136-.432Zm-2.08 2.216c3.288-1.6 7.681-2.288 11.025-.56.136.064 0 .248-.088.248a50.439 50.439 0 0 0-10.801.744.232.232 0 0 1-.236-.315.238.238 0 0 1 .1-.117Zm-2.079 2.216c3.288-1.6 7.68-2.288 11.024-.56.136.064 0 .248-.088.24a51.035 51.035 0 0 0-10.801.752.228.228 0 0 1-.148-.038.232.232 0 0 1 .013-.394Zm-2.049 2.208c3.288-1.6 7.681-2.28 11.033-.56.128.072 0 .256-.096.248a51.035 51.035 0 0 0-10.801.752.228.228 0 0 1-.161-.03.232.232 0 0 1 .025-.41Zm16.497-85.603c.32 9.392 24.529 59.482 24.529 59.482l-34.882 15.529s-28.617-55.53-26.241-76.323c2.032-17.641 32.114-36.154 52.002-57.09h29.514c-11.009 23.353-42.346 49.01-44.802 57.234a3.722 3.722 0 0 0-.096 1.152l-.024.016Z"/>
  <path fill="#37474F" d="M385.411 355.705c5.728-2.729 4.048-2.024 9.8-4.689 2.808-1.312 16.937-7.904 19.769-8.688a.068.068 0 0 1 .039.009.07.07 0 0 1 .026.03.065.065 0 0 1-.017.073c-2.448 1.6-16.721 7.904-19.553 9.152-5.8 2.569-4.16 1.768-9.992 4.273a.088.088 0 0 1-.072-.16Zm47.697-121.661a302.727 302.727 0 0 1-29.089 37.545c-2.608 2.848-11 10.985-11.568 14.321-.632 3.72.8 7.424 1.984 10.888 1.272 3.816 2.552 7.633 3.904 11.425 1.464 4.088 3.016 8.144 4.752 12.12.888 2.032 6.297 12.001 7.289 14.017.496.992 1 1.976 1.52 2.96l2.4 4.36c.088.16.328.36.096-.056-.496-.92-2.552-4.744-3.024-5.688-1.848-3.704-7.961-15.481-9.497-19.321-1.536-3.84-2.984-7.84-4.344-11.808-1.36-3.969-2.752-7.841-3.912-11.817a16.67 16.67 0 0 1-.84-6.296c.216-2.088 6.176-9.008 8.8-11.849a286.519 286.519 0 0 0 15.753-18.4 263.417 263.417 0 0 0 15.88-22.401.051.051 0 0 0 .004-.027.054.054 0 0 0-.009-.025.05.05 0 0 0-.02-.018.05.05 0 0 0-.027-.007.048.048 0 0 0-.026.007.05.05 0 0 0-.02.018.054.054 0 0 0-.009.025.063.063 0 0 0 .003.027Z"/>
  <path fill="#EB9481" d="M394.483 436.892c1.912.632 56.546.472 58.626-.848.8-.496 1.232-8.457 1.488-18.089.056-2.08.104-4.232.136-6.4.24-14.169.12-27.537.12-27.537h-36.545l.888 27.537.176 6.4s-20.889 9.416-23.017 11.112c-2.128 1.697-3.744 7.193-1.872 7.825Z"/>
  <path fill="#fff" d="M394.483 436.892c1.912.632 56.546.472 58.626-.848.96-.616 1.408-12.233 1.6-24.497h-35.513l.176 6.4s-20.889 9.416-23.017 11.112c-2.128 1.697-3.744 7.201-1.872 7.833Z"/>
  <path fill="#BF1B1B" d="M394.483 436.892c1.288.36 57.65.64 58.626-.192.712-.608 1.232-9.113 1.488-18.745h-35.201s-20.889 9.416-23.017 11.112c-2.128 1.697-3.84 7.281-1.896 7.825Z"/>
  <path fill="#263238" d="M395.259 434.7c9.16-.248 46.122-.4 55.202.048.072 0 .072.056 0 .056-9.072.448-46.034.296-55.202.048-.192 0-.192-.144 0-.152Zm4.608-7.609a7.343 7.343 0 0 1 5.48 2.216 7.148 7.148 0 0 1 2.064 4.889c0 .056-.104.056-.112 0a8.494 8.494 0 0 0-7.432-6.993.06.06 0 0 1-.04-.016.06.06 0 0 1-.016-.04.056.056 0 0 1 .056-.056Zm15.945-8.24c3.664-.064 7.912 1.216 10.2 4.208.088.12-.072.24-.184.184a51.028 51.028 0 0 0-10.08-3.944.23.23 0 0 1-.147-.249.23.23 0 0 1 .211-.199Zm-2.817 1.136c3.665-.064 7.921 1.216 10.209 4.208.088.12-.08.24-.184.184a51.013 51.013 0 0 0-10.081-3.944.226.226 0 1 1 .056-.448Zm-2.784 1.112c3.664-.064 7.921 1.216 10.209 4.208.088.12-.08.24-.192.184a51.074 51.074 0 0 0-10.081-3.944.231.231 0 0 1 .064-.448Zm-2.863 1.112c3.664-.064 7.912 1.216 10.2 4.208.088.12-.072.24-.184.184a51.09 51.09 0 0 0-10.08-3.944.23.23 0 0 1-.147-.249.236.236 0 0 1 .07-.137.233.233 0 0 1 .141-.062Zm8.648-4.76 41.705-.52s-11.464-148.006-8.48-153.43c4.568-8.256 7.728-19.425 1.408-34.465h-32.281s1.704 16.056 1.552 16.72c-9.905 43.29-3.904 171.695-3.904 171.695Z"/>
  <path fill="#37474F" d="M417.956 410.203c8.296-.616 34.225-.8 36.985-.424.017 0 .034.006.046.018a.065.065 0 0 1 .018.046.063.063 0 0 1-.064.064c-2.736.52-16.376.8-36.985.472a.09.09 0 0 1-.088-.088c0-.024.009-.046.026-.062a.085.085 0 0 1 .062-.026Zm-.192-179.079c.32 4.088.16 11.064 2.52 11.2 2.36.136 1.952-8.424 2.016-10.4.064-1.784.672-1.536.736.56.184 5.688.04 10.704-2.984 10.472-3.024-.232-3-9.048-2.928-11.064.04-1.048.536-2.056.64-.768Z"/>
  <path fill="#37474F" d="M420.132 242.572a17.813 17.813 0 0 1-.088 4.304c0 .112-.496 0-.544-.072-.28-.592-.056-3.384-.136-4.136a.384.384 0 0 1 .336-.432.387.387 0 0 1 .432.336Z"/>
  <path fill="#37474F" d="M419.132 247.596c-1.008 3.577-2.04 10.401-1.8 12.217 0 .16.272.216.296.048.328-1.92 1.752-11.137 1.896-12.105.144-.968-.112-1.152-.392-.16Z"/>
  <path fill="#37474F" d="M425.34 250.42a12.239 12.239 0 0 0-1.504-1.28c-.528-.416-1.064-.8-1.6-1.208-1.12-.8-2.28-1.512-3.456-2.208a63.324 63.324 0 0 0-3.528-1.92c-1.192-.608-2.584-1.104-3.841-1.736-.072-.04-.136.064-.064.104 1.193.656 2.289 1.48 3.449 2.2 1.16.72 2.304 1.472 3.464 2.192 1.16.72 2.256 1.432 3.392 2.128.6.368 1.2.72 1.808 1.08.546.354 1.115.669 1.704.945.168.08.288-.176.176-.297Zm25.153 132.142a995.093 995.093 0 0 1-1.448-17.345c-.88-11.568-1.6-20.001-2.112-31.585a1173.63 1173.63 0 0 1-1.04-34.802c-.088-5.8-1.744-28.481-1.44-34.233.152-2.92 5.296-5.176 6.344-13.696a32.406 32.406 0 0 0-1.128-14.457 31.772 31.772 0 0 0-1.288-3.344c0-.072-.144 0-.112.064a31.68 31.68 0 0 1 2.496 15.2 25.832 25.832 0 0 1-1.6 7.641c-1.384 3.432-4.8 6.224-4.968 8.048-.264 2.72 1.6 54.474 2.128 66.011.528 11.536 1.144 19.904 1.992 31.425.848 11.52 1.864 30.673 3.072 42.161.136 1.313.288 2.625.48 3.937 0 .144.264.112.256 0-.384-5.833-1.112-19.249-1.632-25.025Z"/>
  <path fill="#EB9481" d="M419.996 185.898c-4.184 9.464-24.297 31.297-32.185 32.753-5.697 1.048-26.721-12.512-32.802-17.368-5.832-4.697 10.169-21.257 13.785-18.737 5.104 3.552 16.632 14.184 18.897 14.28 1.6.072 10.608-5.6 24.401-16 7.664-5.712 10.392-.568 7.904 5.072Z"/>
  <path fill="#EB9481" d="M343.673 193.498c3.2 3.744 12.681 8.865 15.449 9.217 2.768.352 12-15.513 10.928-18.161-1.072-2.648-12.76-14.401-17.681-15.393-4.92-.992-11.992 20.457-8.696 24.337Z"/>
  <path fill="#EB9481" d="M368.41 182.194a40.805 40.805 0 0 1-2.08-11.665c0-4.736.584-11.76-1.96-11.872-5.225-.216-6.633 17.313-6.633 17.313s.624 7.832 5.777 8.504a5.164 5.164 0 0 0 4.896-2.28Z"/>
  <path fill="#EB9481" d="M359.641 172.153c.416 2.569-2.848 1.601-2.848 1.601s4.361 2.552 3.761 5.36c-.6 2.808-4.489 1.392-4.801 1.296.232.136 4.176 2.584 3.288 5.352-.888 2.768-4.624.872-4.864.736.184.2 2.464 2.848 1.312 4.8-1.992 3.352-8-3.256-11.2-3.264 0 0-.632 5.336-.68 5.488 0 0-5.864-6.168-5.6-10.4a2.72 2.72 0 0 1 .675-1.674 2.72 2.72 0 0 1 1.573-.886s-2.112-1.784-1.48-4c.328-1.128 2.4-1.6 2.4-1.6a3.422 3.422 0 0 1-.952-3.417c.544-1.536 2.568-1.776 2.568-1.776s-.904-2.16.16-3.552c2.216-2.84 15.792.432 16.688 5.936Z"/>
  <path fill="#263238" d="M343.185 169.649c-.048 0-.048-.072 0-.072a24.198 24.198 0 0 1 13.784 4.193c.129.096 0 .344-.12.264a49.47 49.47 0 0 0-13.664-4.385Zm-1.992 5.241c-.056 0-.04-.096 0-.096a22.644 22.644 0 0 1 14.752 5.512c.144.128.144.384 0 .248-2.912-2.272-10.288-4.984-14.752-5.664Zm13.216 11.952c-4.048-3.424-8.8-5.2-13.904-6.336-.064 0 0-.104 0-.104 2.656-.136 5.848.928 8.264 1.968a14.015 14.015 0 0 1 5.736 4.336c.08.072-.008.208-.096.136Z"/>
  <path fill="#263238" d="M356.873 173.714c.152.104-.176.208 0 .32.624.48 4.129 3.696 3.409 5.232-.584 1.232-2.641 1.296-3.441 1.016l-2.016-.712 1.6 1.368a8.71 8.71 0 0 1 1.872 2.12 3.148 3.148 0 0 1 .496 2.512 1.775 1.775 0 0 1-1.784 1.36 5.418 5.418 0 0 1-2.584-.8l-2.2-1.264 1.656 1.904a8.23 8.23 0 0 1 1.168 1.736c.318.585.457 1.249.4 1.912a1.598 1.598 0 0 1-1.064 1.312 3.532 3.532 0 0 1-1.984-.192 28.804 28.804 0 0 1-3.952-1.888 46.3 46.3 0 0 0-1.984-1.016 5.154 5.154 0 0 0-2.128-.624 5.528 5.528 0 0 1 2.032.8c.64.36 1.264.76 1.888 1.152a24.266 24.266 0 0 0 3.944 2.144 4.165 4.165 0 0 0 2.4.304 2.265 2.265 0 0 0 1.648-1.872 4.046 4.046 0 0 0-.44-2.4 8.86 8.86 0 0 0-1.264-1.96l-.544.64c.912.591 1.963.93 3.048.984a2.574 2.574 0 0 0 1.656-.56 2.9 2.9 0 0 0 .937-1.456 3.942 3.942 0 0 0-.624-3.2 9.417 9.417 0 0 0-2.089-2.304l-.368.656c1.024.328 3.337.496 4.481-1.296 1.168-2.496-3.321-5.448-4.169-5.928Z"/>
  <path fill="#263238" d="M356.793 173.738a5.156 5.156 0 0 0 1.601-.089 1.22 1.22 0 0 0 .928-.8 2.492 2.492 0 0 0-.144-1.392 18.099 18.099 0 0 0-.624-1.528c.466.349.855.79 1.144 1.296a2.416 2.416 0 0 1 .32 1.832c-.118.322-.33.601-.608.801a1.797 1.797 0 0 1-.928.312 2.752 2.752 0 0 1-1.689-.432Z"/>
  <path fill="#455A64" d="m369.282 182.682-11.593 27.849s23.201 10.4 30.122 8.896c6.92-1.504 25.553-20.393 32.337-32.161 4.136-7.16.08-12.368-8.864-6.352-9.193 6.184-22.097 14.736-23.057 15.016-.96.28-18.945-13.248-18.945-13.248Z"/>
  <path fill="#37474F" d="m363.354 196.914.136-.32a6.396 6.396 0 0 0 3.304-1.6 14.71 14.71 0 0 0 2.992-4.064c.94-1.9 1.987-3.746 3.136-5.528l.224.168c-1.88 2.72-2.96 5.928-5.056 8.504-1.08 1.36-2.928 2.704-4.736 2.84Zm19.464-4.344-.16-.112a19.88 19.88 0 0 1-3.888 3.2 83.18 83.18 0 0 1-9.744 5.321c-2.92 1.4-5.656 3.056-7.256 5.968a11.769 11.769 0 0 0-1.416 4.752l.224.096a11.681 11.681 0 0 1 1.6-5.072c1.792-3.032 4.872-4.552 7.936-6.016a65.05 65.05 0 0 0 9.696-5.513 16.973 16.973 0 0 0 3.008-2.624Zm-1.504 10.273a5.2 5.2 0 0 0-3.904.8 5.603 5.603 0 0 0-2.216 3.464 23.916 23.916 0 0 0-.32 4.72 12 12 0 0 1-.896 4.528 4.224 4.224 0 0 1-.184.384l.264.088c.197-.413.368-.837.512-1.272.405-1.376.594-2.806.56-4.24-.09-1.659.08-3.322.504-4.928a5.082 5.082 0 0 1 3.544-3.32 4.79 4.79 0 0 1 4.536 1.224 5.258 5.258 0 0 1 1.409 4.88c-.593 3.2-2.849 5.728-3.201 8.968a7.52 7.52 0 0 0-.048.848l.216.04v-.608c.256-3.368 2.656-6.016 3.2-9.288a5.596 5.596 0 0 0-.8-4.224 5.24 5.24 0 0 0-3.176-2.064Zm12.145.912c-1.84-2.192-4.328-4-5.6-6.633a6.162 6.162 0 0 1-.512-1.6l-.28-.16a10.102 10.102 0 0 0 2.88 5.025c.992 1.08 2.064 2.08 3.032 3.2a13.211 13.211 0 0 1 2.568 4.264c.766 2.09.959 4.346.56 6.536l.288-.24c.104-.619.16-1.245.168-1.872a13.234 13.234 0 0 0-3.104-8.504v-.016Zm11.696-11.529a10.893 10.893 0 0 0-2.496-5.56l-.208.136a10.477 10.477 0 0 1 2.4 4.984c.6 3.258.6 6.599 0 9.857a33.678 33.678 0 0 1-1.768 6.528c.136-.136.28-.272.416-.416a33.034 33.034 0 0 0 1.6-6.056c.553-3.127.572-6.324.056-9.457v-.016Zm3.816-.224a17.343 17.343 0 0 1 1.136-9.472 10.2 10.2 0 0 1 .8-1.352l-.56.376a14.808 14.808 0 0 0-1.776 6.2 23.127 23.127 0 0 0 1.464 9.824c.276.728.605 1.434.985 2.113l.216-.248a21.957 21.957 0 0 1-2.265-7.425v-.016Z"/>
  <path fill="#263238" d="M369.722 199.795c.728-2.105 3.584-10.513 4.128-12.657 0 0 0-.064-.056 0-.928 1.944-4 10.16-4.72 12.257a121.577 121.577 0 0 0-4 12.704c0 .072.096.136.136.056 1.8-4.032 3.08-8.224 4.512-12.36Z"/>
  <path fill="#000" d="M420.156 187.266c-5.504 9.536-18.769 23.769-27.289 29.601l23.841-38.449c4.968-.976 6.608 3.36 3.448 8.848Z" opacity=".1"/>
  <path fill="#455A64" d="m404.779 234.844 49.698 3.12c-1.68-14.185-15.336-46.602-23.201-57.138-4.44-5.952-15.064-6.913-17.912 1.464-3.664 10.856-9.329 51.89-8.585 52.554Z"/>
  <path fill="#37474F" d="M405.939 229.516a11.452 11.452 0 0 1-.432 5.376h-.216c.888-2.4.552-4.904.048-7.36 0-.248.056-.504.088-.8.2.912.384 1.856.512 2.784Zm7.473-17.809a6.754 6.754 0 0 0-3.276.11 6.757 6.757 0 0 0-2.837 1.642c0 .12 0 .24-.056.36a6.715 6.715 0 0 1 4.169-2.048c3.2-.32 5.888 2.184 6.912 5.056 1.256 3.536.056 7.416-1.552 10.625-1.304 2.6-3.072 5.08-3.864 7.896h.232c.8-2.936 2.728-5.504 4-8.232 1.432-2.985 2.464-6.505 1.528-9.793-.72-2.544-2.648-4.944-5.256-5.616Zm16.92 7.296a18.92 18.92 0 0 0-4.864-6.336c-4.16-3.72-9.36-6.4-12.8-10.896a17.665 17.665 0 0 1-2.609-5.001l-.12.624.072.2a19.208 19.208 0 0 0 5.025 7.201 79.417 79.417 0 0 0 6.6 5.176 33.483 33.483 0 0 1 6.216 5.6 15.792 15.792 0 0 1 3.472 8.872 27.793 27.793 0 0 1-1.4 10.401 23.719 23.719 0 0 1-.56 1.6h.264a29.583 29.583 0 0 0 1.824-7.416 19.148 19.148 0 0 0-1.16-10.025h.04Zm.248-32.073c-.264-2.352-.848-4.992-.368-7.368a1.798 1.798 0 0 0-.184-.176 10.009 10.009 0 0 0-.256 2.488c.04 1.936.464 3.832.624 5.76a19.99 19.99 0 0 1-.336 5.528 19.795 19.795 0 0 1-1.808 5.136 8.346 8.346 0 0 1-3.36 3.657 3.403 3.403 0 0 1-4.28-.712 5.254 5.254 0 0 1-1.024-4.001 11.412 11.412 0 0 1 2.088-4.568 26.726 26.726 0 0 0 2.52-4.248c1.112-2.584 1.6-5.736.232-8.32a6.535 6.535 0 0 0-5.92-3.304 4.825 4.825 0 0 0-.6.248 6.66 6.66 0 0 1 5.816 2.4c2.032 2.688 1.416 6.4.096 9.24-1.32 2.84-4 5.264-4.472 8.496-.32 2.304.744 5.201 3.36 5.481 3.088.328 5.24-2.993 6.296-5.417a20.336 20.336 0 0 0 1.536-10.32h.04Zm8.921 21.905a65.704 65.704 0 0 0 4.208-3.704l.224-.216c-.04-.104-.088-.2-.128-.296a49.993 49.993 0 0 1-6.056 5.2c-1.353.96-3.009 1.752-4.689 1.256a3.036 3.036 0 0 1-1.808-1.304 3.145 3.145 0 0 1 .064-2.864 14.553 14.553 0 0 1 2.888-3.912c1.056-1.112 2.192-2.136 3.345-3.152.976-.865 1.968-1.737 2.92-2.649 0-.088-.08-.168-.112-.248-1.144 1.104-2.4 2.136-3.544 3.201a42.63 42.63 0 0 0-3.289 3.2 12.803 12.803 0 0 0-2.568 3.72 3.048 3.048 0 0 0 .744 3.656 4.118 4.118 0 0 0 3.528.688 11.498 11.498 0 0 0 4.233-2.576h.04Zm-2.464 15.2c2.872 1.16 5.6-.544 7.808-2.32a40.316 40.316 0 0 1 4.368-3.328c0-.072-.056-.152-.08-.232-.624.376-1.232.8-1.816 1.232-2.52 1.896-5.168 5.016-8.632 4.76a4.052 4.052 0 0 1-3.537-2.208c-.664-1.6.12-3.4 1.329-4.48a10.81 10.81 0 0 1 4.944-2.136c1.864-.424 3.752-.696 5.6-1.056l.608-.12c0-.08-.064-.152-.088-.232-.712.144-1.432.272-2.144.4a52.2 52.2 0 0 0-5.512 1.136 8.256 8.256 0 0 0-4.073 2.288 4.412 4.412 0 0 0-1.104 3.776 3.682 3.682 0 0 0 2.289 2.496l.04.024Zm15.696 5.433c-2.592.688-5.336.8-8 1.224-3.04.496-6.296 1.48-8.208 4.064a8.438 8.438 0 0 0-1.097 2.032h.272a7.674 7.674 0 0 1 1.417-2.4c2.304-2.624 6.04-3.304 9.328-3.72a48.322 48.322 0 0 0 6.328-1c-.04-.072-.056-.152-.08-.224l.04.024Zm1.2 5.008a25.761 25.761 0 0 0-2 1.952c-.4.432-.8.872-1.192 1.32h.328a34.497 34.497 0 0 1 2.928-3.008c-.056-.096-.08-.192-.104-.288l.04.024Z"/>
  <path fill="#EB9481" d="M435.933 185.954c8.8 10.664 17.128 31.417 15.608 37.641-2.32 9.521-43.658 9.521-50.746 8.513-3.072-.44.408-21.601 3.712-21.377 5.441.376 27.753-1.512 28.153-1.512 0 0-3.248-11.585-5.336-22.585-1.856-9.752 2.408-8.224 8.609-.68Z"/>
  <path fill="#455A64" d="M436.933 185.45c8.8 10.664 18.64 29.889 15.552 39.585-2.448 7.673-38.657 11.625-45.69 12.201l-1.88-27.489c5.448.376 27.345-.528 27.745-.528 0 0-3.416-10.057-5.952-20.953-3.464-14.841 4.024-10.36 10.225-2.816Z"/>
  <path fill="#37474F" d="M452.669 216.683a13.952 13.952 0 0 0-5.392 2.68c-2.52 1.896-5.168 5.016-8.632 4.76a4.052 4.052 0 0 1-3.536-2.208c-.664-1.6.12-3.4 1.328-4.48a10.81 10.81 0 0 1 4.944-2.136c1.864-.424 3.752-.696 5.6-1.056a27.605 27.605 0 0 0 4.8-1.312 1.558 1.558 0 0 0-.072-.232 33.022 33.022 0 0 1-6.344 1.6 52.2 52.2 0 0 0-5.512 1.136 8.249 8.249 0 0 0-4.072 2.288 4.415 4.415 0 0 0-1.104 3.776 3.672 3.672 0 0 0 2.304 2.52c2.872 1.161 5.6-.544 7.808-2.32 2.344-1.912 4.8-4.192 7.896-4.8.008-.064-.008-.144-.016-.216Zm-5.528-15.376c-.376.336-.728.68-1.064 1.016a65.912 65.912 0 0 1-8.368 7.496c-1.352.96-3.008 1.752-4.688 1.256a3.035 3.035 0 0 1-1.809-1.304 2.442 2.442 0 0 1-.2-.528h-.272c.142.563.469 1.062.928 1.416a4.118 4.118 0 0 0 3.529.688 11.498 11.498 0 0 0 4.272-2.552 65.704 65.704 0 0 0 4.208-3.704c1.184-1.128 2.328-2.4 3.592-3.576l-.128-.208Zm-12.976 1.688c1.056-1.112 2.192-2.136 3.344-3.152a42.162 42.162 0 0 0 5.648-5.601 1.424 1.424 0 0 0-.144-.232 44.851 44.851 0 0 1-6.24 6.137 42.438 42.438 0 0 0-3.288 3.2 16.704 16.704 0 0 0-1.937 2.472c.04.12.08.24.112.36a17.098 17.098 0 0 1 2.505-3.184Zm-3.625-16.065c-.28-2.464-.904-5.256-.288-7.712l-.192-.112a10.091 10.091 0 0 0-.328 2.768c.04 1.936.464 3.832.624 5.76a19.99 19.99 0 0 1-.336 5.528 19.632 19.632 0 0 1-1.128 3.672c0 .136.08.264.112.4a20.306 20.306 0 0 0 1.536-10.304Zm-.248 32.073a18.908 18.908 0 0 0-4.864-6.336c-1.224-1.088-2.536-2.096-3.864-3.072h-.448l.504.376a33.452 33.452 0 0 1 6.216 5.6 15.793 15.793 0 0 1 3.488 8.872 27.27 27.27 0 0 1-1.168 9.601l.304-.056c.464-1.632.795-3.299.992-4.984a19.15 19.15 0 0 0-1.16-10.001Zm-11.624-1.664c-.72-2.56-2.648-4.96-5.296-5.6-2.832-.72-5.768.8-7.353 3.2a9.202 9.202 0 0 0-.672 1.168v.536a7.512 7.512 0 0 1 5.993-4.8c3.2-.32 5.888 2.184 6.912 5.056 1.256 3.536.056 7.416-1.552 10.625-1.504 2.992-3.624 5.824-4.16 9.2h.248c.568-3.472 2.824-6.4 4.32-9.488 1.464-3.089 2.496-6.609 1.56-9.897Z"/>
  <path fill="#263238" d="M432.452 209.027a20.523 20.523 0 0 1 4.865 1.96 19.155 19.155 0 0 1 4.24 3.088c-1.528-.864-3.008-1.744-4.528-2.56l-4.577-2.488Zm18.969 17.353c-3.008 2.76-6.952 3.672-10.784 4.704a191.943 191.943 0 0 1-13.393 3.072c-1.264.24-2.528.48-3.8.704a39.665 39.665 0 0 1-3.96.712.064.064 0 0 0-.045.019.064.064 0 0 0-.019.045c0 .017.007.033.019.045a.064.064 0 0 0 .045.019c1.224-.216 2.496-.232 3.728-.384a87.68 87.68 0 0 0 3.416-.488c2.336-.368 4.656-.8 6.96-1.288a145.22 145.22 0 0 0 6.873-1.656 58.534 58.534 0 0 0 6.144-1.856c1.904-.728 3.856-1.744 4.984-3.512.088-.112-.08-.216-.168-.136Z"/>
  <path fill="#263238" d="M431.596 205.051a220.41 220.41 0 0 1-1.304-4.296c-.424-1.44-.848-2.873-1.312-4.297-.464-1.424-.744-2.912-1.272-4.304h-.08c.187 1.11.438 2.208.752 3.288a17.295 17.295 0 0 0-.8-1.6c0-.04-.08 0-.072 0 .306.82.659 1.621 1.056 2.4a.964.964 0 0 0 0 .152c.328 1.496.72 2.977 1.144 4.449.424 1.472.84 2.872 1.288 4.304a25.449 25.449 0 0 0 1.304 3.776c-1.704-.088-3.432.04-5.128.072-1.696.032-3.592.088-5.392.128-3.56.096-7.12.184-10.673.32-2.032.08-4.064.144-6.088.288a.08.08 0 0 0-.055.076.08.08 0 0 0 .055.076c3.592.144 7.2.088 10.793 0 3.592-.088 7.12-.12 10.68-.288 1.976-.088 6.248-.24 6.232-.368a.324.324 0 0 0 0-.088c.048-.064-.736-2.816-1.128-4.088Zm-19.352 18.592c-.168-2.024-.904-10.096-1.24-12.08h-.064c-.048 1.96.448 9.952.616 12a112.61 112.61 0 0 0 1.352 12.081c0 .064.136.072.136 0 0-4.048-.432-8-.8-12.001Z"/>
  <path fill="#C7C7C7" d="M446.613 221.171h-54.074v2.424h54.074v-2.424Z"/>
  <path fill="#A6A6A6" d="M419.756 221.171h-27.217v2.424h27.217v-2.424Z"/>
  <path fill="#C7C7C7" d="M416.828 223.595H364.13l-6.897-35.793h52.706l6.889 35.793Z"/>
  <path fill="#fff" d="M390.211 205.699a2.896 2.896 0 0 1-2.929 3.2 3.572 3.572 0 0 1-3.488-3.2 2.89 2.89 0 0 1 2.928-3.2 3.576 3.576 0 0 1 3.489 3.2Z"/>
  <path fill="#EB9481" d="M410.668 225.572c-3.568 1.792-7.945 6.208-10.889 6.632a3.414 3.414 0 0 1-3.64-1.808s-1.4 2.976-4.128 2.92c-1.4 0-2.592-2.296-2.592-2.296s-1.224 2.328-3.648 2.128c-1.936-.16-2.832-2.4-2.832-2.4s-2.224 1.696-4.137.896c-3.888-1.6-4.272-18.241 1.792-20.953 2.833-1.272 2.705 2.8 2.705 2.8s1.6-5.808 5.024-5.976c3.424-.168 2.944 5.112 2.944 5.112s1.6-5.6 5.168-5.432c3.72.192 2.328 5.392 2.328 5.392s2.4-3.76 5.128-2.992c4.457 1.264-.896 9.792.056 13.424l5.945.176.776 2.377Z"/>
  <path fill="#EB9481" d="M405.516 228.668c3.528-1.408 5.12 1.128 8.8.76 4.056-.4 2.888-5.185-4.184-6.233l-6.153-.184 1.537 5.657Z"/>
  <path fill="#263238" d="M382.738 230.404c0 .01-.004.02-.011.028a.045.045 0 0 1-.029.012.044.044 0 0 1-.028-.012.044.044 0 0 1-.012-.028 28.812 28.812 0 0 1 .624-17.169c.064-.176.376-.144.336.064a59.141 59.141 0 0 0-.88 17.105Zm6.673.696c0 .064-.104.072-.12 0-1.473-5.6-1.201-12.857 1.848-18.681.104-.2.4-.272.296 0-1.76 4.024-2.632 13.329-2.024 18.681Zm9.712-18.881c-2.712 5.704-3.32 11.704-3.056 17.953 0 .08-.112.072-.128 0-.968-3.024-.72-7.025-.264-10.121a16.64 16.64 0 0 1 3.248-7.928c.088-.088.256-.024.2.096Zm1.32 19.833a12.694 12.694 0 0 0 2.976-1.6c.928-.64 1.784-1.368 2.76-1.992.248-.162.518-.289.8-.376.308-.053.621-.053.928 0 .576.096 1.128.24 1.673.384a22.72 22.72 0 0 0 3.272.744c1.064.12 2.256.112 2.952-.6.352-.361.554-.841.568-1.344a2.066 2.066 0 0 0-.568-1.368 7.21 7.21 0 0 0-2.704-1.825 10.802 10.802 0 0 0-3.201-.92 9.513 9.513 0 0 1 3.353.624 7.658 7.658 0 0 1 2.968 1.793 2.64 2.64 0 0 1 .72 1.696 2.594 2.594 0 0 1-.688 1.736 2.805 2.805 0 0 1-1.672.8 6.234 6.234 0 0 1-1.768 0 24.915 24.915 0 0 1-3.336-.8c-.545-.16-1.081-.344-1.601-.464a2.157 2.157 0 0 0-.8-.064 2.646 2.646 0 0 0-.72.312c-1.872 1.16-3.696 2.68-5.912 3.264Z"/>
  <path fill="#EB9481" d="M418.14 186.098c2.824.24 6.872-4.632 8.208-8.288.096-.248-.632-2.64-1.368-5.601-.448-1.792-.896-3.792-1.176-5.648l-11.2 4.584a29.798 29.798 0 0 1 2.192 6.953c.029.266.029.534 0 .8v.128c.024 1.48.616 6.848 3.344 7.072Z"/>
  <path fill="#263238" d="M412.612 171.169a29.6 29.6 0 0 1 2.2 6.953c.029.266.029.534 0 .8a.601.601 0 0 0 0 .12c.405.003.81-.035 1.208-.112 6.736-1.176 7.384-9.841 7.432-12.185l-10.84 4.424Z"/>
  <path fill="#EB9481" d="M425.156 153.401c1.232 4.184-1.104 16.208-4.096 18.864-4.344 3.849-11.385 4.145-14.641-1.064-3.152-5.04.16-20.656 3.504-23.064 4.921-3.545 13.425-.913 15.233 5.264Z"/>
  <path fill="#263238" d="M425.796 164.873c-3.328-.176-4.56-4.32-3.392-7.392 0 0-8.912.072-8.456-7.016a6.955 6.955 0 0 1-6.089 2.448l-1.304 2.472c-.872-.376-1.512-3.048.944-4.8a8.433 8.433 0 0 1 3.432-5.273 4.805 4.805 0 0 1 5.249-.08 7.299 7.299 0 0 1 5.448-.648 6.234 6.234 0 0 1 4.144 3.929s4.24 1.376 4.592 4.552a6.436 6.436 0 0 1-1.496 5.04s.936 1.352.056 3.912c-.568 1.672-2.128 2.912-3.128 2.856Z"/>
  <path fill="#263238" d="M414.212 149.865a8.232 8.232 0 0 0-.232 1.712c-.035.57.002 1.143.112 1.704a4.456 4.456 0 0 0 1.712 2.776 7.195 7.195 0 0 0 3.128 1.216c.576.056 1.144.152 1.72.168.576.016 1.16 0 1.744 0-.576.072-1.16.112-1.744.16-.584.048-1.168 0-1.76-.056a7.197 7.197 0 0 1-3.336-1.2 4.663 4.663 0 0 1-1.776-3.048 7.073 7.073 0 0 1 .432-3.432Zm11.56-1.328a8.168 8.168 0 0 1 3.144 1.104 4.895 4.895 0 0 1 2.168 2.584c.157.554.227 1.128.208 1.704a4.92 4.92 0 0 1-.28 1.712 4.535 4.535 0 0 1-2.128 2.528 4.997 4.997 0 0 0 1.832-2.624 5.596 5.596 0 0 0 0-3.152 4.384 4.384 0 0 0-.752-1.384 6.328 6.328 0 0 0-1.2-1.064 10.315 10.315 0 0 0-2.992-1.408Zm-9.592-3.297a8.229 8.229 0 0 0-2.512-.8 4.71 4.71 0 0 0-4.593 1.776 9.126 9.126 0 0 0-1.344 2.273 6.743 6.743 0 0 1 1.096-2.449 4.889 4.889 0 0 1 2.185-1.744 4.74 4.74 0 0 1 2.744-.168 6.226 6.226 0 0 1 2.424 1.112Z"/>
  <path fill="#263238" d="M409.195 153.369a9.327 9.327 0 0 0 2.84-1.104 5.7 5.7 0 0 0 1.16-.944c.347-.377.648-.793.896-1.24a3.614 3.614 0 0 1-.655 1.44 4.316 4.316 0 0 1-1.185 1.096 5.306 5.306 0 0 1-1.48.608 4.808 4.808 0 0 1-1.576.144Zm3.841 7.416s.048.056.04.088c-.192.8-.288 1.736.376 2.16v.04c-.84-.312-.736-1.568-.416-2.288Z"/>
  <path fill="#263238" d="M413.924 160.105c1.312.184.856 2.784-.36 2.616-1.216-.168-.736-2.768.36-2.616Zm-5.633-.16s-.064 0-.072.064c-.12.8-.384 1.72-1.16 1.864.912.072 1.256-1.136 1.232-1.928Z"/>
  <path fill="#263238" d="M407.724 158.977c-1.281-.32-1.841 2.264-.657 2.56 1.185.296 1.729-2.288.657-2.56Zm7.44-.936c-.336-.152-.624-.352-.944-.536a1.75 1.75 0 0 1-.864-.728.545.545 0 0 1 .208-.648 1.358 1.358 0 0 1 1.4.104c.455.216.812.596 1 1.064a.599.599 0 0 1-.464.781.604.604 0 0 1-.336-.037Zm-8.353 0c.364.001.727-.017 1.088-.056a1.8 1.8 0 0 0 1.096-.272.56.56 0 0 0 .104-.672 1.386 1.386 0 0 0-1.304-.536 2.07 2.07 0 0 0-1.376.52.586.586 0 0 0 .07.906.583.583 0 0 0 .322.11Zm5.8 10.024c-.192.2-.384.464-.68.496a2.103 2.103 0 0 1-.88-.184h-.04a1.106 1.106 0 0 0 1.048.424.86.86 0 0 0 .632-.736c.04-.008-.024-.024-.08 0Z"/>
  <path fill="#263238" d="M412.028 165.569a2.782 2.782 0 0 1-2.048.904 3.515 3.515 0 0 1-1-.128l-.352-.12a.19.19 0 0 1-.136-.208l.352-1.72c-.248.072-1.497.392-1.425.072a41.746 41.746 0 0 1 2.529-8.128.077.077 0 0 1 .089-.028c.016.005.03.015.039.029a.08.08 0 0 1 .016.047c-.504 2.576-1.464 5.048-2.016 7.632a5.088 5.088 0 0 1 1.368-.168c.048 0-.488 2.096-.488 2.112a3.828 3.828 0 0 0 3-.384c.08-.032.128.032.072.088Z"/>
  <path fill="#BF1B1B" d="M405.283 164.097c-1.456-.24-2.344-2.232-1.984-4.432.36-2.2 1.84-3.808 3.304-3.568 1.464.24 2.345 2.232 1.984 4.432-.36 2.2-1.84 3.808-3.304 3.568Zm1.232-7.464c-1.168-.192-2.4 1.208-2.68 3.12-.28 1.912.376 3.616 1.536 3.808 1.16.192 2.4-1.208 2.68-3.12.28-1.912-.376-3.616-1.536-3.808Zm6.505 8.936a4.07 4.07 0 0 1-3.523-2.918 4.067 4.067 0 0 1 3.666-5.185 4.061 4.061 0 0 1 3.926 2.348c.343.74.456 1.566.323 2.371a3.913 3.913 0 0 1-1.495 2.602 3.923 3.923 0 0 1-2.897.782Zm1.224-7.464a3.516 3.516 0 0 0-3.715 1.388 3.524 3.524 0 0 0-.645 1.973 3.523 3.523 0 0 0 4.247 3.502 3.526 3.526 0 0 0 2.745-2.863c.09-.438.092-.889.006-1.327a3.368 3.368 0 0 0-.505-1.228 3.368 3.368 0 0 0-2.165-1.445h.032Z"/>
  <path fill="#BF1B1B" d="M410.212 160.577c-1.224-.8-1.912-.36-1.92-.36l-.16-.408c.04 0 .864-.624 2.272.336l-.192.432Zm6.856 1.08v-.48c.304 0 7.584.544 8.352.704.768.16 2.4 1.704 2.56 1.88l-.328.344a9.02 9.02 0 0 0-2.296-1.752c-.576-.128-5.672-.512-8.288-.696Z"/>
  <path fill="#EB9481" d="M421.988 163.921s2.848-3.816 4.584-2.792c1.736 1.024-.488 6.608-2.584 7.32a2.112 2.112 0 0 1-2.792-1.224l.792-3.304Z"/>
  <path fill="#263238" d="M425.892 162.713v.056c-1.472.544-2.28 1.872-2.856 3.256a1.169 1.169 0 0 1 .815-.538 1.153 1.153 0 0 1 .937.274s0 .088-.04.072a1.309 1.309 0 0 0-1.448.408 6.96 6.96 0 0 0-.712 1.136c-.072.128-.312.056-.256-.096.04-1.888 1.568-4.44 3.56-4.568Zm-11.736 19.921h.04c-.144 2.304-.336 7.656 3.28 7.336a7.674 7.674 0 0 0 3.904-1.928 20.491 20.491 0 0 0 3.072-3.104 29.803 29.803 0 0 0 2.872-4c0-.064.12 0 .088.064-.864 1.408-1.6 2.872-2.576 4.2a18.034 18.034 0 0 1-3.32 3.44 7.72 7.72 0 0 1-4.152 1.88 2.926 2.926 0 0 1-2.968-2.208 12.911 12.911 0 0 1-.24-5.68Z"/>
  <path fill="#EBEBEB" d="m414.956 178.498 2.792 6.816 8.464-8.712 2.4 2.76s-8.224 13.816-8.28 13.192l-2.856-5.88-4.064 4.168.264-10.304 1.28-2.04Z"/>
  <path fill="#263238" d="M413.276 185.706c.104-1.696.152-3.416.336-5.104a.06.06 0 0 1 .016-.04.06.06 0 0 1 .04-.016.056.056 0 0 1 .056.056c.352 1.6-.064 8.136-.048 9.688.168-.176 3.744-3.64 3.784-3.584.616.936 2.712 5.216 2.856 5.6 1.304-2.2 6.824-10.848 8.368-12.928a.063.063 0 0 1 .035-.029.059.059 0 0 1 .045.005.06.06 0 0 1 .029.035.059.059 0 0 1-.005.045c-1.144 2.32-8.28 13.736-8.384 13.704a64.653 64.653 0 0 1-2.992-6.216c-.608.752-4.216 4.656-4.232 4.4a54.237 54.237 0 0 1 .096-5.616ZM14 419.4l59.256-.192 59.248-.072L251 419l118.496.136 59.248.064 59.256.2-59.256.192-59.248.072L251 419.8l-118.496-.136-59.248-.072L14 419.4Z"/>
  <path fill="#EBEBEB" d="m182.47 252.69-13.13.28-6.66.11c-2.22 0-4.46 0-6.69.06h-.45v-.45l-.05-11.19v-.5h.51l13.24.06c4.41 0 8.82.12 13.24.17h.27v.27c0 1.9-.09 3.79-.13 5.65l-.15 5.54Zm0 0-.14-5.69c0-1.87-.12-3.71-.14-5.54l.28.27c-4.42 0-8.83.16-13.24.17l-13.24.06.5-.5-.06 11.19-.44-.45c2.18 0 4.35 0 6.54.06l6.58.11 13.36.32ZM167.7 266.8l-13.13.28-6.66.11c-2.23.05-4.46 0-6.69.05h-.45V255.1h.51l13.24.06c4.41 0 8.82.12 13.24.17h.17v.27c0 1.9-.09 3.79-.13 5.65l-.1 5.55Zm0 0-.15-5.65c0-1.87-.11-3.71-.13-5.54l.28.27c-4.42.05-8.83.16-13.24.17l-13.24.06.49-.5v11.19l-.44-.45c2.18 0 4.35 0 6.54.06l6.58.11 13.31.28Zm-14.72-14.11-13.12.28-6.66.11c-2.23 0-4.47 0-6.7.06h-.44v-.45L126 241.5v-.5h.5l13.24.06c4.42 0 8.83.12 13.24.17h.28v.27c0 1.9-.08 3.79-.13 5.65l-.15 5.54Zm0 0-.14-5.65c-.05-1.87-.11-3.71-.13-5.54l.27.27c-4.41 0-8.82.16-13.24.17l-13.24.06.5-.5-.07 11.19-.45-.45c2.18 0 4.36 0 6.55.06l6.58.11 13.37.28Zm-56.51-171-13.13.28-6.66.11c-2.22 0-4.46 0-6.69.06h-.45v-.45l-.05-11.19V70H70l13.24.06c4.41 0 8.82.12 13.24.17h.27v.27c0 1.9-.09 3.79-.13 5.65l-.15 5.54Zm0 0L96.33 76c0-1.87-.12-3.71-.14-5.54l.28.27c-4.42 0-8.83.16-13.24.17l-13.24.06.5-.5-.06 11.19-.44-.45c2.18 0 4.35 0 6.54.06l6.58.11 13.36.32ZM81.7 95.8l-13.13.28-6.66.11c-2.23.05-4.46 0-6.69.05h-.45V84.1h.51l13.24.06c4.41 0 8.82.12 13.24.17h.17v.27c0 1.9-.09 3.79-.13 5.65l-.1 5.55Zm0 0-.15-5.65c0-1.87-.11-3.71-.13-5.54l.28.27c-4.42.05-8.83.16-13.24.17l-13.24.06.49-.5V95.8l-.44-.45c2.18 0 4.35 0 6.54.06l6.58.11 13.31.28ZM66.98 81.69l-13.12.28-6.66.11c-2.23 0-4.47 0-6.7.06h-.44v-.45L40 70.5V70h.5l13.24.06c4.42 0 8.83.12 13.24.17h.28v.27c0 1.9-.08 3.79-.13 5.65l-.15 5.54Zm0 0-.14-5.65c-.05-1.87-.11-3.71-.13-5.54l.27.27c-4.41 0-8.82.16-13.24.17L40.5 71l.5-.5-.07 11.19-.45-.45c2.18 0 4.36 0 6.55.06l6.58.11 13.37.28Z"/>
  <path fill="#fff" d="M250.49 128.267a23.801 23.801 0 0 1-15.253 19.794 23.803 23.803 0 0 1-24.537-4.734l-11.91 1.75 6-10.3a23.56 23.56 0 0 1-1.63-11.46 23.803 23.803 0 0 1 2.76-8.874 23.818 23.818 0 0 1 44.61 13.874l-.04-.05Z"/>
  <path fill="#263238" d="M250.49 128.267a23.998 23.998 0 0 1-4.81 12.07 25.693 25.693 0 0 1-2.16 2.49 26.999 26.999 0 0 1-2.5 2.13 24.193 24.193 0 0 1-12.15 4.72 24.54 24.54 0 0 1-3.31.07 21.63 21.63 0 0 1-3.3-.35 24.103 24.103 0 0 1-11.78-5.81l.28.08-11.9 1.83-.86.13.44-.76 5.92-10.32v.41a24.012 24.012 0 0 1 1.48-20.916 23.99 23.99 0 0 1 17.353-11.77 24.004 24.004 0 0 1 27.337 25.996h-.04Zm0 0a23.574 23.574 0 0 0-7.167-19.521 23.554 23.554 0 0 0-9.19-5.43 23.553 23.553 0 0 0-10.643-.819 23.35 23.35 0 0 0-9.83 3.89 24.602 24.602 0 0 0-7.13 7.77 23.542 23.542 0 0 0-3 10.07 23.92 23.92 0 0 0 1.68 10.38l.08.21-.11.2-6 10.27-.43-.62 11.92-1.67h.17l.12.11a23.458 23.458 0 0 0 11.4 5.88c1.065.215 2.145.345 3.23.39 1.085.075 2.175.075 3.26 0a23.244 23.244 0 0 0 6.36-1.4 22.306 22.306 0 0 0 5.74-3.09 26.784 26.784 0 0 0 2.51-2.1 25.328 25.328 0 0 0 2.17-2.46 24 24 0 0 0 4.86-12.06Z"/>
  <path fill="#FFFEFD" d="M398.11 127.128a11.997 11.997 0 0 0 2-6.6c0-8.37-9.18-15.15-20.51-15.15-11.33 0-20.49 6.78-20.49 15.15 0 8.37 9.17 15.14 20.49 15.14a24.65 24.65 0 0 0 14.15-4.19l7.06 1.8-2.7-6.15Z"/>
  <path fill="#263238" d="M398.11 127.128a12.146 12.146 0 0 0 1.91-6.25 11.729 11.729 0 0 0-1.73-6.24 18.57 18.57 0 0 0-10.35-7.58 27.44 27.44 0 0 0-13-.83 21.431 21.431 0 0 0-11.49 5.66 13.384 13.384 0 0 0-3.35 5.4 10.801 10.801 0 0 0-.08 6.27 13.184 13.184 0 0 0 3.26 5.46 19.004 19.004 0 0 0 5.25 3.76 23.613 23.613 0 0 0 6.19 2 27.5 27.5 0 0 0 6.53.47 24.061 24.061 0 0 0 12.35-4l.1-.06h.09l7 1.9-.14.16-2.54-6.12Zm0 0 2.85 6.1.11.22-.25-.06-7.09-1.69h.19a24.41 24.41 0 0 1-12.58 4.3 26.312 26.312 0 0 1-13.15-2.4 19.8 19.8 0 0 1-5.52-3.91 14.09 14.09 0 0 1-3.53-5.83c-.66-2.232-.639-4.61.06-6.83a14.258 14.258 0 0 1 3.62-5.78 22.308 22.308 0 0 1 12-5.85 28.676 28.676 0 0 1 6.73-.33c2.243.184 4.456.637 6.59 1.35a21.753 21.753 0 0 1 6 3.08 16.08 16.08 0 0 1 4.52 5 11.714 11.714 0 0 1-.55 12.71v-.08Z"/>
  <path fill="#263238" d="M372.27 120.528a2.126 2.126 0 0 1-1.308 1.965 2.13 2.13 0 1 1-.852-4.095 2.123 2.123 0 0 1 2.16 2.13Zm9.5 0c0 .422-.125.834-.36 1.184a2.123 2.123 0 0 1-2.189.904 2.137 2.137 0 0 1-1.091-.585 2.134 2.134 0 0 1 .334-3.279 2.128 2.128 0 0 1 1.186-.354 2.126 2.126 0 0 1 1.503.624 2.119 2.119 0 0 1 .617 1.506Zm9.5 0a2.126 2.126 0 0 1-1.308 1.965 2.13 2.13 0 1 1-.852-4.095 2.123 2.123 0 0 1 2.16 2.13Z"/>
  <path fill="#BF1B1B" d="M224.492 132.634v-.27c.019-1.762.194-3.163.526-4.205.341-1.042.824-1.884 1.449-2.528a11.122 11.122 0 0 1 2.258-1.762 9.274 9.274 0 0 0 1.534-1.207 5.114 5.114 0 0 0 1.08-1.534 4.547 4.547 0 0 0 .398-1.918c0-.843-.199-1.572-.597-2.187a3.979 3.979 0 0 0-1.591-1.421c-.653-.341-1.383-.511-2.187-.511-.73 0-1.426.151-2.089.454a3.955 3.955 0 0 0-1.647 1.421c-.436.634-.687 1.454-.753 2.457h-4.318c.066-1.704.497-3.144 1.292-4.318a7.566 7.566 0 0 1 3.154-2.685c1.316-.606 2.77-.909 4.361-.909 1.742 0 3.267.327 4.573.98 1.307.644 2.32 1.549 3.04 2.714.729 1.155 1.094 2.504 1.094 4.048 0 1.06-.166 2.017-.497 2.869a7.124 7.124 0 0 1-1.421 2.259 9.683 9.683 0 0 1-2.187 1.761c-.805.502-1.459 1.023-1.96 1.563a4.96 4.96 0 0 0-1.08 1.917c-.227.739-.35 1.653-.369 2.742v.27h-4.063Zm2.145 8.636a2.76 2.76 0 0 1-2.003-.824 2.753 2.753 0 0 1-.838-2.017c0-.777.28-1.439.838-1.989.559-.558 1.227-.838 2.003-.838.767 0 1.43.28 1.989.838.568.55.852 1.212.852 1.989 0 .521-.133.999-.398 1.435a2.925 2.925 0 0 1-1.022 1.022 2.71 2.71 0 0 1-1.421.384ZM61.26 350.703c.4-10.23.26-20.475-.42-30.69a392.078 392.078 0 0 0-9.62-62.49c-2.68-11.57-6-22.95-9.42-34.31-.11-.34-.65-.25-.56.11 10.64 40.06 19.37 81.4 18.77 123-.17 11.65-1.52 23.1-2.63 34.68 0 .31.48.43.55.11 2.2-9.91 2.91-20.29 3.33-30.41Z"/>
  <path fill="#BF1B1B" d="M41.24 223.283s-16.11 40.91-12.51 50.52c3.6 9.61 11.05 11.72 11.05 11.72s-9.86 14.08-3 27.28c6.86 13.2 22.2 12.58 23.22 27.55.03-.05.88-62.65-18.76-117.07Z"/>
  <path fill="#263238" d="M58.28 314.453a.31.31 0 0 0 0-.21 374.67 374.67 0 0 0-15.63-82.29c0-.08-.16-.06-.13 0a603.638 603.638 0 0 1 8.46 36.09 17.66 17.66 0 0 0-7.7-4.29s-.08.06 0 .08c3 1.29 5.83 2.78 7.94 5.31.473 2.373.93 4.746 1.37 7.12-3.6-4-8.6-6-13.6-7.92-.07 0-.1.08 0 .11 5.2 2.11 10.38 4.85 13.91 9.33a479.803 479.803 0 0 1 3.24 20.43 19.383 19.383 0 0 0-9.61-5.5c-.11 0-.18.14-.06.17a20.294 20.294 0 0 1 9.74 6.24l.06.05c.33 2.4.63 4.81.92 7.22a24.872 24.872 0 0 0-6.74-4.07.06.06 0 0 0 0 .11 22.993 22.993 0 0 1 6.75 4.46c.03.007.06.007.09 0 .26 2.29.53 4.58.76 6.87a32.633 32.633 0 0 0-13.67-9.75c-.1-.05-.16.12-.05.16a35.74 35.74 0 0 1 13.47 10.36.28.28 0 0 0 .34.11c.34 3.52.66 7.05.91 10.58 0 .05.09.05.09 0-.287-3.56-.573-7.15-.86-10.77Z"/>
  <path fill="#263238" d="M45.33 259.713a20.084 20.084 0 0 0-9.68-3 .06.06 0 0 0-.042.017.063.063 0 0 0-.018.043c0 .016.006.031.018.042a.062.062 0 0 0 .042.018 37.914 37.914 0 0 1 9.57 3.13.139.139 0 0 0 .092-.014.136.136 0 0 0 .063-.067.142.142 0 0 0 .007-.093.142.142 0 0 0-.052-.076Zm1.95 43.31a20.512 20.512 0 0 0-7.26-2.5c-.09 0-.1.12 0 .13a27.442 27.442 0 0 1 7.19 2.53c.09.07.21-.1.07-.16Z"/>
  <path fill="#BF1B1B" d="M103.62 274.523a108.855 108.855 0 0 0-18.65 16.31 66.876 66.876 0 0 0-13.08 22.18 165.995 165.995 0 0 0-9.75 53.06 128.927 128.927 0 0 0 2.88 29.84.28.28 0 0 0 .55-.1 167.73 167.73 0 0 1 .29-52.16c2.78-16.93 7.12-35.34 17.88-49.09 5.86-7.49 13.16-13.38 20.38-19.47.38-.37-.11-.9-.5-.57Z"/>
  <path fill="#BF1B1B" d="M64.51 353.843a100.102 100.102 0 0 1 13.6-17.38c8.06-8.06 14.85-13.79 15.9-19.12 1.05-5.33-8.07-9.26-8.07-9.26s11.15 2 14.21-2.68c3.06-4.68 4.52-31.8 4.52-31.8s-20.3 14.49-29.75 34.8c-9.45 20.31-10.41 45.44-10.41 45.44Z"/>
  <path fill="#263238" d="M97.42 299.043a17.554 17.554 0 0 0-4-.14c-.17 0-.15.28 0 .28 1.34 0 2.67-.06 4 0a.078.078 0 0 0 .03-.03.08.08 0 0 0 0-.081.082.082 0 0 0-.03-.029Zm-14.61 26.3a18.36 18.36 0 0 0-6.25 1.26c-.05 0 0 .1 0 .09 2.06-.49 4.15-.69 6.24-1a.176.176 0 0 0 .18-.17.172.172 0 0 0-.048-.125.173.173 0 0 0-.122-.055Zm-4.39-9.08c-.89-.015-1.778.065-2.65.24a.078.078 0 0 0-.038.029.081.081 0 0 0-.014.046.08.08 0 0 0 .014.045.08.08 0 0 0 .038.03 13.2 13.2 0 0 0 2.65-.13.146.146 0 0 0 .064-.052.141.141 0 0 0 0-.157.138.138 0 0 0-.064-.051Z"/>
  <path fill="#BF1B1B" d="M5.01 303.253a92.353 92.353 0 0 1 18.87 8.88 56.414 56.414 0 0 1 15.71 14.93 139.52 139.52 0 0 1 20.16 40.69 108.513 108.513 0 0 1 4.57 24.77.24.24 0 0 1-.48 0 141.08 141.08 0 0 0-12.29-42.15c-6.13-12.96-13.93-26.85-25.81-35.5-6.47-4.7-13.75-7.78-21-11-.38-.21-.11-.75.27-.62Z"/>
  <path fill="#BF1B1B" d="M55.01 358.443a84.369 84.369 0 0 0-15-10.92c-8.39-4.66-15.21-7.73-17.29-11.8-2.08-4.07 4.4-9.36 4.4-9.36s-8.57 4.2-12.12 1.12c-3.55-3.08-11-24.69-11-24.69s19.78 7 32.13 21.29c12.35 14.29 18.88 34.36 18.88 34.36Z"/>
  <path fill="#263238" d="M38.59 338.583a15.32 15.32 0 0 0-5.74.71c-.05 0 0 .09 0 .08a43.896 43.896 0 0 1 5.72-.58.116.116 0 0 0 .06-.034.11.11 0 0 0 .013-.131.107.107 0 0 0-.053-.045Zm-17.25-22.62a9.814 9.814 0 0 0-2.65.15.08.08 0 0 0-.056.136.08.08 0 0 0 .056.024c.88-.09 1.73-.06 2.61-.09.03.005.06-.001.084-.018a.113.113 0 0 0 .028-.156.112.112 0 0 0-.072-.046Z"/>
  <path fill="#455A64" d="M80.52 419.833H35.88l6.36-46.62 1.63-11.96h28.65l1.63 11.96 6.37 46.62Z"/>
  <path fill="#263238" d="M74.15 373.213H42.24l1.63-11.96h28.65l1.63 11.96Z"/>
  <path fill="#455A64" d="M76.62 357.103H39.77v10.12h36.85v-10.12Z"/>
  <path fill="#D3766A" d="M186.556 419.04c-1.683.525-50.881-.539-52.674-1.734-.692-.445 3.527-47.048 3.527-47.048l31.198.597-3.549 31.169s18.153 8.607 19.99 10.13c1.836 1.523 3.199 6.362 1.508 6.886Z"/>
  <path fill="#263238" d="M186.563 419.041c-1.683.524-50.888-.54-52.681-1.742-.219-.131-.284-4.868.503-11.026 8.92 1.494 40.759 6.384 43.244 4.926 1.727-1.02.197-2.609-1.224-3.644 4.066 2.026 7.863 3.972 8.643 4.628 1.829 1.494 3.191 6.34 1.515 6.858Z"/>
  <path fill="#37474F" d="m165.94 394.554-30.608-.43s6.063-73.363 5.83-74.777c-.364-1.793-22.096-87.02-22.096-87.02h29.238s23.05 79.434 23.881 87.079c1.341 12.359-6.245 75.148-6.245 75.148Z"/>
  <path fill="#263238" d="M138.058 387.209c1.814-.132 3.644-.11 5.458-.132 1.815-.021 3.644 0 5.451 0 3.644.037 7.288.095 10.931.197.992 0 1.983.058 2.981.102.998.044 2.121.233 3.177.27.018 0 .034.007.047.019a.066.066 0 0 1-.047.112c-.896 0-1.785.138-2.681.168-.897.029-1.851 0-2.777 0h-5.451c-3.644 0-7.288-.081-10.895-.226-2.048-.088-4.117-.11-6.158-.321a.092.092 0 0 1-.072-.015.096.096 0 0 1-.026-.134.093.093 0 0 1 .062-.04Zm-12.557-147.995c2.617 9.262 5.007 18.605 7.346 27.94a25992.268 25992.268 0 0 1 10.494 42.049c1.13 4.547 2.449 9.124 2.726 13.846.277 4.723-.321 9.598-.729 14.357-.408 4.758-.802 9.561-1.224 14.349-.838 9.561-1.64 19.137-2.682 28.684-.124 1.195-.255 2.39-.379 3.585 0 .102-.168.102-.16 0 .634-9.576 1.297-19.144 2.062-28.706.379-4.785.768-9.568 1.166-14.349.393-4.773.947-9.568 1.1-14.356.153-4.788-.728-9.474-1.894-14.123-1.166-4.65-2.296-9.146-3.44-13.723-2.342-9.333-4.674-18.675-6.996-28.028-2.595-10.464-5.189-20.944-7.477-31.482a.037.037 0 0 1-.005-.018.041.041 0 0 1 .002-.019.042.042 0 0 1 .01-.017.058.058 0 0 1 .015-.011.037.037 0 0 1 .018-.005.04.04 0 0 1 .019.002.042.042 0 0 1 .017.01.058.058 0 0 1 .011.015Z"/>
  <path fill="#263238" d="M119.066 232.334s9.328 36.554 15.851 62.287l12.44-62.287h-28.291Z"/>
  <path fill="#D3766A" d="M149.82 419.15c-1.684.532-50.882-.532-52.674-1.735-.693-.444 1.873-47.07 1.873-47.07l30.789.598-1.457 31.198s18.153 8.599 19.99 10.129c1.836 1.531 3.162 6.362 1.479 6.88Z"/>
  <path fill="#263238" d="M149.82 419.15c-1.684.524-50.882-.532-52.674-1.735-.22-.138-.168-4.744 0-11.033 8.919 1.494 41.254 6.391 43.725 4.926 1.727-1.013.204-2.601-1.217-3.643 4.066 2.026 7.863 3.979 8.643 4.635 1.836 1.486 3.206 6.332 1.523 6.85Z"/>
  <path fill="#37474F" d="M147.356 232.29s-.852 13.978-4.19 25.018a52.47 52.47 0 0 1-.867 2.668 51.726 51.726 0 0 0-8.483 4.226s-2.106 53.462-2.069 56.785c.138 12.454-3.061 72.955-3.061 72.955l-30.892-.299s3.206-68.415 3.221-72.962c0-7.288 6.479-88.354 6.479-88.354l39.862-.037Z"/>
  <path fill="#263238" d="m140.608 251.092.35-2.317c.219-1.458.51-2.828.729-4.242.561-3.199 1.151-6.413 1.858-9.59 0-.073.153-.058.139 0a85.355 85.355 0 0 1-.452 3.841c-.182 1.275-.306 2.557-.488 3.833a350.435 350.435 0 0 1-1.137 7.586c-.168.969-.773 2.711.626 3.01 1.101.24 1.917-.845 2.238-1.756.341-1.144.584-2.314.728-3.498.234-1.276.43-2.558.613-3.841.393-2.798.83-5.589 1.282-8.373 0-.08.146-.059.139 0a84.426 84.426 0 0 1-.62 8.57 109.916 109.916 0 0 1-.612 4.074 14.354 14.354 0 0 1-.94 3.789 3.07 3.07 0 0 1-2.31 1.858h-.066a.09.09 0 0 1 .032.035c.008.014.012.03.012.046 0 .459 0 .918-.051 1.37-.051.451-.138.889-.226 1.333a9.457 9.457 0 0 1-.342 1.334c-.081.204-.153.408-.248.612-.095.204-.241.364-.365.561-.043.08-.138 0-.145-.051v-.219a3.22 3.22 0 0 1 0-.393c.032-.218.076-.435.131-.649.095-.43.211-.86.328-1.29.116-.43.204-.852.313-1.282.109-.43.262-.867.365-1.312v-.044a2.016 2.016 0 0 1-1.954-1.224 3.567 3.567 0 0 1 .073-1.771Zm-9.291 14.204a24.576 24.576 0 0 1 2.915-1.917 27.984 27.984 0 0 1 3.316-1.72c2.23-.969 4.532-1.632 6.843-2.39.065 0 .109.087.043.116-2.23.89-4.372 2.07-6.559 3.127a59.01 59.01 0 0 1-3.221 1.457c-1.078.481-2.186 1.042-3.272 1.458-.065.051-.131-.08-.065-.131Zm-17.432-19.473a19.367 19.367 0 0 0 4.657-.626c.729-.183 1.392-.409 2.077-.634a5.426 5.426 0 0 0 1.88-.941c1.057-.918 1.552-2.353 2.011-3.643.502-1.429.909-2.89 1.217-4.373 0-.017.007-.034.02-.046a.066.066 0 0 1 .046-.019c.017 0 .034.007.046.019.013.012.02.029.02.046a17.085 17.085 0 0 1-.634 4.999c-.379 1.378-.89 2.915-2.005 3.885a7.824 7.824 0 0 1-4.27 1.559c-1.696.2-3.411.178-5.101-.065a.091.091 0 0 1-.034-.041.084.084 0 0 1-.004-.052.088.088 0 0 1 .026-.046.096.096 0 0 1 .048-.022Zm-10.152 110.21c.525-9.756 1.079-19.516 1.662-29.282 1.122-19.421 2.186-38.849 3.432-58.3.729-10.931 1.4-21.913 2.259-32.859a.094.094 0 0 1 .035-.05.095.095 0 0 1 .114 0c.016.012.028.03.034.05-.802 19.581-1.968 39.097-3.098 58.642-1.129 19.545-2.281 38.828-3.534 58.242-.656 10.99-1.523 21.921-2.186 32.852.003.01.004.021.003.031a.074.074 0 0 1-.012.029.074.074 0 0 1-.023.02.061.061 0 0 1-.06 0 .06.06 0 0 1-.035-.049.055.055 0 0 1 .003-.031c.503-9.765.853-19.53 1.406-29.295Z"/>
  <path fill="#455A64" d="M163 231.375h185v-5.366H163v5.366Zm13.492 48.222h157.956v-5.583H176.492v5.583Z"/>
  <path fill="#37474F" d="M173.348 242.551h164.314v-11.186H173.348v11.186Z"/>
  <path fill="#455A64" d="M178 419h-5V226h5v193Zm161-2h-6V230h6v187Z"/>
  <path fill="#263238" d="m124.919 198.557 3.483-.153c.099-.977.321-1.917.664-2.749 1.39-3.422 4.178-6.148 6.354-8.905 0-.015.023 0 .016.023-2.024 2.696-3.949 6.041-5.026 9.424a9.314 9.314 0 0 0-.404 2.138l2.169-.091c.122-2.139.641-4.193 1.718-6.056.03-.054.114.015.092.076-.871 1.871-1.07 3.887-1.024 5.949l18.841-.817c.29-1.726.466-3.498.473-5.308 0-.206.283-.175.275.023 0 1.78-.069 3.536-.267 5.27l1.573-.077c.199-2.963.138-5.918-.428-9.118-.023-.099.123-.13.138-.031.641 2.933 1.084 6.049 1.092 9.111l13.044-.557c-.825-1.925-1.421-3.987-1.909-5.965-.046-.168.191-.221.236-.053.589 2.192 1.459 4.109 2.429 5.972l1.932-.076c-1.535-3.384-2.696-6.912-3.009-10.593-.007-.153.214-.168.237-.015.527 3.971 2.474 7.255 4.399 10.524l4.91-.207c-1.748-3.062-4.742-5.842-5.208-9.454-.504-4.055 3.085-5.995 4.132-9.409 1.756-5.72-1.115-9.959-4.697-13.869-3.292-3.612-3.001-7.751-3.857-12.357-.618-3.39-1.604-7.148-3.383-10.096-5.468-9.111-15.03-7.82-15.037-7.69-2.314.061-4.407.725-6.24 1.94-.007 0-.023 0-.03.015-.13.076-.245.168-.374.267-1.971 1.413-3.636 3.483-4.934 6.148l-.015.031c-.374.756-.71 1.565-1.024 2.421-.534 1.496-.626 3.566-1.061 5.949a.402.402 0 0 1-.023.137c-.642 3.353-2.009 7.255-6.346 10.776-5.171 4.17-3.689 10.883.588 17.603 1.81 2.849 1.886 4.689 1.191 6.263v.023a9.306 9.306 0 0 1-.313.603c-1.008 1.734-2.841 3.246-4.094 5.621-1.16 2.184-1.412 4.742-1.298 7.316l.015.023Z"/>
  <path fill="#263238" d="M156.857 134.803c3.956 2.093 7.004 5.606 8.47 10.196 1.123 3.505 1.245 7.316 2.726 10.707 1.398 3.2 3.857 5.613 5.827 8.377 2.612 3.651 4.277 8.134 2.123 12.319-1.336 2.597-4.299 5.178-4.146 8.477.183 3.857 3.528 7.568 5.323 10.753.084.153-.13.321-.23.176-2.443-3.597-6.712-8.325-5.269-13.052.664-2.169 2.1-3.819 3.238-5.659 2.215-3.582 1.749-7.416-.428-11.081-2.948-4.972-6.858-8.164-8.164-14.144-.748-3.422-1.069-6.935-2.795-10.035a17.327 17.327 0 0 0-6.774-6.789c-.114-.069-.023-.291.099-.222v-.023Zm-29.112 55.498c1.421-2.023 3.177-3.505 2.406-6.575-.535-2.131-1.978-3.956-2.971-5.85-2.474-4.72-3.887-10.654-1.466-15.496 1.367-2.726 3.696-3.39 5.667-5.384 2.382-2.413 3.261-6.147 4.032-9.584 1.153-5.155 2.612-11.02 7.82-12.189.046-.007.061.069.015.084-6.636 1.925-6.598 10.639-8.507 16.664-.649 2.047-1.573 4.017-3.009 5.468-2.276 2.307-5.033 3.07-6.209 6.652-1.1 3.353-.626 7.08.596 10.448 1.061 2.925 3.024 5.368 4.032 8.278.603 1.741.748 3.544-.092 5.125-.664 1.237-1.787 2.062-2.489 3.261-.947 1.611-1.314 3.49-1.26 5.452 0 .199-.268.168-.275-.03-.092-2.383.42-4.506 1.71-6.331v.007Z"/>
  <path fill="#EB9481" d="M143.111 178.334c2.245 9.325 16.61 49.587 37.52 53.116 7.095 1.199 19.2-23.836 12.067-54.636-.214-.908-20.979-.679-21.987 4.399-.107.542.366 14.656.955 14.427.725-.291-8.928-10.654-21.117-20.62-5.766-4.712-8.775-2.246-7.438 3.322v-.008Z"/>
  <path fill="#BF1B1B" d="M143.111 178.334c2.245 9.325 16.61 49.587 37.52 53.116 7.095 1.199 19.078-21.934 14.243-49.282l-25.103 3.559c-.106.542.734 7.958.734 7.958s-7.767-8.699-19.956-18.665c-5.766-4.712-8.775-2.246-7.438 3.322v-.008Z"/>
  <path fill="#263238" d="M170.535 193.753a464.878 464.878 0 0 0 1.841 21.613c.221 2.001.42 4.01.634 6.01 0 .069-.107.077-.123.016-.779-3.536-1.344-7.11-1.749-10.707-.397-3.559-.725-7.172-.771-10.753-.03-2.062-.023-4.124.031-6.179 0-.091.129-.084.137 0Z"/>
  <path fill="#EB9481" d="M193.37 180.793s-.932-9.897-4.88-16.282c-2.727-4.414-6.377-11.326-21.865-11.005-3.673.077-10.799 4.246-9.225 6.828 1.496 2.459 7.652-2.192 12.792-1.337 0 0-6.11 3.949-5.896 7.622.099 1.642.473 6.125 1.26 9.569 0 0 .794.031 1.81-.076 0 0 .313 3.436 4.383 6.759l21.621-2.085v.007Z"/>
  <path fill="#EB9481" d="M185.213 160.716c-2.596-.802-8.133-2.414-13.12-2.154-5.537.29-16.129 2.337-15.877 6.423.183 2.993 4.299 2.573 4.299 2.573s-4.2 1.772-3.436 4.437c.695 2.437 3.856 1.91 3.856 1.91s-2.36 1.512-1.245 3.727c1.345 2.665 7.599-1.574 11.296-.054.832.344 14.227-16.862 14.227-16.862Z"/>
  <path fill="#263238" d="M173.376 164.366c-2.566-.351-8.607.336-12.807 3.085-.092.061-.099.168 0 .13 5.269-2.046 10.547-2.925 12.807-3.162.031 0 .023-.045 0-.053Zm-.863-6.232c-2.566-.351-8.607.336-12.807 3.086-.092.061-.099.168 0 .129 5.27-2.046 10.547-2.925 12.807-3.161.031 0 .023-.046 0-.054Zm.993 11.83c-2.245-.076-8.439.916-12.601 3.849-.092.069-.092.168 0 .13 5.415-2.36 10.356-3.551 12.601-3.926.031 0 .023-.053 0-.053Zm-6.079 7.332c.382-.283 3.544-.94 6.469.03.068.023.053.13-.023.13a75.836 75.836 0 0 0-3.368-.107c1.443 3.253 5.002 5.438 6.568 6.217.099.045.022.198-.077.168-3.055-.833-6.025-3.208-6.728-6.377-.412.023-2.566.107-2.818.023-.038-.016-.054-.069-.023-.092v.008Z"/>
  <path fill="#000" d="M143.111 178.334c2.245 9.325 16.61 49.587 37.52 53.116 1.138.19 2.406-.245 3.712-1.23l-40.095-57.438c-1.367.68-1.817 2.711-1.137 5.552Z" opacity=".1"/>
  <path fill="#BF1B1B" d="m161.302 234.947-1.603-19.489s5.796-6.255 2.611-14.075c-1.611-3.964-9.195-20.765-15.281-27.585-5.109-5.728-12.853-1.986-15.931 1.802-8.836 10.875-13.495 24.309-23.66 57.125l53.864 2.23v-.008Z"/>
  <path fill="#263238" d="M145.417 211.952c2.192.191 4.407.497 6.583 1.176 1.085.336 2.154.749 3.223 1.199.535.222 1.069.42 1.604.611.55.199 1.138.375 1.703.367.054 0 .061.114.008.122-.542.061-1.062.115-1.604.061-.519-.046-1.046-.183-1.558-.336-1.1-.328-2.192-.733-3.292-1.077-2.214-.695-4.429-1.39-6.667-1.848-.099-.023-.099-.282 0-.275Zm-5.147 3.3c1.764-.398 3.566-.673 5.361-.764.901-.046 1.802-.008 2.711.061.435.03.863.076 1.298.137.474.062.955.214 1.429.268.045 0 .061.122.007.122-.45-.023-.901.061-1.344.076-.45.016-.901.023-1.352.038-.901.031-1.802.069-2.703.084-1.802.031-3.605.084-5.4.214-.099 0-.106-.206-.015-.229l.008-.007Z"/>
  <path fill="#DD6A57" d="M128.898 180.656c-9.615 20.444-16.572 58.194-10.783 63.425 6.445 5.827 19.787-22.781 19.268-23.995-.39-.917-.512-22.094.076-38.147.588-16.038-6.186-6.339-8.569-1.283h.008Z"/>
  <path fill="#BF1B1B" d="M137.536 220.063c-.092-2.299.252-30.579.252-39.667 0-8.156-2.391-10.661-6.836-4.04-8.179 12.189-17.733 44.608-17.183 59.172.535 14.021 8.515 11.272 15.045 2.421 5.346-7.248 8.714-17.886 8.714-17.886h.008Z"/>
  <path fill="#263238" d="M137.429 223.813a341.76 341.76 0 0 0 .794-32.61 341.472 341.472 0 0 0-.794 32.61Z"/>
  <path fill="#263238" d="M138.177 197.518c.603-1.313.993-2.726.993-4.17-.519 1.352-.894 2.719-.993 4.17Z"/>
  <path fill="#EB9481" d="M119.741 243.814c5.637 2.657 14.557-1.322 37.956-9.233 3.239-1.093 1.658-26.027-1.855-25.035-4.43 1.253-21.361 7.057-22.545 7.637-9.989 4.903-17.382 24.828-13.556 26.631Z"/>
  <path fill="#EB9481" d="M151.985 210.639s7.874-3.895 12.968-5.461c6.819-2.1 13.571-1.1 16.381-.519 5.858 1.229 19.161 8.24 17.809 12.425-1.221 3.788-14.464-4.07-14.464-4.07s14.823 5.781 12.509 10.073c-2.314 4.292-17.16-5.705-17.16-5.705s15.098 6.285 12.013 10.333c-2.329 3.062-16.29-5.239-16.29-5.239s12.937 5.491 10.677 8.744c-2.497 3.59-15.862-3.261-15.862-3.261-7.141 7.294-13.487 8.546-18.077 8.401l-4.804 1.657 2.62-26.729 1.688-.649h-.008Z"/>
  <path fill="#263238" d="M179.677 210.692c1.764.619 3.559 1.23 5.262 2.001a61.478 61.478 0 0 1 5.01 2.528c3.986 2.276 6.124 4.322 5.979 4.208-3.452-2.65-9.515-5.507-11.218-6.278-1.703-.771-3.361-1.627-5.064-2.398-.046-.023-.007-.076.031-.061Zm-2.902 6.102c2.222.886 4.46 1.68 6.636 2.665 2.169.978 4.147 2.1 6.247 3.223.161.084.061.145-.107.061-2.138-1.038-4.2-1.84-6.354-2.856-2.146-1.008-4.269-2.116-6.445-3.047-.031-.016-.008-.061.023-.054v.008Zm-3.429 4.796c3.459 1.176 6.705 2.994 9.836 4.85.153.091.015.152-.145.068-3.238-1.672-5.774-3.009-9.737-4.796-.061-.03-.031-.145.038-.122h.008Z"/>
  <path fill="#BF1B1B" d="m150.221 207.561-4.048 36.001s-24.469 4.597-29.15 1.092c-3.345-2.505 4.72-22.048 15.503-28.02l17.687-9.073h.008Z"/>
  <path fill="#263238" d="M122.315 228.188c.718-2.321 4.033-8.034 10.211-11.577.053-.031.114.045.061.084-4.345 3.085-9.31 9.355-10.188 11.531-.023.054-.107.016-.091-.038h.007Zm17.054 11.983c.183-3.498.557-6.98.931-10.463.382-3.482.757-6.972 1.222-10.447.268-1.963.52-3.926.848-5.881.008-.053.099-.046.092 0-.184 3.49-.543 6.98-.894 10.455-.359 3.49-.748 6.973-1.176 10.455a138.027 138.027 0 0 1-.848 5.881c-.015.099-.183.091-.175-.008v.008Z"/>
  <path fill="#263238" d="M150.45 207.041c-1.291.436-15.381 7.477-19.322 10.455-.045.031.336.077.382.039 1.803-1.52 17.306-8.981 18.474-9.738.008.107-.252 3.468-.229 3.575.015.068.122.099.153.015.069-.199.71-4.414.542-4.361v.015Zm-4.277 36.521c-7.812 1.374-15.763 2.696-23.713 2.191-6.514-.473-7.598-2.787-8.125-8.92-.558-12.692 2.398-25.408 5.827-37.574-2.123 6.026-3.735 12.227-4.942 18.512-1.015 5.896-4.498 25.012 2.421 27.646 3.078 1.184 6.377 1.146 9.6 1.039 6.408-.336 12.731-1.428 18.94-2.887l-.008-.007Z"/>
  <path fill="#EB9481" d="M136.978 172.79c-.053 1.092 7.186 9.156 11.914 10.271 1.542.359-.374-8.003-.374-8.003l.313-.573 4.383-8.049-8.255-9.371-1.215-1.275s-1.053 2.283-2.336 5.139c-.062.13-.123.268-.184.405-.076.161-.153.313-.214.458-.198.428-.397.856-.588 1.291-.145.328-.29.657-.427 1.008-.153.351-.291.695-.436 1.046-1.405 3.49-2.55 7.202-2.581 7.66v-.007Z"/>
  <path fill="#263238" d="M141.408 160.922c.504 7.553 5.177 11.906 7.423 13.563l4.383-8.049-8.255-9.371-1.215-1.275s-1.053 2.283-2.336 5.139v-.007Z"/>
  <path fill="#EB9481" d="M169.046 154.079c-.443 16.084-10.127 17.634-13.594 17.535-3.146-.092-13.861-.795-15.083-16.84-1.222-16.045 6.392-20.925 13.609-21.101 7.21-.176 15.511 4.315 15.068 20.398v.008Z"/>
  <path fill="#263238" d="M167.435 151.437c-.374-.062-.71-.184-1.077-.283-.412-.115-.748-.16-1.039-.496-.152-.184-.122-.527.039-.695.374-.39.916-.375 1.412-.26.543.122.932.359 1.268.802.329.428-.107 1.023-.603.939v-.007Zm-11.051-.115c.382-.023.726-.115 1.1-.176.42-.068.764-.084 1.084-.389.176-.168.176-.512.031-.695-.336-.428-.871-.466-1.382-.397-.55.068-.963.267-1.345.672-.374.389.008 1.031.512.993v-.008Zm2.352 3.46c0-.046-.084.046-.084.091 0 1.092-.168 2.353-1.168 2.689-.031.007-.031.068.007.061 1.215-.138 1.436-1.81 1.253-2.849l-.008.008Z"/>
  <path fill="#263238" d="M157.789 153.613c-1.756-.183-1.985 3.353-.359 3.513 1.604.161 1.833-3.368.359-3.513Z"/>
  <path fill="#263238" d="M157.086 153.758c-.32.184-.649.512-1.023.527-.435.016-.733-.374-.993-.748-.03-.038-.061-.008-.061.038-.053.672.161 1.39.878 1.535.657.138 1.169-.435 1.383-1.1.038-.122-.061-.32-.184-.244v-.008Zm7.745 1.192c.007-.039.084.061.076.099-.115 1.092-.061 2.36.901 2.795.031.015.023.069-.015.061-1.192-.26-1.245-1.94-.962-2.955Z"/>
  <path fill="#263238" d="M165.892 153.88c1.764 0 1.65 3.529.008 3.536-1.612 0-1.489-3.528-.008-3.536Z"/>
  <path fill="#263238" d="M166.617 154.14c.275.199.535.55.871.581.39.038.687-.337.947-.695.031-.039.054 0 .054.038 0 .679-.253 1.374-.902 1.481-.595.1-1.008-.496-1.153-1.176-.023-.122.077-.313.183-.237v.008Zm-9.477 9.088c.191.313.359.718.733.848.359.122.84.069 1.207.023.038 0 .061.038.03.068-.381.336-1.023.443-1.497.23-.458-.207-.588-.68-.595-1.154 0-.068.084-.068.114-.023l.008.008Zm5.254-3.009s-.091 1.65-.237 2.406c-.015.069-.206.069-.465.03h-.031c-1.382-.053-2.635-.779-3.238-2.031-.038-.084.076-.145.13-.084.855.932 1.924 1.336 3.1 1.588.092-.198.062-2.833.184-2.818.42.046 1.183.489 1.642.726.29-3.429.03-6.881.374-10.287.015-.122.191-.122.206-.008.527 3.597.283 7.553.069 11.097-.023.443-1.474-.428-1.749-.619h.015Z"/>
  <path fill="#263238" d="M140.583 156.859c3.742-1.199 4.383-4.873 4.383-4.873 4.628-1.298 7.446-4.398 7.737-4.719-.153.313-1.23 2.589-1.826 3.734 10.379-.565 14.526-7.904 14.526-7.904 2.856 3.704 3.238 5.888 3.574 6.995 0 0 .886-6.201-1.764-10.783-3.246-5.606-8.706-5.338-8.706-5.338s-7.561-3.376-14.541 2.474c-7.515 6.308-3.383 20.414-3.383 20.414Z"/>
  <path fill="#263238" d="M158.797 150.329c-1.734.695-3.605 1.077-5.445 1.23-.016 0-.016-.023 0-.023 2.963-.435 5.72-1.596 8.018-3.521a15.546 15.546 0 0 0 2.589-2.764c.779-1.077 1.566-2.376 1.849-3.689.022-.099.175-.069.152.03-.298 1.383-.588 2.658-1.329 3.888a11.069 11.069 0 0 1-2.688 3.054c-.954.749-2.024 1.337-3.154 1.795"/>
  <path fill="#EB9481" d="M141.942 160.975a3.1 3.1 0 0 0 .718.275c.267.084.519.107.749.107.366 0 .687-.069.954-.191.252-.099.474-.244.657-.397.473-.389.71-.825.71-.825l-.397-4.368s-2.925-5.392-5.323-4.399c-2.413.985-.618 8.515 1.925 9.813l.007-.015Z"/>
  <path fill="#263238" d="M140.583 153.308c-.046-.008-.061.053-.023.068 1.779.97 2.558 2.811 3.039 4.682-.473-.756-1.183-1.215-2.184-.665-.053.031-.015.107.038.107.779-.076 1.322.122 1.764.787.314.473.505 1.054.711 1.581.068.175.382.122.336-.077 0-.015 0-.03-.008-.045.321-2.368-1.145-5.911-3.673-6.438Z"/>
  <path fill="#fff" d="M142.24 160.326a.746.746 0 0 0 .81.68.745.745 0 0 0 .679-.81.747.747 0 1 0-1.489.13Zm-1.39-1.291a.53.53 0 0 0 1.054-.091.53.53 0 0 0-1.054.091Z"/>
  <path fill="#263238" d="M169.069 153.086c-.176 6.759-2.52 14.625-9.203 17.535-.901.45-1.871.71-2.841.993 8.852-.993 12.815-10.555 12.044-18.528Z"/>
  <path fill="#BF1B1B" d="m308.725 211.811-.296 3.736-.874 11.023h-14.854l-.873-11.023-.293-3.736h17.19Z"/>
  <path fill="#AC1818" d="m308.725 211.811-.296 2.952h-16.601l-.293-2.952h17.19Z"/>
  <path fill="#BF1B1B" d="M309.37 209H291v3.798h18.37V209Z"/>
  <path fill="#DBDBDB" d="m284.4 218.998-49.36.22.033 7.45 49.36-.22-.033-7.45Z"/>
  <path fill="#EBEBEB" d="m256.034 220.125-18.989.084.02 4.47 18.989-.084-.02-4.47Z"/>
  <path fill="#A6A6A6" d="m281 210.013-35 .156.04 9 35-.156-.04-9Z"/>
  <path fill="#C7C7C7" d="m258.28 210.115-3.28.014.039 8.74 3.28-.015-.039-8.739Zm2.72-.013-1 .005.04 9 1-.005-.04-9Zm14.28-.063-3.28.014.039 8.74 3.28-.014-.039-8.74Z"/>
</svg>
