<svg xmlns="http://www.w3.org/2000/svg" width="500" height="500" fill="none" viewBox="0 0 500 500">
  <path fill="#EBEBEB" d="M192 297.605h164.806V176H192v121.605Z"/>
  <path fill="#A6A6A6" d="M204.744 190.78h69.647c23.247 0 46.494 0 69.741.193-23.247.171-46.494.129-69.741.193l-69.647-.386Zm0 6.019 69.741-.192c23.247 0 46.494 0 69.742.192-23.248.172-46.495.129-69.742.193l-69.741-.193Zm0 5.934 69.741-.193c23.247 0 46.494 0 69.742.193-23.248.171-46.495.128-69.742.193l-69.741-.193Zm0 5.955 69.741-.193c23.247 0 46.494 0 69.742.193-23.248.171-46.495.128-69.742.193l-69.741-.193Zm0 5.933 69.647-.278c23.247 0 46.494 0 69.741.193-23.247.171-46.494.128-69.741.192l-69.647-.107Zm0 5.934 69.741-.193c23.247 0 46.494 0 69.742.193-23.248.171-46.495.128-69.742.193l-69.741-.193Zm0 5.933 69.741-.192c23.247 0 46.494 0 69.742.192-23.248.172-46.495.129-69.742.215l-69.741-.215Zm0 5.955 69.741-.192c23.247 0 46.494 0 69.742.192-23.248.172-46.495.129-69.742.193l-69.741-.193Zm0 5.934 69.741-.193c23.247 0 46.494 0 69.742.193-23.248.171-46.495.128-69.742.193l-69.741-.193Zm0 5.955 69.741-.193c23.247 0 46.494 0 69.742.193-23.248.171-46.495.128-69.742.193l-69.741-.193Zm0 5.933 69.741-.193c23.247 0 46.494 0 69.742.193-23.248.15-46.495 0-69.742.193l-69.741-.193Zm0 5.934 69.741-.193c23.247 0 46.494 0 69.742.193-23.248.171-46.495.128-69.742.193l-69.741-.193Zm0 5.933 69.741-.193c23.247 0 46.494 0 69.742.193-23.248.172-46.495.129-69.742.193l-69.741-.193Zm0 5.934 69.647-.172c23.247 0 46.494 0 69.741.193-23.247.172-46.494.129-69.741.193l-69.647-.214Zm0 5.955 69.741-.193c23.247 0 46.494 0 69.742.193-23.248.15-46.495 0-69.742.193l-69.741-.193Z"/>
  <path fill="#A6A6A6" d="m208.449 186.689.283 23.563.189 23.562c.142 15.709.213 31.417.213 47.126l-.685-.729h67.853l33.915.236 33.915.428-33.915.429-33.915.235h-68.537v-.707c0-15.701 0-31.424.189-47.125l.212-23.563.283-23.455Zm21.524 99.22H219.4v1.007h10.573v-1.007Zm19.637 0h-10.573v1.007h10.573v-1.007Zm19.612 0h-10.573v1.007h10.573v-1.007Zm19.637 0h-10.573v1.007h10.573v-1.007Zm19.612 0h-10.573v1.007h10.573v-1.007Zm19.612 0H317.51v1.007h10.573v-1.007Z"/>
  <path stroke="#C26F6F" stroke-linecap="round" stroke-linejoin="round" stroke-width="4" d="m208.874 250.568 36.461-3.405 36.779-19.995 37.999 8.019 18.336-5.008"/>
  <path fill="#C26F6F" d="M344.236 227.977a1 1 0 0 1 .475 1.747l-9.905 8.425a1 1 0 0 1-1.613-.499l-2.903-10.666a1 1 0 0 1 1.137-1.248l12.809 2.241Z"/>
  <path fill="#BF1B1B" d="M342.197 193.033a1 1 0 0 1 1.233 1.279l-4.097 12.089a1 1 0 0 1-1.667.373l-8.134-8.439a1 1 0 0 1 .434-1.652l12.231-3.65Z"/>
  <path stroke="#BF1B1B" stroke-linecap="round" stroke-linejoin="round" stroke-width="4" d="m209.201 262.359 34.001-13.601 29.601-29.601 34.401 8.001 30.402-28.801"/>
  <path fill="#EBEBEB" d="M314 131h102V8H314v123Zm-199 30.605h164.806V40H115v121.605Z"/>
  <path fill="#A6A6A6" d="M127.744 54.78h69.647c23.247 0 46.494 0 69.741.193-23.247.171-46.494.129-69.741.193l-69.647-.386Zm0 6.02 69.741-.193c23.247 0 46.494 0 69.742.192-23.248.172-46.495.129-69.742.193l-69.741-.193Zm0 5.933 69.741-.193c23.247 0 46.494 0 69.742.193-23.248.171-46.495.128-69.742.193l-69.741-.193Zm0 5.955 69.741-.193c23.247 0 46.494 0 69.742.193-23.248.171-46.495.128-69.742.193l-69.741-.193Zm0 5.933 69.647-.278c23.247 0 46.494 0 69.741.193-23.247.171-46.494.128-69.741.192l-69.647-.107Zm0 5.934 69.741-.193c23.247 0 46.494 0 69.742.193-23.248.171-46.495.128-69.742.193l-69.741-.193Zm0 5.933 69.741-.192c23.247 0 46.494 0 69.742.192-23.248.172-46.495.129-69.742.215l-69.741-.215Zm0 5.955 69.741-.192c23.247 0 46.494 0 69.742.192-23.248.172-46.495.129-69.742.193l-69.741-.193Zm0 5.934 69.741-.193c23.247 0 46.494 0 69.742.193-23.248.171-46.495.128-69.742.193l-69.741-.193Zm0 5.955 69.741-.193c23.247 0 46.494 0 69.742.193-23.248.171-46.495.128-69.742.193l-69.741-.193Zm0 5.933 69.741-.193c23.247 0 46.494 0 69.742.193-23.248.15-46.495 0-69.742.193l-69.741-.193Zm0 5.934 69.741-.193c23.247 0 46.494 0 69.742.193-23.248.171-46.495.128-69.742.193l-69.741-.193Zm0 5.933 69.741-.193c23.247 0 46.494 0 69.742.193-23.248.172-46.495.129-69.742.193l-69.741-.193Zm0 5.934 69.647-.172c23.247 0 46.494 0 69.741.193-23.247.172-46.494.129-69.741.193l-69.647-.214Zm0 5.955 69.741-.193c23.247 0 46.494 0 69.742.193-23.248.15-46.495 0-69.742.193l-69.741-.193Z"/>
  <path fill="#BF1B1B" d="M240.534 144.94h10.573V66.947h-10.573v77.993Zm-19.636 0h10.574V75.922h-10.574v69.018Zm-19.636 0h10.573V85.904h-10.573v59.036Zm-19.613-.022h10.574V72.666h-10.574v72.252Zm-19.612.022h10.573V93.487h-10.573v51.453Zm-19.613 0h10.573v-27.119h-10.573v27.119Z"/>
  <path fill="#A6A6A6" d="m131.45 50.689.283 23.562.189 23.563c.141 15.709.212 31.417.212 47.125l-.684-.728h67.853l33.914.236 33.915.428-33.915.429-33.914.235h-68.538v-.707c0-15.701 0-31.424.189-47.125l.212-23.563.284-23.455Zm21.524 99.22H142.4v1.007h10.574v-1.007Zm19.636 0h-10.573v1.007h10.573v-1.007Zm19.613 0h-10.574v1.007h10.574v-1.007Zm19.636 0h-10.573v1.007h10.573v-1.007Zm19.612 0h-10.573v1.007h10.573v-1.007Zm19.613 0H240.51v1.007h10.574v-1.007ZM381 114h-32v4h32v-4Z"/>
  <path fill="#EBEBEB" d="m453.922 323.017 13.384-.232c4.425-.08 8.801-.128 13.193-.136l-.36.368v-8.953l.392.4-13.289-.056c-4.424 0-8.856-.104-13.288-.152l.2-.192-.232 8.953Zm0 0-.192-8.953v-.2h.2c4.432-.048 8.864-.128 13.288-.152l13.289-.048h.408v9.721h-.368c-4.472 0-8.944-.056-13.385-.128l-13.24-.24Zm14.824 11.28h26.577v-8.952h-26.577v8.952Zm-166.214 41.026h26.577v-8.953h-26.577v8.953ZM4.768 334.305l13.385-.232c4.424-.08 8.8-.128 13.193-.136l-.36.368v-8.952l.392.392-13.337-.048c-4.424 0-8.856-.104-13.289-.152l.2-.192-.184 8.952Zm0 0-.192-8.936v-.2h.2c4.433-.048 8.865-.128 13.289-.152l13.288-.048h.409v9.712h-.369a826 826 0 0 1-13.384-.128l-13.24-.248Zm463.986-226.953 13.385-.232c4.416-.08 8.8-.128 13.193-.136l-.369.368V98.4l.4.4-13.304-.056c-4.432 0-8.864-.104-13.289-.152l.192-.192-.208 8.952Zm0 0-.2-8.952v-.2h.208c4.425-.048 8.857-.128 13.289-.152L495.339 98h.4v.408l-.079 8.944v.36h-.361c-4.48 0-8.952-.056-13.384-.128l-13.161-.232Z"/>
  <path fill="#C7C7C7" d="M465.627 242.99h-59.69v12.36h59.69v-12.36Z"/>
  <path fill="#C7C7C7" d="m421.954 255.254-1.672 15.793-20.633 147.886h-5.897l16.281-147.886 1.328-15.793h10.593Zm55.873 163.679h-5.912l-20.633-147.886-1.672-15.793h10.593l1.328 15.793 16.296 147.886Z"/>
  <path fill="#C7C7C7" d="M467.867 352.682h-65.843v3.712h65.843v-3.712Z"/>
  <path fill="#A6A6A6" d="M410.033 270.487h10.248l1.672-15.233h-10.592l-1.328 15.233Zm51.498 0h-10.249l-1.672-15.233h10.593l1.328 15.233Z"/>
  <path fill="#EB9481" d="M383.288 374.051c2-.248 51.314-23.769 52.626-25.849.504-.8-2.504-8.168-6.4-16.993a534.03 534.03 0 0 0-2.624-5.848c-5.848-12.904-12.353-26.457-12.353-26.457l-33.033 15.633 13.264 26.033 2.905 5.712s-14.857 17.449-16.049 19.889c-1.192 2.44-.336 8.12 1.664 7.88Z"/>
  <path fill="#fff" d="M383.288 374.051c2-.248 51.314-23.769 52.626-25.849.608-.968-3.952-11.664-9.009-22.841l-32.121 15.201 2.904 5.712s-14.856 17.449-16.048 19.889c-1.192 2.44-.352 8.128 1.648 7.888Z"/>
  <path fill="#BF1B1B" d="M383.288 374.051c2-.248 51.314-23.769 52.626-25.849.504-.8-2.504-8.168-6.4-16.993l-31.841 15.073s-14.857 17.449-16.049 19.889c-1.192 2.44-.336 8.12 1.664 7.88Z"/>
  <path fill="#263238" d="M383.064 371.739c8.168-4.144 41.513-20.097 49.906-23.569.064 0 .088 0 0 .048-8.001 4.288-41.482 20.001-49.866 23.657-.16.08-.224-.048-.04-.136Zm.896-8.848a7.35 7.35 0 0 1 2.92-.792 7.347 7.347 0 0 1 2.992.448 7.132 7.132 0 0 1 3.952 3.536c0 .048-.072.096-.104.048a8.492 8.492 0 0 0-9.704-3.136c-.072.024-.152-.072-.056-.104Zm10.912-14.257c3.288-1.6 7.681-2.288 11.025-.56.128.064 0 .248-.088.248a50.439 50.439 0 0 0-10.801.744.232.232 0 0 1-.236-.315.238.238 0 0 1 .1-.117Zm-2.08 2.216c3.288-1.6 7.68-2.288 11.025-.56.136.064 0 .248-.088.248a50.439 50.439 0 0 0-10.801.744.232.232 0 0 1-.136-.432Zm-2.08 2.216c3.288-1.6 7.681-2.288 11.025-.56.136.064 0 .248-.088.24a51.035 51.035 0 0 0-10.801.752.232.232 0 0 1-.236-.315.238.238 0 0 1 .1-.117Zm-2.048 2.208c3.288-1.6 7.68-2.28 11.032-.56.128.072 0 .256-.096.248a51.026 51.026 0 0 0-10.8.752.23.23 0 0 1-.263-.159.235.235 0 0 1 .127-.281Zm16.497-85.603c.32 9.392 24.529 59.482 24.529 59.482l-34.882 15.529s-28.617-55.53-26.241-76.323c2.032-17.641 32.113-36.153 52.002-57.09h29.513c-11.008 23.353-42.345 49.01-44.801 57.234a3.692 3.692 0 0 0-.096 1.152l-.024.016Z"/>
  <path fill="#37474F" d="M395.064 337.866c5.729-2.728 4.049-2.024 9.801-4.688 2.808-1.313 16.937-7.905 19.769-8.689a.063.063 0 0 1 .038.009.059.059 0 0 1 .026.03.058.058 0 0 1 .004.039.066.066 0 0 1-.02.034c-2.448 1.6-16.721 7.904-19.553 9.153-5.8 2.568-4.16 1.768-9.992 4.272a.097.097 0 0 1-.065-.002.09.09 0 0 1-.045-.045.087.087 0 0 1 .037-.113Zm47.698-121.661a302.823 302.823 0 0 1-29.089 37.545c-2.608 2.849-11 10.985-11.568 14.321-.632 3.72.8 7.424 1.984 10.888 1.272 3.817 2.552 7.633 3.904 11.425 1.464 4.088 3.016 8.144 4.752 12.12.888 2.032 6.296 12.001 7.288 14.017.496.992 1 1.976 1.52 2.96l2.401 4.36c.088.16.328.36.096-.056-.496-.92-2.553-4.744-3.025-5.688-1.848-3.704-7.96-15.481-9.496-19.321-1.536-3.84-2.984-7.84-4.344-11.808-1.36-3.968-2.752-7.841-3.912-11.817a16.65 16.65 0 0 1-.84-6.296c.216-2.088 6.176-9.008 8.8-11.848a286.81 286.81 0 0 0 15.753-18.401 263.417 263.417 0 0 0 15.88-22.401.051.051 0 0 0 .004-.027.054.054 0 0 0-.009-.025.05.05 0 0 0-.02-.018.054.054 0 0 0-.053 0 .05.05 0 0 0-.02.018.054.054 0 0 0-.009.025.063.063 0 0 0 .003.027Z"/>
  <path fill="#EB9481" d="M404.137 419.053c1.912.632 56.546.472 58.626-.848.8-.496 1.232-8.456 1.488-18.089.056-2.08.104-4.232.136-6.4.24-14.169.12-27.537.12-27.537h-36.545l.888 27.537.176 6.4s-20.889 9.416-23.017 11.113c-2.128 1.696-3.744 7.192-1.872 7.824Z"/>
  <path fill="#fff" d="M404.137 419.053c1.912.632 56.546.472 58.626-.848.96-.616 1.408-12.233 1.6-24.497H428.85l.176 6.4s-20.889 9.417-23.017 11.113c-2.128 1.696-3.744 7.2-1.872 7.832Z"/>
  <path fill="#BF1B1B" d="M404.137 419.053c1.288.36 57.65.64 58.626-.192.712-.608 1.232-9.113 1.488-18.745H429.05s-20.889 9.416-23.017 11.113c-2.128 1.696-3.84 7.28-1.896 7.824Z"/>
  <path fill="#263238" d="M404.913 416.861c9.16-.248 46.122-.4 55.202.048.072 0 .072.056 0 .056-9.072.448-46.034.296-55.202.048-.192 0-.192-.144 0-.152Zm4.608-7.609a7.346 7.346 0 0 1 5.48 2.217 7.153 7.153 0 0 1 2.064 4.888c0 .056-.104.056-.112 0a8.495 8.495 0 0 0-7.432-6.993.055.055 0 0 1-.04-.016.057.057 0 0 1 0-.079.056.056 0 0 1 .04-.017Zm15.944-8.24c3.665-.064 7.913 1.216 10.201 4.208.088.12-.072.24-.184.184a51.074 51.074 0 0 0-10.081-3.944.231.231 0 0 1-.076-.386.233.233 0 0 1 .14-.062Zm-2.816 1.136c3.664-.064 7.921 1.216 10.209 4.208.088.12-.08.24-.184.184a51.074 51.074 0 0 0-10.081-3.944.226.226 0 1 1 .056-.448Zm-2.784 1.112c3.664-.064 7.92 1.216 10.209 4.208.088.12-.08.24-.192.184a51.074 51.074 0 0 0-10.081-3.944.231.231 0 0 1-.076-.385.226.226 0 0 1 .14-.063Zm-2.864 1.112c3.665-.064 7.913 1.216 10.201 4.208.088.12-.072.24-.184.184a51.074 51.074 0 0 0-10.081-3.944.231.231 0 0 1 .064-.448Zm8.649-4.76 41.705-.52s-11.464-148.006-8.48-153.43c4.568-8.256 7.728-19.425 1.408-34.465h-32.281s1.704 16.056 1.552 16.72c-9.905 43.29-3.904 171.695-3.904 171.695Z"/>
  <path fill="#37474F" d="M427.61 392.364c8.296-.616 34.225-.8 36.985-.424.017 0 .033.007.045.019a.064.064 0 0 1 .019.045.064.064 0 0 1-.019.045.064.064 0 0 1-.045.019c-2.736.52-16.376.8-36.985.472a.084.084 0 0 1-.062-.026.085.085 0 0 1-.026-.062c0-.024.009-.046.026-.062a.084.084 0 0 1 .062-.026Zm-.192-179.079c.32 4.088.16 11.064 2.52 11.2 2.36.136 1.952-8.424 2.016-10.4.064-1.784.672-1.536.736.56.184 5.688.04 10.704-2.984 10.472-3.025-.232-3.001-9.048-2.929-11.064.04-1.048.536-2.056.641-.768Z"/>
  <path fill="#37474F" d="M429.786 224.733a17.863 17.863 0 0 1-.088 4.304c0 .112-.496 0-.544-.072-.28-.592-.056-3.384-.136-4.136a.384.384 0 0 1 .336-.432.39.39 0 0 1 .432.336Z"/>
  <path fill="#37474F" d="M428.786 229.757c-1.008 3.577-2.04 10.401-1.8 12.217 0 .16.272.216.296.048.328-1.92 1.752-11.136 1.896-12.105.144-.968-.112-1.152-.392-.16Z"/>
  <path fill="#37474F" d="M434.994 232.582a12.152 12.152 0 0 0-1.504-1.28c-.528-.416-1.064-.8-1.6-1.208-1.12-.801-2.28-1.513-3.456-2.209a63.35 63.35 0 0 0-3.529-1.92c-1.192-.608-2.584-1.104-3.84-1.736-.072-.04-.136.064-.064.104 1.192.656 2.288 1.48 3.448 2.2 1.16.72 2.305 1.472 3.465 2.192 1.16.72 2.256 1.433 3.392 2.129.6.368 1.2.72 1.808 1.08a14.28 14.28 0 0 0 1.704.944c.168.08.288-.176.176-.296Zm25.153 132.141a994.278 994.278 0 0 1-1.448-17.345c-.88-11.568-1.6-20.001-2.112-31.585a1173.63 1173.63 0 0 1-1.04-34.802c-.088-5.8-1.744-28.481-1.44-34.233.152-2.92 5.296-5.176 6.344-13.696a32.406 32.406 0 0 0-1.128-14.457 32.217 32.217 0 0 0-1.288-3.344c0-.072-.144 0-.112.064a31.682 31.682 0 0 1 2.496 15.201 25.832 25.832 0 0 1-1.6 7.64c-1.384 3.432-4.8 6.224-4.968 8.048-.264 2.72 1.6 54.474 2.128 66.011.528 11.536 1.144 19.904 1.992 31.425.848 11.52 1.864 30.673 3.072 42.162a94.29 94.29 0 0 0 .48 3.936c0 .144.264.112.256 0-.384-5.832-1.112-19.249-1.632-25.025Z"/>
  <path fill="#EB9481" d="M429.65 168.059c-4.185 9.464-24.297 31.297-32.186 32.753-5.696 1.048-26.721-12.512-32.801-17.368-5.832-4.697 10.169-21.257 13.785-18.737 5.104 3.552 16.632 14.184 18.896 14.28 1.6.072 10.609-5.6 24.401-16 7.665-5.712 10.393-.568 7.905 5.072Z"/>
  <path fill="#EB9481" d="M353.327 175.659c3.2 3.745 12.68 8.865 15.448 9.217 2.769.352 12.001-15.513 10.929-18.161-1.072-2.648-12.761-14.401-17.681-15.393-4.92-.992-11.992 20.457-8.696 24.337Z"/>
  <path fill="#EB9481" d="M378.064 164.355a40.806 40.806 0 0 1-2.081-11.665c0-4.736.585-11.76-1.96-11.872-5.224-.216-6.632 17.313-6.632 17.313s.624 7.832 5.776 8.504a5.168 5.168 0 0 0 4.897-2.28Z"/>
  <path fill="#EB9481" d="M369.295 154.315c.416 2.568-2.848 1.6-2.848 1.6s4.36 2.552 3.76 5.36c-.6 2.808-4.488 1.392-4.8 1.296.232.136 4.176 2.584 3.288 5.352-.888 2.768-4.624.872-4.864.736.184.2 2.464 2.848 1.312 4.8-1.992 3.352-8-3.256-11.2-3.264 0 0-.632 5.336-.68 5.488 0 0-5.865-6.168-5.601-10.4a2.727 2.727 0 0 1 2.249-2.56s-2.113-1.784-1.48-4c.328-1.128 2.4-1.6 2.4-1.6a3.405 3.405 0 0 1-.954-1.575 3.406 3.406 0 0 1 .002-1.841c.544-1.537 2.568-1.777 2.568-1.777s-.904-2.16.16-3.552c2.216-2.84 15.792.432 16.688 5.937Z"/>
  <path fill="#263238" d="M352.839 151.81c-.048 0-.048-.072 0-.072a24.198 24.198 0 0 1 13.784 4.193c.128.096 0 .344-.12.264a49.481 49.481 0 0 0-13.664-4.385Zm-1.992 5.241c-.056 0-.04-.096 0-.096a22.646 22.646 0 0 1 14.752 5.512c.144.128.144.384 0 .248-2.912-2.272-10.288-4.984-14.752-5.664Zm13.216 11.952c-4.048-3.424-8.8-5.2-13.904-6.336-.064 0 0-.104 0-.104 2.656-.136 5.848.928 8.264 1.968a14.028 14.028 0 0 1 5.736 4.336c.08.072-.008.208-.096.136Z"/>
  <path fill="#263238" d="M366.527 155.875c.152.104-.176.208 0 .32.624.48 4.128 3.696 3.408 5.232-.584 1.232-2.64 1.296-3.44 1.016l-2.016-.712 1.6 1.368a8.73 8.73 0 0 1 1.872 2.12 3.156 3.156 0 0 1 .496 2.512 1.775 1.775 0 0 1-1.784 1.36 5.418 5.418 0 0 1-2.584-.8l-2.2-1.264 1.656 1.904a8.23 8.23 0 0 1 1.168 1.736c.318.585.457 1.249.4 1.912a1.6 1.6 0 0 1-1.064 1.312 3.532 3.532 0 0 1-1.984-.192 28.748 28.748 0 0 1-3.952-1.888 46.3 46.3 0 0 0-1.984-1.016 5.154 5.154 0 0 0-2.128-.624 5.535 5.535 0 0 1 2.032.8c.64.36 1.264.76 1.888 1.152a24.266 24.266 0 0 0 3.944 2.144 4.156 4.156 0 0 0 2.4.304 2.265 2.265 0 0 0 1.648-1.872 4.046 4.046 0 0 0-.44-2.4 8.86 8.86 0 0 0-1.264-1.96l-.544.64c.912.591 1.963.93 3.048.984a2.575 2.575 0 0 0 1.656-.56c.453-.378.78-.887.936-1.456a3.926 3.926 0 0 0-.624-3.2 9.393 9.393 0 0 0-2.088-2.304l-.368.656c1.024.328 3.336.496 4.48-1.296 1.168-2.496-3.32-5.448-4.168-5.928Z"/>
  <path fill="#263238" d="M366.447 155.899a5.178 5.178 0 0 0 1.6-.088 1.217 1.217 0 0 0 .928-.8 2.472 2.472 0 0 0-.144-1.392 17.98 17.98 0 0 0-.624-1.529c.467.349.856.79 1.144 1.297a2.39 2.39 0 0 1 .32 1.832c-.117.321-.329.6-.608.8a1.791 1.791 0 0 1-.928.312 2.75 2.75 0 0 1-1.688-.432Z"/>
  <path fill="#455A64" d="m378.936 164.843-11.593 27.849s23.201 10.4 30.121 8.896c6.921-1.504 25.553-20.392 32.338-32.161 4.136-7.16.08-12.368-8.865-6.352-9.192 6.184-22.096 14.736-23.057 15.016-.96.28-18.944-13.248-18.944-13.248Z"/>
  <path fill="#37474F" d="m373.007 179.076.136-.32a6.408 6.408 0 0 0 3.305-1.601 14.71 14.71 0 0 0 2.992-4.064c.94-1.9 1.987-3.746 3.136-5.528l.224.168c-1.88 2.72-2.96 5.928-5.056 8.504-1.08 1.36-2.928 2.705-4.737 2.841Zm19.465-4.345-.16-.112a19.874 19.874 0 0 1-3.888 3.2 83.18 83.18 0 0 1-9.744 5.321c-2.92 1.4-5.657 3.056-7.257 5.968a11.805 11.805 0 0 0-1.416 4.752l.224.096a11.708 11.708 0 0 1 1.6-5.072c1.792-3.032 4.873-4.552 7.937-6.016a65.05 65.05 0 0 0 9.696-5.513 16.973 16.973 0 0 0 3.008-2.624Zm-1.504 10.273a5.205 5.205 0 0 0-3.904.8 5.603 5.603 0 0 0-2.216 3.464 23.84 23.84 0 0 0-.32 4.72 12 12 0 0 1-.896 4.528 4.224 4.224 0 0 1-.184.384l.264.088c.197-.412.368-.837.512-1.272.405-1.376.594-2.806.56-4.24-.09-1.659.08-3.322.504-4.928a5.078 5.078 0 0 1 3.544-3.32 4.79 4.79 0 0 1 4.536 1.224 5.245 5.245 0 0 1 1.408 4.88c-.592 3.2-2.848 5.728-3.2 8.968a7.52 7.52 0 0 0-.048.848l.216.04v-.608c.256-3.368 2.656-6.016 3.2-9.288a5.596 5.596 0 0 0-.8-4.224 5.242 5.242 0 0 0-3.176-2.064Zm12.145.912c-1.84-2.192-4.329-4-5.601-6.632a6.246 6.246 0 0 1-.512-1.601l-.28-.16a10.117 10.117 0 0 0 2.88 5.025c.993 1.08 2.065 2.08 3.033 3.2a13.222 13.222 0 0 1 2.568 4.264c.766 2.09.959 4.346.56 6.536l.288-.24c.104-.619.16-1.244.168-1.872a13.236 13.236 0 0 0-3.104-8.504v-.016Zm11.696-11.529a10.893 10.893 0 0 0-2.496-5.56l-.208.136a10.482 10.482 0 0 1 2.4 4.984c.6 3.258.6 6.599 0 9.857a33.678 33.678 0 0 1-1.768 6.528c.136-.136.28-.272.416-.416a33.012 33.012 0 0 0 1.6-6.056c.553-3.127.572-6.324.056-9.457v-.016Zm3.816-.224a17.343 17.343 0 0 1 1.136-9.472 10.2 10.2 0 0 1 .8-1.352l-.56.376a14.808 14.808 0 0 0-1.776 6.2 23.134 23.134 0 0 0 1.464 9.825c.276.727.605 1.433.984 2.112l.216-.248a21.977 21.977 0 0 1-2.264-7.425v-.016Z"/>
  <path fill="#263238" d="M379.376 181.956c.728-2.104 3.584-10.513 4.128-12.657 0 0 0-.064-.056 0-.928 1.944-4 10.161-4.72 12.257-1.564 4.158-2.9 8.4-4 12.704 0 .072.096.136.136.056 1.8-4.032 3.08-8.224 4.512-12.36Z"/>
  <path fill="#000" d="M429.81 169.427c-5.504 9.537-18.769 23.769-27.289 29.601l23.841-38.449c4.968-.976 6.608 3.36 3.448 8.848Z" opacity=".1"/>
  <path fill="#455A64" d="m414.433 217.005 49.698 3.12c-1.68-14.184-15.336-46.602-23.201-57.138-4.44-5.952-15.064-6.912-17.912 1.464-3.665 10.856-9.329 51.89-8.585 52.554Z"/>
  <path fill="#37474F" d="M415.593 211.677a11.452 11.452 0 0 1-.432 5.376h-.216c.888-2.4.552-4.904.048-7.36 0-.248.056-.504.088-.8.2.912.384 1.856.512 2.784Zm7.472-17.809a6.738 6.738 0 0 0-6.112 1.752c0 .12 0 .24-.056.36a6.715 6.715 0 0 1 4.168-2.048c3.2-.32 5.889 2.184 6.913 5.056 1.256 3.536.056 7.417-1.552 10.625-1.305 2.6-3.073 5.08-3.865 7.896h.232c.8-2.936 2.728-5.504 4.001-8.232 1.432-2.984 2.464-6.505 1.528-9.793-.72-2.544-2.648-4.944-5.257-5.616Zm16.921 7.296a18.92 18.92 0 0 0-4.864-6.336c-4.16-3.72-9.36-6.4-12.801-10.896a17.674 17.674 0 0 1-2.608-5.001l-.12.625.072.2a19.21 19.21 0 0 0 5.024 7.2 79.386 79.386 0 0 0 6.601 5.176 33.483 33.483 0 0 1 6.216 5.6 15.792 15.792 0 0 1 3.472 8.873 27.788 27.788 0 0 1-1.4 10.4 23.719 23.719 0 0 1-.56 1.6h.264a29.583 29.583 0 0 0 1.824-7.416 19.158 19.158 0 0 0-1.16-10.025h.04Zm.248-32.073c-.264-2.352-.848-4.992-.368-7.368a1.798 1.798 0 0 0-.184-.176 10.009 10.009 0 0 0-.256 2.488c.04 1.936.464 3.832.624 5.76a19.815 19.815 0 0 1-2.144 10.665 8.355 8.355 0 0 1-3.36 3.656 3.404 3.404 0 0 1-4.28-.712 5.241 5.241 0 0 1-1.024-4 11.41 11.41 0 0 1 2.088-4.569 26.726 26.726 0 0 0 2.52-4.248c1.112-2.584 1.6-5.736.232-8.32a6.535 6.535 0 0 0-5.92-3.304 4.762 4.762 0 0 0-.6.248 6.66 6.66 0 0 1 5.816 2.4c2.032 2.688 1.416 6.4.096 9.24-1.32 2.84-4 5.264-4.472 8.496-.32 2.305.744 5.201 3.36 5.481 3.088.328 5.24-2.992 6.296-5.416a20.352 20.352 0 0 0 1.536-10.321h.04Zm8.92 21.905a65.72 65.72 0 0 0 4.209-3.704l.224-.216c-.04-.104-.088-.2-.128-.296a49.926 49.926 0 0 1-6.057 5.2c-1.352.96-3.008 1.752-4.688 1.256a3.03 3.03 0 0 1-1.808-1.304 3.145 3.145 0 0 1 .064-2.864 14.532 14.532 0 0 1 2.888-3.912c1.056-1.112 2.192-2.136 3.344-3.152.976-.864 1.968-1.736 2.92-2.648 0-.088-.08-.168-.112-.248-1.144 1.104-2.4 2.136-3.544 3.2a42.798 42.798 0 0 0-3.288 3.2 12.803 12.803 0 0 0-2.568 3.72 3.053 3.053 0 0 0 .744 3.656 4.118 4.118 0 0 0 3.528.688 11.486 11.486 0 0 0 4.232-2.576h.04Zm-2.464 15.201c2.872 1.16 5.601-.544 7.809-2.321a40.316 40.316 0 0 1 4.368-3.328c0-.072-.056-.152-.08-.232-.624.376-1.232.8-1.816 1.232-2.52 1.896-5.168 5.017-8.633 4.761a4.06 4.06 0 0 1-3.536-2.209c-.664-1.6.12-3.4 1.328-4.48a10.818 10.818 0 0 1 4.945-2.136c1.864-.424 3.752-.696 5.6-1.056l.608-.12c0-.08-.064-.152-.088-.232-.712.144-1.432.272-2.144.4a52.27 52.27 0 0 0-5.513 1.136 8.257 8.257 0 0 0-4.072 2.288 4.403 4.403 0 0 0-1.104 3.776 3.667 3.667 0 0 0 2.288 2.497l.04.024Zm15.697 5.432c-2.592.688-5.336.8-8 1.224-3.04.496-6.297 1.48-8.209 4.064a8.453 8.453 0 0 0-1.096 2.032h.272a7.69 7.69 0 0 1 1.416-2.4c2.304-2.624 6.041-3.304 9.329-3.72a48.322 48.322 0 0 0 6.328-1c-.04-.072-.056-.152-.08-.224l.04.024Zm1.2 5.008a25.585 25.585 0 0 0-2 1.952c-.4.432-.8.872-1.192 1.32h.328a34.639 34.639 0 0 1 2.928-3.008 1.043 1.043 0 0 1-.104-.288l.04.024Z"/>
  <path fill="#EB9481" d="M445.586 168.115c8.801 10.664 17.129 31.417 15.609 37.642-2.32 9.52-43.658 9.52-50.746 8.512-3.072-.44.408-21.601 3.712-21.377 5.44.376 27.753-1.512 28.153-1.512 0 0-3.248-11.584-5.336-22.585-1.856-9.752 2.408-8.224 8.608-.68Z"/>
  <path fill="#455A64" d="M446.586 167.611c8.801 10.664 18.641 29.889 15.553 39.586-2.448 7.672-38.658 11.624-45.69 12.2l-1.88-27.489c5.448.376 27.345-.528 27.745-.528 0 0-3.416-10.056-5.952-20.953-3.464-14.84 4.024-10.36 10.224-2.816Z"/>
  <path fill="#37474F" d="M462.323 198.844a13.966 13.966 0 0 0-5.392 2.68c-2.52 1.896-5.168 5.017-8.632 4.761a4.06 4.06 0 0 1-3.537-2.209c-.664-1.6.12-3.4 1.328-4.48a10.818 10.818 0 0 1 4.945-2.136c1.864-.424 3.752-.696 5.6-1.056a27.605 27.605 0 0 0 4.8-1.312 1.558 1.558 0 0 0-.072-.232 33.04 33.04 0 0 1-6.344 1.6c-1.857.28-3.697.659-5.512 1.136a8.256 8.256 0 0 0-4.073 2.288 4.412 4.412 0 0 0-1.104 3.776 3.674 3.674 0 0 0 2.304 2.521c2.873 1.16 5.601-.544 7.809-2.321 2.344-1.912 4.8-4.192 7.896-4.8.008-.064-.008-.144-.016-.216Zm-5.528-15.376c-.376.336-.728.68-1.064 1.016a65.852 65.852 0 0 1-8.369 7.496c-1.352.96-3.008 1.752-4.688 1.256a3.03 3.03 0 0 1-1.808-1.304 2.442 2.442 0 0 1-.2-.528h-.272c.142.563.469 1.062.928 1.416a4.118 4.118 0 0 0 3.528.688 11.481 11.481 0 0 0 4.273-2.552 65.704 65.704 0 0 0 4.208-3.704c1.184-1.128 2.328-2.4 3.592-3.576l-.128-.208Zm-12.977 1.688c1.056-1.112 2.192-2.136 3.344-3.152a42.11 42.11 0 0 0 5.649-5.601 1.545 1.545 0 0 0-.144-.232 44.748 44.748 0 0 1-6.241 6.137 42.798 42.798 0 0 0-3.288 3.2 16.816 16.816 0 0 0-1.936 2.472c.04.12.08.24.112.36a17.135 17.135 0 0 1 2.504-3.184Zm-3.624-16.065c-.28-2.464-.904-5.256-.288-7.712l-.192-.112a10.091 10.091 0 0 0-.328 2.768c.04 1.936.464 3.832.624 5.76.145 1.85.032 3.71-.336 5.528a19.664 19.664 0 0 1-1.128 3.673c0 .136.08.264.112.4a20.311 20.311 0 0 0 1.536-10.305Zm-.248 32.073a18.92 18.92 0 0 0-4.864-6.336c-1.224-1.088-2.536-2.096-3.864-3.072h-.448l.504.376a33.483 33.483 0 0 1 6.216 5.6 15.793 15.793 0 0 1 3.488 8.873 27.29 27.29 0 0 1-1.168 9.6l.304-.056c.463-1.632.795-3.299.992-4.984a19.15 19.15 0 0 0-1.16-10.001Zm-11.624-1.664c-.72-2.56-2.648-4.96-5.296-5.6-2.833-.72-5.769.8-7.353 3.2a9.083 9.083 0 0 0-.672 1.168v.536a7.512 7.512 0 0 1 5.992-4.8c3.201-.32 5.889 2.184 6.913 5.056 1.256 3.536.056 7.417-1.552 10.625-1.504 2.992-3.624 5.824-4.161 9.2h.249c.568-3.472 2.824-6.4 4.32-9.488 1.464-3.088 2.496-6.609 1.56-9.897Z"/>
  <path fill="#263238" d="M442.106 191.188a20.5 20.5 0 0 1 4.864 1.96 19.138 19.138 0 0 1 4.241 3.088c-1.528-.864-3.009-1.744-4.529-2.56l-4.576-2.488Zm18.969 17.353c-3.008 2.76-6.952 3.672-10.784 4.704a192.074 192.074 0 0 1-13.393 3.072c-1.264.24-2.528.48-3.8.704a39.665 39.665 0 0 1-3.96.712.063.063 0 0 0-.064.064.063.063 0 0 0 .064.064c1.224-.216 2.496-.232 3.728-.384a87.68 87.68 0 0 0 3.416-.488c2.336-.368 4.656-.8 6.96-1.288a145.816 145.816 0 0 0 6.873-1.656 58.534 58.534 0 0 0 6.144-1.856c1.904-.728 3.856-1.744 4.984-3.512.088-.112-.08-.216-.168-.136Z"/>
  <path fill="#263238" d="M441.25 187.212a220.41 220.41 0 0 1-1.304-4.296c-.424-1.44-.848-2.872-1.312-4.297-.464-1.424-.744-2.912-1.272-4.304h-.08c.187 1.11.438 2.208.752 3.288a17.421 17.421 0 0 0-.8-1.6c0-.04-.08 0-.072 0 .306.82.659 1.621 1.056 2.4a.964.964 0 0 0 0 .152c.328 1.497.72 2.977 1.144 4.449.424 1.472.84 2.872 1.288 4.304a25.449 25.449 0 0 0 1.304 3.776c-1.704-.088-3.432.04-5.128.072-1.696.032-3.592.088-5.392.128-3.561.096-7.121.184-10.673.32-2.032.08-4.064.144-6.088.288a.08.08 0 0 0-.055.076.08.08 0 0 0 .055.076c3.592.144 7.2.088 10.792 0 3.593-.088 7.121-.12 10.681-.288 1.976-.088 6.248-.24 6.232-.368a.324.324 0 0 0 0-.088c.048-.064-.736-2.816-1.128-4.088Zm-19.353 18.593c-.168-2.025-.904-10.097-1.24-12.081h-.064c-.048 1.96.448 9.952.616 12.001.234 4.048.685 8.08 1.352 12.08 0 .064.136.072.136 0 0-4.048-.432-8-.8-12Z"/>
  <path fill="#C7C7C7" d="M456.267 203.332h-54.075v2.425h54.075v-2.425Z"/>
  <path fill="#A6A6A6" d="M429.409 203.332h-27.217v2.425h27.217v-2.425Z"/>
  <path fill="#C7C7C7" d="M426.482 205.757h-52.699l-6.896-35.794h52.706l6.889 35.794Z"/>
  <path fill="#fff" d="M399.864 187.86a2.896 2.896 0 0 1-2.928 3.2 3.572 3.572 0 0 1-3.488-3.2 2.875 2.875 0 0 1 .741-2.262 2.888 2.888 0 0 1 2.187-.938 3.576 3.576 0 0 1 3.488 3.2Z"/>
  <path fill="#EB9481" d="M420.321 207.733c-3.568 1.792-7.944 6.208-10.888 6.632a3.409 3.409 0 0 1-3.64-1.808s-1.4 2.976-4.128 2.92c-1.4 0-2.592-2.296-2.592-2.296s-1.224 2.328-3.648 2.128c-1.937-.16-2.833-2.4-2.833-2.4s-2.224 1.696-4.136.896c-3.888-1.6-4.272-18.241 1.792-20.953 2.832-1.272 2.704 2.8 2.704 2.8s1.6-5.808 5.025-5.976c3.424-.168 2.944 5.112 2.944 5.112s1.6-5.6 5.168-5.432c3.72.192 2.328 5.392 2.328 5.392s2.4-3.76 5.128-2.992c4.456 1.264-.896 9.792.056 13.425l5.944.176.776 2.376Z"/>
  <path fill="#EB9481" d="M415.169 210.829c3.528-1.408 5.121 1.128 8.801.76 4.056-.4 2.888-5.184-4.184-6.232l-6.153-.184 1.536 5.656Z"/>
  <path fill="#263238" d="M392.392 212.565c0 .01-.004.021-.012.028a.036.036 0 0 1-.028.012.036.036 0 0 1-.028-.012.038.038 0 0 1-.012-.028 28.804 28.804 0 0 1 .624-17.169c.064-.176.376-.144.336.064a59.106 59.106 0 0 0-.88 17.105Zm6.672.696c0 .064-.104.072-.12 0-1.472-5.6-1.2-12.857 1.848-18.681.104-.2.4-.272.296 0-1.76 4.024-2.632 13.329-2.024 18.681Zm9.713-18.881c-2.712 5.704-3.32 11.705-3.056 17.953 0 .08-.112.072-.128 0-.968-3.024-.72-7.024-.264-10.121a16.644 16.644 0 0 1 3.248-7.928c.088-.088.256-.024.2.096Zm1.32 19.833a12.658 12.658 0 0 0 2.976-1.6c.928-.64 1.784-1.368 2.76-1.992.248-.162.517-.289.8-.376.307-.053.621-.053.928 0 .576.096 1.128.24 1.672.384a22.78 22.78 0 0 0 3.272.744c1.064.12 2.257.112 2.953-.6a2.01 2.01 0 0 0 .568-1.344 2.066 2.066 0 0 0-.568-1.368 7.2 7.2 0 0 0-2.705-1.824 10.728 10.728 0 0 0-3.2-.92 9.481 9.481 0 0 1 3.352.624 7.647 7.647 0 0 1 2.969 1.792c.435.46.691 1.062.72 1.696a2.594 2.594 0 0 1-.688 1.736 2.8 2.8 0 0 1-1.672.8 6.24 6.24 0 0 1-1.769 0 24.988 24.988 0 0 1-3.336-.8c-.544-.16-1.08-.344-1.6-.464a2.157 2.157 0 0 0-.8-.064 2.664 2.664 0 0 0-.72.312c-1.872 1.16-3.696 2.68-5.912 3.264Z"/>
  <path fill="#EB9481" d="M427.794 168.259c2.824.24 6.872-4.632 8.208-8.288.096-.248-.632-2.64-1.368-5.6-.448-1.793-.896-3.793-1.176-5.649l-11.201 4.584a29.75 29.75 0 0 1 2.192 6.953c.03.266.03.534 0 .8v.128c.024 1.48.616 6.848 3.345 7.072Z"/>
  <path fill="#263238" d="M422.265 153.331a29.592 29.592 0 0 1 2.2 6.952c.03.266.03.534 0 .8a.801.801 0 0 0 0 .12c.406.003.811-.035 1.209-.112 6.736-1.176 7.384-9.841 7.432-12.185l-10.841 4.425Z"/>
  <path fill="#EB9481" d="M434.81 135.562c1.232 4.184-1.104 16.208-4.096 18.865-4.345 3.848-11.385 4.144-14.641-1.064-3.152-5.041.16-20.657 3.504-23.065 4.92-3.545 13.425-.912 15.233 5.264Z"/>
  <path fill="#263238" d="M435.45 147.034c-3.328-.176-4.56-4.32-3.392-7.392 0 0-8.913.072-8.457-7.016a6.952 6.952 0 0 1-6.088 2.448l-1.304 2.472c-.872-.376-1.512-3.048.944-4.8a8.42 8.42 0 0 1 3.432-5.272 4.794 4.794 0 0 1 5.248-.08 7.297 7.297 0 0 1 5.449-.649 6.234 6.234 0 0 1 4.144 3.929s4.24 1.376 4.592 4.552a6.442 6.442 0 0 1-1.496 5.04s.936 1.352.056 3.912c-.568 1.672-2.128 2.912-3.128 2.856Z"/>
  <path fill="#263238" d="M423.865 132.026a8.377 8.377 0 0 0-.232 1.712c-.035.57.003 1.143.112 1.704a4.46 4.46 0 0 0 1.712 2.776 7.204 7.204 0 0 0 3.129 1.216c.576.056 1.144.152 1.72.168.576.016 1.16 0 1.744 0-.576.072-1.16.112-1.744.16-.584.048-1.168 0-1.76-.056a7.205 7.205 0 0 1-3.337-1.2 4.669 4.669 0 0 1-1.776-3.048 7.097 7.097 0 0 1 .432-3.432Zm11.561-1.328a8.174 8.174 0 0 1 3.144 1.104 4.903 4.903 0 0 1 2.168 2.584c.157.554.227 1.129.208 1.704a4.94 4.94 0 0 1-.28 1.712 4.535 4.535 0 0 1-2.128 2.528 4.997 4.997 0 0 0 1.832-2.624 5.596 5.596 0 0 0 0-3.152 4.384 4.384 0 0 0-.752-1.384 6.36 6.36 0 0 0-1.2-1.064 10.327 10.327 0 0 0-2.992-1.408Zm-9.592-3.297a8.226 8.226 0 0 0-2.513-.8 4.716 4.716 0 0 0-4.592 1.777 9.12 9.12 0 0 0-1.344 2.272 6.715 6.715 0 0 1 1.096-2.448 4.887 4.887 0 0 1 2.184-1.745 4.741 4.741 0 0 1 2.744-.168 6.23 6.23 0 0 1 2.425 1.112Z"/>
  <path fill="#263238" d="M418.849 135.53a9.337 9.337 0 0 0 2.84-1.104 5.7 5.7 0 0 0 1.16-.944c.347-.377.648-.793.896-1.24a3.63 3.63 0 0 1-.656 1.44 4.296 4.296 0 0 1-1.184 1.096 5.33 5.33 0 0 1-1.48.608 4.81 4.81 0 0 1-1.576.144Zm3.84 7.416s.048.056.04.088c-.192.8-.288 1.736.376 2.16v.04c-.84-.312-.736-1.568-.416-2.288Z"/>
  <path fill="#263238" d="M423.578 142.266c1.312.184.856 2.784-.36 2.616-1.216-.168-.736-2.768.36-2.616Zm-5.633-.16s-.064 0-.072.064c-.12.8-.384 1.72-1.16 1.864.912.072 1.256-1.136 1.232-1.928Z"/>
  <path fill="#263238" d="M417.377 141.138c-1.28-.32-1.84 2.264-.656 2.56 1.184.296 1.728-2.288.656-2.56Zm7.441-.936c-.336-.152-.624-.352-.944-.536a1.75 1.75 0 0 1-.864-.728.54.54 0 0 1 .208-.648 1.356 1.356 0 0 1 1.4.104c.455.216.812.596 1 1.064a.607.607 0 0 1-.161.63.597.597 0 0 1-.639.114Zm-8.353 0c.363.001.727-.017 1.088-.056.385.029.769-.066 1.096-.272a.56.56 0 0 0 .104-.672 1.394 1.394 0 0 0-1.304-.536 2.07 2.07 0 0 0-1.376.52.594.594 0 0 0 .069.907.596.596 0 0 0 .323.109Zm5.8 10.024c-.192.2-.384.464-.68.496a2.103 2.103 0 0 1-.88-.184h-.04a1.114 1.114 0 0 0 1.048.424.853.853 0 0 0 .429-.271.856.856 0 0 0 .203-.465c.04-.008-.024-.024-.08 0Z"/>
  <path fill="#263238" d="M421.681 147.73a2.795 2.795 0 0 1-2.048.904 3.49 3.49 0 0 1-1-.128l-.352-.12a.195.195 0 0 1-.106-.079.196.196 0 0 1-.03-.129l.352-1.72c-.248.072-1.496.392-1.424.072a41.812 41.812 0 0 1 2.528-8.128.074.074 0 0 1 .041-.028.082.082 0 0 1 .049 0 .08.08 0 0 1 .054.076c-.504 2.576-1.464 5.048-2.016 7.632a5.098 5.098 0 0 1 1.368-.168c.048 0-.488 2.096-.488 2.112a3.832 3.832 0 0 0 3-.384c.08-.032.128.032.072.088Z"/>
  <path fill="#BF1B1B" d="M414.937 146.258c-1.456-.24-2.344-2.232-1.984-4.432.36-2.2 1.84-3.808 3.304-3.568 1.464.24 2.344 2.232 1.984 4.432-.36 2.2-1.84 3.808-3.304 3.568Zm1.232-7.464c-1.168-.192-2.4 1.208-2.68 3.12-.28 1.912.376 3.616 1.536 3.808 1.16.192 2.4-1.208 2.68-3.12.28-1.912-.376-3.616-1.536-3.808Zm6.505 8.936a4.06 4.06 0 0 1-3.523-2.918 4.067 4.067 0 0 1 3.666-5.185 4.061 4.061 0 0 1 3.926 2.348c.343.74.456 1.566.323 2.371a3.913 3.913 0 0 1-1.495 2.602 3.923 3.923 0 0 1-2.897.782Zm1.224-7.464a3.516 3.516 0 0 0-3.716 1.388 3.523 3.523 0 0 0 1.536 5.286 3.525 3.525 0 0 0 3.881-.819 3.527 3.527 0 0 0 .931-1.855 3.387 3.387 0 0 0-2.664-4h.032Z"/>
  <path fill="#BF1B1B" d="M419.865 142.738c-1.224-.8-1.912-.36-1.92-.36l-.16-.408c.04 0 .864-.624 2.272.336l-.192.432Zm6.857 1.08v-.48c.304 0 7.584.544 8.352.704.768.16 2.4 1.704 2.56 1.88l-.328.344a9.038 9.038 0 0 0-2.296-1.752c-.576-.128-5.672-.512-8.288-.696Z"/>
  <path fill="#EB9481" d="M431.642 146.082s2.848-3.816 4.584-2.792c1.736 1.024-.488 6.608-2.584 7.32a2.112 2.112 0 0 1-2.792-1.224l.792-3.304Z"/>
  <path fill="#263238" d="M435.546 144.874v.056c-1.472.544-2.28 1.872-2.856 3.256a1.157 1.157 0 0 1 1.314-.504c.162.047.311.129.438.24 0 0 0 .088-.04.072a1.316 1.316 0 0 0-1.448.408 7.003 7.003 0 0 0-.712 1.136c-.072.128-.312.056-.256-.096.04-1.888 1.568-4.44 3.56-4.568Zm-11.737 19.921h.04c-.144 2.304-.336 7.656 3.281 7.336a7.674 7.674 0 0 0 3.904-1.928 20.538 20.538 0 0 0 3.072-3.104 29.892 29.892 0 0 0 2.872-4c0-.064.12 0 .088.064-.864 1.408-1.6 2.872-2.576 4.2a18.034 18.034 0 0 1-3.32 3.44 7.723 7.723 0 0 1-4.152 1.88 2.92 2.92 0 0 1-1.877-.576 2.924 2.924 0 0 1-1.092-1.632 12.941 12.941 0 0 1-.24-5.68Z"/>
  <path fill="#EBEBEB" d="m424.609 160.659 2.793 6.816 8.464-8.712 2.4 2.76s-8.224 13.816-8.28 13.192l-2.856-5.88-4.065 4.168.264-10.304 1.28-2.04Z"/>
  <path fill="#263238" d="M422.93 167.867c.104-1.696.152-3.416.336-5.104 0-.015.005-.029.016-.04a.057.057 0 0 1 .079 0 .056.056 0 0 1 .017.04c.352 1.6-.064 8.136-.048 9.688.168-.176 3.744-3.64 3.784-3.584.616.936 2.712 5.216 2.856 5.6 1.304-2.2 6.824-10.848 8.368-12.928a.063.063 0 0 1 .035-.029.059.059 0 0 1 .045.005.06.06 0 0 1 .029.035.059.059 0 0 1-.005.045c-1.144 2.32-8.28 13.736-8.384 13.704a64.653 64.653 0 0 1-2.992-6.216c-.608.752-4.216 4.656-4.232 4.4a54.237 54.237 0 0 1 .096-5.616ZM14 419.4l59.256-.192 59.248-.072L251 419l118.496.136 59.248.064 59.256.2-59.256.192-59.248.072L251 419.8l-118.496-.136-59.248-.072L14 419.4Zm69.227-268.353c-2.928-.512-10.297 1.888-12.617 5.872-2.32 3.984-1.832 10.272-.536 10.784 1.297.512 6.809-.16 10.505-2.4 3.696-2.24 4.096-14.008 2.648-14.256Z"/>
  <path fill="#263238" d="M83.235 151.063c.096 0 .104-.192 0-.184-2.544.048-5.224 1.024-7.608 1.832a14.682 14.682 0 0 0-5.424 2.8 6.816 6.816 0 0 0-2.257 5.28 14.083 14.083 0 0 0 1.648 6.872c0 .056.145 0 .12 0-1.352-4.176-2.608-9.296 1.465-12.368 3.456-2.68 8.008-3.168 12.056-4.232Z"/>
  <path fill="#263238" d="M70.458 166.583c-2.52.44-8.896 5.601-9.792 10.401-.896 4.8 3.344 11.824 4.608 12.288 1.264.464 6.664-4.408 8.344-7.888 1.12-2.32 0-4.928-.631-7.528-.993-3.817-2.113-7.337-2.529-7.273Z"/>
  <path fill="#263238" d="M75.107 180.744c.536-4.952-2.465-9.689-4.337-14.057 0-.048-.096 0-.08 0 1.112 4.216 3.849 7.929 4.12 12.377a8.151 8.151 0 0 1-2.752 6.992c-1.832 1.488-4.168 2.24-6.328 3.112-.136.056 0 .264.104.216 4.304-1.592 8.72-3.536 9.273-8.64Zm-5.177-13.681a.111.111 0 0 0 .04-.141.112.112 0 0 0-.136-.059c-3.528 1.872-7.76 4.552-9.528 8.297-1.92 4.048.36 8.096 2.4 11.584h.072c-2-3.544-4.136-8-1.928-11.92 1.88-3.441 5.752-5.945 9.08-7.761Z"/>
  <path fill="#263238" d="M65.73 188.664c1.744.8 4.376 3.528 5.144 6.896 1.296 5.761 3.425 4.489 9.865 5.673 5.44.992 6.928 6.936 4.24 10.072 0 0 1.448-3.8-2.272-5.408-4.448-1.92-14.08 3.2-19.36-2.632-6.833-7.537 2.383-14.601 2.383-14.601Z"/>
  <path fill="#263238" d="M68.17 191.192c-.072-.08.048-.208.128-.136a8.578 8.578 0 0 1 1.896 2.4c.616 1.2.72 2.536 1.24 3.761 1.344 3.12 5.185 2.792 8 2.832 3.76.048 6.897 2.16 7.361 6.088a.047.047 0 0 1-.021.061.046.046 0 0 1-.046 0 .047.047 0 0 1-.017-.016.047.047 0 0 1-.004-.045 6.691 6.691 0 0 0-4.304-5.344c-2.248-.8-4.688-.168-6.984-.584-1.6-.28-3.2-.856-4-2.328a13.09 13.09 0 0 1-.857-2.625 9.274 9.274 0 0 0-2.392-4.064Z"/>
  <path fill="#263238" d="M64.786 189.424s.088 0 .056.056c-2 2.216-4.12 4.448-4.552 7.544-.472 3.329 1.416 6.529 4.12 8.369 3.032 2.064 6.072.8 9.28 0 2.313-.592 4.689-1.008 7.033-.336.072 0 0 .136 0 .128-3.752-.648-7.08.648-10.68 1.448a7.314 7.314 0 0 1-7.385-2.448c-4.544-4.84-2.296-10.801 2.128-14.761Z"/>
  <path fill="#BF1B1B" d="M80.89 148.487c-.855-.992-2.4.352-1.52 1.344.88.992 2.369-.36 1.52-1.344Z"/>
  <path fill="#BF1B1B" d="M81.747 150.159c-.848-.984-2.4.36-1.512 1.344.888.984 2.368-.312 1.512-1.344Z"/>
  <path fill="#BF1B1B" d="M82.875 151.679c-.856-.984-2.4.352-1.52 1.344.88.992 2.392-.352 1.52-1.344Z"/>
  <path fill="#BF1B1B" d="M84.195 152.991c-.848-.984-2.4.36-1.512 1.344.888.984 2.368-.352 1.512-1.344Z"/>
  <path fill="#BF1B1B" d="M85.74 154.087c-.857-.984-2.401.36-1.52 1.344.88.984 2.367-.352 1.52-1.344Z"/>
  <path fill="#BF1B1B" d="M87.387 154.863c-.856-.984-2.4.352-1.52 1.344.88.992 2.368-.352 1.52-1.344Z"/>
  <path fill="#D3766A" d="M149.606 420.209c-1.848.576-55.859-.592-57.827-1.904-.76-.488 3.873-51.65 3.873-51.65l34.249.656-3.896 34.217s19.928 9.449 21.945 11.121c2.016 1.672 3.512 6.984 1.656 7.56Z"/>
  <path fill="#263238" d="M149.614 420.209c-1.849.576-55.867-.592-57.835-1.912-.24-.144-.312-5.344.552-12.104 9.793 1.64 44.746 7.008 47.474 5.408 1.896-1.12.216-2.864-1.344-4 4.464 2.224 8.632 4.36 9.488 5.08 2.009 1.64 3.505 6.96 1.665 7.528Z"/>
  <path fill="#37474F" d="m126.973 393.328-33.602-.472s6.657-80.539 6.4-82.091c-.4-1.968-24.256-95.532-24.256-95.532h32.097s25.305 87.204 26.217 95.596c1.472 13.568-6.856 82.499-6.856 82.499Z"/>
  <path fill="#263238" d="M96.364 385.264c1.992-.144 4-.12 5.992-.144 1.992-.024 4 0 5.984 0 4 .04 8 .104 12 .216 1.088 0 2.177.064 3.273.112s2.328.256 3.488.296c.019 0 .037.007.051.021a.074.074 0 0 1 .021.051.075.075 0 0 1-.021.051.075.075 0 0 1-.051.021c-.984 0-1.96.152-2.944.184s-2.032 0-3.049 0h-5.984c-4 0-8-.088-11.96-.248-2.248-.096-4.52-.12-6.76-.352a.11.11 0 0 1-.08-.016.109.109 0 0 1-.044-.068.105.105 0 0 1 .084-.124ZM82.579 222.793c2.872 10.169 5.496 20.425 8.064 30.674a18937.57 18937.57 0 0 1 7.689 30.769c1.28 5.136 2.557 10.267 3.832 15.392 1.24 4.993 2.688 10.017 2.992 15.201.304 5.184-.352 10.536-.8 15.761-.448 5.224-.88 10.496-1.344 15.752-.92 10.497-1.8 21.009-2.944 31.49-.136 1.312-.28 2.624-.416 3.936 0 .112-.184.112-.176 0 .696-10.513 1.424-21.017 2.264-31.514.416-5.253.842-10.504 1.28-15.752.432-5.24 1.04-10.505 1.208-15.761.168-5.256-.8-10.4-2.08-15.504-1.28-5.105-2.52-10.041-3.776-15.065a12683.638 12683.638 0 0 1-7.68-30.769c-2.849-11.489-5.697-22.993-8.209-34.562a.05.05 0 0 1-.003-.04.063.063 0 0 1 .01-.019.081.081 0 0 1 .017-.013.047.047 0 0 1 .02-.005.037.037 0 0 1 .02.003.044.044 0 0 1 .02.01c.004.005.009.01.012.016Z"/>
  <path fill="#263238" d="M75.515 215.241s10.24 40.13 17.4 68.379l13.657-68.379H75.515Z"/>
  <path fill="#D3766A" d="M109.276 420.329c-1.848.584-55.858-.584-57.826-1.904-.76-.488 2.056-51.674 2.056-51.674l33.801.656-1.6 34.249s19.929 9.441 21.945 11.121c2.016 1.68 3.472 6.984 1.624 7.552Z"/>
  <path fill="#263238" d="M109.276 420.329c-1.848.576-55.858-.584-57.826-1.904-.24-.152-.184-5.208 0-12.112 9.792 1.64 45.29 7.016 48.002 5.408 1.896-1.112.224-2.856-1.336-4 4.464 2.224 8.632 4.368 9.488 5.088 2.016 1.632 3.52 6.952 1.672 7.52Z"/>
  <path fill="#37474F" d="M106.572 215.193s-.936 15.345-4.6 27.465c-.296 1-.616 1.984-.952 2.928a56.773 56.773 0 0 0-9.313 4.641s-2.312 58.69-2.272 62.338c.152 13.673-3.36 80.091-3.36 80.091l-33.913-.328s3.52-75.107 3.536-80.099c0-8 7.112-96.996 7.112-96.996l43.762-.04Z"/>
  <path fill="#263238" d="m99.164 235.834.384-2.544c.24-1.6.56-3.104.8-4.656.616-3.512 1.264-7.041 2.04-10.529 0-.08.168-.064.152 0a93.147 93.147 0 0 1-.496 4.216c-.2 1.401-.336 2.809-.536 4.209-.392 2.776-.8 5.6-1.248 8.328-.184 1.064-.848 2.976.688 3.304 1.208.264 2.104-.928 2.456-1.928.374-1.255.642-2.54.8-3.84.256-1.4.472-2.808.672-4.216.432-3.072.912-6.137 1.408-9.193 0-.088.16-.064.152 0a92.81 92.81 0 0 1-.68 9.409c-.2 1.496-.416 2.984-.672 4.472a15.755 15.755 0 0 1-1.032 4.16 3.373 3.373 0 0 1-2.536 2.04h-.072a.106.106 0 0 1 .048.088c0 .504 0 1.008-.056 1.504s-.152.976-.248 1.464c-.09.497-.215.986-.376 1.464-.088.224-.168.448-.272.672-.104.224-.264.4-.4.616-.048.088-.152 0-.16-.056v-.24a3.94 3.94 0 0 1 0-.432c.035-.239.083-.477.144-.712.104-.472.232-.944.36-1.416.128-.472.224-.936.344-1.408.12-.472.288-.952.4-1.44v-.048a2.215 2.215 0 0 1-2.144-1.344 3.903 3.903 0 0 1 .08-1.944Zm-10.201 15.593a27.103 27.103 0 0 1 3.2-2.104 30.756 30.756 0 0 1 3.64-1.889c2.448-1.064 4.977-1.792 7.513-2.624.072 0 .12.096.048.128-2.448.976-4.8 2.272-7.2 3.433a65.914 65.914 0 0 1-3.537 1.6c-1.184.528-2.4 1.144-3.592 1.6-.072.056-.144-.088-.072-.144ZM69.826 230.05a21.26 21.26 0 0 0 5.113-.688c.8-.2 1.528-.448 2.28-.696a5.976 5.976 0 0 0 2.064-1.032c1.16-1.008 1.704-2.584 2.208-4a37.61 37.61 0 0 0 1.336-4.801c0-.019.008-.037.021-.051a.074.074 0 0 1 .051-.021.07.07 0 0 1 .05.021.073.073 0 0 1 .022.051 18.732 18.732 0 0 1-.696 5.489c-.416 1.512-.976 3.2-2.2 4.264a8.59 8.59 0 0 1-4.688 1.712 21.603 21.603 0 0 1-5.6-.072.095.095 0 0 1-.037-.045.097.097 0 0 1 .077-.131ZM58.682 351.038a5474.606 5474.606 0 0 1 1.824-32.145c1.232-21.321 2.4-42.649 3.768-64.002.8-12.001 1.536-24.057 2.48-36.074a.103.103 0 0 1 .1-.075.104.104 0 0 1 .1.075c-.88 21.497-2.16 42.922-3.4 64.379-1.24 21.457-2.504 42.626-3.88 63.938-.72 12.065-1.672 24.065-2.4 36.066a.072.072 0 0 1-.01.065.064.064 0 0 1-.025.022.064.064 0 0 1-.033.008.064.064 0 0 1-.033-.008.064.064 0 0 1-.026-.022.072.072 0 0 1-.01-.065c.553-10.721.937-21.441 1.545-32.162Zm-4.984 34.722c1.984-.144 4-.12 5.984-.144 1.984-.024 4 0 5.984 0 4 .04 8 .104 12 .216 1.089 0 2.185.064 3.273.112s2.328.256 3.488.296a.072.072 0 0 1 .072.072.073.073 0 0 1-.021.051.074.074 0 0 1-.051.021c-.976 0-1.96.152-2.944.184s-2.032 0-3.048 0h-5.977c-4 0-8-.08-12-.248-2.256-.096-4.528-.12-6.768-.344a.116.116 0 0 1-.041-.01.1.1 0 0 1-.034-.025.097.097 0 0 1-.023-.036.109.109 0 0 1 .028-.116.09.09 0 0 1 .036-.022.1.1 0 0 1 .042-.007Z"/>
  <path fill="#D3766A" d="M92.98 180.512c3.255 8.08 16.192 34.201 24.688 36.049 5.601 1.208 28.105-.976 32.002-6.304 1.688-2.32-1.168-18.513-4.177-17.873-3.008.64-21.064 3.032-23.28 2.4-2.217-.632-18.841-19.784-25.057-24.537-10.72-8.208-5.929 5.913-4.177 10.265Z"/>
  <path fill="#BF1B1B" d="m112.692 184.504-14.16 8.376s-5.96-11.344-8.289-18.768c-2.328-7.425-.328-10.817 8.217-3.433a162.447 162.447 0 0 1 14.232 13.825Z"/>
  <path fill="#263238" d="M97.924 189.968a140.91 140.91 0 0 1 5.736-3.944c.952-.624 1.904-1.264 2.872-1.864.968-.6 2.048-1.184 3.048-1.808a.079.079 0 0 1 .023-.014.065.065 0 0 1 .028-.003.079.079 0 0 1 .026.008.072.072 0 0 1 .02.019.066.066 0 0 1 .009.053.056.056 0 0 1-.013.024.058.058 0 0 1-.021.017c-.944.64-1.84 1.344-2.784 1.992-.944.648-1.968 1.296-2.952 1.936a142.796 142.796 0 0 1-5.928 3.672c-.056.032-.12-.048-.064-.088Z"/>
  <path fill="#BF1B1B" d="m111.948 225.498-3.2-18.057s4.92-8.584 2.064-14.753c-1.44-3.12-14.08-22.545-19.4-26.401-4.993-3.624-12.241.248-14.938 3.088-10.4 10.945-13.168 31.13-16.896 60.715l52.37-4.592Z"/>
  <path fill="#263238" d="M111.676 194.48a13.97 13.97 0 0 0-1.728-3.664c-.248-.424-.8-1.304-1.472-2.328a14.704 14.704 0 0 0-.64-1.448c-.395-.694-.75-1.41-1.064-2.144 0-.072-.144 0-.104.048.335.702.634 1.42.896 2.152-1.128-1.712-2.312-3.472-2.824-4.192 0-.064-.136 0-.096.056 1.08 1.416 4.624 7.624 5.48 9.2a10.657 10.657 0 0 1 1.24 5.057 23.289 23.289 0 0 1-.704 5.416c-.048.144.104.224.16.08.521-1.28.86-2.627 1.008-4a11.814 11.814 0 0 0-.152-4.233Z"/>
  <path fill="#455A64" d="M90.5 182.104s-3.2-3.544-.585-5.52c2.616-1.976 5.16 2.04 5.16 2.04l-4.576 3.48Z"/>
  <path fill="#455A64" d="m115.26 205.121.8 4.6.264 1.512-1.4-.648-4.224-1.976-20.289-26.649 4.576-3.48 20.289 26.649-.016-.008Z"/>
  <path fill="#37474F" d="m116.044 209.721.264 1.512-1.4-.648 1.136-.864Z"/>
  <path fill="#263238" d="m95.233 178.043-5.34 4.066.804 1.057 5.34-4.067-.804-1.056Zm.892 1.17-5.34 4.067.805 1.056 5.34-4.066-.805-1.057Zm-4.53 5.123 1.72-1.312 6.392 10.36-.663.448-7.449-9.496Z"/>
  <path fill="#D3766A" d="M71.674 175.192c-12.8 16-26.745 42.617-19.768 47.681 6.4 4.617 28.217-1.504 41.793-7.808 2.585-1.2-9.6-24.001-12.224-22.401a76.222 76.222 0 0 1-8.56 4.512c-.753.256 3.12-5.112 7.016-17.688 3.968-12.817-.92-13.505-8.257-4.296Z"/>
  <path fill="#D3766A" d="M115.196 188.792c.184 2.72-6.568 2.6-6.568 2.6a5.054 5.054 0 0 1 2.216 2.616c.632 1.976-2.192 3.833-2.192 3.833a6.227 6.227 0 0 1 1.896 3.128c.416 1.952-2.168 4.232-2.168 4.232a5.422 5.422 0 0 1-.064 3.8c-1.4 3.2-6.768 3.592-10.04 4.496a71.739 71.739 0 0 0-10.657 4.096l-7.68-24.089s13.849-9.424 17.88-9.48c3.401-.032 17.097.6 17.377 4.768Z"/>
  <path fill="#263238" d="M108.564 191.312c-3.616-.8-7.432-.8-11.104-.664a.064.064 0 0 0-.064.064c0 .017.006.034.018.046a.063.063 0 0 0 .046.018c3.656-.136 7.44.704 11.088.712.011.001.023 0 .034-.003a.094.094 0 0 0 .031-.017.082.082 0 0 0 .021-.027.075.075 0 0 0 .01-.033.08.08 0 0 0-.004-.034.087.087 0 0 0-.043-.052.09.09 0 0 0-.033-.01Zm-.024 6.281a9.528 9.528 0 0 0-2.536 0c-.896.072-1.784.152-2.68.248-1.784.192-3.568.432-5.337.712-.08 0-.08.136 0 .128 1.785-.184 3.569-.352 5.353-.464.896-.056 1.792-.112 2.68-.152.849.012 1.696-.068 2.528-.24a.132.132 0 0 0 .07-.119.129.129 0 0 0-.078-.113Zm-.232 7.6a6.83 6.83 0 0 0-2.28.136l-2.4.304c-1.6.192-3.256.384-4.888.52-.08 0-.072.136 0 .128 1.656-.128 3.32-.24 4.976-.384.8-.064 1.6-.144 2.4-.224.749 0 1.492-.135 2.192-.4a.064.064 0 0 0 .016-.017.046.046 0 0 0 .005-.023.044.044 0 0 0-.021-.04Z"/>
  <path fill="#BF1B1B" d="m75.499 195.44-13.889-8.8s7.416-10.448 12.977-15.889c5.56-5.44 9.488-5.2 6.784 5.769a162.272 162.272 0 0 1-5.872 18.92Z"/>
  <path fill="#263238" d="M63.93 184.792a168.47 168.47 0 0 1 6.112 3.32c.992.568 1.992 1.128 2.968 1.72.977.592 1.985 1.28 2.993 1.888.072.048 0 .16-.056.12-1-.552-2.04-1.032-3.04-1.6-1-.568-2.049-1.16-3.065-1.752-2.016-1.152-4-2.36-5.96-3.616-.056-.08-.008-.144.048-.08Zm11.569 10.72c.663-2.336 1.6-4.576 2.4-6.872.8-2.296 1.6-4.632 2.272-6.96a.047.047 0 0 1-.004-.023c0-.008.003-.016.007-.023a.058.058 0 0 1 .018-.016.06.06 0 0 1 .023-.005.047.047 0 0 1 .04.021.052.052 0 0 1 .008.023.059.059 0 0 1-.004.023c-.288 1.176-.552 2.4-.88 3.536-.16.576-.344 1.16-.528 1.728.12-.208.232-.416.36-.624a21.1 21.1 0 0 1 1.264-1.776s.072 0 .056.04a21.07 21.07 0 0 1-1.048 1.912c-.272.448-.576.88-.864 1.32l-.344.976a39.6 39.6 0 0 1-2.649 6.744c-.04.08-.144.048-.127-.024Zm-3.129 1.824c-3.544 1.841-7.552 4.569-9.6 6.729-.064.064 0 .168.08.112 2.048-1.6 8.129-5.312 9.697-6.36.488-.328.84-1.025-.176-.481Z"/>
  <path fill="#EBEBEB" d="m134.677 218.033-28.289.608 12.432-36.577 28.289-.608-12.432 36.577Z"/>
  <path fill="#37474F" d="m136.613 217.993-28.289.6 12.432-36.569 28.29-.608-12.433 36.577Z"/>
  <path fill="#C7C7C7" d="M123.765 181.96a2.532 2.532 0 0 1-1.185 1.504c-.264.152-.344-.2-.08-.344.367-.214.65-.547.8-.944 0-.072.048-.144.064-.208.06-.226.06-.463 0-.688a.427.427 0 0 0-.16-.248h-.056a.415.415 0 0 0-.192 0 .811.811 0 0 0-.32.216 1.827 1.827 0 0 0-.28.384l-.12.208v.048a.29.29 0 0 0 0 .072.262.262 0 0 0 0 .056h-.4c.089-.253.213-.493.368-.712a1.538 1.538 0 0 1 1.072-.712.633.633 0 0 1 .649.568c.013.276-.042.551-.16.8Zm2.216-.048a2.534 2.534 0 0 1-1.184 1.504c-.264.152-.344-.2-.08-.344.364-.216.646-.549.8-.944a1 1 0 0 0 .056-.208 1.276 1.276 0 0 0 0-.688.451.451 0 0 0-.168-.248h-.056a.358.358 0 0 0-.2 0 .798.798 0 0 0-.32.216c-.149.185-.28.383-.392.592v.048a.534.534 0 0 0 0 .08.098.098 0 0 0 0 .048h-.4c.089-.253.212-.493.368-.712a1.524 1.524 0 0 1 1.072-.712.617.617 0 0 1 .64.568c.024.274-.023.549-.136.8Zm2.208-.048a2.46 2.46 0 0 1-1.176 1.504c-.264.152-.344-.2-.088-.344.366-.215.648-.548.8-.944 0-.064.04-.136.056-.208a1.276 1.276 0 0 0 0-.688.451.451 0 0 0-.168-.248.132.132 0 0 1-.056 0 .358.358 0 0 0-.2 0 .798.798 0 0 0-.32.216 1.979 1.979 0 0 0-.272.384 1.65 1.65 0 0 0-.12.208v.056a.29.29 0 0 0 0 .072v.048h-.408c.092-.252.216-.491.368-.712a1.585 1.585 0 0 1 1.072-.712.627.627 0 0 1 .648.568c.021.274-.026.548-.136.8Zm2.216-.048a2.46 2.46 0 0 1-1.176 1.504c-.272.152-.352-.2-.088-.344a1.856 1.856 0 0 0 .864-1.144 1.305 1.305 0 0 0 0-.696.432.432 0 0 0-.16-.248h-.088a.34.34 0 0 0-.2 0 .833.833 0 0 0-.32.216c-.108.115-.2.244-.272.384-.047.068-.087.14-.12.216v.048a.29.29 0 0 0 0 .072v.048h-.4c.092-.249.216-.486.368-.704a1.54 1.54 0 0 1 1.072-.72.624.624 0 0 1 .648.568c.023.273-.02.548-.128.8Zm2.216-.04a2.53 2.53 0 0 1-1.184 1.504c-.264.144-.344-.208-.08-.344a1.91 1.91 0 0 0 .864-1.152 1.39 1.39 0 0 0 0-.696.391.391 0 0 0-.16-.24h-.056a.315.315 0 0 0-.192 0 .833.833 0 0 0-.32.216 2.03 2.03 0 0 0-.28.384l-.12.216v.048a.29.29 0 0 0 0 .072v.048h-.4a2.83 2.83 0 0 1 .368-.704 1.596 1.596 0 0 1 1.072-.72.634.634 0 0 1 .648.568 1.71 1.71 0 0 1-.16.8Zm2.256-.048a2.554 2.554 0 0 1-1.184 1.504c-.264.144-.344-.208-.08-.344.367-.217.649-.553.8-.952a.93.93 0 0 0 .056-.2 1.305 1.305 0 0 0 0-.696.43.43 0 0 0-.16-.24h-.056a.358.358 0 0 0-.2 0 .906.906 0 0 0-.32.216 1.979 1.979 0 0 0-.272.384 1.748 1.748 0 0 0-.12.216v.048a.29.29 0 0 0 0 .072.097.097 0 0 0 0 .048h-.4a2.83 2.83 0 0 1 .368-.704 1.608 1.608 0 0 1 1.072-.72.617.617 0 0 1 .64.568c.022.274-.028.55-.144.8Zm2.168-.048a2.513 2.513 0 0 1-1.176 1.504c-.264.144-.344-.2-.08-.344a1.744 1.744 0 0 0 .856-1.152 1.305 1.305 0 0 0 0-.696.397.397 0 0 0-.168-.24h-.056a.358.358 0 0 0-.2 0 .906.906 0 0 0-.32.216 2.023 2.023 0 0 0-.272.384c-.048.072-.08.144-.12.216v.048a.29.29 0 0 0 0 .072v.048h-.408c.092-.249.216-.486.368-.704a1.543 1.543 0 0 1 1.072-.712.623.623 0 0 1 .648.56c.017.274-.032.549-.144.8Zm2.216-.048a2.475 2.475 0 0 1-1.176 1.504c-.272.152-.352-.2-.088-.344a1.847 1.847 0 0 0 .864-1.152 1.285 1.285 0 0 0 0-.696.415.415 0 0 0-.16-.24h-.048a.298.298 0 0 0-.2 0 .69.69 0 0 0-.32.216c-.11.11-.201.237-.272.376-.048.072-.08.144-.12.216v.048l-.04.072v.048h-.424c.092-.249.216-.486.368-.704a1.516 1.516 0 0 1 1.072-.712.623.623 0 0 1 .648.56 1.7 1.7 0 0 1-.104.808Zm2.216-.04a2.507 2.507 0 0 1-1.184 1.504c-.264.152-.344-.2-.08-.344a1.847 1.847 0 0 0 .864-1.152 1.36 1.36 0 0 0 0-.688.427.427 0 0 0-.16-.248h-.056a.276.276 0 0 0-.192 0 .69.69 0 0 0-.32.216 1.604 1.604 0 0 0-.28.384c0 .064-.072.136-.12.208v.048a.29.29 0 0 0 0 .072v.048h-.4c.091-.25.215-.487.368-.704a1.524 1.524 0 0 1 1.072-.712.623.623 0 0 1 .648.56c.014.278-.041.556-.16.808Zm2.2-.056a2.526 2.526 0 0 1-1.184 1.504c-.264.152-.344-.2-.08-.344a1.878 1.878 0 0 0 .864-1.152 1.36 1.36 0 0 0 0-.688.479.479 0 0 0-.16-.248h-.056a.358.358 0 0 0-.2 0 .798.798 0 0 0-.32.216 1.592 1.592 0 0 0-.272.384 1.65 1.65 0 0 0-.12.208v.048a.29.29 0 0 0 0 .072.13.13 0 0 0 0 .048h-.4c.091-.25.214-.487.368-.704a1.524 1.524 0 0 1 1.072-.712.614.614 0 0 1 .64.56c.021.278-.032.556-.152.808Zm2.224-.048a2.475 2.475 0 0 1-1.176 1.504c-.264.152-.344-.2-.08-.344a1.729 1.729 0 0 0 .856-1.152 1.257 1.257 0 0 0 0-.688.441.441 0 0 0-.168-.248h-.056a.358.358 0 0 0-.2 0 .811.811 0 0 0-.32.216 1.62 1.62 0 0 0-.272.384 1.938 1.938 0 0 0-.12.208v.048a.29.29 0 0 0 0 .072v.048h-.4c.086-.255.21-.495.368-.712a1.522 1.522 0 0 1 1.064-.712.623.623 0 0 1 .648.56c.028.28-.021.562-.144.816Zm2.216-.048a2.475 2.475 0 0 1-1.176 1.504c-.272.152-.352-.2-.088-.344.367-.214.65-.547.8-.944 0-.072.048-.144.064-.208.06-.226.06-.463 0-.688a.489.489 0 0 0-.168-.248h-.088a.423.423 0 0 0-.2 0 .811.811 0 0 0-.32.216 1.573 1.573 0 0 0-.272.384 1.938 1.938 0 0 0-.12.208v.048a.29.29 0 0 0 0 .072.175.175 0 0 0 0 .056h-.472c.093-.252.216-.491.368-.712a1.538 1.538 0 0 1 1.072-.712.62.62 0 0 1 .648.568c.05.266.033.541-.048.8Z"/>
  <path fill="#D3766A" d="M147.237 189.688c1.336 3.128 4.849 7.088 5.057 9.601a2.923 2.923 0 0 1-1.737 3s2.457 1.344 2.265 3.656c-.104 1.2-2.097 2.088-2.097 2.088a3.455 3.455 0 0 1 1.601 3.2c-.24 1.6-2.201 2.28-2.201 2.28s1.32 1.976.544 3.56c-1.6 3.2-15.728 2.656-17.712-2.64-.92-2.472 2.528-2.152 2.528-2.152s-4.848-1.664-4.8-4.584c.048-2.92 4.496-2.224 4.496-2.224s-4.664-1.64-4.304-4.68c.36-3.152 4.704-1.696 4.704-1.696s-3.064-2.257-2.272-4.513c1.32-3.72 7.088 1.256 10.232.64l1.92-5.064 1.776-.472Z"/>
  <path fill="#D3766A" d="M149.893 194.264c-1.008-3.072 2.889-6.664 2.353-9.736-.728-4.16-5.537-.304-6.801 5.648l-.176 4.8 4.624-.712Z"/>
  <path fill="#263238" d="M149.853 213.673a.04.04 0 0 1 .029.012.041.041 0 0 1 0 .056.04.04 0 0 1-.029.012 24.552 24.552 0 0 1-14.544-1.448c-.144-.064-.096-.328.072-.288a50.103 50.103 0 0 0 14.472 1.656Zm.945-5.6c.056 0 .056.088 0 .096a23.036 23.036 0 0 1-15.769-2.56c-.168-.104-.216-.352 0-.256 3.312 1.688 11.193 2.928 15.769 2.72Zm-15.521-9.28c4.704 2.608 9.768 3.44 15.088 3.552.064 0 .056.096 0 .112-2.616.656-6 .232-8.608-.32a14.208 14.208 0 0 1-6.568-3.2c-.072-.04-.008-.2.088-.144Z"/>
  <path fill="#D3766A" d="M82.275 165.495c.2.856 6.4 6.281 10.344 6.097 1.272-.056-.92-6.881-.92-6.881l.12-.512 1.6-7.2-8.44-5.432-1.224-.72s-.312 2-.672 4.488c0 .112 0 .232-.056.352-.056.12-.048.272-.064.408a25.5 25.5 0 0 0-.168 1.128c-.048.376-.08.568-.112.872-.032.304-.072.6-.112.904a46.95 46.95 0 0 0-.296 6.496Z"/>
  <path fill="#263238" d="M83.099 155.335a14.815 14.815 0 0 0 8.72 8.864l1.6-7.2-8.44-5.432-1.224-.72s-.296 2-.656 4.488Z"/>
  <path fill="#D3766A" d="M104.54 147.991c-.968 12.904-8.8 13.784-11.593 13.6-2.52-.192-11.096-1.168-11.472-14.104-.376-12.937 5.936-16.569 11.737-16.433 5.8.136 12.288 4.024 11.328 16.937Z"/>
  <path fill="#263238" d="M81.819 146.591c3.032.52 3.792-4.281 3.792-4.281s3.504.24 4.664-5.288a8.56 8.56 0 0 0 5.68 5.08c.969.304-1.936-2.8-1.936-2.8s3.393 4.248 11.001 4.08c.536 0 .688-8-4.672-11.584-5.36-3.584-10.833-2.936-15.009.136a7.123 7.123 0 0 0-4.608 4.856c-1.128 4-.096 9.601 1.088 9.801Z"/>
  <path fill="#D3766A" d="M83.675 147.735s-2.16-4.441-4.128-3.745c-1.968.696-.8 6.825 1.176 8.001a2.19 2.19 0 0 0 2.493-.05c.24-.173.442-.393.595-.646l-.136-3.56Z"/>
  <path fill="#263238" d="M79.915 145.734s-.048 0 0 .056c1.392.849 1.952 2.353 2.264 3.881a1.202 1.202 0 0 0-1.235-.774c-.174.016-.342.07-.493.158-.048 0 0 .088 0 .08a1.357 1.357 0 0 1 1.392.704c.212.413.381.847.504 1.296.048.144.304.112.272-.048v-.04c.352-1.888-.696-4.784-2.704-5.313Zm22.361-.288c-.296-.08-.56-.2-.8-.304a1.43 1.43 0 0 1-.8-.472.461.461 0 0 1 .08-.56 1.14 1.14 0 0 1 1.152-.104c.4.117.743.38.96.736a.486.486 0 0 1-.297.719.48.48 0 0 1-.295-.015Zm-8.265-1.24a8.05 8.05 0 0 0 .864-.056c.316.023.631-.058.896-.232a.462.462 0 0 0 .08-.56 1.152 1.152 0 0 0-1.08-.424 1.655 1.655 0 0 0-1.12.44.493.493 0 0 0-.102.538.484.484 0 0 0 .462.294Zm1.376 3.505c0-.04-.072 0-.08.064-.072.88-.304 1.872-1.136 2.072v.048c.984-.024 1.288-1.344 1.216-2.184Z"/>
  <path fill="#263238" d="M94.715 146.703c-1.4-.272-1.84 2.536-.544 2.792 1.296.256 1.712-2.56.544-2.792Z"/>
  <path fill="#263238" d="M94.14 146.767c-.272.12-.56.36-.856.344-.297-.016-.56-.36-.737-.672h-.055c-.097.536 0 1.12.591 1.288.593.168.969-.256 1.185-.8.04-.048-.016-.208-.128-.16Zm5.992 1.64s.056.048.056.08c-.176.872-.224 1.888.512 2.304v.048c-.952-.288-.872-1.648-.568-2.432Z"/>
  <path fill="#263238" d="M101.06 147.623c1.416.128 1.056 2.952-.256 2.832-1.313-.12-.936-2.936.256-2.832Z"/>
  <path fill="#263238" d="M101.62 147.887c.208.176.392.472.656.528.264.056.576-.224.8-.488-.056.544-.304 1.088-.8 1.12-.496.032-.8-.472-.8-1.024-.032-.032.064-.208.144-.136Zm-7.305 6.856c.16.24.312.56.616.648.322.067.654.067.976 0 0 0 .048 0 0 .056a1.203 1.203 0 0 1-1.192.24.936.936 0 0 1-.528-.904c.032-.072.104-.08.128-.04Zm4.105-2.624a18.934 18.934 0 0 1-.105 1.944c0 .056-.16.064-.367 0a2.968 2.968 0 0 1-2.68-1.504.064.064 0 0 1-.005-.044.066.066 0 0 1 .026-.037.065.065 0 0 1 .043-.011.07.07 0 0 1 .04.02 4.453 4.453 0 0 0 2.56 1.152c.064-.16-.064-2.272 0-2.264.468.11.92.282 1.344.512.104-2.76-.24-5.528-.096-8.281a.08.08 0 0 1 .08-.08.08.08 0 0 1 .056.024.08.08 0 0 1 .024.056c.46 2.95.624 5.938.488 8.921.016.376-1.177-.272-1.409-.408Z"/>
  <path fill="#263238" d="M97.588 153.719a3.21 3.21 0 0 1-1.368.848 1.412 1.412 0 0 1-.873 0c-.608-.232-.568-.8-.4-1.288.092-.253.213-.495.36-.72a4.11 4.11 0 0 0 2.28 1.16Z"/>
  <path fill="#FF9CBD" d="M96.22 154.567a1.412 1.412 0 0 1-.873 0c-.608-.232-.568-.8-.4-1.288a1.487 1.487 0 0 1 1.272 1.288Z"/>
  <path fill="#BF1B1B" d="m91.675 164.695-1.744 5.912-7.768-6.528-1.784 2.496s8 10.801 8 10.273l1.88-5.128 3.712 3.096-1.088-8.553-1.208-1.568Z"/>
  <path fill="#263238" d="M93.715 170.551c-.232-1.4-.416-2.824-.712-4.216 0-.048-.088-.064-.096 0-.152 1.392.744 6.769.864 8.065-.16-.136-3.432-2.704-3.456-2.656-.432.8-1.816 4.568-1.904 4.904-1.272-1.72-6.096-7.929-7.552-9.529a.05.05 0 0 0-.032-.02.052.052 0 0 0-.036.008.05.05 0 0 0-.02.032.047.047 0 0 0 .008.036c1.152 1.832 7.552 10.209 7.632 10.177a55.005 55.005 0 0 0 1.96-5.424c.568.576 3.904 3.512 3.896 3.296-.088-1.448-.328-3.232-.552-4.673Z"/>
  <path fill="#EBEBEB" d="m182.47 252.69-13.13.28-6.66.11c-2.22 0-4.46 0-6.69.06h-.45v-.45l-.05-11.19v-.5h.51l13.24.06c4.41 0 8.82.12 13.24.17h.27v.27c0 1.9-.09 3.79-.13 5.65l-.15 5.54Zm0 0-.14-5.69c0-1.87-.12-3.71-.14-5.54l.28.27c-4.42 0-8.83.16-13.24.17l-13.24.06.5-.5-.06 11.19-.44-.45c2.18 0 4.35 0 6.54.06l6.58.11 13.36.32ZM167.7 266.8l-13.13.28-6.66.11c-2.23.05-4.46 0-6.69.05h-.45V255.1h.51l13.24.06c4.41 0 8.82.12 13.24.17h.17v.27c0 1.9-.09 3.79-.13 5.65l-.1 5.55Zm0 0-.15-5.65c0-1.87-.11-3.71-.13-5.54l.28.27c-4.42.05-8.83.16-13.24.17l-13.24.06.49-.5v11.19l-.44-.45c2.18 0 4.35 0 6.54.06l6.58.11 13.31.28Zm-14.72-14.11-13.12.28-6.66.11c-2.23 0-4.47 0-6.7.06h-.44v-.45L126 241.5v-.5h.5l13.24.06c4.42 0 8.83.12 13.24.17h.28v.27c0 1.9-.08 3.79-.13 5.65l-.15 5.54Zm0 0-.14-5.65c-.05-1.87-.11-3.71-.13-5.54l.27.27c-4.41 0-8.82.16-13.24.17l-13.24.06.5-.5-.07 11.19-.45-.45c2.18 0 4.36 0 6.55.06l6.58.11 13.37.28Zm-56.51-171-13.13.28-6.66.11c-2.22 0-4.46 0-6.69.06h-.45v-.45l-.05-11.19V70H70l13.24.06c4.41 0 8.82.12 13.24.17h.27v.27c0 1.9-.09 3.79-.13 5.65l-.15 5.54Zm0 0L96.33 76c0-1.87-.12-3.71-.14-5.54l.28.27c-4.42 0-8.83.16-13.24.17l-13.24.06.5-.5-.06 11.19-.44-.45c2.18 0 4.35 0 6.54.06l6.58.11 13.36.32ZM81.7 95.8l-13.13.28-6.66.11c-2.23.05-4.46 0-6.69.05h-.45V84.1h.51l13.24.06c4.41 0 8.82.12 13.24.17h.17v.27c0 1.9-.09 3.79-.13 5.65l-.1 5.55Zm0 0-.15-5.65c0-1.87-.11-3.71-.13-5.54l.28.27c-4.42.05-8.83.16-13.24.17l-13.24.06.49-.5V95.8l-.44-.45c2.18 0 4.35 0 6.54.06l6.58.11 13.31.28ZM66.98 81.69l-13.12.28-6.66.11c-2.23 0-4.47 0-6.7.06h-.44v-.45L40 70.5V70h.5l13.24.06c4.42 0 8.83.12 13.24.17h.28v.27c0 1.9-.08 3.79-.13 5.65l-.15 5.54Zm0 0-.14-5.65c-.05-1.87-.11-3.71-.13-5.54l.27.27c-4.41 0-8.82.16-13.24.17L40.5 71l.5-.5-.07 11.19-.45-.45c2.18 0 4.36 0 6.55.06l6.58.11 13.37.28Z"/>
  <circle cx="365" cy="65" r="41" fill="#EB9481"/>
  <path fill="#AD6359" d="M406 65a41 41 0 1 1-25.245-37.852L365 65h41Z"/>
  <path fill="#BF1B1B" d="M406 65a40.995 40.995 0 0 1-20.09 35.267 41.002 41.002 0 0 1-55.809-13.748 41 41 0 0 1 12.777-56.039L365 65h41Z"/>
</svg>
