<svg xmlns="http://www.w3.org/2000/svg" width="500" height="500" fill="none" viewBox="0 0 500 500">
  <g clip-path="url(#a)">
    <path fill="#C7C7C7" d="M488.875 236h-59.69v12.923h59.69V236Z"/>
    <path fill="#C7C7C7" d="m445.201 248.822-1.672 16.511-20.633 154.61H417l16.281-154.61 1.328-16.511h10.592Zm55.874 171.121h-5.912l-20.633-154.61-1.672-16.511h10.592l1.328 16.511 16.297 154.61Z"/>
    <path fill="#A6A6A6" d="M433.28 264.747h10.249l1.672-15.925h-10.593l-1.328 15.925Zm51.498 0H474.53l-1.672-15.925h10.592l1.328 15.925Z"/>
    <path fill="#DBDBDB" d="M457.11 65H398v38.59h59.11V65Z"/>
    <path fill="#EBEBEB" d="M457.11 105.86H398v38.59h59.11v-38.59Z"/>
    <path fill="#fff" d="M409.6 113.28h-5.75v5.75h5.75v-5.75Z"/>
    <path fill="#C7C7C7" d="M416.54 113.28h-5.75v5.75h5.75v-5.75Z"/>
    <path fill="#fff" d="M423.49 113.28h-5.75v5.75h5.75v-5.75Zm6.94 0h-5.75v5.75h5.75v-5.75Zm6.95 0h-5.75v5.75h5.75v-5.75Zm6.94 0h-5.75v5.75h5.75v-5.75Zm6.94 0h-5.75v5.75h5.75v-5.75Zm-41.66 6.99h-5.75v5.75h5.75v-5.75Zm6.94 0h-5.75v5.75h5.75v-5.75Zm6.95 0h-5.75v5.75h5.75v-5.75Zm6.94 0h-5.75v5.75h5.75v-5.75Z"/>
    <path fill="#C7C7C7" d="M437.38 120.27h-5.75v5.75h5.75v-5.75Z"/>
    <path fill="#fff" d="M444.32 120.27h-5.75v5.75h5.75v-5.75Zm6.94 0h-5.75v5.75h5.75v-5.75Zm-41.66 6.99h-5.75v5.75h5.75v-5.75Zm6.94 0h-5.75v5.75h5.75v-5.75Zm6.95 0h-5.75v5.75h5.75v-5.75Zm6.94 0h-5.75v5.75h5.75v-5.75Zm6.95 0h-5.75v5.75h5.75v-5.75Zm6.94 0h-5.75v5.75h5.75v-5.75Zm6.94 0h-5.75v5.75h5.75v-5.75Zm-41.66 7h-5.75v5.75h5.75v-5.75Zm6.94 0h-5.75v5.75h5.75v-5.75Z"/>
    <path fill="#C7C7C7" d="M423.49 134.26h-5.75v5.75h5.75v-5.75Z"/>
    <path fill="#fff" d="M430.43 134.26h-5.75v5.75h5.75v-5.75Zm6.95 0h-5.75v5.75h5.75v-5.75Zm6.94 0h-5.75v5.75h5.75v-5.75Zm6.94 0h-5.75v5.75h5.75v-5.75Z"/>
    <path fill="#C7C7C7" d="M402.56 101.76h-2.24v5.93h2.24v-5.93Zm5.22 0h-2.24v5.93h2.24v-5.93Zm5.22 0h-2.24v5.93H413v-5.93Zm5.23 0h-2.24v5.93h2.24v-5.93Zm5.22 0h-2.24v5.93h2.24v-5.93Zm5.22 0h-2.24v5.93h2.24v-5.93Zm5.23 0h-2.24v5.93h2.24v-5.93Zm5.22 0h-2.24v5.93h2.24v-5.93Zm5.22 0h-2.24v5.93h2.24v-5.93Zm5.23 0h-2.24v5.93h2.24v-5.93Zm5.22 0h-2.24v5.93h2.24v-5.93Z"/>
    <path fill="#263238" d="M338.83 312.43c-3.38-3.31-7.76-7.32-12.93-5.89-4.86 1.35-6.73 6.66-7.6 11.08-1.12 5.71-2 11.47-2.9 17.21-.9 5.74-1.77 11.6-2.61 17.41-.47 3.28-.94 6.56-1.39 9.84l-.69 4.9c-.22 1.61-.49 3.22-.58 4.84 0 .52.79.59.9.1.63-2.73.88-5.58 1.29-8.36.41-2.78.8-5.58 1.21-8.37.813-5.553 1.643-11.1 2.49-16.64.847-5.54 1.707-11.063 2.58-16.57.75-4.7 1.11-10.53 5.27-13.63a7.997 7.997 0 0 1 7.79-.73c2.74 1 4.93 3 7.07 4.95.07.03.16-.07.1-.14Z"/>
    <path fill="#BF1B1B" d="M334.2 309.05s-6.92-2.49-10.33 2.55.67 17.89 32.15 25.13a88.8 88.8 0 0 0-7.57-28.46c-6.75-14.72-18.78-9.15-14.25.78Z"/>
    <path fill="#263238" d="M354.21 334.63a25.185 25.185 0 0 0-1.58-2.56l-1.6-2.42c-.4-.6-.82-1.2-1.23-1.8 0-.15 0-.3.06-.45.06-.15.07-.55.11-.82.07-.59.16-1.18.25-1.77.09-.59.18-1.17.29-1.75a9.648 9.648 0 0 1 .42-1.86c0-.09-.13-.14-.14 0a7.774 7.774 0 0 1-.28 1.05c-.08.26-.15.52-.21.79-.16.6-.3 1.2-.44 1.8-.14.6-.23 1.11-.32 1.67-.047.267-.087.537-.12.81-.56-.8-1.14-1.6-1.73-2.37-1.67-2.21-3.44-4.33-5.27-6.39v-.06c.17-3.31.09-6.58.82-9.84 0-.09-.11-.13-.13 0a33.702 33.702 0 0 0-1.18 9.42c-.66-.74-1.32-1.46-2-2.19-1.54-1.64-3.1-3.27-4.69-4.86-.07-.06-.17 0-.11.1 2.66 2.86 5.18 5.83 7.63 8.86-1.919-.03-3.838.04-5.75.21-2.14.16-4.26.43-6.38.73-.09 0-.06.15 0 .14a56.229 56.229 0 0 1 6.36-.57c2.06-.09 4.1 0 6.15 0a195.632 195.632 0 0 1 3.93 5h-1.74c-.95 0-1.91.09-2.87.17-1.954.16-3.895.45-5.81.87a.065.065 0 0 0-.049.021.065.065 0 0 0-.021.049c0 .019.007.036.021.05.013.013.03.02.049.02 1.93-.22 3.87-.4 5.82-.47h4.23c.265.034.535.01.79-.07l2.54 3.3c.67.88 1.33 1.77 2 2.66.67.89 1.26 1.92 2 2.77a.153.153 0 0 0 .111.029.15.15 0 0 0 .069-.269Z"/>
    <path fill="#263238" d="M337.21 316.2a20.97 20.97 0 0 0-3.37-.16c-1.12 0-2.25 0-3.37.07a.086.086 0 0 0-.027.005.114.114 0 0 0-.023.015.114.114 0 0 0-.015.023.086.086 0 0 0-.005.027c0 .009.002.018.005.027a.086.086 0 0 0 .015.022.087.087 0 0 0 .023.016.086.086 0 0 0 .027.005c1.14-.08 2.28-.1 3.42-.09 1.14.01 2.2.12 3.31.1.04-.01.05-.06.01-.06Zm9.88 2.54c.13-1.08.27-2.16.49-3.22a.078.078 0 0 0 .005-.034.084.084 0 0 0-.012-.031.07.07 0 0 0-.025-.023.076.076 0 0 0-.033-.008.076.076 0 0 0-.033.008.07.07 0 0 0-.025.023.084.084 0 0 0-.012.031.078.078 0 0 0 .005.034c-.16 1.06-.37 2.11-.53 3.17-.08.527-.15 1.057-.21 1.59a7.728 7.728 0 0 0-.13 1.51.09.09 0 0 0 .026.064c.017.016.04.026.064.026s.047-.01.064-.026a.094.094 0 0 0 .026-.064c.097-.495.153-.996.17-1.5.05-.53.1-1.04.16-1.55Zm-2.07-11.92c-.27 1.05-.55 2.11-.74 3.17-.1.54-.18 1.09-.25 1.63a6.105 6.105 0 0 0-.11 1.59h.08a9.774 9.774 0 0 0 .25-1.52c.073-.52.153-1.04.24-1.56.19-1.1.39-2.19.66-3.27.03-.08-.11-.13-.13-.04Zm-41 63.86c-.167-2-.357-3.98-.57-5.94-.42-3.927-.893-7.843-1.42-11.75-.53-3.9-1-7.8-1.65-11.68a29.982 29.982 0 0 0-1.2-5.31 5.063 5.063 0 0 0-2.94-3.31c-3.71-1.28-6.21 2.56-7.7 5.28 0 .08.07.14.12.07.9-1.29 3.37-4.91 6.18-4.74 1.89.12 3.41 1.45 4.31 6.17 2.27 11.75 4.3 35.59 4.54 37.15.13.82.71.79.72-.1.01-1.95-.22-3.9-.39-5.84Z"/>
    <path fill="#BF1B1B" d="M289.51 336.51s3.23-11.44-3.92-5.72c-11.89 9.51-12.31 30.19-12.31 30.19s21.18-12.3 23.81-20.41c3.93-12.07-7.58-4.06-7.58-4.06Z"/>
    <path fill="#263238" d="M293.51 342.12c-1.67.33-3.35.56-5 .8l-2.38.33c-.54.08-1.08.13-1.62.19 1.57-2.17 3.16-4.34 4.68-6.55.06-.09-.08-.18-.15-.11a49.216 49.216 0 0 0-3.53 4.09c-.31-.89-.63-1.77-.94-2.66-.31-.89-.75-2-1-3.09 0-.09-.16-.05-.14 0 .29 1.05.5 2.11.78 3.17s.58 2 .94 3c-.78 1-1.52 2-2.25 3.08-.36-1-.81-2-1.13-3.08 0-.09-.17-.05-.14 0 .38 1.16.58 2.37.94 3.53-.48.71-1 1.42-1.44 2.14-.85 1.32-1.66 2.67-2.45 4a.316.316 0 0 0-.143.13.314.314 0 0 0-.037.19c-1.34 2.32-2.61 4.67-3.87 7a.07.07 0 0 0-.006.056.094.094 0 0 0 .014.026.079.079 0 0 0 .022.018.065.065 0 0 0 .027.008c.01.001.02 0 .029-.002a.094.094 0 0 0 .026-.014.079.079 0 0 0 .018-.022c1.25-2.35 2.65-4.62 4.11-6.86.227-.073.462-.12.7-.14l.73-.16 1.63-.39c1.08-.27 2.14-.52 3.23-.71.09 0 0-.15 0-.14-1.28.25-2.57.39-3.87.54-.61.07-1.22.15-1.83.25h-.08c.76-1.16 1.53-2.3 2.31-3.44.78-1.14 1.56-2.22 2.36-3.32.73-.1 1.46-.29 2.19-.43l2.46-.48c1.64-.33 3.27-.69 4.92-1 .06.17.02.03-.11.05Z"/>
    <path fill="#263238" d="M280.82 343.24c-.1-.3-.19-.6-.29-.9a18.64 18.64 0 0 1-.48-1.92c0-.09-.16-.05-.14 0 .14.64.29 1.29.44 1.93.128.648.312 1.284.55 1.9.06.15.29.09.24-.07-.09-.29-.22-.61-.32-.94Zm14.89-3.77c-1 .15-1.94.21-2.91.3-.97.09-1.94.22-2.91.36-.05 0-.06.09 0 .09 1-.07 1.94-.14 2.91-.27.97-.13 1.94-.27 2.92-.34.09 0 .08-.15-.01-.14Zm23.9 16.73c-.38-8.41-.91-16.82-1.76-25.2-.42-4.18-.89-8.35-1.48-12.5a88.469 88.469 0 0 0-2.41-12.1 23.242 23.242 0 0 0-4-8.54 9.129 9.129 0 0 0-8.14-3.55c-3.68.46-6.65 2.78-9.21 5.3-2.88 2.83-5.52 5.92-8.18 8.94-.667.767-1.333 1.537-2 2.31-.06.07 0 .17.1.1 2.61-3 5.32-5.9 8.15-8.69 2.62-2.57 5.32-5.38 8.94-6.44a9.212 9.212 0 0 1 5.2-.12 8.183 8.183 0 0 1 3.55 2.25 18.543 18.543 0 0 1 4 7.78c2.27 7.74 3.08 15.85 3.92 23.84.84 7.99 1.43 16.26 1.84 24.41.41 8.15.73 16.4 1.52 24.57.1 1 .23 2 .35 3 .09.68 1.14.68 1.08 0-.7-8.45-1.09-16.9-1.47-25.36Z"/>
    <path fill="#BF1B1B" d="M292.11 300.52s4.81-8.9-.87-11.75c-5.68-2.85-24.73 18.37-30.24 49.39 0 0 30.7-13.58 41.13-27.12 10.43-13.54-1.4-16.51-10.02-10.52Z"/>
    <path fill="#263238" d="M296.63 307.75c-3.45 0-6.89-.26-10.35-.23l2-2.22a33.623 33.623 0 0 0 2.7-3.14c0-.07-.06-.17-.13-.12a25.719 25.719 0 0 0-2.61 2.62l-2.58 2.77c-1.32 1.43-2.61 2.88-3.9 4.33v-5.74c0-2.37 0-4.76.19-7.13 0-.09-.14-.08-.15 0-.16 2.38-.41 4.75-.53 7.13a89.672 89.672 0 0 0-.09 3.51v2.82l-.61.68c-2.76 3.15-5.37 6.4-7.92 9.71 0-.18 0-.37-.05-.55 0-.36-.08-.73-.12-1.09-.09-.79-.2-1.58-.32-2.37s-.22-1.48-.35-2.22c-.13-.74-.34-1.67-.4-2.51a.086.086 0 0 0-.005-.027.087.087 0 0 0-.016-.023.086.086 0 0 0-.022-.015.086.086 0 0 0-.027-.005.086.086 0 0 0-.027.005.114.114 0 0 0-.023.015.114.114 0 0 0-.015.023.086.086 0 0 0-.005.027c.142.834.238 1.675.29 2.52l.21 2.28c.06.76.13 1.52.21 2.28 0 .36.07.73.11 1.1 0 .18 0 .36.07.54.015.156.066.307.15.44l-1.32 1.71a468.43 468.43 0 0 0-5.16 7c-.05.07.05.17.11.1 1.62-2.11 3.28-4.18 5-6.24 1.26.06 2.55 0 3.81-.06h4a.065.065 0 0 0 .049-.021.065.065 0 0 0 .021-.049.069.069 0 0 0-.021-.05.068.068 0 0 0-.049-.02l-4 .05c-1.21 0-2.45-.06-3.67 0 1.49-1.81 3-3.6 4.49-5.39l1.65-1.95c.51.067 1.026.083 1.54.05h1.75l3.4-.05c2.35 0 4.69-.12 7-.12a.086.086 0 0 0 .027-.005.07.07 0 0 0 .022-.016.07.07 0 0 0 .016-.022.086.086 0 0 0 .005-.027.086.086 0 0 0-.005-.027.087.087 0 0 0-.016-.023.086.086 0 0 0-.022-.015.086.086 0 0 0-.027-.005c-2.35 0-4.69-.13-7-.19-1.13 0-2.27-.07-3.4-.08h-2.87l3.87-4.63a.214.214 0 0 0 .07-.09c1.26-1.48 2.52-3 3.79-4.44l.53-.6c3.57.11 7.14-.12 10.72-.05a.08.08 0 0 0 .057-.072.069.069 0 0 0-.011-.046.08.08 0 0 0-.036-.032Zm-1.77 6.11h-.83a.068.068 0 0 0-.032.026.067.067 0 0 0-.012.039c0 .014.004.028.012.039a.068.068 0 0 0 .032.026h.84c.09-.01.08-.14-.01-.13Z"/>
    <path fill="#263238" d="m293 313.87-3.31-.07-1.66-.06a6.61 6.61 0 0 0-1.54 0 .047.047 0 0 0-.035.015.047.047 0 0 0-.015.035c0 .013.005.026.015.035.009.01.022.015.035.015a5.72 5.72 0 0 0 1.55.11h4.97c.01.011.023.019.038.021a.065.065 0 0 0 .043-.005.065.065 0 0 0 .032-.029.07.07 0 0 0-.01-.082.075.075 0 0 0-.039-.021.065.065 0 0 0-.043.006.07.07 0 0 0-.031.03Zm-9.65 10.36a45.309 45.309 0 0 0-6.79-.62v.05c2.26.22 4.52.34 6.76.71.09.01.12-.13.03-.14Zm-9.23-9.88c0-.2 0-.4-.07-.59-.06-.45-.13-.89-.2-1.33-.13-.85-.28-1.69-.44-2.52 0-.08-.14-.06-.13 0 .1.86.19 1.73.28 2.6 0 .43.07.86.11 1.29-.014.41.043.82.17 1.21.06.14.26.08.3 0a1.725 1.725 0 0 0-.02-.66Zm45.19-25.26c-1.1-2-2.5-4.74-5.24-4.57-2.27.14-3.29 2.45-3.77 4.36-1.5 5.91-1.6 12.14-1.9 18.2-.61 12.79-1.17 25.61-1.25 38.42v10.65c0 3.63 0 7.27.25 10.89a.274.274 0 0 0 .093.157.276.276 0 0 0 .344 0 .274.274 0 0 0 .093-.157c0-3.1-.09-6.2-.1-9.29-.01-3.09 0-6.05.06-9.08.1-6.12.263-12.24.49-18.36.227-6.12.477-12.203.75-18.25.127-3.04.26-6.08.4-9.12.13-2.94.26-5.89.59-8.82.19-1.64.43-3.28.78-4.9a6.748 6.748 0 0 1 1.41-3.28 3.088 3.088 0 0 1 4-.29 8.472 8.472 0 0 1 2.83 3.54c.09.06.21-.01.17-.1Z"/>
    <path fill="#BF1B1B" d="M318.56 288.12s-2.25-8 2.73-4c8.3 6.62 8.6 21 8.6 21s-14.76-8.57-16.59-14.22c-2.73-8.36 5.26-2.78 5.26-2.78Z"/>
    <path fill="#263238" d="M326.78 299.27c-.13-.22-.28-.43-.41-.65a3.86 3.86 0 0 0 0-.68v-1c0-.67 0-1.34.07-2 0-.09-.14-.08-.14 0 0 .66-.06 1.32-.08 2v1.42c-.58-.9-1.18-1.79-1.79-2.66l-.55-.75c-.07-.865-.07-1.735 0-2.6 0-.93 0-1.85.05-2.78 0-.09-.14-.09-.14 0 0 1-.07 1.93-.12 2.89-.06.685-.08 1.373-.06 2.06-1.43-1.94-2.94-3.8-4.47-5.66 0-.06-.16 0-.11.09.95 1.2 1.86 2.43 2.75 3.67-1.74-.4-3.5-.64-5.27-.89a.069.069 0 0 0-.05.021.068.068 0 0 0-.02.049c0 .019.007.036.02.049a.069.069 0 0 0 .05.021c1.87.28 3.7.75 5.54 1.15.71 1 1.41 2 2.1 3l.84 1.24h-.08l-.58-.08c-.4-.05-.81-.08-1.22-.11-.85-.07-1.71-.12-2.56-.16-.09 0-.09.14 0 .14.84 0 1.67.08 2.5.17l1.32.16.58.07h.17l1.39 2.03c.83 1.23 1.57 2.55 2.46 3.74 0 .07.15 0 .12-.07a36.731 36.731 0 0 0-2.31-3.88Z"/>
    <path fill="#263238" d="M323.11 290.28v-.93a14.063 14.063 0 0 1 .07-2 .072.072 0 0 0-.02-.05.072.072 0 0 0-.05-.02.068.068 0 0 0-.049.02.069.069 0 0 0-.021.05c0 .65-.07 1.29-.1 1.93v1.45a1.42 1.42 0 0 0 0 .46c0 .016.006.031.018.042a.056.056 0 0 0 .042.018.056.056 0 0 0 .042-.018.056.056 0 0 0 .018-.042 1.006 1.006 0 0 0 0-.43l.05-.48Zm-1.82 3.3a15.335 15.335 0 0 0-1.67-.17c-.61-.06-1.21-.11-1.82-.19-.1 0-.12.14 0 .14 1.17.08 2.33.29 3.49.33.05 0 .06-.1 0-.11Zm4.63.04c.02.102.02.208 0 .31v1.37c-.03.162-.03.328 0 .49h.06a.448.448 0 0 0 0-.23v-1.89c0-.07-.15-.18-.06-.05Zm-6.27 37.97c-3.1-2.33-5.89-5.68-10.06-5.84-3.45-.14-5.86 2.46-7.24 5.34a29.963 29.963 0 0 0-1.69 4.76c-.62 2.18-1.207 4.37-1.76 6.57-1.08 4.33-2 8.69-2.76 13.09-.42 2.45-.81 4.91-1.12 7.38a61.637 61.637 0 0 0-.73 7.55.387.387 0 0 0 .35.38.392.392 0 0 0 .42-.3c.42-2.06.6-4.19.9-6.27.3-2.08.63-4.2 1-6.29.707-4.18 1.53-8.337 2.47-12.47.89-3.91 1.77-7.87 3-11.67.9-2.73 2.35-5.91 5.29-6.89 4.48-1.49 8.54 2.3 11.82 4.76.08.06.18-.05.11-.1Z"/>
    <path fill="#BF1B1B" d="M316.44 329.36s-2.86-8.17 1.27-9.77c6.2-2.4 22.43 15.88 19.26 43.88 0 0-12.54-6.91-21.8-14.67-9.26-7.76-11.66-17.92-7.55-20.55 4.11-2.63 8.82 1.11 8.82 1.11Z"/>
    <path fill="#263238" d="M335.09 357.47a20.144 20.144 0 0 0-1.51-2.82c-.53-1-1.06-1.92-1.62-2.86-1.07-1.85-2.14-3.69-3.25-5.52l-.54-.89c0-.1 0-.22.07-.32l.18-.81c.14-.61.25-1.23.36-1.84.22-1.2.43-2.41.76-3.59 0-.08-.13-.11-.14 0-.26 1.2-.64 2.38-1 3.55-.18.57-.36 1.15-.52 1.73l-.15.6c-1.34-2.18-2.69-4.36-4.15-6.46.094-.291.141-.595.14-.9 0-.41.1-.81.14-1.22.11-.93.22-1.85.35-2.76a54.038 54.038 0 0 1 1-5.37c0-.09-.12-.11-.14 0-.45 1.76-.94 3.52-1.27 5.31-.16.88-.32 1.76-.44 2.64-.06.44-.1.89-.15 1.33 0 .13 0 .27-.05.4-.45-.63-.9-1.27-1.37-1.89-1.43-1.88-2.92-3.72-4.41-5.55-.06-.07-.18 0-.12.08a99.108 99.108 0 0 1 7.05 10.3l1.22 2-.4-.05c-.53-.07-1.06-.1-1.58-.15l-3.17-.28c-2.11-.16-4.23-.29-6.34-.52-.09 0-.11.13 0 .14 2.13.24 4.26.59 6.39.89 1 .15 2.09.29 3.14.42.793.16 1.601.244 2.41.25.83 1.35 1.67 2.69 2.49 4a5.23 5.23 0 0 0-.56 0h-7.08c-.09 0-.07.14 0 .15 1.38 0 2.75.08 4.13.15l1.95.12 1 .07c.283.065.577.065.86 0 .71 1.15 1.42 2.29 2.12 3.44.7 1.15 1.31 2.11 2 3.16a25.626 25.626 0 0 0 2.12 3.19c0 .01.11-.03.08-.12Z"/>
    <path fill="#263238" d="M329.12 334.84a20.279 20.279 0 0 1-.56 2.66c-.23.91-.5 1.8-.79 2.69a.083.083 0 0 0-.005.035.1.1 0 0 0 .009.034.092.092 0 0 0 .051.046.083.083 0 0 0 .035.005.1.1 0 0 0 .034-.009.092.092 0 0 0 .046-.051c.27-.89.52-1.78.74-2.67.22-.89.36-1.82.58-2.72a.069.069 0 0 0-.013-.052.074.074 0 0 0-.047-.028.069.069 0 0 0-.052.013.074.074 0 0 0-.028.047Zm-9.21 5.47a1.067 1.067 0 0 0-.69-.26l-1.18-.16c-.73-.1-1.47-.18-2.21-.27-1.52-.18-3.05-.33-4.58-.52-.09 0-.12.13 0 .14 1.44.18 2.87.4 4.31.58.7.1 1.41.2 2.12.28l1 .11c.399.001.794.068 1.17.2.06.04.11-.05.06-.1Zm9.19 12.31c-.73-.06-1.45-.08-2.18-.11h-1.62a2.58 2.58 0 0 1-.68 0c-.1 0-.11.16 0 .14.213-.02.427-.02.64 0h.56l1.1.06c.72.05 1.45.09 2.17.1.09-.03.09-.18.01-.19Zm4.41-3.13c.08-.41.16-.82.23-1.23l.45-2.43a.068.068 0 0 0-.02-.049.069.069 0 0 0-.099 0 .065.065 0 0 0-.021.049l-.54 2.36c-.08.39-.17.78-.25 1.18l-.12.55c-.059.184-.08.378-.06.57 0 .07.11.12.15.05.157-.33.251-.686.28-1.05Z"/>
    <path fill="#37474F" d="m327.42 373.62-.7 11.58-2.06 34.16h-35.04l-2.06-34.16-.69-11.58h40.55Z"/>
    <path fill="#263238" d="m327.42 373.62-.7 11.58h-39.16l-.69-11.58h40.55Z"/>
    <path fill="#37474F" d="M330.65 365.43h-47.02v11.58h47.02v-11.58Z"/>
    <path fill="#EBEBEB" d="M179.69 42.86h164.88v215.5H179.69V42.86Zm160.53 4.35H184.04v206.8h156.18V47.21Z"/>
    <path fill="#EBEBEB" d="M266 48.34h-4.35v207.84H266V48.34Z"/>
    <path fill="#EBEBEB" d="M175.74 57.7h172.77v-6.05H175.74v6.05Zm0 6.81h172.77v-6.05H175.74v6.05Zm0 6.82h172.77v-6.05H175.74v6.05Zm0 6.81h172.77v-6.05H175.74v6.05Zm0 6.81h172.77V78.9H175.74v6.05Zm0 6.81h172.77v-6.05H175.74v6.05Zm0 6.8h172.77v-6.05H175.74v6.05Zm0 6.82h172.77v-6.05H175.74v6.05Zm0 6.81h172.77v-6.05H175.74v6.05Z"/>
    <path fill="#263238" d="M189.75 50.42h-1.09v139.55h1.09V50.42Z"/>
    <path fill="#263238" d="M187.27 195.03h3.86l-.97-5.54h-1.92l-.97 5.54Zm-1.44-144.61h-1.09V252.3h1.09V50.42Z"/>
    <path fill="#263238" d="M183.36 256.38h3.85l-.96-5.55h-1.93l-.96 5.55Z"/>
    <path fill="#DBDBDB" d="M169 54.67h186.26V42H169v12.67Z"/>
    <path fill="#C7C7C7" d="M154.34 261.99h52.99l4.1-35.99h-52.98l-4.11 35.99Z"/>
    <path fill="#C7C7C7" d="M154.34 261.99h52.99l4.1-35.99h-52.98l-4.11 35.99Z"/>
    <path fill="#fff" d="M157.23 259.57h47.76l3.55-31.16h-47.76l-3.55 31.16Z"/>
    <path fill="#C7C7C7" d="M138.8 259.57h68.16v2.41H138.8v-2.41Z"/>
    <path fill="#EBEBEB" d="M124 259.57h68.16v2.41H124v-2.41Z"/>
    <path fill="#C7C7C7" d="M203.26 231.65c-6.52-.11-13-.08-19.56-.12-6.56-.04-13 0-19.56.12 6.52.11 13 .08 19.56.13 6.56.05 13.04-.02 19.56-.13Zm-.2 1.59c-6.52-.11-13-.08-19.56-.13-6.56-.05-13 0-19.56.13 6.52.1 13 .08 19.56.12 6.56.04 13.04-.01 19.56-.12Zm-.2 1.6c-6.52-.1-13-.08-19.56-.12-6.56-.04-13 0-19.56.12 6.52.11 13 .08 19.56.13 6.56.05 13.04-.02 19.56-.13Zm-.2 1.6c-6.52-.11-13-.08-19.56-.13-6.56-.05-13.05 0-19.57.13 6.52.11 13 .08 19.57.12 6.57.04 13.04-.01 19.56-.12Zm-.2 1.59c-6.52-.1-13-.08-19.57-.12-6.57-.04-13 0-19.56.12 6.52.11 13 .08 19.56.13 6.56.05 13.02-.02 19.57-.13Zm-.2 1.6c-6.53-.11-13.05-.08-19.57-.13s-13 0-19.56.13c6.52.11 13 .08 19.56.12 6.56.04 13.04-.01 19.57-.12Zm-.21 1.61c-6.52-.1-13-.08-19.56-.12-6.56-.04-13 0-19.56.12 6.52.11 13 .08 19.56.13 6.56.05 13.04-.04 19.56-.13Zm-.2 1.58c-6.52-.11-13-.08-19.56-.12-6.56-.04-13 0-19.56.12 6.52.11 13 .08 19.56.12 6.56.04 13.04-.01 19.56-.12Zm-.2 1.6c-6.52-.11-13-.08-19.56-.13-6.56-.05-13 0-19.57.13 6.52.1 13 .08 19.57.12 6.57.04 13.04-.02 19.56-.12Zm-.2 1.59c-6.52-.11-13-.08-19.57-.12-6.57-.04-13 0-19.56.12 6.52.11 13 .08 19.56.13 6.56.05 13.03-.02 19.57-.13Zm-.2 1.6c-6.53-.11-13-.08-19.57-.13s-13 0-19.56.13c6.52.1 13 .08 19.56.12 6.56.04 13.04-.02 19.57-.12Zm-.21 1.63c-6.52-.11-13-.08-19.56-.12-6.56-.04-13 0-19.56.12 6.52.11 13 .08 19.56.13 6.56.05 13.04-.06 19.56-.13Zm-.2 1.56c-6.52-.11-13-.08-19.56-.13-6.56-.05-13 0-19.56.13 6.52.1 13 .08 19.56.12 6.56.04 13.04-.02 19.56-.12Zm-.2 1.59c-6.52-.1-13-.08-19.56-.12-6.56-.04-13 0-19.57.12 6.53.11 13 .08 19.57.13s13.04-.02 19.56-.13Zm-.2 1.6c-6.52-.11-13-.08-19.56-.13-6.56-.05-13.05 0-19.57.13 6.52.11 13 .08 19.57.12 6.57.04 13.03-.01 19.56-.12Z"/>
    <path fill="#BF1B1B" d="M194.75 242.82h2.96l-1.65 13.03h-2.96l1.65-13.03Zm-5.1-3.18h2.96l-2.05 16.21h-2.97l2.06-16.21Zm-5.72 1.64h2.97l-1.84 14.57h-2.97l1.84-14.57Zm-4.89-4.84h2.97l-2.46 19.41h-2.96l2.45-19.41Zm-5.83 2.6h2.97l-2.13 16.81h-2.97l2.13-16.81Zm-4.77-5.79h2.97l-2.87 22.6h-2.96l2.86-22.6Z"/>
    <path fill="#C7C7C7" d="M202.34 230.53a517.085 517.085 0 0 0-1.84 12.63c-.56 4.207-1.127 8.42-1.7 12.64l.34-.3c-6.34-.05-12.69 0-19 0-6.31 0-12.69.14-19 .32 6.34.18 12.68.25 19 .32s12.69.08 19 0h.31v-.3c.52-4.22 1-8.44 1.5-12.67s.96-8.4 1.39-12.64Zm-9.44 26.92h2.96l.04-.26h-2.97l-.03.26Zm-5.51 0h2.97l.03-.26h-2.97l-.03.26Zm-5.5 0h2.96l.04-.26h-2.97l-.03.26Zm-5.51 0h2.97l.03-.26h-2.96l-.04.26Zm-5.5 0h2.97l.03-.26h-2.97l-.03.26Zm-5.5 0h2.96l.04-.26h-2.97l-.03.26Z"/>
    <path fill="#263238" d="m160.61 229.93.17-1.52h47.76l-.17 1.52h-47.76Z"/>
    <path fill="#C7C7C7" d="M204.52 229.17a.41.41 0 0 1-.38.38.316.316 0 0 1-.234-.122.308.308 0 0 1-.056-.258.41.41 0 0 1 .38-.38.316.316 0 0 1 .235.122.306.306 0 0 1 .055.258Z"/>
    <path fill="#fff" d="M205.91 229.17a.424.424 0 0 1-.121.259.424.424 0 0 1-.259.121.32.32 0 0 1-.3-.38.41.41 0 0 1 .38-.38.32.32 0 0 1 .3.38Z"/>
    <path fill="#BF1B1B" d="M207.29 229.17a.424.424 0 0 1-.121.259.424.424 0 0 1-.259.121.32.32 0 0 1-.3-.38.41.41 0 0 1 .38-.38.32.32 0 0 1 .3.38Z"/>
    <path fill="#EBEBEB" d="m453.922 323.017 13.384-.232c4.425-.08 8.801-.128 13.193-.136l-.36.368v-8.953l.392.4-13.289-.056c-4.424 0-8.856-.104-13.288-.152l.2-.192-.232 8.953Zm0 0-.192-8.953v-.2h.2c4.432-.048 8.864-.128 13.288-.152l13.289-.048h.408v9.721h-.368c-4.472 0-8.944-.056-13.385-.128l-13.24-.24ZM4.768 334.305l13.385-.232c4.424-.08 8.8-.128 13.193-.136l-.36.368v-8.952l.392.392-13.337-.048c-4.424 0-8.856-.104-13.289-.152l.2-.192-.184 8.952Zm0 0-.192-8.936v-.2h.2c4.433-.048 8.865-.128 13.289-.152l13.288-.048h.409v9.712h-.369a826 826 0 0 1-13.384-.128l-13.24-.248Zm463.987-226.953 13.384-.232a808.73 808.73 0 0 1 13.193-.136l-.368.368V98.4l.4.4-13.305-.056c-4.432 0-8.864-.104-13.288-.152l.192-.192-.208 8.952Zm0 0-.2-8.952v-.2h.208c4.424-.048 8.856-.128 13.288-.152L495.34 98h.4v.408l-.08 8.944v.36h-.36c-4.48 0-8.953-.056-13.385-.128l-13.16-.232Z"/>
    <path fill="#263238" d="M2 262h70.28v157.25H2V262Z"/>
    <path fill="#455A64" d="M2 262h208.68v21.84H2V262Z"/>
    <path fill="#000" d="m210.23 272.91-26.03-.18-26.03-.06-52.06-.13-52.06.12-26.02.07-26.03.18 26.03.19 26.02.06 52.06.13 52.06-.13 26.03-.06 26.03-.19Z" opacity=".1"/>
    <path fill="#455A64" d="M2 262h9.45v157.25H2V262Z"/>
    <path fill="#263238" d="m14 419.4 59.256-.192 59.248-.072L251 419l118.496.136 59.248.064 59.256.2-59.256.192-59.248.072L251 419.8l-118.496-.136-59.248-.072L14 419.4Z"/>
    <path fill="#DBDBDB" d="m104 328 2.13 12.76 14.41 77.83h2.32l-10.48-77.83-1.54-12.76H104Z"/>
    <path fill="#C7C7C7" d="M104.32 318.02h-6.84l2.13 12.76h6.25l-1.54-12.76Z"/>
    <path fill="#DBDBDB" d="M52 420h2.337l14.517-87.633L71 318h-6.89l-1.552 14.367L52 420Z"/>
    <path fill="#C7C7C7" d="m64.25 318.02-1.54 12.76h6.25l2.13-12.76h-6.84Z"/>
    <path fill="#DBDBDB" d="M9 419h2.337l14.517-86.774L28 318h-6.88l-1.562 14.226L9 419Z"/>
    <path fill="#C7C7C7" d="M19.48 330.78h6.25l2.13-12.76h-6.83l-1.55 12.76Z"/>
    <path fill="#DBDBDB" d="M12.68 324.02h105.61v-11.13H78.75l-13.28-77.3H16.71l-4.03 88.43Z"/>
    <path fill="#C7C7C7" d="M12.68 324.02h5.76l3.75-88.43h-5.48l-4.03 88.43Z"/>
    <path fill="#D3766A" d="M106.37 417.3c-2.09-.28-54.71-26.53-56-28.74-.16-.26 2.1-5.06 5.32-11.6 7.28-14.79 21.83-39.81 21.83-39.81l31.67 17.81-17.44 33s5.86 7.09 10.61 13.1a83.397 83.397 0 0 1 5.89 8c1.17 2.59.2 8.53-1.88 8.24Z"/>
    <path fill="#BF1B1B" d="M106.37 417.3c-2.09-.28-54.71-26.53-56-28.74-.16-.26 2.1-5.06 5.32-11.6 11.7 9.21 44.33 30.7 46.67 28.44.93-.9.7-2.55 0-4.3a83.228 83.228 0 0 1 5.89 8c1.17 2.55.2 8.49-1.88 8.2Z"/>
    <path fill="#37474F" d="m97.97 385.05-36.69-19.36s27.99-54.82 27.26-55.82c-2.57-3.32-33.57-1.81-47-15.12-14.18-14.09-3.35-34.15-3.35-34.15h37s-.34 10 1.26 11.37c1 .87 55.51 6.13 57.64 20.5 3.77 24.88-36.12 92.58-36.12 92.58Z"/>
    <path fill="#263238" d="M100.21 378.21c-4.41-2.66-8.93-5.12-13.47-7.57a424.48 424.48 0 0 0-13.73-7.11c-2.6-1.29-5.26-2.46-7.87-3.74-.08 0-.15.08-.06.12 2.28 1.23 4.5 2.58 6.78 3.82 2.28 1.24 4.5 2.43 6.76 3.63 4.55 2.41 9.13 4.77 13.7 7.16 2.57 1.34 5.18 2.62 7.8 3.86a.097.097 0 0 0 .063-.007.103.103 0 0 0 .057-.106.102.102 0 0 0-.03-.057Zm2.92-74.44c-.91-1.88-3.33-2.16-5.13-2.61l-14.79-3.68c-8.72-2.16-17.72-4.2-25.54-8.82-3.73-2.21-7.36-5-9.23-9s-1.86-8.32-1.89-12.58c0-1.05.06-2.1.13-3.15 0-.1-.14-.09-.15 0-.27 4.19-.7 8.38.24 12.53a16.807 16.807 0 0 0 2.35 5.65 19.475 19.475 0 0 0 4.26 4.48c6.91 5.42 15.59 8 24 10.16 4.74 1.21 9.5 2.36 14.25 3.53l7.34 1.8a6.617 6.617 0 0 1 3 1.19 3.162 3.162 0 0 1 .91 2.66 10.277 10.277 0 0 1-.75 2.92c-.44 1.15-.9 2.29-1.36 3.43a416.618 416.618 0 0 1-2.79 6.66c-1.92 4.454-3.92 8.87-6 13.25-4.12 8.75-8.52 17.36-13 25.91l-1.65 3.22c0 .06.07.12.1.05 4.81-8.46 9.3-17.11 13.58-25.86 4.28-8.75 8.28-17.48 11.71-26.52.62-1.62 1.2-3.58.41-5.22Z"/>
    <path fill="#D3766A" d="M208.84 419.25c-2 .66-60.8 0-63-1.36-.26-.16-.28-12.76-.28-12.76-9.65-21.92-18.39-43.12-18.39-43.12l41.1-.05 14.54 37.32s8.37 3.82 15.27 7.15a80.766 80.766 0 0 1 8.79 4.6c2.25 1.84 3.97 7.57 1.97 8.22Z"/>
    <path fill="#BF1B1B" d="M208.84 419.25c-2 .66-60.8 0-63-1.36-.26-.16-.32-5.47-.28-12.76 14.54 3.17 53.29 8.24 54.41 5.19.44-1.22-.49-2.6-1.88-3.87a80.766 80.766 0 0 1 8.79 4.6c2.24 1.82 3.96 7.55 1.96 8.2Z"/>
    <path fill="#37474F" d="m179.82 391.4-44.39-.33s-22.32-57.49-25.92-61.35c-1.83-2-14-4.12-28.63-7.32h-.08c-5.39-1.18-11.1-2.51-16.73-4-14.64-3.91-28.73-9.05-35.14-16.14-13.42-14.83 0-41.63 0-41.63h37.79s.94 11.67-2 18.81c0 0 27.81 4.08 51.22 11.68 13.27 4.26 25.17 9.75 29.77 16.17 8.96 12.65 34.11 84.11 34.11 84.11Z"/>
    <path fill="#263238" d="M174.81 384.74c-5.15-.38-10.29-.51-15.45-.63s-10.3-.18-15.45-.12c-2.91 0-5.81.19-8.71.23a.08.08 0 0 0 0 .15c2.59.05 5.18.25 7.78.32 2.6.07 5.11.13 7.67.17 5.15.09 10.3.11 15.45.17 2.91 0 5.81 0 8.71-.1a.096.096 0 0 0 .05-.036.1.1 0 0 0-.05-.154ZM48.21 266.11c-.059.173-.132.34-.22.5a.08.08 0 0 0 0 .09c-.5 1.54-.71 3.19-1.19 4.74a7.409 7.409 0 0 1-2.87 4.1c-2.93 2-6.46 3-9.86 3.8a.104.104 0 0 0-.05.037.098.098 0 0 0 0 .117.1.1 0 0 0 .05.036 18.6 18.6 0 0 0 5.82-.89 15.28 15.28 0 0 0 4.9-2.35 7.64 7.64 0 0 0 2.81-4.24c.218-.9.384-1.811.5-2.73a21.18 21.18 0 0 0 .34-3.18.145.145 0 0 0-.046-.046.145.145 0 0 0-.127-.017.154.154 0 0 0-.057.033Zm23.47 10.69a43.604 43.604 0 0 0-6.79 2.6h-.11a1.86 1.86 0 0 0 .1-.41l.08-.49c0-.17 0-.34.06-.51a2.088 2.088 0 0 1 0-.26 1.994 1.994 0 0 0 1.46-.75 5.355 5.355 0 0 0 .91-2.14 61.975 61.975 0 0 0 1.31-6.19 21.13 21.13 0 0 0 .37-3.26.151.151 0 0 0-.15-.15.15.15 0 0 0-.15.15c-.25 1-.37 2-.56 3.05-.19 1.05-.41 2-.64 3-.23 1-.48 2-.76 3s-.5 2.17-1.53 2.47c-2.12.6-1.17-4.16-1.07-5.09.21-2.16.35-4.36.72-6.5a.07.07 0 0 0-.07-.07.07.07 0 0 0-.07.07c-.45 2-1 3.89-1.33 5.88-.17 1-.3 2-.4 2.94a4.57 4.57 0 0 0 .19 2.54 1.862 1.862 0 0 0 1.4 1l-.06.22c0 .16-.1.32-.14.48l-.12.48a1.33 1.33 0 0 0-.07.59.324.324 0 0 0 .11.13c-.91.39-1.81.78-2.71 1.2a24.009 24.009 0 0 0-3.26 1.58c-.12.06 0 .23.09.2a24.856 24.856 0 0 0 3.42-1.23c1.13-.44 2.25-.9 3.38-1.37a41.55 41.55 0 0 0 6.46-3 .106.106 0 0 0 .014-.048.112.112 0 0 0-.04-.089.11.11 0 0 0-.044-.023Z"/>
    <path fill="#263238" d="M132.09 363.27a399.898 399.898 0 0 0-7.43-17.2 371.3 371.3 0 0 0-8.28-16.86c-1.26-2.41-2.41-4.85-4.93-6.15a18.7 18.7 0 0 0-3.63-1.3c-1.47-.39-3-.77-4.43-1.14-12-3-24.2-5.55-36.16-8.91-6-1.67-11.9-3.56-17.69-5.82-4.69-1.84-9.38-4-13.28-7.21a21.522 21.522 0 0 1-4.77-5.43c-1.48-2.48-4.94-9.23.19-29.66 0-.09-.1-.16-.13-.07-4.09 14.56-3.23 22.48-2.48 25.37a18.58 18.58 0 0 0 3.36 6.78c3 3.86 7.29 6.54 11.67 8.63a119.932 119.932 0 0 0 16.2 6.07c11.92 3.74 24.14 6.35 36.28 9.23 3 .71 6 1.45 9 2.21 2.68.69 5.81 1.23 7.73 3.41a17.89 17.89 0 0 1 2.24 3.7 452.703 452.703 0 0 1 6.39 12.81 443.266 443.266 0 0 1 14.9 34.89c.55 1.47 1.1 2.93 1.67 4.39a.096.096 0 0 0 .044.057.093.093 0 0 0 .071.008.088.088 0 0 0 .056-.044.092.092 0 0 0 .009-.071c-1.95-5.97-4.25-11.86-6.6-17.69Z"/>
    <path fill="#263238" d="M117.84 346.79a109.291 109.291 0 0 0-5.2-12.63c-1.17-2.32-2.5-5.09-5.07-6.08a38.117 38.117 0 0 0-4.21-1.16c-1.49-.37-3-.74-4.48-1.09a354.068 354.068 0 0 0-9-2c-3.35-.7-6.73-1.37-10.12-1.73-.09 0-.09.12 0 .14 2.88.84 5.81 1.47 8.72 2.17 2.91.7 5.68 1.35 8.52 2 2.84.65 5.82 1.44 8.72 2.2a7.19 7.19 0 0 1 3.4 1.81c1.3 1.27 7.77 15.41 8.49 16.82.2.44.34-.03.23-.45Zm16.26-48.68a104.702 104.702 0 0 0-13.57-6.43c-4.25-1.45-8.58-2.66-12.91-3.84-8.89-2.42-17.91-4.44-27-6.07a379.11 379.11 0 0 0-7.77-1.32 70.063 70.063 0 0 0-7.64-.94c-.09 0-.1.13 0 .16 2.25.55 4.56.89 6.84 1.28 2.28.39 4.51.79 6.75 1.22 4.49.87 9 1.8 13.43 2.82 8.83 2 17.68 4.19 26.31 6.92 4.59 1.45 11.51 4.79 15.39 6.53a.189.189 0 0 0 .126-.01.188.188 0 0 0 .109-.211.195.195 0 0 0-.065-.109Zm-90.13-59.1a36.46 36.46 0 0 0 6.32 5.37c-2.82-6.94-.08-21.26.07-19.14.73 10.15 5.29 21.84 7.56 22.72a27.46 27.46 0 0 0 17.36-1c-3.79-7.95-1.39-22.56-1.2-21.62 2.14 10.09 8.69 16.78 10 17 5.43-3.82 8.62-8 8-8.53-4.42-4.08-7.31-13.33-9.72-23-2.38-9.54-3-18.36-7-27.17-3.71-8.06-13.1-10.89-19.1-8-15.75 7.64-14.97 60.52-12.29 63.37Z"/>
    <path fill="#263238" d="M57.31 175.14a9.687 9.687 0 0 0-3.55 2.12 22.826 22.826 0 0 0-2.84 3.05 40.223 40.223 0 0 0-4.19 7.21 62.59 62.59 0 0 0-4.69 16 97.088 97.088 0 0 0-1.14 16.59c0 1.39.09 2.77.13 4.15l.26 4.15.42 4.13.54 4.11-.3-4.13-.2-4.14-.13-4.13v-4.14a106.37 106.37 0 0 1 1.32-16.44 66.01 66.01 0 0 1 4.42-15.84 40.284 40.284 0 0 1 3.91-7.22 22.774 22.774 0 0 1 2.65-3.14 15.302 15.302 0 0 1 1.58-1.32 7.016 7.016 0 0 1 1.81-1.01Zm35.59 57.19a69.798 69.798 0 0 1-3.33-6.36c-1-2.15-2-4.35-2.82-6.58-.82-2.23-1.62-4.49-2.25-6.79-.63-2.3-1.19-4.63-1.79-6.95-1.24-4.63-2.48-9.27-4-13.83-.77-2.28-1.58-4.55-2.54-6.75a32.738 32.738 0 0 0-1.64-3.23 8.737 8.737 0 0 0-2.32-2.77 9.29 9.29 0 0 1 2.07 2.89 35.483 35.483 0 0 1 1.43 3.28c.87 2.22 1.6 4.5 2.28 6.79 1.37 4.58 2.6 9.21 3.78 13.85.62 2.32 1.2 4.63 1.87 7a62.578 62.578 0 0 0 2.4 6.82 68.732 68.732 0 0 0 6.86 12.63Z"/>
    <path fill="#D3766A" d="M69.42 225.174c6.269 18.389 12.118 32.334 17.757 35.439 4.543 2.483 10.776 3.972 17.115 4.86a156.402 156.402 0 0 0 20.439 1.262c2.106.004 3.854-.029 5.072-.045 3.049-.067 6.421-20.653 4.054-22.938-.544-.523-2.597-.792-5.46-.878-9.607-.411-28.364.846-29.575-.128-1.21-.975-11.89-13.611-20.943-23.443-6.207-6.873-11.934-4.331-8.46 5.871Z"/>
    <path fill="#D3766A" d="M123.544 265.116a73.554 73.554 0 0 0 9.356 2.598c2.527.407 9.818 1.428 10.556-1.34.503-1.864-3.717-2.958-6.681-3.799-1.561-.434-3.583-1.782-3.259-2.783.568-1.773 4.605-.546 7.294.616 5.21 2.246 12.313 6.569 14.995 3.749 1.013-1.073-.49-2.621-2.609-4.056 3.346 1.551 6.837 2.771 8.013 1.633a1.65 1.65 0 0 0 .09-2.264 2.202 2.202 0 0 0 2.351-.635c.878-1.176.207-2.671-1.087-4.135a1.243 1.243 0 0 0 .844-.715c1.739-3.509-10.058-11.584-13.858-12.013a82.521 82.521 0 0 0-22.632 1.039c-3.871 3.915-3.393 22.101-3.373 22.105Z"/>
    <path fill="#263238" d="M138.324 253.07c2.638.075 5.227.734 7.58 1.928 2.744 1.454 5.046 3.577 7.629 5.279a.065.065 0 0 1 .043.045c.004.01.004.021.003.032a.072.072 0 0 1-.037.051.084.084 0 0 1-.031.008.088.088 0 0 1-.032-.007.072.072 0 0 1-.025-.021c-1.225-.885-2.539-1.654-3.802-2.495-1.262-.841-2.444-1.679-3.724-2.412a17.715 17.715 0 0 0-7.614-2.349l.01-.059Zm1.47-4.858c2.993.339 5.944.983 8.806 1.923 3.08 1.133 5.643 3.267 8.152 5.362 1.5 1.254 2.99 2.507 4.453 3.806.069.011-.026.157-.02.118a160.741 160.741 0 0 0-7.852-6.155 23.385 23.385 0 0 0-8.272-3.923c-1.712-.438-3.448-.727-5.182-1.027-.122-.06-.115-.109-.085-.104Zm2.571-4.398c2.731.055 5.43.609 7.961 1.635a40.072 40.072 0 0 1 8.282 5.566c1.364 1.151 2.66 2.352 4.013 3.573.06.009-.024.148-.086.097a91.807 91.807 0 0 0-9.469-7.377 18.275 18.275 0 0 0-5.106-2.513 32.67 32.67 0 0 0-5.598-.961s-.007-.021.003-.02Z"/>
    <path fill="#BF1B1B" d="m82.12 221.01-18.7 7.49a150.197 150.197 0 0 1-8.53-13.24c-3.48-6.63-1.83-9.48 6.73-6.16 5.73 2.22 20.5 11.91 20.5 11.91Z"/>
    <path fill="#263238" d="M65.7 227.59c-.22.05-2.16.75-2.29.84-.67-1-1.32-2-2-2.95-.34-.49-.69-1-1-1.45-.31-.45-.81-1.15-1.16-1.61 0-.08-.15 0-.1.06.39.65.7 1.13 1 1.69.3.56.62 1 1 1.48.69 1 1.39 2.16 2.13 3.15.863-.319 1.702-.7 2.51-1.14 0 0-.06-.07-.09-.07Z"/>
    <path fill="#263238" d="M79.51 219.99c-2.8.91-5.57 1.85-8.31 2.91-1.37.53-2.73 1.08-4.08 1.66-1.35.58-2.64 1.28-4 1.83-.08 0 0 .15.05.12 1.32-.62 2.74-1.07 4.09-1.62l4.09-1.63c2.73-1.07 5.45-2.15 8.2-3.15.09-.03.04-.14-.04-.12Z"/>
    <path fill="#BF1B1B" d="m75.88 265.58-53.14 4.29s13.6-46.35 24.55-58.06c5-5.32 9.86-4.51 14-1.08 1 .85 13.8 17.06 14.88 22.71 1 5-3.1 10.53-3.1 10.53l2.81 21.61Z"/>
    <path fill="#263238" d="M68.01 219.32c1.6 2.56 3.34 5 5 7.56a34.029 34.029 0 0 1 2.24 3.88 9.833 9.833 0 0 1 1.1 4.3 7.603 7.603 0 0 0-.08-2.28 10.53 10.53 0 0 0-.68-2.17 30.826 30.826 0 0 0-2.18-4c-.77-1.15-1.55-2.31-2.37-3.43-.13-.39-.29-.78-.44-1.17a14.259 14.259 0 0 0-.84-1.65c.165.591.372 1.169.62 1.73l.21.48c-.87-1.1-1.71-2.19-2.58-3.25Zm-9.21 23.55c2.063.063 4.119.277 6.15.64 1 .2 2 .44 3 .7.5.13 1 .25 1.49.36.52.132 1.054.199 1.59.2.05 0 .05.07 0 .08-.502.05-1.006.07-1.51.06-.49-.028-.978-.091-1.46-.19-1-.19-2-.42-3.06-.62-2.06-.4-4.12-.81-6.2-1.06a.085.085 0 0 1-.044-.033.09.09 0 0 1 .044-.137Zm-4.96 2.1a45.637 45.637 0 0 1 5.07-.55h2.55l1.22.07c.45 0 .89.12 1.34.14 0 0 .05.08 0 .08-.42 0-.85.05-1.27.06h-1.27l-2.55.09c-1.7.05-3.39.11-5.09.21a.062.062 0 0 1-.016-.023.07.07 0 0 1 .016-.077Z"/>
    <path fill="#D3766A" d="M45.34 212.67c-13.24 11.93-32 32.79-26.61 39.23 8.92 10.59 38.75 21.27 45.65 23.43 3 .93 12.77-17.84 11.21-20.79-1.56-2.95-33.73-10.8-33.59-12.84.08-1.16 4.53-10.37 9.94-21.86 6.27-13.25-2.82-10.58-6.6-7.17Z"/>
    <path fill="#D3766A" d="M70.57 251.87s9.34 1.66 15.4 3c3.38.77 9.06 2.6 11.29 4.29 3.33 2.54 15.63 15.3 12.6 18.35-2.74 2.76-11.92-9.54-11.92-9.54s10.36 11.59 6.45 14.31c-3.91 2.72-12.43-12.56-12.43-12.56s10.38 12.15 5.9 14.31c-3.38 1.64-11.88-11.76-11.88-11.76s8.84 10.5 5.44 12.33c-3.77 2-12.39-9.85-12.39-9.85-9.44 3.2-15.25.86-19.18-1.29-.95-.46 10.72-21.59 10.72-21.59Z"/>
    <path fill="#263238" d="M94.62 263.8c1.26 1.32 2.55 2.64 3.7 4.07 1.15 1.43 2.24 2.89 3.25 4.42a30.774 30.774 0 0 1 3.35 6.31 67.287 67.287 0 0 0-7-10.43c-1.14-1.42-2.22-2.9-3.36-4.33-.03-.03.03-.07.06-.04Zm-5.22 4.07c1.54 1.75 3.14 3.44 4.6 5.26 1.46 1.82 2.69 3.66 4 5.56.1.15 0 .16-.12 0-1.4-1.85-2.85-3.45-4.27-5.29-1.42-1.84-2.79-3.73-4.28-5.51 0-.02.04-.08.07-.02Zm-5.11 2.63a51.828 51.828 0 0 1 6.43 8.58c.1.15 0 .14-.16 0-2.08-2.89-3.69-5.17-6.36-8.48-.04-.06.01-.15.09-.1Z"/>
    <path fill="#BF1B1B" d="m28.46 227.79 19.83 3.58a151.522 151.522 0 0 0 5.68-14.69c2.07-7.2-.12-9.66-7.83-4.68-5.17 3.33-17.68 15.79-17.68 15.79Z"/>
    <path fill="#263238" d="M45.87 230.94c.22 0 2.27.3 2.41.36.45-1.1.9-2.21 1.37-3.3.23-.55.48-1.09.73-1.63.25-.54.56-1.29.81-1.81 0-.09.15-.05.12 0-.26.72-.47 1.24-.69 1.86-.22.62-.41 1.1-.63 1.64-.47 1.15-.92 2.4-1.45 3.52a20.989 20.989 0 0 1-2.69-.61l.02-.03Z"/>
    <path fill="#263238" d="M30.81 226.27c2.92.33 5.83.69 8.73 1.18 1.44.24 2.89.51 4.32.8 1.43.29 2.85.73 4.29 1a.06.06 0 0 1 .042.018.059.059 0 0 1 .018.042.063.063 0 0 1-.018.043.06.06 0 0 1-.042.017c-1.42-.34-2.9-.49-4.34-.75s-2.89-.53-4.33-.78c-2.89-.5-5.77-1-8.67-1.43-.11-.03-.08-.14 0-.14Z"/>
    <path fill="#D3766A" d="M54.28 210.07c.06 1 3.44 7.7 7.69 8.22 1.39.17 2.64-7.35 2.64-7.35l.22-.53 3.07-7.48-8.14-7.42-1.18-1s-.71 2.1-1.56 4.73l-.12.37c-.05.15-.1.29-.14.43-.13.39-.27.78-.39 1.19-.12.41-.19.6-.28.92-.09.32-.19.64-.29 1a51.905 51.905 0 0 0-1.52 6.92Z"/>
    <path fill="#263238" d="M57.02 199.24a16.252 16.252 0 0 0 7.81 11.17l3.07-7.48-8.14-7.42-1.18-1s-.71 2.1-1.56 4.73Z"/>
    <path fill="#D3766A" d="M80.21 191.47c.82 14.16-7.56 16.25-10.62 16.42-2.77.16-12.23.35-14.51-13.65-2.28-14 4-18.86 10.37-19.55 6.37-.69 13.93 2.62 14.76 16.78Z"/>
    <path fill="#263238" d="M78.06 189.14c-.33 0-.64-.11-1-.17a1.488 1.488 0 0 1-.95-.36.51.51 0 0 1 0-.61 1.286 1.286 0 0 1 1.23-.34 1.84 1.84 0 0 1 1.17.61.541.541 0 0 1-.45.87Zm-9.53.88h1c.344.054.696-.01 1-.18a.517.517 0 0 0 .14-.61 1.276 1.276 0 0 0-1.15-.55c-.453-.025-.9.113-1.26.39a.542.542 0 0 0 .27.95Zm2.18 2.85s-.07 0-.07.09c.09 1 0 2.08-.82 2.45v.05c1.06-.22 1.13-1.71.89-2.59Z"/>
    <path fill="#263238" d="M69.79 191.87c-1.55 0-1.49 3.09-.05 3.12 1.44.03 1.36-3.07.05-3.12Z"/>
    <path fill="#263238" d="M69.21 192.08c-.26.18-.52.5-.85.54-.33.04-.67-.28-.93-.59h-.05c0 .6.24 1.2.89 1.28.65.08 1-.47 1.13-1.07-.01-.07-.11-.23-.19-.16Zm6.87.47s.07 0 .07.08c0 1 .12 2.07 1 2.38v.06c-1.07-.14-1.25-1.61-1.07-2.52Z"/>
    <path fill="#263238" d="M76.93 191.53c1.55-.14 1.71 3 .27 3.1-1.44.1-1.57-2.99-.27-3.1Z"/>
    <path fill="#263238" d="M77.59 191.7c.25.15.51.44.8.44.29 0 .58-.34.78-.68 0 .6-.12 1.23-.68 1.37-.56.14-.93-.36-1.1-.94.02-.08.09-.25.2-.19Zm-2.9 5.47s.24 1.43.26 2.11c0 .07-.16.1-.39.12a3.226 3.226 0 0 1-3.18-1.1c0-.07 0-.14.1-.1.89.574 1.945.837 3 .75 0-.19-.5-2.44-.39-2.45.529.024 1.05.125 1.55.3-.42-3-1.32-5.92-1.7-8.92a.1.1 0 0 1 .09-.056.1.1 0 0 1 .09.056 49.494 49.494 0 0 1 2.24 9.52c.02.34-1.4-.13-1.67-.23Zm-18.48-1.9c1.52-.23 5.12-4.83 4.55-12.26 0 0 .05 6.7-.36 7.73-.41 1.03 2-2.59 1.63-8.59a24.42 24.42 0 0 0 6.44 2.61c2.9.52 4.62.33 4.8.11.18-.22-4.09-1.14-5.34-2.33 0 0 7.84 2.78 11.33 2.72.4 0 .1-8.29-5.58-11.28s-13.8 1.59-15.87 4c0 0-2.65.64-5.18 4.87s1.91 12.68 3.58 12.42Z"/>
    <path fill="#D3766A" d="M55.35 199.46c.21.083.428.146.65.19.222.034.448.034.67 0 .291-.016.575-.098.83-.24.197-.105.378-.236.54-.39.233-.227.423-.494.56-.79l-.67-3.81s-3-4.51-5-3.46c-2 1.05.09 7.56 2.42 8.5Z"/>
    <path fill="#263238" d="M53.58 192.87v.06a6.097 6.097 0 0 1 3 3.88 1.329 1.329 0 0 0-2-.42v.09a1.495 1.495 0 0 1 1.61.56c.291.421.539.87.74 1.34.07.15.34.08.29-.09.17-2.19-1.39-5.18-3.64-5.42Z"/>
    <path fill="#fff" d="M55.56 198.87a.66.66 0 1 0 .54-.76.658.658 0 0 0-.535.502.648.648 0 0 0-.005.258Zm-1.35-1a.474.474 0 0 0 .353.429.465.465 0 0 0 .38-.066.463.463 0 0 0 .202-.327.47.47 0 0 0-.015-.196.47.47 0 0 0-.54-.38.482.482 0 0 0-.38.54Z"/>
    <path fill="#EB9481" d="m453.25 322.203 29 23.421c5.56 4.45 10.36 8.45 12.65 10.75a4.986 4.986 0 0 1 1.39 1.78v.06c-.2 2.55-34.45 48.05-36.18 49.23-1.73 1.18-5.24-3.65-5.32-6.47-.08-2.82 5.25-26.121 5.25-26.121l-28.67-23.629 21.88-29.021Z"/>
    <path fill="#EBEBEB" d="m476.29 340.823 5.95 4.801c5.56 4.45 10.36 8.45 12.65 10.75a9.701 9.701 0 0 1 1.39 1.78v.06c-.2 2.55-34.45 48.05-36.18 49.23-1.73 1.18-5.24-3.65-5.32-6.47-.08-2.82 5.25-26.121 5.25-26.121l-6.11-4.789 22.37-29.241Z"/>
    <path fill="#A6A6A6" d="M460.15 407.483c1.73-1.18 36-46.669 36.18-49.229.09-1-6.25-6.351-14.09-12.621l-.25-.199-22.42 29.1.51.37s-5.32 23.269-5.25 26.109c.07 2.84 3.59 7.67 5.32 6.47Z"/>
    <path fill="#263238" d="M458.77 405.643c5.59-7.81 28.85-38.779 35-46.079.05-.06.09 0 .05 0-5.37 7.86-28.88 38.649-34.88 46.139-.17.19-.28.11-.17-.06Zm-.46-28.209c1.71-3.44 4.95-6.78 8.84-7.47.15 0 .18.19.08.26a53.3 53.3 0 0 0-8.53 7.479.237.237 0 0 1-.31.033.24.24 0 0 1-.08-.302Zm-.33 3.169c1.71-3.45 4.95-6.789 8.84-7.479.15 0 .18.189.08.269a53.22 53.22 0 0 0-8.53 7.481.24.24 0 0 1-.39-.271Zm-.32 3.16c1.7-3.44 4.95-6.78 8.83-7.47.15 0 .19.19.08.26a52.802 52.802 0 0 0-8.52 7.49.237.237 0 0 1-.156.097.237.237 0 0 1-.276-.198.244.244 0 0 1 .042-.179Z"/>
    <path fill="#37474F" d="M437.59 294.304c2 10.14 44.1 50.579 44.1 50.579l-29.32 33.841s-59.7-59.6-56.58-82c2.71-19.48 31.87-97.81 31.87-97.81h33.64s-25.73 85.39-23.71 95.39Z"/>
    <path fill="#263238" d="M437.59 294.304c2 10.14 44.1 50.579 44.1 50.579l-29.32 33.841s-59.7-59.6-56.58-82c2.71-19.48 31.87-97.81 31.87-97.81h33.64s-25.73 85.39-23.71 95.39Z"/>
    <path fill="#37474F" d="M449.04 370.673c3.89-4.85 2.71-3.51 6.66-8.32 1.93-2.35 14.64-17.789 16.83-19.659 0-.05.13 0 .1.08-1.47 2.48-14.45 17.69-16.43 20-4 4.729-2.93 3.32-7 8a.088.088 0 0 1-.025.026.08.08 0 0 1-.034.015.088.088 0 0 1-.036.002.106.106 0 0 1-.062-.039.099.099 0 0 1-.015-.033.115.115 0 0 1-.001-.037.114.114 0 0 1 .013-.035Zm-15.67-81.309c.48-2.53 1-5.051 1.56-7.57 1.1-5.14 2.26-10.27 3.48-15.39a735.755 735.755 0 0 1 7.9-30.28c2.87-10.07 5.9-20.12 9.39-30 .43-1.22.88-2.43 1.32-3.65a.08.08 0 0 1 .029-.038.079.079 0 0 1 .121.038c-3 9.88-6.14 19.75-9 29.69-2.86 9.94-5.43 19.87-7.89 29.87-1.24 5-2.39 10.06-3.52 15.11-.547 2.48-1.087 4.96-1.62 7.44a54.21 54.21 0 0 0-1.41 7.68 11.73 11.73 0 0 0 2 6.91c1.26 2.07 2.75 4 4.18 5.95 2.87 3.9 30.26 34.42 31.14 35.25.07.06 0 .16-.11.1-3.67-3.3-26.91-28.451-29.86-32.341a201.709 201.709 0 0 1-4.27-5.849 23.405 23.405 0 0 1-3.35-5.89 13.988 13.988 0 0 1-.09-7.03Z"/>
    <path fill="#37474F" d="m433.48 198.923 6.11 80.16c5.83-27.44 21.71-80.16 21.71-80.16h-27.82Z"/>
    <path fill="#EB9481" d="M447.91 363.964s-7.27 35.369-7.27 35.389c-.09 7.12-.3 13.371-.72 16.581v.059a4.994 4.994 0 0 1-.56 2.191c-2.14 1.41-59.08 2.29-61.07 1.66-1.99-.63-.34-6.381 1.84-8.181 2.18-1.8 23.84-11.879 23.84-11.879l7.62-35.34 36.32-.48Z"/>
    <path fill="#EBEBEB" d="M378.24 419.874c2 .64 58.94-.241 61.08-1.641a.102.102 0 0 0 0-.049 4.936 4.936 0 0 0 .56-2.191.118.118 0 0 0 0-.059c.41-3.21.62-9.451.72-16.581l1.25-6.15h-36.48l-1.42 6.611s-21.65 10.099-23.85 11.889c-2.2 1.79-3.86 7.601-1.86 8.171Z"/>
    <path fill="#A6A6A6" d="M378.25 419.883c2 .64 58.93-.249 61.07-1.659.83-.52 1.18-8.821 1.32-18.871v-.31l-36.73.16v.62s-21.64 10.091-23.84 11.891c-2.2 1.8-3.82 7.589-1.82 8.169Z"/>
    <path fill="#263238" d="M378.86 417.663c9.59-.38 48.32-1 57.83-.68.08 0 .08.05 0 .06-9.5.59-48.23.92-57.83.78-.2-.01-.21-.15 0-.16Zm21.99-17.68c3.76-.76 8.39-.26 11.32 2.39.11.1 0 .26-.16.22a53.463 53.463 0 0 0-11.14-2.13.24.24 0 0 1-.187-.402.241.241 0 0 1 .167-.078Zm-2.7 1.68c3.76-.76 8.39-.249 11.32 2.391.11.11 0 .27-.16.23a52.729 52.729 0 0 0-11.14-2.141.222.222 0 0 1-.092-.014.227.227 0 0 1-.08-.049.227.227 0 0 1-.078-.167.244.244 0 0 1 .23-.25Zm-2.71 1.69c3.77-.76 8.4-.26 11.33 2.39.11.1 0 .261-.16.231a52.88 52.88 0 0 0-11.14-2.141.24.24 0 1 1-.03-.48Zm35.46-204.429a136.9 136.9 0 0 1 2.89 16.79c.71 7 1.59 13.27 2.52 14 .93.73 6.38 4.29 8.17 5.39 0 0-16.57 50.25-20.85 67-6.2 24.32-21.06 97.2-21.06 97.2h39.58s12-69.36 17.29-92.48c4.51-19.82 21.79-79.28 21.79-79.28a34.5 34.5 0 0 0-1.4-28.59s-48.93-.05-48.93-.03Z"/>
    <path fill="#37474F" d="M404 391.583c6.22 0 4.44-.12 10.66-.08 3 0 23 .15 25.88.67.06 0 .06.12 0 .13-2.85.42-22.85-.06-25.89-.14-6.22-.15-4.43-.18-10.65-.4a.09.09 0 0 1-.064-.026.094.094 0 0 1-.026-.064.09.09 0 0 1 .09-.09Zm29.51-163.809a75.176 75.176 0 0 1 10.92 7.31c.13.1 0 .32-.15.22-3.7-2.32-7.49-4.57-11.06-7.09a.265.265 0 0 1 .092-.479c.068-.014.14 0 .198.039Zm3.02-27.341c0-.14.28-.13.26 0a133.267 133.267 0 0 0-1.42 13.37c-.13 2.07-.24 13.61 3.43 13.34.62-.05 1-.59 1.24-1.47a14.33 14.33 0 0 0 .07-3.53c0-2.42 0-4.84.19-7.26a65.513 65.513 0 0 1 2.22-13.33.115.115 0 0 1 .05-.07.115.115 0 0 1 .085-.015.111.111 0 0 1 .085.135 124.887 124.887 0 0 0-1.78 18.6c0 3 .78 7.65-2.36 7.63-3.14-.02-4.07-7.75-4.14-9.83a68.503 68.503 0 0 1 2.07-17.57Z"/>
    <path fill="#37474F" d="M438.68 227.433c.199.81.343 1.632.43 2.46.124.661.124 1.34 0 2a.13.13 0 0 1-.052.064.137.137 0 0 1-.157 0 .134.134 0 0 1-.051-.064 6.763 6.763 0 0 1-.53-2c-.16-.77-.33-1.53-.47-2.3a.412.412 0 0 1 .065-.316.427.427 0 0 1 .27-.179.422.422 0 0 1 .495.335Zm36.94-.2a39.159 39.159 0 0 1-10-1.899 23.706 23.706 0 0 1-9.72-6 19.258 19.258 0 0 1-3.73-5.21c0-.08-.15-.001-.13.049a17.415 17.415 0 0 0 2.64 5.231 20.253 20.253 0 0 0 4.28 4.09 22.532 22.532 0 0 0 10.89 4.2c1.945.295 3.925.264 5.86-.09.18-.04.1-.301-.09-.371Zm-28.87 142.54c.11-.91.23-1.83.36-2.74.25-1.76.54-3.5.81-5.25.54-3.52 1.15-7 1.77-10.53 1.24-7 2.67-14 4.19-20.89.85-3.92 1.84-7.8 2.89-11.67.08-.27.46-.14.41.12-.64 3.55-1.25 7.1-2 10.62-.75 3.52-1.44 7-2.14 10.56-1.38 7-2.67 13.95-4.05 20.91-.39 2-.74 3.94-1.12 5.9a109.4 109.4 0 0 1-.6 2.94c-.21 1-.52 1.93-.68 2.92 0 .09-.15.05-.14-.05.18-.93.19-1.89.3-2.84Zm-27.29-52.579c1.32-6.57 3.1-13.05 4.88-19.5 3.6-13 7.83-25.791 12.06-38.58 1.22-3.68 2.437-7.367 3.65-11.06.61-1.84 3.59-11.78 4-12.72a.085.085 0 0 1 .041-.05.084.084 0 0 1 .064-.005.08.08 0 0 1 .049.041.077.077 0 0 1 .006.063c-.86 3.38-2 8.321-3 11.671-1 3.35-2 6.6-3.07 9.89-2 6.48-4.08 12.95-6 19.45-3.88 12.84-7.73 25.68-10.88 38.72-.88 3.66-1.76 7.31-2.57 11-.81 3.69-1.49 7.35-2.26 11a.09.09 0 0 1-.09.089.09.09 0 0 1-.09-.089c.57-6.72 1.89-13.33 3.21-19.92Z"/>
    <path fill="#37474F" d="M444.07 351.543c2.17-12.53 4.78-25 7.67-37.37 2.89-12.37 6.14-24.81 9.71-37.08 3.57-12.269 7.51-24.42 11.75-36.48a152.55 152.55 0 0 0 5.38-17.31c1.3-5.85 2-12.18.6-18.08a29.45 29.45 0 0 0-1.35-4.4c0-.1.1-.18.15-.08 4.76 11.09 1.67 23.22-2 34.15-2 6-4.1 11.94-6.06 17.94a787.46 787.46 0 0 0-5.77 18.55c-3.66 12.31-7.05 24.69-10.09 37.16a725.905 725.905 0 0 0-8.12 37.641c-2.38 12.64-4.4 25.369-6.43 38.089-.27 1.65-.48 3.31-.69 5 0 .09-.16.09-.15 0 1.56-12.669 3.22-25.22 5.4-37.73Z"/>
    <path fill="#EB9481" d="M444.87 146.384c-4.65 17-18.07 37.55-24.44 40.38-5.56 2.46-31.32-7.07-41-13.26-2.77-1.76 8.67-17.691 12-16.581 10.87 3.63 22.72 9.001 23.63 8.681 1.85-.63 13.41-14.801 21.82-24.321 9.38-10.68 9.84-1.679 7.99 5.101Zm-83.88 12.74c-2.19-.92-19.05-1.46-19.05-5.11 0-3.65 21.43-2.64 21.43-2.64l-2.38 7.75Z"/>
    <path fill="#EB9481" d="M393.37 159.544c-2.95-3.66-5.54-7.61-8.1-8.33-1.77-.51-20.87.32-23.85.14-2.98-.18-13.62.09-13.87 2.71-.35 3.69 12.25 3.66 13.59 5.55 4.64 6.52 22.29 16.17 22.29 16.17l9.94-16.24Z"/>
    <path fill="#263238" d="M347.23 154.114a2.887 2.887 0 0 1 1.22-1.65 8.98 8.98 0 0 1 4.55-1.11 41.955 41.955 0 0 1 7-.06c.05 0 .05.08 0 .08-1.75 0-3.49.049-5.23.189a21.508 21.508 0 0 0-4.73.731 3.821 3.821 0 0 0-1.82 1.09 1.506 1.506 0 0 0-.36 1.41c.51 1.61 3.69 2.089 5.15 2.409 1.92.43 3.91.811 5.83 1.201.09 0 0 .149 0 .129-2-.4-4.11-.549-6.11-.909a10.073 10.073 0 0 1-4.69-1.71 1.84 1.84 0 0 1-.81-1.8Z"/>
    <path fill="#BF1B1B" d="m394.06 157.303-15.1 22.11s23.41 11.72 32.41 11.51c8.52-.2 11.61-1.46 14.3-4 1.66-1.57 11.15-15 18.88-37.2 6.49-18.66-3.11-15.91-11.67-5.58-4.27 5.15-17.91 20.5-18.6 20.45-.69-.05-20.22-7.29-20.22-7.29Z"/>
    <path fill="#263238" d="M398.71 160.884c-2.27 3.28-4.43 6.62-6.57 10-1.06 1.65-5 8.35-6.11 10.25-.05.07.16.2.21.13 1.18-1.68 5.45-8.37 6.47-10 2.08-3.39 4.14-6.79 6.1-10.25.03-.13-.06-.19-.1-.13Z"/>
    <path fill="#000" d="M406.79 190.363c1.483.362 3.003.55 4.53.56 8.52-.2 11.61-1.46 14.3-4 1.66-1.57 11.15-15 18.87-37.2a31.45 31.45 0 0 0 2.14-9.649v-.601a4.927 4.927 0 0 0-.05-.569c0-.17-.05-.321-.08-.461a3.234 3.234 0 0 0-.93-1.819c-5.2 7.05-30.04 40.489-38.78 53.739Z" opacity=".1"/>
    <path fill="#C7C7C7" d="M408.61 148.203h-57.28v3.08h57.28v-3.08Z"/>
    <path fill="#A6A6A6" d="M351.33 148.203v3.08h34.79l-2.36-3.08h-32.43Z"/>
    <path fill="#C7C7C7" d="M381.24 151.283h-38.31L323 117.434h38.3l19.94 33.849Z"/>
    <path fill="#fff" d="M353.55 134.304c.71 1.57.18 3.22-1.18 3.69a3.27 3.27 0 0 1-3.76-2c-.72-1.56-.19-3.211 1.17-3.681a3.283 3.283 0 0 1 3.77 1.991Z"/>
    <path fill="#EBEBEB" d="M483.52 210.584c-.14.15-60-.28-60.51-.9-.76-.87 13.42-65.55 19.64-73.5 1.33-1.7 5.67-2.13 9.35-1.63a16.11 16.11 0 0 1 2.83.61h.09a6.706 6.706 0 0 1 2.08 1.05c10.16 8.28 18.49 37 20.42 45.58 3.19 14.2 6.59 28.23 6.1 28.79Z"/>
    <path fill="#BF1B1B" d="M455.56 135.303s-3.9 26.631-4.82 33.521c-.92 6.89-.05 43.349-.05 43.349l37.54 3.17s-7.86-24.21-7.94-25.75c0 0-6.23-29.09-12.65-41.11a36.399 36.399 0 0 0-12.08-13.18Zm-12.5.47s-5.07 26.941-5.52 29.161c-.45 2.22-6.94 46-6.94 46l-9.4.199 5.1-20s10.9-51.22 16.76-55.36Z"/>
    <path fill="#EB9481" d="M445.18 144.383c2.86.33 8.26-3.64 9.76-7.85.1-.29-.75-3-1.62-6.39-.52-2.05-1.06-4.34-1.4-6.47-.06-.44-12.82 5.35-12.82 5.35a34.623 34.623 0 0 1 2.58 8c.029.293.029.588 0 .881v.149c.04 1.67.44 5.98 3.5 6.33Z"/>
    <path fill="#263238" d="M441.72 137.874v.15c.462-.016.924-.063 1.38-.14 7.82-1.42 8.34-11.58 8.34-14.13-2.31.71-12.35 5.27-12.35 5.27a34.277 34.277 0 0 1 2.58 8c.044.281.061.565.05.85Z"/>
    <path fill="#EB9481" d="M451.78 106.723c2 4.57 1.27 18.61-1.73 22.1-4.34 5.001-12.31 6.49-16.82 1.07-4.37-5.25-3-23.53.4-26.79 5.04-4.8 15.12-3.13 18.15 3.62Z"/>
    <path fill="#263238" d="M439.37 116.664s.07 0 .07.09c-.08.94 0 2 .83 2.39v.06c-1.1-.2-1.18-1.66-.9-2.54Z"/>
    <path fill="#263238" d="M440.22 115.714c1.52 0 1.49 2.999.07 3.059-1.42.06-1.36-3.019-.07-3.059Zm-6.24.91s-.07-.001-.07.079c0 .95-.12 2.001-1 2.341 1.08-.08 1.24-1.53 1.07-2.42Z"/>
    <path fill="#263238" d="M433.15 115.624c-1.52-.14-1.68 2.92-.27 3 1.41.08 1.55-2.89.27-3Zm8.29-1.32c-.4-.123-.794-.266-1.18-.43a2.002 2.002 0 0 1-1.12-.67.642.642 0 0 1 .11-.78 1.614 1.614 0 0 1 1.62-.15 2.374 2.374 0 0 1 1.35 1 .686.686 0 0 1-.033.785.694.694 0 0 1-.747.245Zm-9.45-1.251c.42-.07.8-.2 1.21-.3a1.998 1.998 0 0 0 1.19-.55.647.647 0 0 0 0-.79 1.598 1.598 0 0 0-1.59-.32 2.382 2.382 0 0 0-1.45.89.695.695 0 0 0-.018.738.689.689 0 0 0 .658.332Zm7.64 9.53a3.25 3.25 0 0 1-2.17 1.41 4.026 4.026 0 0 1-1.16 0h-.43a.225.225 0 0 1-.131-.072.233.233 0 0 1-.059-.138v-.17c0-.73.07-1.84.07-1.84-.27.13-1.64.72-1.61.34a48.87 48.87 0 0 1 1.37-9.739.09.09 0 0 1 .085-.061c.019 0 .037.006.052.017a.085.085 0 0 1 .033.044c-.1 3-.73 6-.87 9.09a5.275 5.275 0 0 1 1.52-.441c.11 0-.2 2.14-.16 2.46a4.453 4.453 0 0 0 3.35-1c.09-.04.17.02.11.1Z"/>
    <path fill="#263238" d="M436.73 123.663c.396.526.919.942 1.52 1.211a1.7 1.7 0 0 0 1.05.069c.76-.19.78-.879.65-1.479a4.153 4.153 0 0 0-.33-.911 4.931 4.931 0 0 1-2.89 1.11Z"/>
    <path fill="#FF9ABB" d="M438.25 124.874a1.7 1.7 0 0 0 1.05.069c.76-.19.78-.879.65-1.479a1.786 1.786 0 0 0-1.7 1.41Z"/>
    <path fill="#263238" d="M434.37 98.653h-.24.07a.7.7 0 0 0 .17 0Zm19 4.72a15.668 15.668 0 0 0-6.06-2.33l-.54-.119s-.06-.001-.06-.061a.074.074 0 0 1-.005-.039.075.075 0 0 1 .045-.063.08.08 0 0 1 .04-.008h.29a1.681 1.681 0 0 1-.14-.14c1.093.209 2.174.473 3.24.79a7.65 7.65 0 0 1 3.19 1.97Zm-19.13-4.85-.1-.05h.18l-.08.05Zm7.36-.14h-.17l-.24-.19c-.37-.23-.74-.45-1.11-.65.225.069.446.152.66.25l.58.22.35.28a.086.086 0 0 1-.019.058.091.091 0 0 1-.051.032Z"/>
    <path fill="#263238" d="M455.87 106.424c-.81-2.75-3.08-4.19-5.62-5a7.62 7.62 0 0 1 3.16 1.92 15.636 15.636 0 0 0-6.06-2.33l-.54-.12s-.06 0-.06-.06a.08.08 0 0 1-.005-.04.084.084 0 0 1 .015-.038.07.07 0 0 1 .031-.025.067.067 0 0 1 .039-.007h.29a2.054 2.054 0 0 1-.14-.14c-1.05-1.08-4-4-6-4.51-1.08-.28-1.34.27-.65 1.14.34.21.67.44 1 .67l.35.28a.086.086 0 0 1 .04.075.086.086 0 0 1-.04.075h-.17l-.24-.19c-.37-.23-.74-.45-1.11-.65-2.3-.84-4.82-1.49-6.32-1.06-1.92.56-.9 1.44.31 2.09h.22c.052.037.11.067.17.09h-.24c-.23 0-.46-.06-.69-.08h-.24a3.91 3.91 0 0 0-2.44.83c-.92.84-.1 1.19 1.42 1.25-1.67 3.06-1.76 8-1.55 11.44.25-2.27 1.47-5.68 2.73-6 1.26-.32 1.72 1.42 3.25 1.71 1.53.29 3-2.08 5.78-1.75 2.78.33 4.68 3.1 5.39 6.78.82 4.28 1.74 6.71 4.43 6.43.88-.09 1.64-3 2-4.77a9.861 9.861 0 0 0 1.49-8.01Zm-1.29 6.88v.05a.96.96 0 0 1 .05-.16.418.418 0 0 0 0-.1.14.14 0 0 0 0-.05 11.716 11.716 0 0 0-.59-8.79 4.627 4.627 0 0 0-.6-.85 5.915 5.915 0 0 1 2.19 3.38 8.998 8.998 0 0 1-1.05 6.52Z"/>
    <path fill="#263238" d="M434.37 98.653h-.24c-.23 0-.46-.06-.69-.08h.84a.74.74 0 0 0 .09.08Zm7.23-.27h-.17l-.24-.19a9.69 9.69 0 0 1-.45-.4 5.008 5.008 0 0 1-.4-.45c.34.21.67.44 1 .67l.35.28a.09.09 0 0 1-.027.064.087.087 0 0 1-.063.026Zm5.77 2.661-.6-.18a.08.08 0 0 1-.005-.04.073.073 0 0 1 .046-.063.075.075 0 0 1 .039-.007h.29l.23.29Z"/>
    <path fill="#263238" d="M453.37 103.374a15.636 15.636 0 0 0-6.06-2.33l-.54-.12s-.06 0-.06-.06a.08.08 0 0 1-.005-.04.075.075 0 0 1 .045-.063.08.08 0 0 1 .04-.007h.29c1.049.133 2.086.351 3.1.65a7.63 7.63 0 0 1 3.19 1.97Zm-19-4.721h-.24c-.23 0-.46-.06-.69-.08h-.07a6.92 6.92 0 0 0-2.91.51 5.66 5.66 0 0 1 3.61-.52h.18a.718.718 0 0 0 .12.09Z"/>
    <path fill="#EB9481" d="M449.74 118.503s2.64-4.779 4.77-3.879c2.13.9.48 7.589-1.8 8.719a2.416 2.416 0 0 1-1.884.246 2.424 2.424 0 0 1-.861-.446 2.423 2.423 0 0 1-.615-.75l.39-3.89Z"/>
    <path fill="#263238" d="M453.99 116.534s.05 0 0 .06a6.145 6.145 0 0 0-2.75 4.14 1.344 1.344 0 0 1 .844-.733 1.343 1.343 0 0 1 1.106.163c.05 0 0 .1 0 .09a1.492 1.492 0 0 0-1.58.69 7.66 7.66 0 0 0-.64 1.4c-.06.16-.34.11-.3-.07-.3-2.15 1.07-5.29 3.32-5.74Z"/>
    <path fill="#EB9481" d="M463.11 141.433c15.06 16.87 26.39 40.731 26.26 46.331-.15 6.17-8 27.899-15.48 38.109-1 1.32-6.79.77-11.72-1.95-5.2-2.86-9.47-8-8.45-9.49 3.84-5.71 12.94-27.84 12.85-31.3-.07-3.2-7.53-22.78-10.37-34.11-2.74-10.88-.1-15.46 6.91-7.59Z"/>
    <path fill="#BF1B1B" d="m483.03 224.203-28.05-13.699s11-24.611 11.05-27.271c.05-2.66-7.25-23.47-10-33.09-2.75-9.62-1.66-20.419 10.34-5.839s22.44 36.16 23.63 41.91c1.19 5.75-6.97 37.989-6.97 37.989Z"/>
    <path fill="#263238" d="M464.59 176.174a274.584 274.584 0 0 0-1.79-5.46 124.381 124.381 0 0 0-2.16-6.07c-.73-2-1.55-3.88-2.33-5.81-.06-.14-.3-.05-.25.09.93 2.59 1.8 5.21 2.67 7.82-.65-1.19-1.32-2.381-2-3.541-.06-.1-.21.001-.15.081.78 1.45 1.61 2.869 2.45 4.279l.63 1.89c1.17 3.51 2.31 7 3.32 10.61.246.796.414 1.613.5 2.441a7.54 7.54 0 0 1-.41 2.79c-.51 1.65-1.09 3.28-1.67 4.9-1.17 3.26-2.44 6.48-3.78 9.67-1.52 3.63-3.25 7.22-5 10.76 0 0 1.05.279 1.08.3.03.02.08 0 .05-.06a6.844 6.844 0 0 0-.68-.34c1.76-3.07 3.43-6.08 4.91-9.3 1.48-3.22 2.77-6.43 3.95-9.73.6-1.69 1.19-3.4 1.72-5.12a9.66 9.66 0 0 0 .48-5c-.36-1.78-1-3.491-1.54-5.2Zm18.9 40.13a28.319 28.319 0 0 0-3.06-1.45c-.92-.43-1.82-.87-2.74-1.28l-6-2.72c-2-.89-4-1.79-6-2.66-2-.87-4-1.81-6-2.57a.068.068 0 0 0-.027-.007.086.086 0 0 0-.028.004.071.071 0 0 0-.04.038.068.068 0 0 0-.002.054c.006.018.02.033.037.041 1.86 1.15 3.85 2.1 5.8 3.08 1.95.98 3.89 1.86 5.85 2.74 1.96.88 4 1.74 6.06 2.56 1 .4 2 .76 3 1.13 1.04.447 2.109.825 3.2 1.13-.04.03 0-.09-.05-.09Z"/>
    <path fill="#EBEBEB" d="M96.09 123.17V68.65h72.13v54.52H96.09Z"/>
    <path fill="#fff" d="M101.82 117.26V74.55h60.69v42.71h-60.69Z"/>
    <path fill="#EBEBEB" d="M112.23 109.93V81.88h39.86v28.05h-39.86Z"/>
    <path fill="#DBDBDB" d="M94.46 68.65h1.64v54.52h-1.64V68.65Zm66.41 5.91h1.64v42.71h-1.64V74.56Z"/>
    <path fill="#C7C7C7" d="M110.78 106.76a5.006 5.006 0 0 0 3.087 4.619 4.996 4.996 0 0 0 5.449-1.084 5 5 0 1 0-8.536-3.535Z"/>
    <path fill="#EBEBEB" d="M8.4 169.44v-54.52h72.13v54.52H8.4Z"/>
    <path fill="#fff" d="M14.13 163.53v-42.71h60.69v42.71H14.13Z"/>
    <path fill="#DBDBDB" d="M6.77 114.92h1.64v54.52H6.77v-54.52Zm66.41 5.91h1.64v42.71h-1.64v-42.71Z"/>
    <path fill="#EBEBEB" d="M24.54 127.94v-.8H64.4v.8H24.54Zm0 17.55v-.8H64.4v.8H24.54Zm7.86-15.02v-.8h24.13v.8H32.4Zm0 21.9v-.8h24.13v.8H32.4Zm2.42 2.2v-.8h19.3v.8h-19.3Z"/>
    <path fill="#C7C7C7" d="M22.21 152.83a4.39 4.39 0 1 0 8.782 0 4.39 4.39 0 0 0-8.782 0Z"/>
    <path fill="#EBEBEB" d="M25.89 135.55h37.16v4.57H25.89v-4.57Z"/>
    <path fill="#C7C7C7" d="M382 369v7.609L374.302 419h-34.151L333 376.609V369h49Z"/>
    <path fill="#A6A6A6" d="M382 369v3.333h-49V369h49Z"/>
    <path fill="#861313" d="M349.156 402.207h6.258c.284 0 .517.233.517.517v6.207a.518.518 0 0 1-.517.517h-4.996a3.127 3.127 0 0 1-2.664-1.494l-1.692-2.832 3.094-2.915Zm17.688.001-3.109-5.751a.656.656 0 0 1 .28-.89l5.302-2.684a.649.649 0 0 1 .864.269l2.452 4.536a3.065 3.065 0 0 1-.067 3.025l-1.395 2.336-4.327-.841Zm-9.092-17.06-3.352 5.617a.645.645 0 0 1-.9.213l-5.027-3.176a.647.647 0 0 1-.207-.88l2.638-4.427a3.066 3.066 0 0 1 2.632-1.495h2.476l1.74 4.148Z"/>
    <path fill="#BF1B1B" d="M352.78 398.315c.204.463-.29.932-.73.701l-.907-.495-3.456 6.405a3.111 3.111 0 0 0 .066 3.028l-4.311-7.219a3.093 3.093 0 0 1-.068-3.068l1.394-2.581-.91-.492c-.442-.238-.315-.909.179-.984l5.802-.958a.508.508 0 0 1 .548.296l2.393 5.367Zm7.145-9.52-2.173-3.647s-1.582-2.653-1.584-2.653a3.107 3.107 0 0 0-2.632-1.495h8.405c1.097 0 2.105.574 2.67 1.516l1.53 2.571.89-.534c.429-.254.942.197.756.663l-2.157 5.467a.507.507 0 0 1-.534.321l-5.839-.699c-.497-.062-.647-.73-.222-.982l.89-.528Zm12.641 11.918-4.31 7.22a3.09 3.09 0 0 1-2.668 1.515l-2.934-.002v1.034c0 .502-.652.709-.953.311l-3.594-4.655a.504.504 0 0 1 0-.621l3.591-4.655c.309-.398.956-.186.961.311l-.005 1.035 7.28.002a3.106 3.106 0 0 0 2.632-1.495ZM232.752 234.741c.159-4.065.103-8.135-.167-12.194a155.772 155.772 0 0 0-3.823-24.83c-1.064-4.597-2.384-9.119-3.743-13.632-.043-.136-.258-.1-.222.043 4.228 15.918 7.696 32.344 7.458 48.873-.068 4.629-.604 9.178-1.045 13.779 0 .124.191.171.219.044.874-3.937 1.156-8.062 1.323-12.083Z"/>
    <path fill="#BF1B1B" d="M224.797 184.112s-6.401 16.255-4.971 20.074c1.431 3.818 4.391 4.657 4.391 4.657s-3.918 5.594-1.192 10.839c2.725 5.245 8.821 4.999 9.226 10.947.012-.02.35-24.893-7.454-46.517Z"/>
    <path fill="#263238" d="M231.568 220.338a.134.134 0 0 0 0-.084 148.889 148.889 0 0 0-6.211-32.697c0-.032-.063-.024-.051 0a240.316 240.316 0 0 1 3.361 14.34 7.017 7.017 0 0 0-3.059-1.704s-.032.023 0 .031c1.192.513 2.316 1.105 3.154 2.11.188.943.37 1.886.545 2.829-1.431-1.589-3.417-2.384-5.404-3.147-.028 0-.04.032 0 .044 2.066.838 4.124 1.927 5.527 3.707a191.86 191.86 0 0 1 1.287 8.118 7.696 7.696 0 0 0-3.818-2.185c-.044 0-.072.055-.024.067a8.07 8.07 0 0 1 3.87 2.479l.024.02c.131.954.25 1.912.366 2.869a9.908 9.908 0 0 0-2.679-1.617.028.028 0 0 0-.01.009.02.02 0 0 0-.004.013c0 .004.001.009.004.013a.028.028 0 0 0 .01.009 9.11 9.11 0 0 1 2.682 1.772.073.073 0 0 0 .036 0c.104.91.211 1.82.302 2.729a12.983 12.983 0 0 0-5.431-3.874c-.04-.019-.064.048-.02.064a14.205 14.205 0 0 1 5.352 4.116.112.112 0 0 0 .06.047.108.108 0 0 0 .075-.003c.135 1.399.262 2.801.362 4.204 0 .02.035.02.035 0-.114-1.415-.227-2.841-.341-4.279Z"/>
    <path fill="#263238" d="M226.422 198.587a7.985 7.985 0 0 0-3.846-1.192.026.026 0 0 0-.017.007.028.028 0 0 0-.007.017c0 .007.003.013.007.017.004.005.011.007.017.007a15.06 15.06 0 0 1 3.802 1.244.059.059 0 0 0 .062-.032.06.06 0 0 0 .003-.037.06.06 0 0 0-.021-.031Zm.775 17.209a8.135 8.135 0 0 0-2.885-.993c-.036 0-.04.047 0 .051.994.201 1.956.539 2.857 1.006.036.027.083-.04.028-.064Z"/>
    <path fill="#BF1B1B" d="M249.583 204.472a43.183 43.183 0 0 0-7.41 6.481 26.587 26.587 0 0 0-5.198 8.812 65.994 65.994 0 0 0-3.874 21.083 51.238 51.238 0 0 0 1.145 11.857.11.11 0 0 0 .128.083.107.107 0 0 0 .069-.044.106.106 0 0 0 .021-.079 66.69 66.69 0 0 1 .115-20.725c1.105-6.727 2.83-14.042 7.105-19.505 2.328-2.976 5.229-5.317 8.098-7.737.151-.147-.044-.357-.199-.226Z"/>
    <path fill="#BF1B1B" d="M234.043 235.989a39.791 39.791 0 0 1 5.404-6.906c3.202-3.202 5.9-5.479 6.317-7.597.418-2.118-3.206-3.679-3.206-3.679s4.43.794 5.646-1.065c1.216-1.86 1.796-12.636 1.796-12.636s-8.066 5.758-11.821 13.828c-3.755 8.07-4.136 18.055-4.136 18.055Z"/>
    <path fill="#263238" d="M247.119 214.215a6.983 6.983 0 0 0-1.589-.056c-.068 0-.06.111 0 .111.532 0 1.061-.024 1.589 0a.025.025 0 0 0 .012-.011.034.034 0 0 0 .005-.017.033.033 0 0 0-.005-.016.025.025 0 0 0-.012-.011Zm-5.805 10.45c-.85.02-1.691.19-2.483.5-.02 0 0 .04 0 .036.818-.195 1.649-.274 2.479-.397a.074.074 0 0 0 .05-.019.074.074 0 0 0 .022-.049.078.078 0 0 0-.019-.05.069.069 0 0 0-.049-.021Zm-1.744-3.608a4.955 4.955 0 0 0-1.053.095.03.03 0 0 0-.015.012.03.03 0 0 0 0 .036.03.03 0 0 0 .015.012c.352.018.704.001 1.053-.052a.055.055 0 0 0 .025-.02.06.06 0 0 0 .01-.032.06.06 0 0 0-.01-.031.055.055 0 0 0-.025-.02Z"/>
    <path fill="#BF1B1B" d="M210.401 215.887c2.625.89 5.14 2.073 7.498 3.529a22.41 22.41 0 0 1 6.242 5.932 55.46 55.46 0 0 1 8.011 16.168 43.12 43.12 0 0 1 1.815 9.842c0 .025-.01.049-.027.067a.095.095 0 0 1-.135 0 .095.095 0 0 1-.028-.067 56.065 56.065 0 0 0-4.884-16.748c-2.435-5.149-5.534-10.668-10.255-14.105-2.571-1.868-5.463-3.092-8.344-4.371-.151-.084-.044-.298.107-.247Z"/>
    <path fill="#BF1B1B" d="M230.268 237.817a33.486 33.486 0 0 0-5.96-4.339c-3.334-1.852-6.043-3.072-6.87-4.689-.826-1.617 1.748-3.719 1.748-3.719s-3.405 1.669-4.815.445c-1.411-1.224-4.371-9.81-4.371-9.81s7.859 2.781 12.766 8.459c4.908 5.678 7.502 13.653 7.502 13.653Z"/>
    <path fill="#263238" d="M223.744 229.925a6.104 6.104 0 0 0-2.281.283c-.02 0 0 .035 0 .031a17.504 17.504 0 0 1 2.273-.23.045.045 0 0 0 .024-.014.047.047 0 0 0 .011-.025.043.043 0 0 0-.006-.027.046.046 0 0 0-.021-.018Zm-6.854-8.987a3.915 3.915 0 0 0-1.053.059.034.034 0 0 0-.023.01.034.034 0 0 0-.009.022c0 .008.004.017.009.022.006.006.015.01.023.01.35-.036.687-.024 1.037-.036.012.002.024 0 .033-.007a.044.044 0 0 0 .019-.029.044.044 0 0 0-.008-.033.039.039 0 0 0-.028-.018Z"/>
    <path fill="#455A64" d="M240.404 262.209h-17.737l2.527-18.524.648-4.752h11.383l.648 4.752 2.531 18.524Z"/>
    <path fill="#263238" d="M237.873 243.685h-12.679l.648-4.752h11.383l.648 4.752Z"/>
    <path fill="#455A64" d="M238.855 237.284h-14.642v4.021h14.642v-4.021Z"/>
    <path fill="#FFFEFD" d="M84.96 189.698a11.92 11.92 0 0 1-2-6.6c0-8.36 9.18-15.14 20.5-15.14s20.5 6.78 20.5 15.14-9.18 15.14-20.5 15.14a24.593 24.593 0 0 1-14.14-4.19l-7.07 1.8 2.71-6.15Z"/>
    <path fill="#263238" d="M84.96 189.698a11.67 11.67 0 0 1-.56-12.7 16.242 16.242 0 0 1 4.52-5 21.459 21.459 0 0 1 6-3.07 27.468 27.468 0 0 1 6.59-1.35 28.09 28.09 0 0 1 6.73.32 22.368 22.368 0 0 1 12 5.85 14.301 14.301 0 0 1 3.61 5.78c.699 2.22.72 4.598.06 6.83a14.082 14.082 0 0 1-3.52 5.83 20.007 20.007 0 0 1-5.53 3.92 26.494 26.494 0 0 1-13.15 2.4 24.412 24.412 0 0 1-12.6-4.27h.18l-7.05 1.76-.24.06.1-.23 2.86-6.13Zm0 0-2.64 6.2-.14-.17 7-1.9h.1l.09.07a24.066 24.066 0 0 0 12.36 4 26.904 26.904 0 0 0 6.52-.46 23.142 23.142 0 0 0 6.19-2 18.92 18.92 0 0 0 5.26-3.76 13.198 13.198 0 0 0 3.26-5.45c.59-2.056.559-4.241-.09-6.28a13.26 13.26 0 0 0-3.34-5.39 21.425 21.425 0 0 0-11.5-5.66 27.336 27.336 0 0 0-13 .82 18.571 18.571 0 0 0-10.34 7.59 11.679 11.679 0 0 0-1.74 6.23 12.14 12.14 0 0 0 2.01 6.16Z"/>
    <path fill="#263238" d="M110.79 183.098a2.13 2.13 0 1 0 2.13-2.13 2.141 2.141 0 0 0-2.13 2.13Zm-9.5 0a2.13 2.13 0 1 0 4.258 0 2.13 2.13 0 0 0-4.258 0Zm-9.5 0a2.13 2.13 0 1 0 4.258 0 2.13 2.13 0 0 0-4.258 0Z"/>
    <path fill="#FFFEFD" d="M414.45 114.128a11.997 11.997 0 0 0 2-6.6c0-8.37-9.18-15.15-20.51-15.15-11.33 0-20.49 6.78-20.49 15.15 0 8.37 9.17 15.14 20.49 15.14a24.65 24.65 0 0 0 14.15-4.19l7.06 1.8-2.7-6.15Z"/>
    <path fill="#263238" d="M414.45 114.128a12.137 12.137 0 0 0 1.91-6.25 11.72 11.72 0 0 0-1.73-6.24 18.57 18.57 0 0 0-10.35-7.58 27.438 27.438 0 0 0-13-.83 21.433 21.433 0 0 0-11.49 5.66 13.405 13.405 0 0 0-3.35 5.4 10.801 10.801 0 0 0-.08 6.27 13.184 13.184 0 0 0 3.26 5.46 19.019 19.019 0 0 0 5.25 3.76 23.637 23.637 0 0 0 6.19 2c2.151.416 4.343.574 6.53.47a24.058 24.058 0 0 0 12.35-4l.1-.06h.09l7 1.9-.14.16-2.54-6.12Zm0 0 2.85 6.1.11.22-.25-.06-7.09-1.69h.19a24.404 24.404 0 0 1-12.58 4.3 26.314 26.314 0 0 1-13.15-2.4 19.814 19.814 0 0 1-5.52-3.91 14.111 14.111 0 0 1-3.53-5.83c-.66-2.232-.639-4.61.06-6.83a14.271 14.271 0 0 1 3.62-5.78 22.314 22.314 0 0 1 12-5.85 28.644 28.644 0 0 1 6.73-.33c2.243.183 4.456.637 6.59 1.35a21.739 21.739 0 0 1 6 3.08 16.073 16.073 0 0 1 4.52 5 11.705 11.705 0 0 1-.55 12.71v-.08Z"/>
    <path fill="#263238" d="M388.611 107.528a2.134 2.134 0 0 1-1.309 1.965 2.127 2.127 0 0 1-2.317-.449 2.133 2.133 0 0 1-.481-2.311 2.135 2.135 0 0 1 3.475-.725 2.122 2.122 0 0 1 .632 1.52Zm9.5 0a2.131 2.131 0 1 1-4.095-.822 2.124 2.124 0 0 1 1.975-1.308 2.121 2.121 0 0 1 2.12 2.13Zm9.5 0a2.134 2.134 0 0 1-1.309 1.965 2.127 2.127 0 0 1-2.317-.449 2.133 2.133 0 0 1-.481-2.311 2.135 2.135 0 0 1 3.475-.725 2.122 2.122 0 0 1 .632 1.52Z"/>
    <path fill="#37474F" d="M210.68 262h70.28v157.25h-70.28V262Z"/>
    <path fill="#455A64" d="M201.23 262h9.45v157.25h-9.45V262Z"/>
  </g>
  <defs>
    <clipPath id="a">
      <path fill="#fff" d="M0 0h500v500H0z"/>
    </clipPath>
  </defs>
</svg>
