<svg width="2729" height="2729" xmlns="http://www.w3.org/2000/svg" xmlns:xlink="http://www.w3.org/1999/xlink" overflow="hidden"><defs><clipPath id="clip0"><rect x="0" y="725" width="2729" height="2729"/></clipPath></defs><g clip-path="url(#clip0)" transform="matrix(1 0 0 1 0 -725)"><path d="M2729 2089.5C2729 2843.09 2118.09 3454 1364.5 3454 610.907 3454 0 2843.09 0 2089.5 0 1335.91 610.907 725 1364.5 725 2118.09 725 2729 1335.91 2729 2089.5Z" fill="#BF1B1B" fill-rule="evenodd"/><path d="M755.912 1725.61C725.362 1695.02 725.362 1645.43 755.912 1614.83L1309.06 1060.94C1339.61 1030.35 1389.14 1030.35 1419.69 1060.94L1475 1116.33 811.226 1781 755.912 1725.61Z" fill="#FFF5F5" fill-rule="evenodd"/><path d="M811 1781.01 875.391 1624 1133 1881.28 977.201 1947 811 1781.01Z" fill="#FFF5F5" fill-rule="evenodd"/><path d="M1585.88 1337.93 977 1946.73 1032.35 2002.07C1062.92 2032.64 1112.49 2032.64 1143.06 2002.07L1641.24 1503.96 1825.5 1688.21 1918 1559.31 1696.59 1337.93C1666.02 1307.36 1616.45 1307.36 1585.88 1337.93Z" fill="#FFF5F5" fill-rule="evenodd"/><path d="M1917.78 1559 1364.28 2113.31 1238.92 1987.77 1184.96 2041.81C1163.8 2062.99 1137.44 2075.8 1110 2080.21L1254.05 2224.47 1254.47 2224.05 1309.4 2279.06C1339.94 2309.65 1389.47 2309.65 1420.01 2279.06L1973.09 1725.17C2003.64 1694.58 2003.64 1644.98 1973.09 1614.39L1917.78 1559Z" fill="#FFF5F5" fill-rule="evenodd"/><path d="M1617 1258.44 1475.6 1117 1328 1190.46 1488.5 1351 1542.84 1296.65C1563.79 1275.69 1589.84 1262.95 1617 1258.44Z" fill="#FFF5F5" fill-rule="evenodd"/><path d="M698.108 2493.76C711.572 2493.76 721.859 2495.28 728.971 2498.33 736.082 2501.37 742.306 2504.67 747.641 2508.22 750.689 2509.99 753.103 2511.39 754.88 2512.4 756.912 2513.16 758.818 2513.54 760.595 2513.54 763.134 2513.54 764.914 2512.15 765.929 2509.36 767.2 2506.57 768.215 2502.38 768.977 2496.8L777.741 2496.8C777.488 2501.37 777.106 2506.82 776.598 2513.16 776.345 2519.25 776.089 2527.37 775.836 2537.51 775.836 2547.65 775.836 2560.97 775.836 2577.46L767.072 2577.46C766.31 2565.03 763.515 2552.98 758.69 2541.31 754.118 2529.65 747.259 2520.14 738.115 2512.78 729.224 2505.43 717.793 2501.75 703.823 2501.75 690.869 2501.75 680.073 2505.68 671.437 2513.54 663.055 2521.15 658.864 2531.3 658.864 2543.98 658.864 2555.14 661.659 2564.52 667.246 2572.13 672.833 2579.49 680.454 2586.46 690.107 2593.05 700.013 2599.39 711.191 2606.5 723.636 2614.36 736.338 2622.48 747.768 2630.59 757.928 2638.71 768.087 2646.57 776.089 2655.32 781.932 2664.96 787.775 2674.59 790.695 2686.26 790.695 2699.96 790.695 2716.44 786.757 2730.14 778.884 2741.04 771.263 2751.7 760.976 2759.69 748.021 2765.01 735.067 2770.34 720.841 2773 705.348 2773 691.122 2773 679.82 2771.48 671.437 2768.44 663.055 2765.39 655.944 2762.22 650.1 2758.92 644.513 2755.37 640.194 2753.6 637.146 2753.6 634.607 2753.6 632.701 2754.99 631.431 2757.78 630.415 2760.57 629.526 2764.76 628.763 2770.34L620 2770.34C620.509 2764.76 620.762 2758.29 620.762 2750.93 621.015 2743.33 621.143 2733.43 621.143 2721.26 621.396 2709.09 621.524 2693.74 621.524 2675.23L630.288 2675.23C631.303 2690.95 634.098 2705.66 638.67 2719.36 643.495 2733.05 650.735 2744.09 660.388 2752.46 670.294 2760.57 683.377 2764.63 699.632 2764.63 708.268 2764.63 716.269 2762.98 723.636 2759.69 731.004 2756.39 736.972 2751.19 741.544 2744.09 746.116 2736.99 748.403 2727.86 748.403 2716.7 748.403 2706.3 745.863 2697.17 740.782 2689.3 735.957 2681.44 729.099 2674.21 720.207 2667.62 711.572 2660.77 701.41 2653.8 689.726 2646.7 677.787 2639.09 666.612 2631.48 656.197 2623.87 645.781 2616.26 637.399 2607.38 631.05 2597.24 624.953 2587.09 621.905 2575.05 621.905 2561.1 621.905 2545.63 625.462 2532.95 632.574 2523.05 639.941 2513.16 649.339 2505.81 660.769 2500.99 672.453 2496.17 684.901 2493.76 698.108 2493.76ZM1040.52 2498.33C1039.51 2508.98 1038.74 2519.38 1038.24 2529.52 1037.98 2539.41 1037.85 2547.02 1037.85 2552.35 1037.85 2558.18 1037.98 2563.76 1038.24 2569.09 1038.49 2574.41 1038.74 2578.98 1039 2582.78L1030.23 2582.78C1027.69 2563.76 1024.27 2548.8 1019.95 2537.89 1015.88 2526.99 1009.91 2519.12 1002.04 2514.3 994.165 2509.49 982.863 2507.08 968.129 2507.08L951.745 2507.08 951.745 2723.92C951.745 2734.07 952.635 2741.68 954.412 2746.75 956.445 2751.82 960.255 2755.25 965.842 2757.02 971.685 2758.54 980.068 2759.56 990.989 2760.07L990.989 2767.67C983.878 2767.17 974.734 2766.91 963.556 2766.91 952.381 2766.66 940.951 2766.53 929.265 2766.53 917.073 2766.53 905.517 2766.66 894.592 2766.91 883.924 2766.91 875.288 2767.17 868.683 2767.67L868.683 2760.07C879.608 2759.56 887.862 2758.54 893.449 2757.02 899.039 2755.25 902.849 2751.82 904.88 2746.75 906.913 2741.68 907.928 2734.07 907.928 2723.92L907.928 2507.08 891.163 2507.08C876.94 2507.08 865.763 2509.49 857.634 2514.3 849.508 2519.12 843.411 2526.99 839.345 2537.89 835.282 2548.8 831.98 2563.76 829.439 2582.78L820.675 2582.78C821.184 2578.98 821.437 2574.41 821.437 2569.09 821.693 2563.76 821.818 2558.18 821.818 2552.35 821.818 2547.02 821.565 2539.41 821.057 2529.52 820.803 2519.38 820.169 2508.98 819.151 2498.33 830.075 2498.58 842.012 2498.83 854.967 2499.09 867.922 2499.34 881.004 2499.47 894.211 2499.47 907.422 2499.47 919.358 2499.47 930.027 2499.47 940.695 2499.47 952.507 2499.47 965.461 2499.47 978.416 2499.47 991.498 2499.34 1004.71 2499.09 1017.92 2498.83 1029.85 2498.58 1040.52 2498.33ZM1065.94 2498.33C1071.79 2498.58 1079.28 2498.83 1088.42 2499.09 1097.82 2499.34 1107.09 2499.47 1116.24 2499.47 1128.43 2499.47 1139.99 2499.34 1150.91 2499.09 1162.09 2498.83 1169.96 2498.71 1174.53 2498.71 1196.12 2498.71 1214.03 2501.5 1228.26 2507.08 1242.73 2512.65 1253.4 2520.52 1260.26 2530.66 1267.37 2540.55 1270.93 2551.97 1270.93 2564.9 1270.93 2572.76 1269.28 2581.13 1265.98 2590.01 1262.93 2598.63 1257.47 2606.75 1249.59 2614.36 1241.72 2621.71 1231.05 2627.8 1217.59 2632.62 1204.13 2637.44 1186.98 2639.85 1166.15 2639.85L1129.57 2639.85 1129.57 2632.24 1162.34 2632.24C1179.36 2632.24 1192.31 2629.45 1201.2 2623.87 1210.35 2618.04 1216.44 2610.43 1219.49 2601.04 1222.8 2591.41 1224.45 2580.75 1224.45 2569.09 1224.45 2549.05 1220.13 2533.58 1211.49 2522.67 1202.85 2511.51 1187.87 2505.93 1166.53 2505.93 1155.61 2505.93 1148.37 2508.09 1144.81 2512.4 1141.51 2516.71 1139.86 2525.46 1139.86 2538.65L1139.86 2727.35C1139.86 2736.48 1140.62 2743.33 1142.15 2747.89 1143.67 2752.46 1146.59 2755.5 1150.91 2757.02 1155.23 2758.54 1161.58 2759.56 1169.96 2760.07L1169.96 2767.67C1163.86 2767.17 1156.12 2766.91 1146.72 2766.91 1137.57 2766.66 1128.18 2766.53 1118.52 2766.53 1107.85 2766.53 1097.82 2766.66 1088.42 2766.91 1079.28 2766.91 1071.79 2767.17 1065.94 2767.67L1065.94 2760.07C1074.58 2759.56 1081.06 2758.54 1085.37 2757.02 1089.69 2755.5 1092.49 2752.46 1093.76 2747.89 1095.28 2743.33 1096.04 2736.48 1096.04 2727.35L1096.04 2538.65C1096.04 2529.27 1095.28 2522.42 1093.76 2518.11 1092.49 2513.54 1089.57 2510.5 1084.99 2508.98 1080.68 2507.2 1074.32 2506.19 1065.94 2505.93L1065.94 2498.33ZM1130.33 2633.38C1143.29 2633.89 1153.7 2634.52 1161.58 2635.28 1169.45 2635.79 1176.06 2636.3 1181.39 2636.8 1186.72 2637.31 1191.68 2637.95 1196.25 2638.71 1215.3 2641.24 1229.15 2646.32 1237.78 2653.92 1246.67 2661.53 1252.77 2673.2 1256.07 2688.92L1265.59 2727.73C1267.88 2738.63 1270.29 2746.37 1272.83 2750.93 1275.63 2755.5 1279.69 2757.78 1285.03 2757.78 1289.09 2757.53 1292.39 2756.39 1294.93 2754.36 1297.73 2752.08 1300.65 2749.03 1303.7 2745.23L1309.03 2749.41C1303.19 2757.27 1297.09 2763.24 1290.74 2767.29 1284.39 2771.1 1275.88 2773 1265.21 2773 1254.29 2773 1244.89 2770.21 1237.02 2764.63 1229.4 2758.8 1223.94 2747.89 1220.63 2731.91L1213.01 2693.87C1210.73 2682.96 1208.19 2673.58 1205.39 2665.72 1202.6 2657.6 1198.66 2651.26 1193.58 2646.7 1188.76 2642.13 1181.65 2639.85 1172.25 2639.85L1131.1 2639.85 1130.33 2633.38ZM1448.52 2493C1473.41 2493 1495.25 2498.45 1514.05 2509.36 1533.1 2520.26 1547.83 2535.99 1558.25 2556.53 1568.66 2576.82 1573.87 2601.55 1573.87 2630.72 1573.87 2659.12 1568.54 2683.98 1557.87 2705.28 1547.2 2726.59 1532.34 2743.2 1513.29 2755.12 1494.24 2767.04 1472.52 2773 1448.14 2773 1422.99 2773 1401.02 2767.55 1382.22 2756.64 1363.42 2745.74 1348.82 2730.01 1338.4 2709.47 1327.99 2688.92 1322.78 2664.2 1322.78 2635.28 1322.78 2606.88 1328.12 2582.02 1338.78 2560.72 1349.71 2539.41 1364.57 2522.8 1383.36 2510.88 1402.16 2498.96 1423.88 2493 1448.52 2493ZM1446.99 2499.85C1431.24 2499.85 1417.53 2505.55 1405.84 2516.97 1394.16 2528.38 1385.14 2544.11 1378.79 2564.14 1372.44 2584.18 1369.26 2607.38 1369.26 2633.76 1369.26 2660.64 1372.82 2684.11 1379.93 2704.14 1387.04 2723.92 1396.7 2739.27 1408.89 2750.17 1421.08 2760.83 1434.67 2766.15 1449.66 2766.15 1465.41 2766.15 1479 2760.45 1490.43 2749.03 1502.11 2737.62 1511.13 2721.89 1517.48 2701.86 1524.09 2681.57 1527.39 2658.36 1527.39 2632.24 1527.39 2605.1 1523.7 2581.64 1516.34 2561.86 1509.23 2542.08 1499.57 2526.86 1487.38 2516.21 1475.44 2505.3 1461.98 2499.85 1446.99 2499.85ZM1847.82 2498.33 1847.82 2505.93C1839.19 2506.44 1832.71 2507.96 1828.39 2510.5 1824.07 2513.04 1821.15 2517.22 1819.63 2523.05 1818.35 2528.63 1817.72 2536.62 1817.72 2547.02L1817.72 2769.2C1815.69 2769.2 1813.66 2769.2 1811.62 2769.2 1809.59 2769.2 1807.43 2769.2 1805.15 2769.2L1643.6 2534.85 1643.6 2717.46C1643.6 2728.11 1644.36 2736.48 1645.88 2742.57 1647.41 2748.4 1650.71 2752.58 1655.79 2755.12 1660.87 2757.66 1668.62 2759.3 1679.03 2760.07L1679.03 2767.67C1674.21 2767.17 1667.98 2766.91 1660.36 2766.91 1652.99 2766.66 1646.01 2766.53 1639.41 2766.53 1633.06 2766.53 1626.7 2766.66 1620.35 2766.91 1614 2766.91 1608.8 2767.17 1604.73 2767.67L1604.73 2760.07C1613.11 2759.3 1619.46 2757.78 1623.78 2755.5 1628.1 2752.96 1631.02 2748.78 1632.55 2742.95 1634.07 2737.11 1634.83 2729.12 1634.83 2718.98L1634.83 2538.65C1634.83 2529.27 1634.07 2522.42 1632.55 2518.11 1631.02 2513.54 1628.1 2510.5 1623.78 2508.98 1619.46 2507.2 1613.11 2506.19 1604.73 2505.93L1604.73 2498.33C1608.8 2498.58 1614 2498.83 1620.35 2499.09 1626.7 2499.34 1633.06 2499.47 1639.41 2499.47 1644.99 2499.47 1650.45 2499.34 1655.79 2499.09 1661.12 2498.83 1665.82 2498.58 1669.89 2498.33L1808.96 2696.91 1808.96 2548.54C1808.96 2537.64 1808.07 2529.27 1806.29 2523.43 1804.77 2517.6 1801.46 2513.42 1796.38 2510.88 1791.3 2508.09 1783.68 2506.44 1773.52 2505.93L1773.52 2498.33C1778.09 2498.58 1784.19 2498.83 1791.81 2499.09 1799.43 2499.34 1806.54 2499.47 1813.15 2499.47 1819.5 2499.47 1825.85 2499.34 1832.2 2499.09 1838.55 2498.83 1843.76 2498.58 1847.82 2498.33ZM2004.84 2493C2021.6 2493 2035.19 2495.53 2045.61 2500.61 2056.02 2505.43 2065.55 2511.13 2074.18 2517.73 2077.48 2520.26 2080.02 2521.53 2081.8 2521.53 2086.63 2521.53 2089.8 2513.8 2091.33 2498.33L2100.09 2498.33C2099.58 2507.96 2099.2 2519.63 2098.95 2533.33 2098.69 2546.77 2098.57 2564.77 2098.57 2587.35L2089.8 2587.35C2088.02 2575.17 2085.61 2563.89 2082.57 2553.49 2079.77 2543.09 2074.82 2534.21 2067.71 2526.86 2060.85 2518.74 2051.83 2512.4 2040.65 2507.84 2029.73 2503.27 2018.55 2500.99 2007.12 2500.99 1993.91 2500.99 1982.23 2504.29 1972.07 2510.88 1961.91 2517.22 1953.27 2526.35 1946.16 2538.27 1939.3 2550.19 1933.97 2564.27 1930.16 2580.5 1926.6 2596.48 1924.82 2614.11 1924.82 2633.38 1924.82 2679.03 1931.81 2712.51 1945.78 2733.82 1960 2754.87 1981.34 2765.39 2009.79 2765.39 2017.92 2765.39 2024.9 2764.25 2030.75 2761.97 2036.84 2759.69 2041.67 2757.4 2045.23 2755.12 2049.54 2752.08 2052.34 2749.16 2053.61 2746.37 2054.88 2743.33 2055.51 2739.39 2055.51 2734.58L2055.51 2697.67C2055.51 2686.77 2054.5 2678.78 2052.47 2673.71 2050.69 2668.38 2047 2664.83 2041.42 2663.05 2035.83 2661.02 2027.7 2659.88 2017.03 2659.63L2017.03 2652.02C2021.86 2652.27 2027.57 2652.53 2034.18 2652.78 2040.78 2652.78 2047.64 2652.91 2054.75 2653.16 2062.12 2653.16 2068.72 2653.16 2074.56 2653.16 2083.71 2653.16 2091.96 2653.04 2099.33 2652.78 2106.95 2652.53 2113.17 2652.27 2118 2652.02L2118 2659.63C2112.67 2659.88 2108.6 2660.77 2105.81 2662.29 2103.27 2663.82 2101.49 2666.86 2100.47 2671.42 2099.71 2675.99 2099.33 2682.96 2099.33 2692.35L2099.33 2767.67 2091.71 2767.67C2091.45 2763.36 2090.44 2758.67 2088.66 2753.6 2087.14 2748.52 2084.72 2745.99 2081.42 2745.99 2079.64 2745.99 2077.74 2746.37 2075.71 2747.13 2073.93 2747.89 2070.75 2749.79 2066.18 2752.84 2057.29 2758.92 2048.02 2763.87 2038.37 2767.67 2028.71 2771.23 2017.79 2773 2005.6 2773 1978.42 2773 1955.18 2767.67 1935.87 2757.02 1916.57 2746.12 1901.84 2730.52 1891.68 2710.23 1881.77 2689.68 1876.82 2665.34 1876.82 2637.18 1876.82 2607.76 1882.28 2582.27 1893.2 2560.72 1904.38 2539.16 1919.49 2522.55 1938.54 2510.88 1957.85 2498.96 1979.94 2493 2004.84 2493Z" fill="#FFF5F5" fill-rule="evenodd"/><path d="M681.817 2864.97C680.147 2863.08 678.198 2861.42 675.972 2859.98 673.747 2858.42 671.242 2857.09 668.458 2855.98 665.674 2854.87 662.668 2853.98 659.441 2853.32 656.323 2852.65 652.983 2852.32 649.422 2852.32 639.069 2852.32 631.442 2854.32 626.545 2858.31 621.757 2862.19 619.365 2867.52 619.365 2874.29 619.365 2878.95 620.478 2882.61 622.704 2885.27 625.042 2887.94 628.661 2890.1 633.558 2891.76 638.455 2893.43 644.691 2895.15 652.261 2896.92 660.722 2898.7 668.012 2900.81 674.135 2903.25 680.259 2905.69 684.99 2909.02 688.329 2913.23 691.669 2917.34 693.339 2922.94 693.339 2930.04 693.339 2935.48 692.282 2940.2 690.166 2944.19 688.05 2948.19 685.102 2951.52 681.316 2954.18 677.53 2956.84 673.021 2958.84 667.79 2960.17 662.559 2961.39 656.824 2962 650.591 2962 644.467 2962 638.568 2961.39 632.89 2960.17 627.325 2958.84 622.036 2956.95 617.027 2954.51 612.017 2951.96 607.342 2948.74 603 2944.86L608.844 2935.37C610.96 2937.59 613.465 2939.7 616.359 2941.7 619.365 2943.58 622.649 2945.3 626.211 2946.85 629.885 2948.41 633.78 2949.63 637.9 2950.52 642.129 2951.29 646.471 2951.68 650.924 2951.68 660.388 2951.68 667.735 2949.96 672.967 2946.52 678.31 2943.08 680.982 2937.98 680.982 2931.21 680.982 2926.33 679.646 2922.44 676.974 2919.56 674.302 2916.56 670.295 2914.12 664.951 2912.24 659.608 2910.35 653.041 2908.52 645.247 2906.74 637.01 2904.86 630.052 2902.75 624.374 2900.42 618.696 2898.09 614.41 2895.04 611.516 2891.27 608.732 2887.38 607.342 2882.28 607.342 2875.95 607.342 2868.63 609.124 2862.47 612.685 2857.48 616.359 2852.37 621.368 2848.55 627.714 2845.99 634.059 2843.33 641.352 2842 649.589 2842 654.82 2842 659.663 2842.55 664.116 2843.66 668.68 2844.66 672.854 2846.16 676.64 2848.16 680.536 2850.16 684.155 2852.65 687.494 2855.65L681.817 2864.97ZM832.674 2961.83C824.325 2961.83 816.756 2960.17 809.964 2956.84 803.173 2953.51 797.329 2949.02 792.431 2943.36 787.534 2937.59 783.748 2931.16 781.076 2924.05 778.405 2916.84 777.068 2909.46 777.068 2901.92 777.068 2894.04 778.459 2886.55 781.243 2879.45 784.027 2872.24 787.923 2865.86 792.932 2860.31 798.054 2854.65 804.008 2850.21 810.8 2846.99 817.591 2843.66 824.938 2842 832.841 2842 841.191 2842 848.76 2843.72 855.551 2847.16 862.343 2850.6 868.13 2855.2 872.918 2860.97 877.815 2866.74 881.601 2873.18 884.273 2880.28 886.944 2887.38 888.28 2894.65 888.28 2902.08 888.28 2909.96 886.89 2917.51 884.106 2924.72 881.322 2931.82 877.427 2938.2 872.417 2943.86 867.407 2949.41 861.508 2953.79 854.717 2957.01 847.925 2960.22 840.578 2961.83 832.674 2961.83ZM788.757 2901.92C788.757 2908.35 789.814 2914.57 791.93 2920.56 794.046 2926.44 797.052 2931.71 800.947 2936.37 804.843 2940.92 809.463 2944.58 814.807 2947.35 820.263 2950.02 826.217 2951.35 832.674 2951.35 839.466 2951.35 845.532 2949.96 850.876 2947.19 856.331 2944.3 860.95 2940.53 864.735 2935.87 868.631 2931.1 871.582 2925.77 873.586 2919.89 875.59 2914.01 876.592 2908.02 876.592 2901.92 876.592 2895.48 875.535 2889.32 873.419 2883.44 871.303 2877.56 868.242 2872.29 864.234 2867.63 860.339 2862.97 855.719 2859.31 850.375 2856.65 845.031 2853.98 839.132 2852.65 832.674 2852.65 825.995 2852.65 819.929 2854.04 814.473 2856.81 809.13 2859.59 804.509 2863.36 800.614 2868.13 796.828 2872.79 793.879 2878.06 791.763 2883.94 789.759 2889.82 788.757 2895.81 788.757 2901.92ZM981.286 2961 981.286 2842.83 992.975 2842.83 992.975 2950.68 1061.44 2950.68 1061.44 2961 981.286 2961ZM1192.81 2961.83C1183.46 2961.83 1175.56 2960.17 1169.1 2956.84 1162.64 2953.51 1157.52 2949.07 1153.74 2943.53 1149.95 2937.87 1147.17 2931.49 1145.39 2924.39 1143.72 2917.28 1142.89 2909.96 1142.89 2902.42L1142.89 2842.83 1154.41 2842.83 1154.41 2902.42C1154.41 2908.52 1155.02 2914.51 1156.24 2920.39 1157.58 2926.27 1159.69 2931.54 1162.59 2936.2 1165.48 2940.86 1169.38 2944.58 1174.28 2947.35 1179.18 2950.02 1185.3 2951.35 1192.65 2951.35 1200.22 2951.35 1206.45 2949.96 1211.35 2947.19 1216.36 2944.3 1220.25 2940.53 1223.04 2935.87 1225.93 2931.21 1227.99 2926 1229.22 2920.23 1230.44 2914.35 1231.05 2908.41 1231.05 2902.42L1231.05 2842.83 1242.74 2842.83 1242.74 2902.42C1242.74 2910.29 1241.85 2917.84 1240.07 2925.05 1238.29 2932.26 1235.39 2938.59 1231.39 2944.03 1227.49 2949.46 1222.37 2953.79 1216.02 2957.01 1209.68 2960.22 1201.94 2961.83 1192.81 2961.83ZM1425.74 2853.15 1383.49 2853.15 1383.49 2961 1371.8 2961 1371.8 2853.15 1329.55 2853.15 1329.55 2842.83 1425.74 2842.83 1425.74 2853.15ZM1514.47 2961 1514.47 2842.83 1526.15 2842.83 1526.15 2961 1514.47 2961ZM1674.61 2961.83C1666.26 2961.83 1658.69 2960.17 1651.9 2956.84 1645.11 2953.51 1639.27 2949.02 1634.37 2943.36 1629.47 2937.59 1625.69 2931.16 1623.01 2924.05 1620.34 2916.84 1619.01 2909.46 1619.01 2901.92 1619.01 2894.04 1620.4 2886.55 1623.18 2879.45 1625.96 2872.24 1629.86 2865.86 1634.87 2860.31 1639.99 2854.65 1645.95 2850.21 1652.74 2846.99 1659.53 2843.66 1666.87 2842 1674.78 2842 1683.13 2842 1690.7 2843.72 1697.49 2847.16 1704.28 2850.6 1710.07 2855.2 1714.86 2860.97 1719.75 2866.74 1723.54 2873.18 1726.21 2880.28 1728.88 2887.38 1730.22 2894.65 1730.22 2902.08 1730.22 2909.96 1728.82 2917.51 1726.04 2924.72 1723.26 2931.82 1719.36 2938.2 1714.35 2943.86 1709.34 2949.41 1703.44 2953.79 1696.65 2957.01 1689.86 2960.22 1682.51 2961.83 1674.61 2961.83ZM1630.69 2901.92C1630.69 2908.35 1631.75 2914.57 1633.87 2920.56 1635.98 2926.44 1638.99 2931.71 1642.88 2936.37 1646.78 2940.92 1651.4 2944.58 1656.74 2947.35 1662.2 2950.02 1668.15 2951.35 1674.61 2951.35 1681.4 2951.35 1687.47 2949.96 1692.81 2947.19 1698.27 2944.3 1702.89 2940.53 1706.67 2935.87 1710.57 2931.1 1713.52 2925.77 1715.52 2919.89 1717.53 2914.01 1718.53 2908.02 1718.53 2901.92 1718.53 2895.48 1717.47 2889.32 1715.36 2883.44 1713.24 2877.56 1710.18 2872.29 1706.17 2867.63 1702.27 2862.97 1697.66 2859.31 1692.31 2856.65 1686.97 2853.98 1681.07 2852.65 1674.61 2852.65 1667.93 2852.65 1661.86 2854.04 1656.41 2856.81 1651.07 2859.59 1646.45 2863.36 1642.55 2868.13 1638.77 2872.79 1635.81 2878.06 1633.7 2883.94 1631.7 2889.82 1630.69 2895.81 1630.69 2901.92ZM1834.91 2864.3 1834.91 2961 1823.22 2961 1823.22 2842.83 1832.91 2842.83 1910.72 2941.36 1910.72 2843 1922.41 2843 1922.41 2961 1911.56 2961 1834.91 2864.3ZM2092.48 2864.97C2090.81 2863.08 2088.86 2861.42 2086.63 2859.98 2084.41 2858.42 2081.9 2857.09 2079.12 2855.98 2076.34 2854.87 2073.33 2853.98 2070.1 2853.32 2066.99 2852.65 2063.65 2852.32 2060.08 2852.32 2049.73 2852.32 2042.11 2854.32 2037.21 2858.31 2032.42 2862.19 2030.03 2867.52 2030.03 2874.29 2030.03 2878.95 2031.14 2882.61 2033.37 2885.27 2035.7 2887.94 2039.32 2890.1 2044.22 2891.76 2049.12 2893.43 2055.35 2895.15 2062.92 2896.92 2071.38 2898.7 2078.68 2900.81 2084.8 2903.25 2090.92 2905.69 2095.65 2909.02 2098.99 2913.23 2102.33 2917.34 2104 2922.94 2104 2930.04 2104 2935.48 2102.94 2940.2 2100.83 2944.19 2098.71 2948.19 2095.76 2951.52 2091.98 2954.18 2088.19 2956.84 2083.69 2958.84 2078.45 2960.17 2073.22 2961.39 2067.49 2962 2061.25 2962 2055.13 2962 2049.23 2961.39 2043.55 2960.17 2037.99 2958.84 2032.7 2956.95 2027.69 2954.51 2022.68 2951.96 2018 2948.74 2013.66 2944.86L2019.51 2935.37C2021.62 2937.59 2024.13 2939.7 2027.02 2941.7 2030.03 2943.58 2033.31 2945.3 2036.87 2946.85 2040.55 2948.41 2044.44 2949.63 2048.56 2950.52 2052.79 2951.29 2057.14 2951.68 2061.59 2951.68 2071.05 2951.68 2078.4 2949.96 2083.63 2946.52 2088.97 2943.08 2091.64 2937.98 2091.64 2931.21 2091.64 2926.33 2090.31 2922.44 2087.64 2919.56 2084.96 2916.56 2080.96 2914.12 2075.61 2912.24 2070.27 2910.35 2063.7 2908.52 2055.91 2906.74 2047.67 2904.86 2040.71 2902.75 2035.04 2900.42 2029.36 2898.09 2025.07 2895.04 2022.18 2891.27 2019.4 2887.38 2018 2882.28 2018 2875.95 2018 2868.63 2019.79 2862.47 2023.35 2857.48 2027.02 2852.37 2032.03 2848.55 2038.38 2845.99 2044.72 2843.33 2052.01 2842 2060.25 2842 2065.48 2842 2070.33 2842.55 2074.78 2843.66 2079.34 2844.66 2083.52 2846.16 2087.3 2848.16 2091.2 2850.16 2094.82 2852.65 2098.16 2855.65L2092.48 2864.97Z" fill="#FFF5F5" fill-rule="evenodd"/></g></svg>