<svg width="1618" height="1617" xmlns="http://www.w3.org/2000/svg" xmlns:xlink="http://www.w3.org/1999/xlink" overflow="hidden"><defs><clipPath id="clip0"><rect x="1391" y="429" width="1618" height="1617"/></clipPath><clipPath id="clip1"><rect x="1633" y="669" width="1134" height="1137"/></clipPath><clipPath id="clip2"><rect x="1633" y="669" width="1134" height="1137"/></clipPath><clipPath id="clip3"><rect x="1633" y="669" width="1134" height="1137"/></clipPath><clipPath id="clip4"><rect x="1633" y="669" width="1134" height="1137"/></clipPath></defs><g clip-path="url(#clip0)" transform="translate(-1391 -429)"><path d="M1391 1237.5C1391 790.978 1753.2 429 2200 429 2646.8 429 3009 790.978 3009 1237.5 3009 1684.02 2646.8 2046 2200 2046 1753.2 2046 1391 1684.02 1391 1237.5Z" fill="#BF1B1B" fill-rule="evenodd"/><g clip-path="url(#clip1)"><g clip-path="url(#clip2)"><g clip-path="url(#clip3)"><g clip-path="url(#clip4)"><path d="M1495.14 1185.48C1467.71 1158.04 1467.71 1113.57 1495.14 1086.14L1991.86 589.43C2019.29 561.997 2063.77 561.997 2091.2 589.43L2140.87 639.101 1544.82 1235.15 1495.14 1185.48Z" fill="#FFF5F5" fill-rule="evenodd" transform="matrix(1 0 0 1.00088 158.429 100.642)"/><path d="M1545.1 1235.29 1602.81 1094.1 1833.7 1325.46 1694.06 1384.56 1545.1 1235.29Z" fill="#FFF5F5" fill-rule="evenodd" transform="matrix(1 0 0 1.00088 158.429 100.642)"/><path d="M2240.92 838.112 1694.5 1383.98 1744.18 1433.6C1771.61 1461 1816.1 1461 1843.53 1433.6L2290.6 986.979 2455.96 1152.18 2538.97 1036.61 2340.27 838.112C2312.84 810.705 2268.36 810.705 2240.92 838.112Z" fill="#FFF5F5" fill-rule="evenodd" transform="matrix(1 0 0 1.00088 158.429 100.642)"/><path d="M2538.36 1036.56 2041.53 1533.65 1929.01 1421.06 1880.56 1469.52C1861.58 1488.53 1837.91 1500.01 1813.29 1503.97L1942.58 1633.33 1942.96 1632.95 1992.27 1682.28C2019.69 1709.71 2064.14 1709.71 2091.56 1682.28L2588.01 1185.57C2615.43 1158.15 2615.43 1113.67 2588.01 1086.23L2538.36 1036.56Z" fill="#FFF5F5" fill-rule="evenodd" transform="matrix(1 0 0 1.00088 158.429 100.642)"/><path d="M2268 766.148 2140.87 639.383 2008.16 705.22 2152.47 849.108 2201.32 800.391C2220.15 781.608 2243.58 770.195 2268 766.148Z" fill="#FFF5F5" fill-rule="evenodd" transform="matrix(1 0 0 1.00088 158.429 100.642)"/></g></g></g></g></g></svg>